<?xml version="1.0" encoding="UTF-8"?>
<svg width="100px" height="100px" viewBox="0 0 100 100" version="1.1" xmlns="http://www.w3.org/2000/svg" xmlns:xlink="http://www.w3.org/1999/xlink">
    <!-- Generator: Sketch 58 (84663) - https://sketch.com -->
    <title>ic/ic_05</title>
    <desc>Created with Sketch.</desc>
    <g id="ic/ic_05" stroke="none" stroke-width="1" fill="none" fill-rule="evenodd">
        <circle id="Oval" fill="#FDF1E0" cx="50" cy="50" r="46"></circle>
        <path d="M32.4,60.9790654 L32.4,63.962872 C33.1699527,64.4327483 39.3215932,67.5934666 49.9999995,67.5934654 C60.6784058,67.5934641 66.830853,64.4361073 67.6,63.966488 L67.6,60.9790654 C67.6,57.2035767 59.2245043,54.2673832 58.6274737,54.0426203 C56.7540435,57.4048726 53.984367,59.8999993 50,59.9 C46.0177445,59.9000007 43.2488924,57.407518 41.3755054,54.0479662 C40.7845332,54.2700639 32.4,57.1959229 32.4,60.9790654 Z M37.9,39.393027 C37.9,33.1008319 43.3173545,28 50,28 C56.6826455,28 62.1,33.1008319 62.1,39.393027 C62.1,42.0631321 61.633617,46.1598926 60.3699612,49.9916826 C64.7763612,51.6750558 72,54.4016113 72,60.9790654 L72,65.394796 C72,67.8259185 62.5068604,71.9999985 50,72 C37.4931396,72.0000015 28,67.8176244 28,65.394796 L28,60.9790654 C28,54.3789185 35.2276819,51.6774204 39.6319064,49.9973449 C38.3668425,46.1639289 37.9,42.0644472 37.9,39.393027 Z M49.9999993,55.5 C54.3330731,55.4999993 57.7,47.5417939 57.7,39.393027 C57.7,35.5920805 54.3098409,32.4 50,32.4 C45.6901591,32.4 42.3,35.5920805 42.3,39.393027 C42.3,47.5417945 45.6669269,55.5000007 49.9999993,55.5 Z" id="Shape" fill="#EFAD4E"></path>
    </g>
</svg>