<?xml version="1.0" encoding="UTF-8"?>
<svg width="140px" height="40px" viewBox="0 0 140 40" version="1.1" xmlns="http://www.w3.org/2000/svg" xmlns:xlink="http://www.w3.org/1999/xlink">
    <!-- Generator: Sketch 58 (84663) - https://sketch.com -->
    <title>footer/logo_firstbank</title>
    <desc>Created with Sketch.</desc>
    <g id="footer/logo_firstbank" stroke="none" stroke-width="1" fill="none" fill-rule="evenodd">
        <path d="M23.472,4.352 C32.359,4.352 39.565,11.199 39.565,19.987 C39.565,30.641 30.824,39.269 20.04,39.269 L20.039,39.269 C19.7454631,39.269 19.4534412,39.2626036 19.1630688,39.2499445 C19.1533436,39.2494765 19.1433656,39.2490337 19.1333896,39.2485834 L18.8938981,39.2363926 C18.8157627,39.2318693 18.7377953,39.2269524 18.6599538,39.221585 C18.608872,39.2181353 18.5574687,39.2143938 18.5061211,39.2104561 C18.408451,39.2028831 18.3112797,39.1947043 18.2143141,39.1858254 C18.1479723,39.1798461 18.0815787,39.1734325 18.0152834,39.1666913 L17.7555124,39.1384308 C17.6968018,39.1317933 17.6379815,39.1247601 17.5792424,39.1174693 C17.4922742,39.1065464 17.4053722,39.0951675 17.3186525,39.0832261 C17.2473328,39.0735448 17.1766519,39.0634221 17.1060947,39.0529267 C17.0309257,39.0415924 16.9559265,39.0299884 16.8810701,39.0179642 C16.7919415,39.0038156 16.7024113,38.9888051 16.6130908,38.9731949 C16.5602355,38.9637804 16.5073514,38.9543119 16.4545419,38.9446336 C16.3550565,38.9265867 16.256388,38.9077218 16.1579876,38.8881264 C16.1139117,38.8791483 16.0696311,38.8701694 16.0254055,38.8610428 C15.9393974,38.8435046 15.8536361,38.8252099 15.7680863,38.806361 C15.6972111,38.7905219 15.6262643,38.7744724 15.555466,38.7580426 C15.4978528,38.7449063 15.4407804,38.731393 15.3838062,38.7176328 C15.3020052,38.6976324 15.2200044,38.6772621 15.1382115,38.6563816 C15.0450137,38.632849 14.952287,38.6084533 14.8598342,38.5834035 C14.8221299,38.5729145 14.7844681,38.5625868 14.7468523,38.5521507 C14.6442667,38.5239733 14.5419094,38.4946784 14.4399021,38.4645826 C14.4045836,38.4538653 14.3692937,38.4433429 14.3340461,38.4327248 C14.2320028,38.4022919 14.1303495,38.3707663 14.0290581,38.338446 C13.9889621,38.3253304 13.9489842,38.3124294 13.9090633,38.2994048 C13.8148298,38.2689927 13.7207683,38.2375151 13.6270313,38.2053523 C13.5792879,38.1886247 13.5316353,38.1720647 13.4840677,38.1553278 L13.2608082,38.075613 C13.1861851,38.04797 13.11156,38.0201731 13.0371541,37.9919396 L12.8678998,37.9272059 C12.7886927,37.8959188 12.7093554,37.8643698 12.6302779,37.8323234 C12.5717156,37.8089994 12.513413,37.7850462 12.455254,37.7608229 C12.3943443,37.7350332 12.333672,37.7093979 12.2731585,37.683469 C12.1834821,37.6454788 12.0941362,37.6064071 12.0051453,37.5666962 L11.8891767,37.51404 C11.8138443,37.4802884 11.7388713,37.4456709 11.6641593,37.410599 C11.5889461,37.3748158 11.5142385,37.3391584 11.4397974,37.303047 L11.2759235,37.2231018 L11.0910521,37.1295615 C11.011011,37.0892589 10.9317495,37.0481574 10.8528112,37.0065365 L10.7562094,36.9547226 C10.6659389,36.9070125 10.5764184,36.8582653 10.4873297,36.8088485 C10.4343136,36.7788818 10.3815314,36.7492785 10.3289031,36.7194404 C10.2612072,36.681631 10.1938751,36.6429296 10.1268001,36.6038439 C10.0896601,36.5816171 10.052293,36.5596741 10.0150066,36.5376119 C8.82360751,35.8333196 7.714843,35.0069538 6.70594064,34.0763693 L6.401,33.789 L6.554,33.637 L6.555,33.638 L6.557,33.637 L6.557,33.636 L6.666,33.527 C9.413,35.509 12.787,36.679 16.433,36.679 C25.656,36.679 33.391,30.561 33.391,19.958 C33.391,12.7963099 27.4071873,6.96046776 20.2647977,6.79749853 L19.958,6.794 L19.56651,6.79970262 C17.7627302,6.85231921 16.0510795,7.26734058 14.4999214,7.97389265 C13.6251109,8.37229372 12.8013474,8.8637247 12.0408941,9.43548471 L11.666,9.728 L11.501,9.564 L11.454,9.517 L11.407,9.471 C14.358,6.177 18.666,4.352 23.47,4.352 L23.472,4.352 Z M19.525,0.729 C24.6794,0.729 29.3676253,2.70410857 32.8581402,5.92462346 L33.163,6.212 L33.012,6.363 L33.01,6.362 L32.899,6.473 C30.155,4.491 26.779,3.319 23.132,3.319 C13.909,3.319 6.176,9.44 6.176,20.043 C6.176,27.307 12.333,33.208 19.607,33.208 C22.6190417,33.208 25.3913802,32.1950017 27.6133276,30.4972959 L27.9,30.272 L28.065,30.434 L27.937,30.539 L27.98,30.505 L28.066,30.434 L28.159,30.529 C25.21,33.823 20.9,35.647 16.095,35.647 C7.206,35.647 1.84741111e-12,28.8 1.84741111e-12,20.011 C1.84741111e-12,9.36 8.741,0.729 19.525,0.729 Z M101.931,9.936 C101.931,9.936 102.182816,12.1654229 104.442046,14.693663 L104.635,14.905 L103.985,15.918 C103.985,15.918 101.943,14.772 100.304,12.58 C99.5866667,13.636 98.7634568,14.5813827 98.0289163,15.3381893 L97.758,15.613 L103.353,15.613 L103.353,17.107 L101.627,17.107 L101.627,19.017 L104.057,19.017 L104.057,20.509 L101.628,20.509 L101.628,26.649 L104.065,26.121 L103.933,27.579 L96.067,30.26 L95.386,28.007 L99.006,27.223 L99.006,25.454 L96.999,26.694 C96.7865862,25.0178621 95.7892402,22.4234839 95.7207103,22.2465543 L95.717,22.237 L96.765,21.661 C97.2788824,22.1927647 98.3986609,24.1205709 98.9162949,24.9599733 L99.006,25.104 L99.006,20.508 L95.978,20.508 L95.978,19.016 L99.006,19.016 L99.006,17.106 L97.281,17.106 L97.281,16.083 C96.570375,16.7551875 96.0539883,17.1680977 95.9922158,17.2170857 L95.986,17.222 L95.278,16.243 C97.9952093,13.363 98.7169616,10.3834867 98.8044452,9.9817591 L98.814,9.936 L101.931,9.936 Z M66.746,15.502 L66.746,18.227 C66.746,20.2462143 66.2857258,20.4801224 65.3517277,20.4942546 L59.572,20.495 L59.572,22.501 L67.751,22.501 L67.751,26.694 C67.751,28.7132143 67.2916556,28.9461926 66.3568274,28.9602584 L61.772,28.961 L61.772,27.47 L65.13,27.47 L65.13,23.994 L59.571,23.994 L59.571,30.26 L56.952,30.26 L56.952,25.16 C53.6323922,28.9031373 48.7364675,30.1155171 48.5457467,30.1616223 L48.54,30.163 L47.932,28.998 C52.5376667,26.866 54.1558418,24.8474008 54.5754128,24.0501404 L54.604,23.994 L49.894,23.994 C48.9281481,23.994 48.4342908,23.5572428 48.3990337,21.6550462 L48.397,21.429 L48.397,19.004 L56.953,19.004 L56.953,16.995 L49.66,16.995 L49.66,15.502 L66.746,15.502 Z M114.875,10.594 L114.875,17.685 C114.875,19.7003571 114.415656,19.9350574 113.479034,19.9492511 L113.373,19.95 L111.955,19.95 C111.937,20.952 112.019,21.865 112.172,22.689 C112.819111,22.2756667 113.670074,21.661642 114.326667,20.9312058 L114.563,20.652 L115.864,22.507 C115.864,22.507 115.063,23.221 112.522,24.069 C113.600286,27.4524857 115.83929,28.9910898 115.963605,29.076248 L115.969003,29.08 L115.195,29.981 C109.911836,27.5264545 109.50249,21.6122317 109.489351,20.0332136 L109.489,19.95 L107.633,19.95 L107.633,28.237 L110.896,27.526 L110.896,29.018 L107.037,29.86 C106.895,29.891 106.722,29.93 106.505,29.971 C105.554214,30.1580714 105.053474,29.833727 105.01892,27.934554 L105.017,27.717 L105.017,10.594 L114.875,10.594 Z M124.817,14.409 L127.871,15.267 C127.29,16.205875 126.54975,17.1370938 125.764137,18.0070625 L125.425,18.376 L125.425,29.982 L122.806,29.982 L122.806,20.907 C121.603273,21.9655909 120.68756,22.6569855 120.606798,22.7176524 L120.601,22.722 L119.545,21.88 C123.079894,18.4839362 124.678708,14.7422748 124.808376,14.429985 L124.817,14.409 Z M140,16.548 L140,18.04 L138.15,18.04 L138.15,27.716 C138.15,29.7332857 137.690656,29.9661952 136.757621,29.9802585 L136.652,29.981 L132.35,29.981 L132.35,28.491 L135.532,28.491 L135.532,18.041 L127.651,18.041 L127.651,16.548 L140,16.548 Z M19.7818924,13.6658676 L19.783,13.666 L19.783,13.667 L26.11699,19.9991736 L26.115,20 L26.117,20.001 L26.118,20.001 L20.419,25.698 L19.783684,26.3342712 L19.783,26.336 L19.782,26.334 L13.4485864,20.0009652 L19.7818924,13.6658676 Z M102.724,21.489 L104.745,22.215 C104.745,22.215 103.466339,24.5458062 102.911925,25.4345181 L102.849,25.534 L101.646,25.162 C101.646,25.162 102.396,23.829 102.724,21.489 Z M56.953,20.495 L51.016,20.495 L51.016,22.502 L56.953,22.502 L56.953,20.495 Z M91.184,18.938 L91.184,20.953 L71.262,20.953 L71.262,18.938 L91.184,18.938 Z M64.126,16.995 L59.572,16.995 L59.572,19.004 L64.126,19.004 L64.126,16.995 Z M112.253,16.045 L107.635,16.045 L107.635,18.46 L112.253,18.46 L112.253,16.045 Z M124.352,9.553 L127.412,10.412 C125.112109,14.1156957 121.086757,16.6566432 120.912828,16.7653688 L120.907,16.769 L119.854,15.93 C123.545,12.381 124.352,9.553 124.352,9.553 Z M60.913,9.255 L63.783,10.115 C63.583,10.399 63.3847778,10.6701111 63.1883333,10.9286296 L62.895,11.307 L67.868,11.307 L67.868,12.8 L64.658,12.8 C65.5136667,13.5659444 66.1160123,14.2792623 66.1802987,14.3561559 L66.186,14.363 L64.054,15.04 C63.677,13.9777143 63.007699,13.2680867 62.6914257,12.8830944 L62.625,12.8 L61.577,12.8 C59.9817143,14.5475714 58.9572347,15.1311122 58.8190197,15.205559 L58.803,15.214 L57.748,14.527 C60.395,11.827 60.913,9.255 60.913,9.255 Z M50.89,9.255 L53.762,10.115 C53.5626667,10.399 53.3633333,10.6701111 53.1660741,10.9286296 L52.872,11.307 L57.994,11.307 L57.994,12.8 L54.636,12.8 C55.4916667,13.5659444 56.0940123,14.2792623 56.1582987,14.3561559 L56.164,14.363 L54.032,15.04 C53.6559286,13.9777143 52.9892806,13.2680867 52.6725809,12.8830944 L52.606,12.8 L51.557,12.8 C49.9598571,14.5475714 48.9335204,15.1311122 48.7950496,15.205559 L48.779,15.214 L47.727,14.527 C50.376,11.827 50.89,9.255 50.89,9.255 Z M112.253,12.087 L107.635,12.087 L107.635,14.553 L112.253,14.553 L112.253,12.087 Z M140,11.079 L140,12.569 L128.686,12.569 L128.686,11.079 L140,11.079 Z" id="Combined-Shape" fill="#5DC58A"></path>
    </g>
</svg>