<?xml version="1.0" encoding="UTF-8"?>
<svg width="400px" height="320px" viewBox="0 0 400 320" version="1.1" xmlns="http://www.w3.org/2000/svg" xmlns:xlink="http://www.w3.org/1999/xlink">
    <!-- Generator: Sketch 64 (93537) - https://sketch.com -->
    <title>img/main/house_empty</title>
    <desc>Created with Sketch.</desc>
    <g id="img/main/house_empty" stroke="none" stroke-width="1" fill="none" fill-rule="evenodd">
        <g id="Group" transform="translate(19.000000, 177.000000)">
            <polygon id="Path-10" fill="#D3F3D9" points="0.330139197 33.1835906 241.35036 15.6121106 361.610113 21.9744339 241.878913 86.6121106"></polygon>
            <path d="M165.91272,36.0290828 L99.8412249,36.3755551 C96.0685267,31.5849983 87.2866091,19.5908976 90.8221663,16.0414815 C93.1473804,13.7085681 100.118403,21.2139278 102.000132,18.9672475 C103.881862,16.7205672 91.5289698,2.68612972 94.6610793,0.708927867 C100.192317,-2.77427353 117.987134,22.2317864 120.28309,20.2191674 C122.697617,18.1033766 111.351804,3.39755282 115.347785,1.83919746 C120.004372,0.026762429 132.331086,22.5151237 135.891282,20.2191674 C137.757612,19.0165235 134.135822,11.6851699 136.827527,10.4317102 C141.513372,8.24816485 149.332866,29.4245511 152.65746,27.538202 C154.229675,26.6435335 152.461896,23.5837982 154.813288,22.8230991 C157.700557,21.8899337 163.502813,31.6850903 165.91272,36.0290828 Z" id="Path" fill="#B0D9B8" fill-rule="nonzero"></path>
            <path d="M270.013685,56 C267.685394,53.0435465 262.265705,45.6414842 264.447645,43.4509907 C265.882632,42.011252 270.184743,46.6431241 271.346037,45.2566035 C272.507331,43.8700829 264.883843,35.2088432 266.8168,33.988629 C270.230358,31.8389994 281.212286,47.2712873 282.629216,46.0292158 C284.119322,44.7234726 279.232443,37.0742489 279.583433,34.6861658 C280.353191,29.4488447 284.484168,33.230322 285.710181,34.6861658 C287.886461,37.2704172 290.999881,43.6138937 295.05044,53.7165952 L270.013685,56 Z" id="Path-Copy" fill="#B0D9B8" fill-rule="nonzero" transform="translate(279.495346, 44.000000) scale(-1, 1) translate(-279.495346, -44.000000) "></path>
            <path d="M231.323814,29 C231.136599,29.2465753 219.104636,45.0479452 218.796416,57.4315068 L209.079521,57.4315068 C210.380891,53.4086758 216.022444,38.6598174 231.323814,29 Z" id="Path" fill="#A6D8BC" fill-rule="nonzero"></path>
            <path d="M203.846645,57.4497717 L196.104636,57.4497717 C194.572672,51.630137 189.940252,48.0022831 189.940252,48.0022831 C189.940252,48.0022831 199.143448,49.803653 203.846645,57.4497717 Z" id="Path" fill="#A6D8BC" fill-rule="nonzero"></path>
            <path d="M279.757604,10 C279.604636,10.2945205 276.533859,15.6164384 275.72564,21.8401826 L263.558974,23.086758 C262.730206,17.5547945 260.940252,14.4748858 260.940252,14.4748858 C260.940252,14.4748858 266.049841,15.9611872 268.775869,20.3059361 C268.775869,20.3059361 271.944818,13.6210046 279.757604,10 Z" id="Path" fill="#A6D8BC" fill-rule="nonzero"></path>
        </g>
    </g>
</svg>