<?xml version="1.0" encoding="UTF-8"?>
<svg width="135px" height="40px" viewBox="0 0 135 40" version="1.1" xmlns="http://www.w3.org/2000/svg" xmlns:xlink="http://www.w3.org/1999/xlink">
    <!-- Generator: Sketch 64 (93537) - https://sketch.com -->
    <title>logo/etime</title>
    <desc>Created with Sketch.</desc>
    <g id="logo/etime" stroke="none" stroke-width="1" fill="none" fill-rule="evenodd">
        <path d="M27.0813994,11.371984 L29.8421053,13.5825104 L27.4802632,13.5825104 C27.1127837,18.4390357 26.0033486,22.4946434 24.1519578,25.7493335 C25.4371698,27.8828158 27.3539559,29.5586017 29.9009893,30.7762879 C28.7742141,31.2105612 27.8268311,32.0605555 27.0588404,33.3262708 C25.2021142,31.9620958 23.8613592,30.0161511 23.0365754,27.4884369 C20.970051,30.3596405 18.2017289,32.4754045 14.7329783,33.8350782 C21.0787278,29.1533152 24.4564392,22.569577 24.8661126,14.0838637 L24.8867877,13.5825104 L25.4210526,13.5825104 L27.0813994,11.371984 Z M12.542941,6.80093141 L15.5255591,7.85415269 L14.9210526,8.6147085 L14.9210526,15.7930367 L10.961,15.7920592 L10.9617626,16.3352511 L8.56105496,17.1337473 L8.561,14.6320592 L7.78348867,14.9818139 C6.82905362,16.500703 5.86802089,17.8347803 4.90039046,18.9840456 L6.37101765,19.6919902 L5.75546539,20.2823826 L5.75546539,32.5404881 L3.18550882,33.3389844 L3.18514543,20.8210913 C2.13113436,21.8279243 1.06941922,22.6189539 3.19744231e-14,23.1941801 C2.18340422,20.7509326 3.94472283,17.4715532 5.28395584,13.3560419 L5.46396229,12.7896532 L8.561,14.5640592 L8.56105496,8.79717201 L11.5436731,9.85039329 L10.9617626,10.6109491 L10.961,15.2400592 L12.542,15.2400592 L12.542941,6.80093141 Z M44.1989349,14.5862698 L47.678656,15.8150279 L46.9862552,16.702343 L46.9862552,32.6185216 L46.9727546,32.618 L46.9736842,32.9246156 L32.0526316,32.9246156 L32.0526316,32.371984 L37.2297546,32.371 L37.2306344,19.7764953 L40.7103555,21.0052535 L40.0314599,21.8925686 L40.0307546,32.371 L44.1987546,32.371 L44.1989349,14.5862698 Z M55.8182415,30.7140893 L58.5789474,32.9246156 L54.1578947,32.9246156 L55.8182415,30.7140893 Z M21.430752,6.77101943 L24.9397948,7.76471147 L24.2117102,8.33691937 C22.6231561,13.5633822 20.8441373,17.2508344 18.8746539,19.399276 L19.8947368,20.2140893 L16.923,20.2140592 L16.9235222,26.3970167 C17.967503,25.9652389 19.0384229,25.4475175 20.1362819,24.8438525 C18.9656378,26.7225083 16.9283113,28.4840466 14.0243024,30.1284676 L13.5730369,30.9371013 L12.1977799,27.7964772 C12.8955539,27.6790361 13.6075822,27.5161189 14.3338651,27.3077256 L14.334,20.2140592 L12.2811693,20.2151377 C12.2046471,21.9490909 12.0511773,23.5403968 11.8207597,24.9890554 L11.7300374,25.5296256 C11.2712366,28.1243412 9.41853191,30.3977941 6.17192335,32.3499844 C8.38662962,30.2575707 9.54223196,26.3636855 9.63873037,20.6683286 L9.644,20.202 L9.644,20.2140592 L7.73684211,20.2140893 L7.73684211,19.6614577 L16.994,19.6610592 L17.8242075,18.5561946 L18.6477458,19.216796 C20.0246726,16.228288 20.9523413,12.0796958 21.430752,6.77101943 Z M52.5024521,21.3193525 L55.2631579,23.5298788 L50.8421053,23.5298788 L52.5024521,21.3193525 Z M59.854419,17.4601254 C58.352981,18.0300807 57.4492147,19.1215148 57.1431202,20.7344278 C51.4453961,17.4283388 47.6116166,13.4004942 45.6417816,8.65089405 C42.2668521,14.6208659 37.4715663,18.57547 31.2567546,20.514539 C37.0461041,16.6432517 41.0969712,11.805072 43.4093557,6 L46.9889614,7.56846275 L45.9104755,8.1672856 C45.9095629,8.16896642 45.9086503,8.17064709 45.9077375,8.17232761 L45.7399163,7.8874304 C48.4627512,12.6414982 53.1675854,15.8323965 59.854419,17.4601254 Z M16.524827,8.79717201 L19.5074451,9.85039329 L18.9255346,10.6109491 L18.9255346,16.3352511 L16.524827,17.1337473 L16.524827,8.79717201 Z M5.259424,6.20205923 L8.42383738,8.01514865 L7.57895038,8.39421992 C4.86586926,11.6102012 2.472282,13.6984398 0.398188603,14.6589356 C2.68362527,12.0434186 4.30403707,9.22445977 5.259424,6.20205923 Z" id="Combined-Shape" fill="#3C3030"></path>
        <path d="M131.343522,31.9130528 C133.442567,33.8810391 130.45275,35.4906903 128.813041,33.4174462 C127.492702,31.7480123 125.547093,30.6348417 122.976215,30.0779346 C126.813004,29.6686606 129.602107,30.2803667 131.343522,31.9130528 Z M97.2314161,17.7778195 L100.711137,19.0065777 L100.018736,19.8938928 L100.018714,21.669 L101.283714,21.669 L102.528768,20.0120301 L105.289474,22.2225564 L100.018714,22.222 L100.018736,31.1404128 C100.018736,32.7602789 98.8502958,33.7556699 96.5134148,34.126586 C96.0531575,32.3544576 94.7417785,31.3660038 92.5792778,31.1612247 L92.3156923,31.1404128 L96.8335214,31.1404128 C97.0258037,31.1404128 97.1862301,31.0040217 97.2233323,30.8227077 L97.2314161,30.7425181 L97.230714,22.222 L87.0526316,22.2225564 L87.0526316,21.6699248 L97.230714,21.669 L97.2314161,17.7778195 Z M115.615947,29.356015 L118.422127,31.6843451 L116.903255,31.834648 C114.587099,33.1795761 111.434967,33.8520401 107.446859,33.8520401 C110.503491,32.9932408 113.22652,31.4945658 115.615947,29.356015 Z M66.1738027,11.7007938 C66.1618629,11.7527634 66.1241038,11.7932117 66.0643351,11.8231361 C66.3422157,12.3468312 66.5371231,13.0229765 66.6479042,13.8504397 C66.7878311,14.8956027 66.7878311,15.9363083 66.6479042,16.9725564 L66.6759987,16.7262722 C66.8989727,16.7062511 67.1262204,16.6962406 67.3577422,16.6962406 C68.2601113,16.6962406 69.1104079,16.8086079 69.9086575,17.0333459 C70.7069071,17.2580838 71.4010268,17.6008041 71.9910374,18.0615169 C72.581048,18.5222297 73.0611474,19.1009213 73.4313501,19.797609 C73.8015528,20.4942967 74.0213574,21.314578 74.0907704,22.2584774 L62.9500381,22.2584774 C62.9500381,22.4382678 62.9384695,22.6461473 62.9153318,22.8821222 C62.8921941,23.118097 62.8806255,23.3596867 62.8806255,23.6068985 C62.8806255,24.550798 63.0194494,25.4553547 63.2971014,26.3205959 C63.5747535,27.185837 63.9796566,27.9499347 64.511823,28.6129117 C65.0439894,29.2758887 65.7149718,29.7983966 66.5247902,30.1804511 C67.3346087,30.5625057 68.2716702,30.7535301 69.3360031,30.7535301 C70.4928865,30.7535301 71.5051444,30.4669935 72.372807,29.8939117 C73.2404696,29.3208298 73.8131184,28.6185342 74.0907704,27.7870038 L74.3684211,27.8544248 C74.2758704,28.3488483 74.0676345,28.9050665 73.7437071,29.5230959 C73.4197797,30.1411253 72.9801706,30.7085801 72.4248665,31.2254774 C71.8695624,31.7423748 71.2043644,32.1693705 70.4292525,32.5064774 C69.6541405,32.8435844 68.7922753,33.0121353 67.8436308,33.0121353 C66.6636097,33.0121353 65.5877242,32.7986375 64.615942,32.3716353 C63.6441599,31.9446332 62.8170006,31.3434682 62.1344394,30.5681222 C61.4518781,29.7927762 60.925504,28.8826011 60.5553013,27.8375695 C60.1850986,26.792538 60,25.6857201 60,24.5170827 C60,23.5731833 60.1735299,22.6349163 60.520595,21.7022538 C60.86766,20.7695912 61.3593281,19.9324548 61.995614,19.1908195 C62.6319,18.4491843 63.4070003,17.8480192 64.3209382,17.3873064 C64.9319878,17.0792785 65.5869875,16.8742243 66.2859465,16.7721418 C66.4494462,15.4807939 66.486471,14.531426 66.3986995,13.923917 C66.3064447,13.2853777 66.0156502,12.5134479 65.5263158,11.6081276 L65.6750261,11.8899966 C64.0429411,11.909633 59.1399759,10.1269509 61.6357127,9.33602327 C64.5663129,8.40728246 66.4426721,10.5305063 66.1738027,11.7007938 Z M84.0458202,7.30150376 L87.0526316,9.51203008 L86.342714,9.512 L86.3428633,28.8341397 L83.555543,29.6326359 L83.554714,18.685 L80.369714,18.685 L80.3700342,29.3526316 L77.582714,30.1511278 L77.582714,8.19586466 L80.3700342,8.9943609 L80.369714,18.133 L83.554714,18.133 L83.554714,9.512 L82.6315789,9.51203008 L84.0458202,7.30150376 Z M120.188895,6.19962406 L123.4984,6.85273979 C123.213822,7.13433838 122.962167,7.39766084 122.743436,7.64270717 C124.169663,12.9887916 127.397897,14.1510071 129.71684,14.92572 C132.035783,15.7004329 132.690374,13.4808824 133.355755,12.0697661 C131.937403,16.2972984 134.774108,16.6925587 134.455246,17.062565 C134.210098,17.3470338 132.51576,18.4696828 129.347141,17.6390978 L129.347232,28.5516704 L126.559912,29.3501667 L126.559482,24.985 L114.016482,24.985 L114.016971,28.5516704 L111.229651,29.3501667 L111.229651,16.1808271 L114.016971,16.9793233 L114.016482,21.117 L126.559482,21.117 L126.560679,16.5380354 C126.504066,16.5087004 126.447147,16.4788119 126.389923,16.4483614 L126.08823,16.2841481 C124.171268,15.2175391 122.715002,13.7341855 121.719432,11.8340872 L115.789474,11.8330827 L115.789474,11.2804511 L121.447886,11.2806611 C120.775751,9.81536696 120.356087,8.12168796 120.188895,6.19962406 Z M88.7641703,23.7671481 C91.4245692,23.7706478 93.6451176,24.7899851 93.8997082,26.5287036 C94.2697134,29.0556426 91.6204137,29.0521575 91.3719424,27.1243054 C91.1841949,25.6676004 90.7560919,24.4227993 88.7641703,23.7671481 Z M126.559482,21.669 L114.016482,21.669 L114.016482,24.433 L126.559482,24.433 L126.559482,21.669 Z M67.3924485,17.2693195 C66.7445938,17.2693195 66.1603764,17.4547256 65.6397788,17.8255432 C65.1191812,18.1963609 64.6680034,18.628975 64.2862319,19.1233985 C63.9044603,19.617822 63.6094595,20.1178565 63.4012204,20.6235169 C63.1929814,21.1291773 63.0657261,21.5168445 63.0194508,21.7865301 L64.4424104,21.7865301 C64.8588884,21.7865301 65.2695759,21.7809117 65.6744851,21.7696748 C66.0793943,21.7584379 66.5016505,21.7472012 66.9412662,21.7359643 C67.3808819,21.7247274 67.8667657,21.719109 68.3989321,21.719109 C68.7459972,21.719109 69.0699197,21.7078723 69.3707094,21.6853985 C69.6714991,21.6629247 69.9375783,21.6067411 70.168955,21.5168459 C70.3309187,21.3370555 70.4523896,21.1685045 70.5333715,21.011188 C70.6143533,20.8538714 70.6548436,20.6179001 70.6548436,20.3032669 C70.6548436,19.4717364 70.3598428,18.7582041 69.7698322,18.1626485 C69.1798216,17.5670929 68.3873683,17.2693195 67.3924485,17.2693195 Z M93.1120695,6 L96.5917906,7.22875816 L95.8993897,8.11607328 L95.8993897,17.2488722 L87.0526316,17.2488722 L87.0526316,16.6962406 L93.111714,16.696 L93.111714,12.275 L88.1578947,12.275188 L88.1578947,11.7225564 L93.111714,11.722 L93.1120695,6 Z M101.976136,14.4857143 L104.736842,16.6962406 L100.315789,16.6962406 L101.976136,14.4857143 Z M113.329814,6 L116.494227,7.81308943 L115.64934,8.1921607 C114.836889,9.05422532 114.027872,9.83415619 113.222289,10.5319533 L114.41516,11.1057204 L113.817877,11.6961129 L113.817877,15.1521978 L111.286806,15.9506941 L111.247678,12.0827166 C109.702466,13.1704398 108.170067,13.9517055 106.650482,14.4265137 C109.809484,12.0374581 112.035928,9.22862026 113.329814,6 Z M70.3426257,11.3341506 C72.5735614,12.3010114 67.0483338,14.6487947 66.9168413,13.7517765 C66.7853488,12.8547583 68.11169,10.3672899 70.3426257,11.3341506 Z M125.022172,7.01242194 C127.682571,7.01592164 129.769066,7.92760691 130.304691,9.80841712 C130.840316,11.6892273 129.886802,12.053354 129.39482,12.1156762 C128.902839,12.1779984 128.029126,11.8455054 128.026833,10.1026756 C128.024841,8.58925594 127.014094,7.66807312 125.022172,7.01242194 Z M100.870873,9.51203008 L103.631579,11.7225564 L99.2105263,11.7225564 L100.870873,9.51203008 Z" id="Combined-Shape" fill="#5FC68B"></path>
    </g>
</svg>