<?xml version="1.0" encoding="UTF-8"?>
<svg width="82px" height="82px" viewBox="0 0 82 82" version="1.1" xmlns="http://www.w3.org/2000/svg" xmlns:xlink="http://www.w3.org/1999/xlink">
    <!-- Generator: Sketch 64 (93537) - https://sketch.com -->
    <title>img/square/employee_gym_01</title>
    <desc>Created with Sketch.</desc>
    <defs>
        <rect id="path-1" x="0" y="0" width="82" height="82"></rect>
    </defs>
    <g id="img/square/employee_gym_01" stroke="none" stroke-width="1" fill="none" fill-rule="evenodd">
        <mask id="mask-2" fill="white">
            <use xlink:href="#path-1"></use>
        </mask>
        <use id="Rectangle" fill="#E3F0F8" xlink:href="#path-1"></use>
        <g id="biceps" mask="url(#mask-2)" fill-rule="nonzero">
            <g transform="translate(37.833333, 37.968750) scale(-1, 1) translate(-37.833333, -37.968750) translate(7.333333, 8.968750)" id="Path">
                <path d="M52.0929225,18.9692764 C49.8199514,15.3007737 47.2889303,11.7334487 44.9658881,8.92453799 C43.2071232,6.79788881 40.6631996,4.01591894 38.5319193,2.84010142 C36.8429936,1.90818821 34.170045,1.14151208 31.381684,0.789485248 C29.6281275,0.567852028 26.421323,0.342866171 24.6444473,1.32447024 C23.0876242,2.18442151 22.3685169,5.35649459 22.0782698,7.17063015 C21.6148451,10.0680265 21.55779,13.9769612 22.921904,15.4575094 C23.6277538,16.2235869 24.6680032,16.6284177 25.9307912,16.628298 C25.9325668,16.628298 25.9345791,16.628298 25.9363547,16.628298 C27.911858,16.6265019 30.1735837,15.6073004 31.5644498,14.0920285 C32.0973586,13.5113039 32.3352855,13.5703343 33.5752278,14.2019471 C34.6734793,14.7614781 36.1773902,15.5276753 38.3545987,15.2829329 C38.368093,15.2813763 38.3779179,15.2812565 38.3833629,15.2812565 C38.4317769,15.3225658 38.7043867,15.6162807 38.8435916,17.0834184 C38.9573467,18.283782 38.9481138,19.8815528 38.9382889,21.5733171 C38.9182841,25.021384 38.896267,28.8136948 39.7621551,31.781736 C38.5465974,31.1929891 36.9330744,30.5592211 35.0362882,30.165406 C31.2272091,29.374543 25.5502266,29.4500971 19.8262505,34.1233132 C19.0889139,33.5027162 17.7213671,32.4794436 15.933246,31.7064215 C12.3029081,30.1372678 8.68511748,30.357584 5.47109237,32.3443803 C3.57856756,33.5143307 2.07572199,35.3671413 1.12531658,37.7028513 C0.251852702,39.8491374 -0.124687291,42.2971607 0.0362980562,44.7821828 C0.368093592,49.9024969 2.92231553,54.1373557 6.70239353,55.8342688 C10.1395491,57.3772 17.5432179,57.9979167 24.0046489,57.9979167 C28.7410509,57.9979167 32.971296,57.6643293 34.7607191,57.1158141 C37.2755233,56.3448274 43.304543,53.9480515 48.7766243,50.7978903 C56.0950656,46.5849433 59.9121939,42.5122084 60.1219483,38.6927173 C60.4387107,32.9269009 54.0564702,22.1383561 52.0929225,18.9692764 Z" fill="#FFC89F"></path>
                <path d="M60.1333333,38.2636928 C60.1333333,37.4558268 60.0231264,36.6493978 59.8620184,35.8593726 C58.6555428,29.9147869 53.7684406,21.6717285 52.0937928,18.9690236 C49.8207605,15.3005196 47.2896713,11.7331934 44.9665665,8.92428177 C43.2077542,6.79763187 40.6637622,4.01566105 38.5324245,2.83984313 C36.8434534,1.9079296 34.1704328,1.14125321 31.3819968,0.789226257 C30.4596206,0.672722099 29.1352438,0.555379781 27.828268,0.613093043 C30.4147566,0.992060835 32.8505541,1.71802662 34.4278979,2.5883953 C36.5592355,3.76421322 39.1032276,6.54630378 40.8620399,8.67283395 C43.1851447,11.4817456 45.7163523,15.0490718 47.9893845,18.7175758 C49.9529851,21.8867763 56.3353974,32.675205 56.0187449,38.4412628 C55.9927024,38.914344 55.9112606,39.3913764 55.7746561,39.8721207 C55.3211624,41.467617 54.3057436,42.8375287 52.9710682,43.803687 C51.6749828,44.7419466 50.1984944,45.6885878 48.5413661,46.642533 C43.069019,49.7926952 37.0399555,52.1894719 34.5250836,52.9604589 C32.7356122,53.5089743 28.5052533,53.8425618 23.7687238,53.8425618 C17.3071188,53.8425618 9.90325074,53.2217251 6.46600267,51.6789131 C3.17198808,50.2001604 0.809464506,46.7941201 0.0364772881,42.5548295 C-0.0114644919,43.2891769 -0.0126482396,44.0339414 0.0358854143,44.7821783 C0.367689882,49.9024941 2.92198057,54.1373544 6.70216033,55.834268 C8.90215535,56.8217395 12.7275543,57.4309617 16.8902029,57.7420386 C18.704888,57.8769822 20.5237163,57.9546916 22.3431365,57.9840272 C22.897012,57.9930074 23.4510059,57.9979167 24.0048814,57.9979167 C28.7414109,57.9979167 32.9717699,57.6643292 34.7612412,57.1158138 C37.2761131,56.3448268 43.3052951,53.9480501 48.7775237,50.7978878 C56.096162,46.5849394 59.913393,42.5122031 60.1231531,38.6927107 C60.1309658,38.5498644 60.1333333,38.4067786 60.1333333,38.2636928 Z" fill="#F7B081"></path>
            </g>
        </g>
        <g id="Group-2" mask="url(#mask-2)">
            <g transform="translate(42.000000, 42.000000)">
                <path d="M40,0 L40,0 L40,0 L40,40 L0,40 C-2.705415e-15,17.90861 17.90861,4.05812251e-15 40,0 Z" id="Rectangle" fill="#465575" fill-rule="evenodd"></path>
                <path d="M11.7432686,19 L11.7432686,28.4593838 L17.5441453,28.4593838 L17.5441453,30 L10,30 L10,19 L11.7432686,19 Z M32,14 L32,30 L29.4928571,30 L29.4928571,17.1596639 C28.5714286,18.0336134 27.4142857,18.6834734 26,19.1092437 L26,19.1092437 L26,16.5098039 C26.6857143,16.3305322 27.4142857,16.0168067 28.1857143,15.5686275 C28.9571429,15.0756303 29.6,14.5602241 30.1142857,14 L30.1142857,14 L32,14 Z M18.4095178,22.035014 L20.2730119,27.8123249 L22.1365059,22.035014 L24,22.035014 L21.129618,30 L19.4164058,30 L16.5460238,22.035014 L18.4095178,22.035014 Z" id="Combined-Shape" fill="#FFFFFF" fill-rule="nonzero"></path>
            </g>
        </g>
    </g>
</svg>