<?xml version="1.0" encoding="UTF-8"?>
<svg width="82px" height="82px" viewBox="0 0 82 82" version="1.1" xmlns="http://www.w3.org/2000/svg" xmlns:xlink="http://www.w3.org/1999/xlink">
    <!-- Generator: Sketch 64 (93537) - https://sketch.com -->
    <title>img/square/employee_gym_03</title>
    <desc>Created with Sketch.</desc>
    <defs>
        <rect id="path-1" x="0" y="0" width="82" height="82"></rect>
    </defs>
    <g id="img/square/employee_gym_03" stroke="none" stroke-width="1" fill="none" fill-rule="evenodd">
        <mask id="mask-2" fill="white">
            <use xlink:href="#path-1"></use>
        </mask>
        <use id="Rectangle" fill="#F9F5DE" xlink:href="#path-1"></use>
        <g id="biceps" mask="url(#mask-2)">
            <g transform="translate(41.833333, 37.968750) scale(-1, 1) translate(-41.833333, -37.968750) translate(7.333333, 8.968750)">
                <path d="M60.0929225,18.9692764 C57.8199514,15.3007737 55.2889303,11.7334487 52.9658881,8.92453799 C51.2071232,6.79788881 48.6631996,4.01591894 46.5319193,2.84010142 C44.8429936,1.90818821 42.170045,1.14151208 39.381684,0.789485248 C37.6281275,0.567852028 34.421323,0.342866171 32.6444473,1.32447024 C31.0876242,2.18442151 30.3685169,5.35649459 30.0782698,7.17063015 C29.6148451,10.0680265 29.55779,13.9769612 30.921904,15.4575094 C31.6277538,16.2235869 32.6680032,16.6284177 33.9307912,16.628298 C33.9325668,16.628298 33.9345791,16.628298 33.9363547,16.628298 C35.911858,16.6265019 38.1735837,15.6073004 39.5644498,14.0920285 C40.0973586,13.5113039 40.3352855,13.5703343 41.5752278,14.2019471 C42.6734793,14.7614781 44.1773902,15.5276753 46.3545987,15.2829329 C46.368093,15.2813763 46.3779179,15.2812565 46.3833629,15.2812565 C46.4317769,15.3225658 46.7043867,15.6162807 46.8435916,17.0834184 C46.9573467,18.283782 46.9481138,19.8815528 46.9382889,21.5733171 C46.9182841,25.021384 46.896267,28.8136948 47.7621551,31.781736 C46.5465974,31.1929891 44.9330744,30.5592211 43.0362882,30.165406 C39.2272091,29.374543 33.5502266,29.4500971 27.8262505,34.1233132 C27.0889139,33.5027162 25.7213671,32.4794436 23.933246,31.7064215 C20.3029081,30.1372678 16.6851175,30.357584 13.4710924,32.3443803 C11.5785676,33.5143307 10.075722,35.3671413 9.12531658,37.7028513 C8.2518527,39.8491374 7.87531271,42.2971607 8.03629806,44.7821828 C8.36809359,49.9024969 10.9223155,54.1373557 14.7023935,55.8342688 C18.1395491,57.3772 25.5432179,57.9979167 32.0046489,57.9979167 C36.7410509,57.9979167 40.971296,57.6643293 42.7607191,57.1158141 C45.2755233,56.3448274 51.304543,53.9480515 56.7766243,50.7978903 C64.0950656,46.5849433 67.9121939,42.5122084 68.1219483,38.6927173 C68.4387107,32.9269009 62.0564702,22.1383561 60.0929225,18.9692764 Z" id="Path" fill="#D28851" fill-rule="nonzero"></path>
                <path d="M9.27522901,19.6388731 C8.34680411,21.6017089 7.32786901,22.8601217 6.21842372,23.4141113 C5.10897842,23.9681009 3.84763561,24.3412916 2.43439527,24.5336833 C3.78538103,24.9722431 4.84889022,25.9588373 5.62492284,27.4934659 C6.40095547,29.0280946 6.75797129,30.2907308 6.6959703,31.2813744 C7.01260819,29.678171 7.87236109,28.5547648 9.27522901,27.9111559 C10.6780969,27.2675471 11.8924458,26.9268151 12.9182756,26.88896 C11.3336963,25.9364025 10.3616425,24.8990418 10.0021141,23.776878 C9.64258563,22.6547141 9.40029061,21.2753792 9.27522901,19.6388731 Z" id="Path-181" fill="#FFAF0B" fill-rule="evenodd" transform="translate(7.676335, 25.460124) rotate(-22.000000) translate(-7.676335, -25.460124) "></path>
                <path d="M20.6497951,10.158217 C19.0933603,12.9707294 17.6055445,14.8082226 16.1863478,15.6706965 C14.7671512,16.5331704 12.9253796,17.0780913 10.6610331,17.3054591 C12.7473996,18.2072977 14.3486232,19.70778 15.464704,21.8069058 C16.5807847,23.9060317 17.0537653,25.6898021 16.8836458,27.158217 C17.5435163,24.8220361 18.8976625,23.1840573 20.9460844,22.2442807 C22.9945063,21.3045041 24.6688957,20.8045962 25.9692526,20.7445571 C23.8381127,19.2271389 22.4187514,17.7124187 21.7111689,16.2003966 C21.0035863,14.6883744 20.6497951,12.6743146 20.6497951,10.158217 Z" id="Path-181-Copy" fill="#FFAF0B" fill-rule="evenodd" transform="translate(18.315143, 18.658217) rotate(-22.000000) translate(-18.315143, -18.658217) "></path>
                <path d="M68.1333333,38.2636928 C68.1333333,37.4558268 68.0231264,36.6493978 67.8620184,35.8593726 C66.6555428,29.9147869 61.7684406,21.6717285 60.0937928,18.9690236 C57.8207605,15.3005196 55.2896713,11.7331934 52.9665665,8.92428177 C51.2077542,6.79763187 48.6637622,4.01566105 46.5324245,2.83984313 C44.8434534,1.9079296 42.1704328,1.14125321 39.3819968,0.789226257 C38.4596206,0.672722099 37.1352438,0.555379781 35.828268,0.613093043 C38.4147566,0.992060835 40.8505541,1.71802662 42.4278979,2.5883953 C44.5592355,3.76421322 47.1032276,6.54630378 48.8620399,8.67283395 C51.1851447,11.4817456 53.7163523,15.0490718 55.9893845,18.7175758 C57.9529851,21.8867763 64.3353974,32.675205 64.0187449,38.4412628 C63.9927024,38.914344 63.9112606,39.3913764 63.7746561,39.8721207 C63.3211624,41.467617 62.3057436,42.8375287 60.9710682,43.803687 C59.6749828,44.7419466 58.1984944,45.6885878 56.5413661,46.642533 C51.069019,49.7926952 45.0399555,52.1894719 42.5250836,52.9604589 C40.7356122,53.5089743 36.5052533,53.8425618 31.7687238,53.8425618 C25.3071188,53.8425618 17.9032507,53.2217251 14.4660027,51.6789131 C11.1719881,50.2001604 8.80946451,46.7941201 8.03647729,42.5548295 C7.98853551,43.2891769 7.98735176,44.0339414 8.03588541,44.7821783 C8.36768988,49.9024941 10.9219806,54.1373544 14.7021603,55.834268 C16.9021553,56.8217395 20.7275543,57.4309617 24.8902029,57.7420386 C26.704888,57.8769822 28.5237163,57.9546916 30.3431365,57.9840272 C30.897012,57.9930074 31.4510059,57.9979167 32.0048814,57.9979167 C36.7414109,57.9979167 40.9717699,57.6643292 42.7612412,57.1158138 C45.2761131,56.3448268 51.3052951,53.9480501 56.7775237,50.7978878 C64.096162,46.5849394 67.913393,42.5122031 68.1231531,38.6927107 C68.1309658,38.5498644 68.1333333,38.4067786 68.1333333,38.2636928 Z" id="Path" fill="#B66E3F" fill-rule="nonzero"></path>
            </g>
        </g>
        <g id="Group-2" mask="url(#mask-2)">
            <g transform="translate(42.000000, 42.000000)">
                <path d="M40,0 L40,0 L40,0 L40,40 L0,40 C-2.705415e-15,17.90861 17.90861,4.05812251e-15 40,0 Z" id="Rectangle" fill="#817050" fill-rule="evenodd"></path>
                <path d="M29.6372361,16 C31.1573896,16 32.403071,16.3665768 33.3320537,17.1212938 C34.2399232,17.8760108 34.7044146,18.9110512 34.7044146,20.2479784 C34.7044146,21.9299191 33.8598848,23.0512129 32.1919386,23.6118598 C33.0786948,23.8921833 33.7754319,24.3018868 34.2399232,24.8625337 C34.7466411,25.4447439 35,26.1994609 35,27.1051213 C35,28.5283019 34.5143954,29.6927224 33.5431862,30.5983827 C32.5297505,31.5256065 31.1996161,32 29.5527831,32 C27.9904031,32 26.7236084,31.5902965 25.7735125,30.7708895 C24.7178503,29.8652291 24.1266795,28.5283019 24,26.8032345 L24,26.8032345 L26.512476,26.8032345 C26.5547025,27.7951482 26.8502879,28.5714286 27.4414587,29.1105121 C27.9692898,29.606469 28.6660269,29.8652291 29.5316699,29.8652291 C30.4817658,29.8652291 31.2418426,29.5849057 31.7907869,29.0458221 C32.2763916,28.5498652 32.5297505,27.9460916 32.5297505,27.212938 C32.5297505,26.328841 32.2552783,25.6819407 31.7485605,25.2722372 C31.2418426,24.8409704 30.5028791,24.6469003 29.5316699,24.6469003 L29.5316699,24.6469003 L28.4760077,24.6469003 L28.4760077,22.7493261 L29.5316699,22.7493261 C30.4184261,22.7493261 31.0940499,22.5552561 31.5585413,22.1671159 C32.0019194,21.7789757 32.2341651,21.1967655 32.2341651,20.4420485 C32.2341651,19.6873315 32.0230326,19.1266846 31.621881,18.7385445 C31.1785029,18.3504043 30.5239923,18.1563342 29.6583493,18.1563342 C28.7715931,18.1563342 28.0959693,18.3719677 27.6103647,18.8247978 C27.1036468,19.277628 26.8080614,19.967655 26.7236084,20.8948787 L26.7236084,20.8948787 L24.2955854,20.8948787 C24.4222649,19.3423181 24.9712092,18.1347709 25.9846449,17.2722372 C26.9347409,16.4097035 28.159309,16 29.6372361,16 Z M11.7432686,19 L11.7432686,28.4593838 L17.5441453,28.4593838 L17.5441453,30 L10,30 L10,19 L11.7432686,19 Z M18.4095178,22.035014 L20.2730119,27.8123249 L22.1365059,22.035014 L24,22.035014 L21.129618,30 L19.4164058,30 L16.5460238,22.035014 L18.4095178,22.035014 Z" id="Combined-Shape" fill="#FFFFFF" fill-rule="nonzero"></path>
            </g>
        </g>
    </g>
</svg>