<?xml version="1.0" encoding="UTF-8"?>
<svg width="82px" height="82px" viewBox="0 0 82 82" version="1.1" xmlns="http://www.w3.org/2000/svg" xmlns:xlink="http://www.w3.org/1999/xlink">
    <!-- Generator: Sketch 64 (93537) - https://sketch.com -->
    <title>img/square/house_02</title>
    <desc>Created with Sketch.</desc>
    <g id="img/square/house_02" stroke="none" stroke-width="1" fill="none" fill-rule="evenodd">
        <rect id="Rectangle" fill="#E2EEFA" x="0" y="0" width="82" height="82"></rect>
        <path d="" id="Path-24" stroke="#979797" stroke-width="0.683333333"></path>
        <g id="commerce-and-shopping-2" transform="translate(12.000000, 17.000000)" fill-rule="nonzero">
            <rect id="Rectangle" fill="#CCDEFE" x="4.75" y="15.7049763" width="50" height="33.2665877"></rect>
            <path d="M4.66350711,22.5517773 C5.73316733,23.0246445 6.90564499,23.2877962 8.13575425,23.2877962 C10.969569,23.2877962 13.6230888,21.8614929 15.3116719,19.5342417 C17.0003671,21.8612559 19.653999,23.2877962 22.4875895,23.2877962 C25.3214042,23.2877962 27.974924,21.8614929 29.6635071,19.5342417 C31.3522023,21.8612559 34.0058343,23.2877962 36.8394247,23.2877962 C39.6732394,23.2877962 42.3267592,21.8614929 44.0153423,19.5342417 C45.7040376,21.8612559 48.3576695,23.2877962 51.19126,23.2877962 C52.4213692,23.2877962 53.5938469,23.0246445 54.6635071,22.5517773 L54.6635071,15.7048578 L4.66350711,15.7048578 L4.66350711,22.5517773 Z" id="Path" fill="#4A81BE"></path>
            <path d="M50.4303867,-2.48689958e-13 C51.1018047,-2.48689958e-13 51.7216797,0.371331696 52.0548398,0.972991933 L59,13.5172454 C59,13.6710788 58.9955022,13.823828 58.9866349,13.9753606 L59,14 L58.9851371,14.0002727 C58.7439239,17.9077562 55.5968192,21 51.75,21 C48.8512461,21 46.3498828,19.2442418 45.1897695,16.7068865 C44.9070195,16.08839 44.0929805,16.08839 43.8102305,16.7068865 C42.6501172,19.2442418 40.1487539,21 37.25,21 C34.3512461,21 31.8498828,19.2442418 30.6897695,16.7068865 C30.4070195,16.08839 29.5929805,16.08839 29.3102305,16.7068865 C28.1501172,19.2442418 25.6487539,21 22.75,21 C19.8512461,21 17.3498828,19.2442418 16.1897695,16.7068865 C15.9070195,16.08839 15.0929805,16.08839 14.8102305,16.7068865 C13.6501172,19.2442418 11.1487539,21 8.25,21 C4.40318076,21 1.25607608,17.9077562 1.01486291,14.0002727 L1,14 L1.01336509,13.9753606 C1.00449781,13.823828 1,13.6710788 1,13.5172454 L7.94516016,0.972991933 C8.27832031,0.371331696 8.89819531,-2.48689958e-13 9.56961328,-2.48689958e-13 L50.4303867,-2.48689958e-13 Z" id="Combined-Shape" fill="#65A1E4"></path>
            <path d="M38.1162322,26.467654 L38.1162322,48.9718009 L49.8575829,48.9718009 L49.8575829,26.467654 C49.8575829,25.9272512 49.4195498,25.489218 48.8791469,25.489218 L39.0946682,25.489218 C38.5542654,25.489218 38.1162322,25.9272512 38.1162322,26.467654 Z" id="Path" fill="#FFFFFF"></path>
            <path d="M32.3350636,44.0796209 L10.112933,44.0796209 C9.62199264,44.0796209 9.22405213,43.6415877 9.22405213,43.1011848 L9.22405213,26.467654 C9.22405213,25.9272512 9.62199264,25.489218 10.112933,25.489218 L32.3351712,25.489218 C32.8261116,25.489218 33.2240521,25.9272512 33.2240521,26.467654 L33.2240521,43.1011848 C33.2240521,43.6415877 32.826004,44.0796209 32.3350636,44.0796209 Z" id="Path" fill="#FFFFFF"></path>
            <g id="Group" transform="translate(11.663507, 27.369668)" fill="#64A1E4">
                <path d="M36.2370853,5.94703791 L36.2370853,15.2422986 C36.2370853,15.5124408 36.0180095,15.7315166 35.7478673,15.7315166 L35.7478673,15.7315166 L28.8988152,15.7315166 C28.628673,15.7315166 28.4095972,15.5124408 28.4095972,15.2422986 L28.4095972,15.2422986 L28.4095972,13.7746445 L36.2370853,5.94703791 Z M19.6035545,3.01172986 L19.6035545,14.2638626 C19.6035545,14.5340047 19.3844787,14.7530806 19.1143365,14.7530806 L19.1143365,14.7530806 L7.86220379,14.7530806 L19.6035545,3.01172986 Z M19.9052133,0.0764218009 L5.22867299,14.7530806 L1.99822275,14.7530806 L16.6748815,0.0764218009 L19.9052133,0.0764218009 Z M13.2240521,0.0764218009 L0.336492891,12.9640995 L0.336492891,0.56563981 C0.336492891,0.29549763 0.55556872,0.0764218009 0.8257109,0.0764218009 L0.8257109,0.0764218009 L13.2240521,0.0764218009 Z M35.7478673,0.0764218009 C36.0180095,0.0764218009 36.2370853,0.295379147 36.2370853,0.56563981 L36.2370853,0.56563981 L36.2370853,1.79585308 L28.4095972,9.62345972 L28.4095972,0.56563981 C28.4095972,0.295379147 28.628673,0.0764218009 28.8988152,0.0764218009 L28.8988152,0.0764218009 Z" id="Combined-Shape"></path>
            </g>
        </g>
        <g id="Group-2" transform="translate(50.000000, 49.000000)">
            <path d="M33,0 L33,0 L33,0 L33,33 L0,33 C-2.23196738e-15,14.7746033 14.7746033,3.34795107e-15 33,0 Z" id="Rectangle" fill="#2062AC"></path>
            <polygon id="M" fill="#FFFFFF" fill-rule="nonzero" points="15.179 25 15.179 16.636 15.247 16.636 18.817 25 20.534 25 24.104 16.636 24.172 16.636 24.172 25 26.161 25 26.161 12.862 23.832 12.862 19.718 22.382 19.65 22.382 15.519 12.862 13.19 12.862 13.19 25"></polygon>
        </g>
        <path d="M67.559284,7.0758578 L70.9848025,8.67320333 L65.6656684,14.7465122 L67.559284,7.0758578 Z M61.7796415,6 L59.5255601,13.7522503 L58,6 L61.7796415,6 Z" id="Combined-Shape" fill="#FF8965"></path>
    </g>
</svg>