<?xml version="1.0" encoding="UTF-8"?>
<svg width="82px" height="82px" viewBox="0 0 82 82" version="1.1" xmlns="http://www.w3.org/2000/svg" xmlns:xlink="http://www.w3.org/1999/xlink">
    <!-- Generator: Sketch 64 (93537) - https://sketch.com -->
    <title>img/square/house_01</title>
    <desc>Created with Sketch.</desc>
    <g id="img/square/house_01" stroke="none" stroke-width="1" fill="none" fill-rule="evenodd">
        <rect id="Rectangle" fill="#FFF6D9" x="0" y="0" width="82" height="82"></rect>
        <g id="commerce-and-shopping-2" transform="translate(15.000000, 20.000000)" fill-rule="nonzero">
            <rect id="Rectangle" fill="#FFD9A8" x="3.75" y="12.7049763" width="44" height="33.2665877"></rect>
            <path d="M3.66350711,19.5517773 C4.6048081,20.0246445 5.63658845,20.2877962 6.71908459,20.2877962 C9.21284154,20.2877962 11.547939,18.8614929 13.0338921,16.5342417 C14.5199439,18.8612559 16.85514,20.2877962 19.3486996,20.2877962 C21.8424566,20.2877962 24.177554,18.8614929 25.6635071,16.5342417 C27.1495589,18.8612559 29.484755,20.2877962 31.9783146,20.2877962 C34.4720716,20.2877962 36.807169,18.8614929 38.2931221,16.5342417 C39.7791739,18.8612559 42.11437,20.2877962 44.6079296,20.2877962 C45.6904258,20.2877962 46.7222061,20.0246445 47.6635071,19.5517773 L47.6635071,12.7048578 L3.66350711,12.7048578 L3.66350711,19.5517773 Z" id="Path" fill="#DC5945"></path>
            <path d="M51.6635071,10.7478673 C51.6635071,14.935782 48.8093001,18.3308057 45.2885071,18.3308057 C42.7396028,18.3308057 40.5401282,16.5515403 39.5200286,13.9802133 C39.2714036,13.353436 38.5556106,13.353436 38.3069856,13.9802133 C37.286886,16.5515403 35.0874114,18.3308057 32.5385071,18.3308057 C29.9896028,18.3308057 27.7901282,16.5515403 26.7700286,13.9802133 C26.5214036,13.353436 25.8056106,13.353436 25.5569856,13.9802133 C24.536886,16.5515403 22.3374114,18.3308057 19.7885071,18.3308057 C17.2396028,18.3308057 15.0401282,16.5515403 14.0200286,13.9802133 C13.7714036,13.353436 13.0556106,13.353436 12.8069856,13.9802133 C11.786886,16.5515403 9.58741141,18.3308057 7.03850711,18.3308057 C3.51771414,18.3308057 0.663507109,14.935782 0.663507109,10.7478673 C0.663507109,7.95592417 2.6991575,5.00151346 6.77045828,1.88463515 C7.06340945,1.27491951 7.60847195,0.898616196 8.19885672,0.898616196 L44.1281575,0.898616196 C44.7185423,0.898616196 45.2636048,1.27491951 45.5565559,1.88463515 L51.6635071,10.7478673 Z" id="Path" fill="#FF6634"></path>
            <path d="M31.1162322,23.467654 L31.1162322,45.9718009 L42.8575829,45.9718009 L42.8575829,23.467654 C42.8575829,22.9272512 42.4195498,22.489218 41.8791469,22.489218 L32.0946682,22.489218 C31.5542654,22.489218 31.1162322,22.9272512 31.1162322,23.467654 Z" id="Path" fill="#FFFFFF"></path>
            <path d="M26.3702998,41.0796209 L10.629624,41.0796209 C10.2818745,41.0796209 10,40.6415877 10,40.1011848 L10,23.467654 C10,22.9272512 10.2818745,22.489218 10.629624,22.489218 L26.370376,22.489218 C26.7181255,22.489218 27,22.9272512 27,23.467654 L27,40.1011848 C27,40.6415877 26.7180492,41.0796209 26.3702998,41.0796209 Z" id="Path" fill="#FFFFFF"></path>
            <g id="Group" transform="translate(11.663507, 24.369668)" fill="#F2879D">
                <path d="M29.2370853,5.94703791 L29.2370853,15.2422986 C29.2370853,15.5124408 29.0180095,15.7315166 28.7478673,15.7315166 L28.7478673,15.7315166 L21.8988152,15.7315166 C21.628673,15.7315166 21.4095972,15.5124408 21.4095972,15.2422986 L21.4095972,15.2422986 L21.4095972,13.7746445 L29.2370853,5.94703791 Z M13.2718009,3.01172986 L13.2718009,14.2638626 C13.2718009,14.5340047 13.0527251,14.7530806 12.7825829,14.7530806 L12.7825829,14.7530806 L1.53045024,14.7530806 L13.2718009,3.01172986 Z M13.1809242,0.0764218009 L0.293364929,12.9640995 L0.293364929,0.56563981 C0.293364929,0.29549763 0.512440758,0.0764218009 0.782582938,0.0764218009 L0.782582938,0.0764218009 L13.1809242,0.0764218009 Z M28.7478673,0.0764218009 C29.0180095,0.0764218009 29.2370853,0.295379147 29.2370853,0.56563981 L29.2370853,0.56563981 L29.2370853,1.79585308 L21.4095972,9.62345972 L21.4095972,0.56563981 C21.4095972,0.295379147 21.628673,0.0764218009 21.8988152,0.0764218009 L21.8988152,0.0764218009 Z" id="Combined-Shape"></path>
            </g>
        </g>
        <g id="Group-2" transform="translate(50.000000, 49.000000)">
            <path d="M33,0 L33,0 L33,0 L33,33 L0,33 C-2.23196738e-15,14.7746033 14.7746033,3.34795107e-15 33,0 Z" id="Rectangle" fill="#FFAF0B"></path>
            <path d="M18.678,25.238 C20.225,25.238 21.432,24.915 22.282,24.303 C23.132,23.674 23.557,22.807 23.557,21.719 C23.557,20.597 23.03,19.73 21.976,19.101 C21.5,18.829 20.446,18.421 18.797,17.911 C17.675,17.554 16.978,17.299 16.723,17.163 C16.145,16.857 15.873,16.432 15.873,15.922 C15.873,15.344 16.111,14.919 16.621,14.664 C17.029,14.443 17.607,14.341 18.372,14.341 C19.256,14.341 19.936,14.494 20.378,14.834 C20.82,15.157 21.143,15.701 21.313,16.449 L23.285,16.449 C23.166,15.123 22.673,14.137 21.823,13.508 C21.024,12.913 19.902,12.624 18.474,12.624 C17.165,12.624 16.094,12.913 15.244,13.508 C14.326,14.12 13.884,14.97 13.884,16.041 C13.884,17.112 14.343,17.928 15.278,18.489 C15.635,18.693 16.57,19.033 18.066,19.509 C19.409,19.917 20.191,20.189 20.429,20.308 C21.177,20.682 21.568,21.192 21.568,21.838 C21.568,22.348 21.296,22.739 20.786,23.045 C20.276,23.334 19.562,23.487 18.678,23.487 C17.675,23.487 16.944,23.3 16.468,22.96 C15.941,22.569 15.618,21.906 15.482,20.988 L13.51,20.988 C13.595,22.535 14.156,23.657 15.176,24.371 C16.009,24.949 17.182,25.238 18.678,25.238 Z" id="S" fill="#FFFFFF" fill-rule="nonzero"></path>
        </g>
    </g>
</svg>