<?xml version="1.0" encoding="UTF-8"?>
<svg width="82px" height="82px" viewBox="0 0 82 82" version="1.1" xmlns="http://www.w3.org/2000/svg" xmlns:xlink="http://www.w3.org/1999/xlink">
    <!-- Generator: Sketch 64 (93537) - https://sketch.com -->
    <title>img/square/house_03</title>
    <desc>Created with Sketch.</desc>
    <g id="img/square/house_03" stroke="none" stroke-width="1" fill="none" fill-rule="evenodd">
        <rect id="Rectangle" fill="#CCE5E5" x="0" y="0" width="82" height="82"></rect>
        <g id="commerce-and-shopping-2" transform="translate(11.000000, 16.000000)" fill-rule="nonzero">
            <rect id="Rectangle" fill="#E6F6F6" x="3.91350711" y="15.7049763" width="52.8364929" height="33.2665877"></rect>
            <path d="M3.91374408,22.5517773 C5.04407583,23.0246445 6.28305687,23.2877962 7.58293839,23.2877962 C10.5774882,23.2877962 13.3815166,21.8614929 15.1658768,19.5342417 C16.9503555,21.8612559 19.7545024,23.2877962 22.7488152,23.2877962 C25.7433649,23.2877962 28.5473934,21.8614929 30.3317536,19.5342417 C32.1162322,21.8612559 34.9203791,23.2877962 37.9146919,23.2877962 C40.9092417,23.2877962 43.7132701,21.8614929 45.4976303,19.5342417 C47.282109,21.8612559 50.0862559,23.2877962 53.0805687,23.2877962 C54.3804502,23.2877962 55.6194313,23.0246445 56.749763,22.5517773 L56.749763,15.7048578 L3.91374408,15.7048578 L3.91374408,22.5517773 Z" id="Path" fill="#2E999A"></path>
            <path d="M51.7003555,0.0496445498 C52.4026066,0.0496445498 53.0509479,0.425947867 53.3994076,1.03566351 L53.3994076,1.03566351 L60.6635071,13.7478673 C60.6635071,17.935782 57.2684834,21.3308057 53.0805687,21.3308057 C50.0486967,21.3308057 47.4324645,19.5515403 46.2190758,16.9802133 C45.9233412,16.353436 45.0719194,16.353436 44.7761848,16.9802133 C43.5627962,19.5515403 40.946564,21.3308057 37.9146919,21.3308057 C34.8828199,21.3308057 32.2665877,19.5515403 31.0531991,16.9802133 C30.7574645,16.353436 29.9060427,16.353436 29.6103081,16.9802133 C28.3969194,19.5515403 25.7806872,21.3308057 22.7488152,21.3308057 C19.7169431,21.3308057 17.1007109,19.5515403 15.8873223,16.9802133 C15.5915877,16.353436 14.7401659,16.353436 14.4444313,16.9802133 C13.2310427,19.5515403 10.6148104,21.3308057 7.58293839,21.3308057 C3.3950237,21.3308057 2.84217094e-12,17.935782 2.84217094e-12,13.7478673 L7.26409953,1.03566351 C7.61255924,0.425947867 8.26090047,0.0496445498 8.96315166,0.0496445498 Z" id="Combined-Shape" fill="#47CBCC"></path>
            <path d="M40.1162322,26.467654 L40.1162322,48.9718009 L51.8575829,48.9718009 L51.8575829,26.467654 C51.8575829,25.9272512 51.4195498,25.489218 50.8791469,25.489218 L41.0946682,25.489218 C40.5542654,25.489218 40.1162322,25.9272512 40.1162322,26.467654 Z" id="Path" fill="#FFFFFF"></path>
            <path d="M34.2454976,44.0796209 L9.78447867,44.0796209 C9.24407583,44.0796209 8.80604265,43.6415877 8.80604265,43.1011848 L8.80604265,26.467654 C8.80604265,25.9272512 9.24407583,25.489218 9.78447867,25.489218 L34.2456161,25.489218 C34.786019,25.489218 35.2240521,25.9272512 35.2240521,26.467654 L35.2240521,43.1011848 C35.2240521,43.6415877 34.7859005,44.0796209 34.2454976,44.0796209 Z" id="Path" fill="#FFFFFF"></path>
            <g id="Group" transform="translate(10.663507, 27.369668)" fill="#F38892">
                <path d="M39.2370853,5.94703791 L39.2370853,15.2422986 C39.2370853,15.5124408 39.0180095,15.7315166 38.7478673,15.7315166 L38.7478673,15.7315166 L31.8988152,15.7315166 C31.628673,15.7315166 31.4095972,15.5124408 31.4095972,15.2422986 L31.4095972,15.2422986 L31.4095972,13.7746445 L39.2370853,5.94703791 Z M22.6035545,3.01172986 L22.6035545,14.2638626 C22.6035545,14.5340047 22.3844787,14.7530806 22.1143365,14.7530806 L22.1143365,14.7530806 L10.8622038,14.7530806 L22.6035545,3.01172986 Z M19.668128,0.0764218009 L4.99158768,14.7530806 L1.76113744,14.7530806 L16.4377962,0.0764218009 L19.668128,0.0764218009 Z M12.9869668,0.0764218009 L0.0994075829,12.9640995 L0.0994075829,0.56563981 C0.0994075829,0.29549763 0.318483412,0.0764218009 0.588625592,0.0764218009 L0.588625592,0.0764218009 L12.9869668,0.0764218009 Z M38.7478673,0.0764218009 C39.0180095,0.0764218009 39.2370853,0.295379147 39.2370853,0.56563981 L39.2370853,0.56563981 L39.2370853,1.79585308 L31.4095972,9.62345972 L31.4095972,0.56563981 C31.4095972,0.295379147 31.628673,0.0764218009 31.8988152,0.0764218009 L31.8988152,0.0764218009 Z" id="Combined-Shape"></path>
            </g>
        </g>
        <g id="Group-2" transform="translate(50.000000, 49.000000)">
            <path d="M33,0 L33,0 L33,0 L33,33 L0,33 C-2.23196738e-15,14.7746033 14.7746033,3.34795107e-15 33,0 Z" id="Rectangle" fill="#124755"></path>
            <polygon id="L" fill="#FFFFFF" fill-rule="nonzero" points="24.724 25 24.724 23.3 18.162 23.3 18.162 12.862 16.19 12.862 16.19 25"></polygon>
        </g>
        <path d="M56.8408337,8 C55.9124088,9.96283586 54.8934737,11.2212486 53.7840284,11.7752382 C52.6745832,12.3292278 51.4132403,12.7024185 50,12.8948103 C51.3509858,13.33337 52.4144949,14.3199642 53.1905276,15.8545929 C53.9665602,17.3892215 54.323576,18.6518577 54.261575,19.6425013 C54.5782129,18.0392979 55.4379658,16.9158917 56.8408337,16.2722829 C58.2437016,15.628674 59.4580505,15.287942 60.4838803,15.2500869 C58.8993011,14.2975294 57.9272473,13.2601687 57.5677188,12.1380049 C57.2081904,11.015841 56.9658953,9.63650607 56.8408337,8 Z" id="Path-181" fill="#FFFF61" transform="translate(55.241940, 13.821251) rotate(-2.000000) translate(-55.241940, -13.821251) "></path>
        <path d="M14.9887619,44 C13.4323271,46.8125124 11.9445114,48.6500056 10.5253147,49.5124795 C9.10611802,50.3749534 7.26434645,50.9198743 5,51.147242 C7.08636645,52.0490807 8.68759007,53.5495629 9.80367084,55.6486888 C10.9197516,57.7478147 11.3927322,59.5315851 11.2226126,61 C11.8824832,58.6638191 13.2366294,57.0258403 15.2850513,56.0860637 C17.3334732,55.146287 19.0078626,54.6463792 20.3082195,54.5863401 C18.1770796,53.0689218 16.7577183,51.5542016 16.0501358,50.0421795 C15.3425532,48.5301574 14.9887619,46.5160976 14.9887619,44 Z" id="Path-181-Copy" fill="#FFFF61" transform="translate(12.654110, 52.500000) rotate(-2.000000) translate(-12.654110, -52.500000) "></path>
    </g>
</svg>