<?xml version="1.0" encoding="UTF-8"?>
<svg width="24px" height="24px" viewBox="0 0 24 24" version="1.1" xmlns="http://www.w3.org/2000/svg" xmlns:xlink="http://www.w3.org/1999/xlink">
    <!-- Generator: Sketch 64 (93537) - https://sketch.com -->
    <title>ic/arrow</title>
    <desc>Created with Sketch.</desc>
    <g id="ic/arrow" stroke="none" stroke-width="1" fill="none" fill-rule="evenodd">
        <g id="btn_arrow_right" transform="translate(1.000000, 3.000000)" fill="#5DC58A">
            <path d="M11.9325938,0.577783632 C11.6134917,0.881366302 11.6009108,1.38615198 11.9044935,1.70525399 C11.9136248,1.71485215 11.9229939,1.72422128 11.9325921,1.73335266 L18.7117734,8.18286989 L18.7117734,8.18286989 L0.817130113,8.18286989 C0.365841613,8.18286989 -5.52669017e-17,8.5487115 0,9 C5.52669017e-17,9.4512885 0.365841613,9.81713011 0.817130113,9.81713011 L18.7117734,9.81713011 L18.7117734,9.81713011 L11.9325921,16.2666473 C11.6134909,16.5702309 11.6009115,17.0750166 11.9044951,17.3941178 C11.9136265,17.4037159 11.9229956,17.413085 11.9325938,17.4222164 C12.2727932,17.7458704 12.807035,17.7458704 13.1472344,17.4222164 L21.0861491,9.86940626 C21.5663089,9.41259874 21.5852397,8.65303664 21.1284322,8.17287682 C21.1146913,8.15843343 21.1005925,8.14433469 21.0861491,8.13059374 L13.1472344,0.577783632 C12.807035,0.254129634 12.2727932,0.254129634 11.9325938,0.577783632 Z" id="Path"></path>
        </g>
    </g>
</svg>