<?xml version="1.0" encoding="UTF-8"?>
<svg width="100px" height="100px" viewBox="0 0 100 100" version="1.1" xmlns="http://www.w3.org/2000/svg" xmlns:xlink="http://www.w3.org/1999/xlink">
    <!-- Generator: Sketch 58 (84663) - https://sketch.com -->
    <title>ic/ic_01</title>
    <desc>Created with Sketch.</desc>
    <g id="ic/ic_01" stroke="none" stroke-width="1" fill="none" fill-rule="evenodd">
        <circle id="Oval" fill="#FDF1E0" cx="50" cy="50" r="46"></circle>
        <path d="M33.4065854,50.5001949 L34.9361231,56.1945852 L65.0773009,56.1945852 L66.6141821,50.5001949 L33.4065854,50.5001949 Z M70.2670956,45.9446826 C71.5089181,45.9446826 72.2508217,46.9268808 71.9220993,48.1462156 L66.3544264,68.798467 C66.0266373,70.0143401 64.7478217,71 63.5192012,71 L36.4806777,71 C35.2426152,71 33.9741749,70.0178019 33.6454525,68.798467 L28.0777796,48.1462156 C27.7499904,46.9303425 28.4879459,45.9446826 29.7327832,45.9446826 L35.1838993,45.9446826 L43.5418965,31.1480624 C44.1588484,30.0558386 45.5342289,29.6763719 46.6138948,30.3004998 C47.6935607,30.9246276 48.0686644,32.3160056 47.4517125,33.4082294 L40.37039,45.9446826 L59.6294889,45.9446826 L52.5481663,33.4082294 C51.9312144,32.3160056 52.3063182,30.9246276 53.3859841,30.3004998 C54.4656499,29.6763719 55.8410304,30.0558386 56.4579824,31.1480624 L64.8159795,45.9446826 L70.2670956,45.9446826 Z M37.689291,66.4444878 L62.3109147,66.4444878 L63.8477959,60.7500974 L36.1597532,60.7500974 L37.689291,66.4444878 Z" id="Shape" fill="#EFAD4E"></path>
    </g>
</svg>