<?xml version="1.0" encoding="UTF-8"?>
<svg width="100px" height="100px" viewBox="0 0 100 100" version="1.1" xmlns="http://www.w3.org/2000/svg" xmlns:xlink="http://www.w3.org/1999/xlink">
    <!-- Generator: Sketch 58 (84663) - https://sketch.com -->
    <title>ic/ic_02</title>
    <desc>Created with Sketch.</desc>
    <g id="ic/ic_02" stroke="none" stroke-width="1" fill="none" fill-rule="evenodd">
        <circle id="Oval" fill="#FDF1E0" cx="50" cy="50" r="46"></circle>
        <path d="M41.7837546,32.7735886 C40.9228835,31.9103156 40.9228977,30.5106877 41.7837863,29.6474323 C42.6446749,28.7841768 44.0404368,28.7841911 44.9013079,29.6474641 L51.5145699,36.2791779 C52.375441,37.1424509 52.3754268,38.5420788 51.5145382,39.4053342 L44.9012762,46.0367783 C44.0403876,46.9000337 42.6446256,46.9000195 41.7837546,46.0367465 C40.9228835,45.1734735 40.9228977,43.7738456 41.7837863,42.9105902 L44.6200522,40.0526316 L42.3252067,40.0526316 C36.8533387,40.0526316 32.4088413,44.508853 32.4088413,50 C32.4088413,55.1545947 37.023062,59.9473684 41.220565,59.9473684 C42.4380329,59.9473684 43.4249857,60.9370548 43.4249857,62.1578947 C43.4249857,63.3787347 42.4380329,64.3684211 41.220565,64.3684211 C34.5527244,64.3684211 28,57.5621308 28,50 C28,42.0670429 34.4185327,35.6315789 42.3252067,35.6315789 L44.6200521,35.6315789 L41.7837546,32.7735886 Z M58.1278319,67.2264114 C58.988703,68.0896844 58.9886888,69.4893123 58.1278002,70.3525677 C57.2669117,71.2158232 55.8711497,71.2158089 55.0102786,70.3525359 L48.3970166,63.7208221 C47.5361455,62.8575491 47.5361597,61.4579212 48.3970483,60.5946658 L55.0103103,53.9632217 C55.8711989,53.0999663 57.2669609,53.0999805 58.1278319,53.9632535 C58.988703,54.8265265 58.9886888,56.2261544 58.1278002,57.0894098 L55.2915343,59.9473684 L57.6747933,59.9473684 C63.1466613,59.9473684 67.5911587,55.491147 67.5911587,50 C67.5911587,44.8454053 62.976938,40.0526316 58.779435,40.0526316 C57.5619671,40.0526316 56.5750143,39.0629452 56.5750143,37.8421053 C56.5750143,36.6212653 57.5619671,35.6315789 58.779435,35.6315789 C65.4472756,35.6315789 72,42.4378692 72,50 C72,57.9329571 65.5814673,64.3684211 57.6747933,64.3684211 L55.2915344,64.3684211 L58.1278319,67.2264114 Z" id="Shape" fill="#EFAD4E"></path>
    </g>
</svg>