<?xml version="1.0" encoding="UTF-8"?>
<svg width="100px" height="100px" viewBox="0 0 100 100" version="1.1" xmlns="http://www.w3.org/2000/svg" xmlns:xlink="http://www.w3.org/1999/xlink">
    <!-- Generator: Sketch 58 (84663) - https://sketch.com -->
    <title>ic/ic_04</title>
    <desc>Created with Sketch.</desc>
    <g id="ic/ic_04" stroke="none" stroke-width="1" fill="none" fill-rule="evenodd">
        <circle id="Oval" fill="#FDF1E0" cx="50" cy="50" r="46"></circle>
        <path d="M52,43 C53.1045695,43 54,43.8954305 54,45 C54,46.1045695 53.1045695,47 52,47 L52,47 L47.9939905,47 C45.7891332,47 44,48.7903221 44,50.9986759 L44,50.9986759 L44,58.0013241 C44,60.2114003 45.7917689,62 48.0067025,62 L48.0067025,62 L63.9932975,62 C66.2094716,62 68,60.2109314 68,58.0013241 L68,58.0013241 L68,50.9986759 C68,48.7877972 66.2122394,47 64.0040443,47 C62.8994748,47 62.0040443,46.1045695 62.0040443,45 C62.0040443,43.8954305 62.8994748,43 64.0040443,43 C68.4213967,43 72,46.5786765 72,50.9986759 L72,50.9986759 L72,58.0013241 C72,62.420801 68.4178807,66 63.9932975,66 L63.9932975,66 L48.0067025,66 C43.5842135,66 40,62.422126 40,58.0013241 L40,58.0013241 L40,50.9986759 C40,46.5817777 43.5793992,43 47.9939905,43 L47.9939905,43 Z M51.9932975,34 C56.4157865,34 60,37.577874 60,41.9986759 L60,41.9986759 L60,49.0013241 C60,53.4217916 56.4250943,57 52.0001992,57 L52.0001992,57 L48,57 C46.8954305,57 46,56.1045695 46,55 C46,53.8954305 46.8954305,53 48,53 L48,53 L52.0001992,53 C54.215128,53 56,51.213479 56,49.0013241 L56,49.0013241 L56,41.9986759 C56,39.7885997 54.2082311,38 51.9932975,38 L51.9932975,38 L36.0067025,38 C33.7905284,38 32,39.7890686 32,41.9986759 L32,41.9986759 L32,49.0013241 C32,51.2148234 33.7848303,53 36,53 C37.1045695,53 38,53.8954305 38,55 C38,56.1045695 37.1045695,57 36,57 C31.5755176,57 28,53.4237887 28,49.0013241 L28,49.0013241 L28,41.9986759 C28,37.579199 31.5821193,34 36.0067025,34 L36.0067025,34 Z" id="Shape" fill="#EFAD4E"></path>
    </g>
</svg>