<?xml version="1.0" encoding="UTF-8"?>
<svg width="100px" height="100px" viewBox="0 0 100 100" version="1.1" xmlns="http://www.w3.org/2000/svg" xmlns:xlink="http://www.w3.org/1999/xlink">
    <!-- Generator: Sketch 58 (84663) - https://sketch.com -->
    <title>ic/ic_06</title>
    <desc>Created with Sketch.</desc>
    <g id="ic/ic_06" stroke="none" stroke-width="1" fill="none" fill-rule="evenodd">
        <circle id="Oval" fill="#FDF1E0" cx="50" cy="50" r="46"></circle>
        <path d="M56.3401495,67.7984496 C60.9923904,67.8487438 63.2975464,66.9080079 64.471879,64.6517865 L63.623905,64.6517865 C62.4633561,64.6517865 61.5225453,63.7207227 61.5225453,62.5541574 C61.5225453,61.3956688 62.451282,60.4565283 63.623905,60.4565283 L65.7227135,60.4565283 C65.8957514,59.7913466 66.081077,59.0767123 66.266875,58.3588992 L64.6714845,58.3588992 C63.5109356,58.3588992 62.5701248,57.4278355 62.5701248,56.2612701 C62.5701248,55.1027816 63.4988615,54.163641 64.6714845,54.163641 L67.3495492,54.163641 C67.5931914,53.2170214 67.7546592,52.5878222 67.7626352,52.5553507 C67.9612813,51.6344759 67.4566656,51.0165566 66.4719227,51.0165566 L58.9105611,51.0160547 C55.6905699,51.015841 53.3165991,48.1408413 53.9526539,44.9619578 C53.9743741,44.8539791 54.5779654,41.8018735 54.6176618,41.5768044 C55.0507135,39.1215021 55.2540288,37.367246 55.2373606,36.3688499 L55.237457,36.2230736 C55.2487406,35.5968095 54.8681703,34.9292996 53.8662931,34.1476291 C53.7536782,34.0597663 53.0169789,33.6133578 53.0169789,33.6133578 L46.9764622,46.685191 C45.8569895,49.1077584 43.2388668,50.8574373 40.5709545,51.0068301 L40.5709545,67.8067868 C47.2184822,67.8050317 55.526755,67.8021308 56.3401495,67.7984496 Z M36.3806363,51.0171974 L32.1895115,51.0171974 L32.1903182,67.8086627 C32.1903182,67.8086627 33.886325,67.8083654 36.3806363,67.8078066 L36.3806363,51.0171974 Z M32.1895115,71.9934883 C29.8757082,71.9934883 28,70.1220956 28,67.8086627 L28,51.0067648 C28,48.6955495 29.8777524,46.8219392 32.1895115,46.8219392 L40.2021103,46.8219392 C41.3635287,46.8219392 42.6732536,45.9240806 43.1734284,44.9236564 C43.6736032,43.9232322 49.6900189,30.8215874 49.6900189,30.8215874 C50.4273919,29.2258933 52.3303672,28.5331254 53.9189642,29.3352612 C53.9189642,29.3352612 55.4444686,30.0602295 56.4420069,30.8385147 C58.2941806,32.2835915 59.4664344,34.1152317 59.4270936,36.2987376 C59.450165,37.6806809 59.2008718,39.7167595 58.7441395,42.3063252 C58.6220841,42.9983512 58.0604982,45.7902063 58.0604982,45.7902063 C57.9464146,46.3603769 58.3272122,46.8207578 58.9108389,46.8207965 L66.4722006,46.8212985 C70.1179888,46.8212983 72.6180235,49.8949878 71.8661761,53.4140956 C71.8433017,53.5327987 69.2030124,64.1467839 68.725778,65.3786933 C66.948086,70.1963712 62.8265798,72.0640755 56.2949049,71.9934632 C53.2972689,72.0081563 32.1895115,71.9934883 32.1895115,71.9934883 Z" id="Shape" fill="#EFAD4E"></path>
    </g>
</svg>