<?xml version="1.0" encoding="UTF-8"?>
<svg width="24px" height="24px" viewBox="0 0 24 24" version="1.1" xmlns="http://www.w3.org/2000/svg" xmlns:xlink="http://www.w3.org/1999/xlink">
    <title>Icon/alert</title>
    <defs>
        <path d="M14.3376804,4.59587683 L21.5241578,17.3660153 C22.7125228,19.4777014 21.5474527,21.4747947 19.1263591,21.4747948 L4.86951132,21.4747954 C2.44615791,21.4747955 1.28058003,19.4821016 2.46997611,17.3664003 L9.64903947,4.59626137 C10.8448025,2.46923461 13.1394837,2.46671982 14.3376804,4.59587683 Z M12.5947204,5.5767388 C12.1619014,4.80763351 11.7276715,4.95706455 11.392432,5.57635449 L4.21336863,18.3464935 C3.87244669,19.0158718 3.97566431,19.4747954 4.86951124,19.4747954 L19.126359,19.4747948 C19.7811973,19.4747952 20.2198277,19.1263084 19.7811978,18.3468772 L12.5947204,5.5767388 Z M11.992869,18.4747953 C11.4405843,18.4747953 10.992869,18.02708 10.992869,17.4747953 C10.992869,16.9225105 11.4405843,16.4747953 11.992869,16.4747953 C12.5451538,16.4747953 12.992869,16.9225105 12.992869,17.4747953 C12.992869,18.02708 12.5451538,18.4747953 11.992869,18.4747953 Z M10.992869,9.47772459 C10.992869,8.92382202 11.4367339,8.47479526 11.992869,8.47479526 C12.5451538,8.47479526 12.992869,8.92332533 12.992869,9.47772459 L12.992869,14.4718659 C12.992869,15.0257685 12.5490042,15.4747953 11.992869,15.4747953 C11.4405843,15.4747953 10.992869,15.0262652 10.992869,14.4718659 L10.992869,9.47772459 Z" id="path-1"></path>
    </defs>
    <g id="Icon/alert" stroke="none" stroke-width="1" fill="none" fill-rule="evenodd">
        <mask id="mask-2" fill="white">
            <use xlink:href="#path-1"></use>
        </mask>
        <use id="Shape" fill="#171818" xlink:href="#path-1"></use>
    </g>
</svg>