<?xml version="1.0" encoding="UTF-8"?>
<svg width="32px" height="32px" viewBox="0 0 32 32" version="1.1" xmlns="http://www.w3.org/2000/svg" xmlns:xlink="http://www.w3.org/1999/xlink">
    <title>Img/Payment/apple</title>
    <defs>
        <rect id="path-1" x="0" y="0" width="32" height="32" rx="3.2"></rect>
    </defs>
    <g id="Img/Payment/apple" stroke="none" stroke-width="1" fill="none" fill-rule="evenodd">
        <mask id="mask-2" fill="white">
            <use xlink:href="#path-1"></use>
        </mask>
        <use id="Rectangle" fill="#000000" xlink:href="#path-1"></use>
        <path d="M9.23322284,13.2045565 C8.98044531,13.5162624 8.58549157,13.7690046 8.18268869,13.7352293 C8.13523716,13.3056916 8.32486491,12.8591708 8.55391667,12.5728442 C8.81463253,12.2442507 9.24901029,12.0168876 9.60454002,12 C9.64396403,12.4380292 9.47815125,12.8760585 9.23322284,13.2045565 L9.23322284,13.2045565 Z M9.59660169,13.8110806 C9.01995852,13.7774007 8.52234178,14.1648624 8.24583848,14.1648624 C7.96933518,14.1648624 7.54280654,13.8279682 7.08470301,13.8363643 C6.4922724,13.8447604 5.93141667,14.2070338 5.6311876,14.7797825 C5.00718209,15.9253754 5.46528563,17.6270202 6.07359288,18.5535508 C6.37373276,19.0252599 6.72917329,19.5307443 7.19530433,19.5138567 C7.63762042,19.4970644 7.81137152,19.2106424 8.34859067,19.2106424 C8.88572063,19.2106424 9.04368429,19.5138567 9.50972614,19.5054605 C9.99155544,19.4970644 10.2996336,19.0421476 10.5919244,18.5788346 C10.9315775,18.0565579 11.0658154,17.5426774 11.0737537,17.5174891 C11.0579662,17.509093 10.1337317,17.1300274 10.1258825,15.9928306 C10.1179442,15.0409208 10.852551,14.5860994 10.8920642,14.5607202 C10.4733847,13.9037241 9.82565346,13.8363643 9.59660169,13.8110806 L9.59660169,13.8110806 Z M12.9458594,12.5222766 L12.9458594,19.4464969 L13.9490312,19.4464969 L13.9490312,17.0879514 L15.3471568,17.0879514 C16.6189827,17.0879514 17.5194916,16.1529293 17.5194916,14.8050663 C17.5194916,13.4572987 16.6427085,12.5306727 15.3788208,12.5306727 L12.9458594,12.5222766 L12.9458594,12.5222766 Z M13.9490312,13.432015 L15.1102559,13.432015 C15.9870389,13.432015 16.4847449,13.9290078 16.4847449,14.8050663 C16.4847449,15.6811248 15.9870389,16.1781176 15.1023176,16.1781176 L13.9490312,16.1781176 L13.9490312,13.432015 Z M19.3599332,19.5054605 C19.991877,19.5054605 20.5843076,19.1600748 20.8450235,18.621006 L20.8686601,18.621006 L20.8686601,19.454893 L21.8007438,19.454893 L21.8007438,16.0012267 C21.8007438,14.9988449 21.0503495,14.3586409 19.8970631,14.3586409 C18.8228032,14.3586409 18.0328957,15.0156371 18.00917,15.9085832 L18.9177063,15.9085832 C18.9887944,15.4789501 19.3601116,15.2010195 19.8735158,15.2010195 C20.4896722,15.2010195 20.8371744,15.5042338 20.8371744,16.0685865 L20.8371744,16.4476521 L19.581225,16.5235033 C18.4121512,16.5992592 17.7802074,17.1131397 17.7802074,17.9975943 C17.76442,18.9073326 18.4200896,19.5054605 19.3600224,19.5054605 L19.3599332,19.5054605 Z M19.6284982,18.6799696 C19.0913682,18.6799696 18.7517151,18.4019436 18.7517151,17.9808021 C18.7517151,17.5427728 19.0835191,17.2900306 19.7075246,17.2563508 L20.829236,17.1804995 L20.829236,17.5680566 C20.829236,18.2250527 20.3157427,18.6799696 19.6284982,18.6799696 L19.6284982,18.6799696 Z M23.048844,21.3333333 C24.0283792,21.3333333 24.4944211,20.9373801 24.8972239,19.7244275 L26.6666667,14.4260007 L25.6397691,14.4260007 L24.4549079,18.5198709 L24.4311821,18.5198709 L23.2463209,14.4260007 L22.1957867,14.4260007 L23.9019905,19.4717807 L23.8071766,19.774995 C23.6492129,20.2972716 23.4042845,20.4910502 22.9541193,20.4910502 C22.8750929,20.4910502 22.7171292,20.4825586 22.6618286,20.4741625 L22.6618286,21.3080496 C22.7249783,21.3249372 22.9699068,21.3333333 23.0489332,21.3333333 L23.048844,21.3333333 Z" id="Shape" fill="#FFFFFF" mask="url(#mask-2)"></path>
    </g>
</svg>