<?xml version="1.0" encoding="UTF-8"?>
<svg width="24px" height="24px" viewBox="0 0 24 24" version="1.1" xmlns="http://www.w3.org/2000/svg" xmlns:xlink="http://www.w3.org/1999/xlink">
    <title>Icon/birthday</title>
    <g id="Icon/birthday" stroke="none" stroke-width="1" fill="none" fill-rule="evenodd">
        <path d="M15.122747,15.5545551 L16.077759,16.5318143 L16.22704,16.6750632 C16.7880895,17.1795704 17.4965726,17.4545706 18.2498458,17.4545706 C18.8983611,17.4545706 19.4935726,17.2454654 19.9910883,16.8954793 L19.9910883,16.8954793 L19.9910883,21.0909226 C19.9910883,21.5909088 19.59131,22 19.1027061,22 L19.1027061,22 L4.88838223,22 C4.39977825,22 4,21.5909088 4,21.0909226 L4,21.0909226 L4,16.8954367 C4.49747406,17.2454228 5.09714143,17.454528 5.74124249,17.454528 C6.56303665,17.454528 7.3314854,17.1272551 7.90450089,16.5318143 L7.90450089,16.5318143 L8.86396868,15.5545551 L9.81902226,16.5318143 C10.9783792,17.7181788 13.0039223,17.7181788 14.1632792,16.5318143 L14.1632792,16.5318143 L15.122747,15.5545551 Z M12.8839472,8.36362668 L12.8839472,10.181824 L17.3259416,10.181824 L17.4943186,10.1871967 C18.8864103,10.2762958 19.9914711,11.4624056 20,12.9090987 L20,12.9090987 L20,14.3045258 C20,15.2863447 19.2182253,16.086331 18.2587575,16.086331 C17.7923496,16.086331 17.3570077,15.8999388 17.028315,15.5635892 L17.028315,15.5635892 L15.1315755,13.6272242 L13.2304217,15.5635892 C12.5730363,16.2363311 11.4270053,16.2363311 10.7695783,15.5635892 L10.7695783,15.5635892 L8.87283876,13.6272242 L6.97168498,15.5681488 C6.64295065,15.9045411 6.20765044,16.0908907 5.74124249,16.0908907 C4.78177469,16.0908907 4,15.2909043 4,14.3090854 L4,14.3090854 L4,12.9090987 C4,11.4045379 5.19487888,10.181824 6.66518832,10.181824 L6.66518832,10.181824 L11.1071411,10.181824 L11.1071411,8.36362668 L12.8839472,8.36362668 Z M11.995565,2 L13.5191782,4.70000192 C13.6790895,4.97272938 13.7723711,5.29544268 13.7723711,5.63635201 C13.7723711,6.64092659 12.9772288,7.45454933 11.995565,7.45454933 C11.0139011,7.45454933 10.2187589,6.64092659 10.2187589,5.63635201 C10.2187589,5.29544268 10.3120405,4.97272938 10.4719518,4.70000192 L10.4719518,4.70000192 L11.995565,2 Z" id="Combined-Shape" fill="#62636A"></path>
    </g>
</svg>