<?xml version="1.0" encoding="UTF-8"?>
<svg width="24px" height="24px" viewBox="0 0 24 24" version="1.1" xmlns="http://www.w3.org/2000/svg" xmlns:xlink="http://www.w3.org/1999/xlink">
    <title>Icon/book</title>
    <g id="Icon/book" stroke="none" stroke-width="1" fill="none" fill-rule="evenodd">
        <path d="M18.4615469,3 L6.61539583,3 C5.72464583,3 5,3.69876563 5,4.55770312 L5,19.442332 C5,20.3012344 5.72464583,21 6.61539583,21 L18.4615469,21 C18.7589375,21 19,20.7675117 19,20.4807773 L19,3.51922266 C19,3.23248828 18.758901,3 18.4615469,3 Z M7.69230208,5.25 L16.3076979,5.25 C16.6050885,5.25 16.846151,5.48248828 16.846151,5.76922266 C16.846151,6.05595703 16.6050521,6.28844531 16.3076979,6.28844531 L7.69230208,6.28844531 C7.39491146,6.28844531 7.15384896,6.05595703 7.15384896,5.76922266 C7.15384896,5.48248828 7.39494792,5.25 7.69230208,5.25 Z M7.69230208,8.01922266 L12.0179375,8.01922266 C12.3153281,8.01922266 12.5563906,8.25171094 12.5563906,8.53844531 C12.5563906,8.82517969 12.3152917,9.05766797 12.0179375,9.05766797 L7.69230208,9.05766797 C7.39491146,9.05766797 7.15384896,8.82517969 7.15384896,8.53844531 C7.15384896,8.25171094 7.39494792,8.01922266 7.69230208,8.01922266 Z M17.9230938,19.9615547 L6.61539583,19.9615547 C6.31847917,19.9615547 6.07694271,19.7286445 6.07694271,19.442332 L6.07694271,18.75 L17.9230938,18.75 L17.9230938,19.9615547 Z" id="Shape" fill="#62636A"></path>
    </g>
</svg>