<?xml version="1.0" encoding="UTF-8"?>
<svg width="24px" height="24px" viewBox="0 0 24 24" version="1.1" xmlns="http://www.w3.org/2000/svg" xmlns:xlink="http://www.w3.org/1999/xlink">
    <title>Icon/calendar</title>
    <g id="Icon/calendar" stroke="none" stroke-width="1" fill="none" fill-rule="evenodd">
        <path d="M19.4128992,7.2890625 C19.8810431,7.2890625 20.3229286,7.49247656 20.6245822,7.84730859 C20.9251798,8.20055859 21.0545706,8.666625 20.9787876,9.12548437 L20.9787876,9.12548437 L20.0411624,13.6171875 L17.2798177,13.6171875 C16.9879846,13.6171875 16.7518359,13.8530508 16.7518359,14.1445312 C16.7518359,14.4360117 16.9879846,14.671875 17.2798177,14.671875 L17.2798177,14.671875 L20.0412328,14.671875 L20.9746341,19.1414297 C21.0545706,19.6224023 20.9251446,20.0884687 20.624547,20.4417539 C20.3228934,20.7965859 19.8810431,21 19.412864,21 L19.412864,21 L4.58710075,21 C4.11895692,21 3.67707137,20.7965859 3.37541779,20.4417539 C3.07482017,20.0885039 2.94542944,19.6224375 3.02121242,19.1635781 L3.02121242,19.1635781 L3.95883765,14.671875 L6.7201823,14.671875 C7.01201543,14.671875 7.24816407,14.4360117 7.24816407,14.1445312 C7.24816407,13.8530508 7.01201543,13.6171875 6.7201823,13.6171875 L6.7201823,13.6171875 L3.95876725,13.6171875 L3.02533068,9.14763281 C2.94539424,8.66666016 3.07482017,8.20059375 3.37541779,7.84730859 C3.67707137,7.49247656 4.11892172,7.2890625 4.58710075,7.2890625 L4.58710075,7.2890625 Z M9.88807292,10.453125 C8.99504456,10.453125 8.1943074,11.0180508 7.89677208,11.8595508 C7.79934184,12.1340508 7.94319927,12.4353047 8.21852417,12.532125 C8.49180753,12.6299648 8.79497466,12.4857539 8.89191212,12.2107617 C9.04094377,11.7905391 9.44154114,11.5078125 9.88807292,11.5078125 C10.4701904,11.5078125 10.9440365,11.9810859 10.9440365,12.5625 C10.9440365,13.1439141 10.4701904,13.6171875 9.88807292,13.6171875 L9.88807292,13.6171875 L9.23172118,13.6171875 C8.94041604,13.6171875 8.70373941,13.8530508 8.70373941,14.1445313 C8.70373941,14.4360117 8.94041604,14.671875 9.23172118,14.671875 L9.23172118,14.671875 L9.88807292,14.671875 C10.4701904,14.671875 10.9440365,15.1451484 10.9440365,15.7265625 C10.9440365,16.3079766 10.4701904,16.78125 9.88807292,16.78125 C9.44154114,16.78125 9.04094377,16.4985234 8.89194732,16.0783008 C8.79500986,15.8038008 8.49233551,15.6590977 8.21855937,15.7569375 C7.94319927,15.8537578 7.79934184,16.1550117 7.89680728,16.4295117 C8.1943074,17.2710117 8.99504456,17.8359375 9.88807292,17.8359375 C11.0528359,17.8359375 12,16.889918 12,15.7265625 C12,15.0972656 11.7225984,14.5312852 11.2833175,14.1445313 C11.7225984,13.7577773 12,13.1917969 12,12.5625 C12,11.3991445 11.0528359,10.453125 9.88807292,10.453125 Z M15.416922,10.5154219 C15.2457151,10.4237695 15.0369159,10.4340352 14.8750015,10.5416836 L14.8750015,10.5416836 L13.2910562,11.5963711 C13.0482198,11.7580898 12.9827149,12.0851133 13.1446293,12.3276563 C13.3060157,12.569707 13.6334348,12.6345703 13.8767992,12.4739063 L13.8767992,12.4739063 L14.6399088,11.9656172 L14.6399088,17.3085938 C14.6399088,17.6000742 14.8760575,17.8359375 15.1678906,17.8359375 C15.4597237,17.8359375 15.6958724,17.6000742 15.6958724,17.3085938 L15.6958724,17.3085938 L15.6958724,10.9804688 C15.6958724,10.7858086 15.5886217,10.6071094 15.416922,10.5154219 Z M18.3953024,3 C19.268725,3 19.9792477,3.70966406 19.9792477,4.58203125 L19.9792477,4.58203125 L19.9792477,6.1640625 L4.1397946,6.1640625 L4.1397946,4.58203125 C4.1397946,3.70966406 4.85028207,3 5.72373991,3 L5.72373991,3 Z M17.3393388,4.0546875 C17.0477521,4.0546875 16.8113571,4.29072656 16.8113571,4.58203125 C16.8113571,4.87326563 17.0477521,5.109375 17.3393388,5.109375 C17.6309256,5.109375 17.8673206,4.87326563 17.8673206,4.58203125 C17.8673206,4.29072656 17.6309256,4.0546875 17.3393388,4.0546875 Z M6.77970345,4.0546875 C6.48811671,4.0546875 6.25172168,4.29072656 6.25172168,4.58203125 C6.25172168,4.87326563 6.48811671,5.109375 6.77970345,5.109375 C7.07129018,5.109375 7.30768522,4.87326563 7.30768522,4.58203125 C7.30768522,4.29072656 7.07129018,4.0546875 6.77970345,4.0546875 Z" id="Combined-Shape" fill="#000000"></path>
    </g>
</svg>