<?xml version="1.0" encoding="UTF-8"?>
<svg width="24px" height="24px" viewBox="0 0 24 24" version="1.1" xmlns="http://www.w3.org/2000/svg" xmlns:xlink="http://www.w3.org/1999/xlink">
    <title>Icon/clock_w</title>
    <g id="Icon/clock_w" stroke="none" stroke-width="1" fill="none" fill-rule="evenodd" fill-opacity="0.7">
        <path d="M12,2 C17.5228475,2 22,6.4771525 22,12 C22,17.5228475 17.5228475,22 12,22 C6.4771525,22 2,17.5228475 2,12 C2,6.4771525 6.4771525,2 12,2 Z M12.0000423,6.18973621 C11.5365626,6.18973621 11.1603929,6.56590592 11.1603929,7.02938561 L11.1603929,7.02938561 L11.1603929,12.067155 C11.1603929,12.3316679 11.2846678,12.5810221 11.4962527,12.7388745 L11.4962527,12.7388745 L14.8547656,15.2577804 C15.0058856,15.371131 15.1822416,15.4257103 15.3577084,15.4257103 C15.6137951,15.4257103 15.8656476,15.310666 16.0303171,15.089046 C16.309057,14.7187619 16.2335182,14.1923191 15.8623873,13.9143837 L15.8623873,13.9143837 L12.8396917,11.6473727 L12.8396917,7.02938561 C12.8396917,6.56590592 12.463522,6.18973621 12.0000423,6.18973621 Z" id="Combined-Shape" fill="#FFFFFF"></path>
    </g>
</svg>