<?xml version="1.0" encoding="UTF-8"?>
<svg width="24px" height="24px" viewBox="0 0 24 24" version="1.1" xmlns="http://www.w3.org/2000/svg" xmlns:xlink="http://www.w3.org/1999/xlink">
    <title>Icon/credit</title>
    <g id="Icon/credit" stroke="none" stroke-width="1" fill="none" fill-rule="evenodd">
        <path d="M21.8046875,9.43181818 C21.9125391,9.43181818 22,9.51450852 22,9.61647727 L22,9.61647727 L22,15.9318182 C22,17.0740455 21.020625,18 19.8125,18 L19.8125,18 L4.1875,18 C2.979375,18 2,17.0740455 2,15.9318182 L2,15.9318182 L2,9.61647727 C2,9.51450852 2.08746094,9.43181818 2.1953125,9.43181818 L2.1953125,9.43181818 Z M6.375,13.2727273 L5.75,13.2727273 C5.40484375,13.2727273 5.125,13.5373068 5.125,13.8636364 L5.125,13.8636364 L5.125,14.4545455 C5.125,14.780875 5.40484375,15.0454545 5.75,15.0454545 L5.75,15.0454545 L6.375,15.0454545 C6.72015625,15.0454545 7,14.780875 7,14.4545455 L7,14.4545455 L7,13.8636364 C7,13.5373068 6.72015625,13.2727273 6.375,13.2727273 L6.375,13.2727273 Z M19.8125,5 C21.020625,5 22,5.92595455 22,7.06818182 L22,7.06818182 L22,8.06534091 C22,8.16730966 21.9125391,8.25 21.8046875,8.25 L21.8046875,8.25 L2.1953125,8.25 C2.08746094,8.25 2,8.16730966 2,8.06534091 L2,8.06534091 L2,7.06818182 C2,5.92595455 2.979375,5 4.1875,5 L4.1875,5 Z" id="Combined-Shape" fill="#62636A"></path>
    </g>
</svg>