<?xml version="1.0" encoding="UTF-8"?>
<svg width="24px" height="24px" viewBox="0 0 24 24" version="1.1" xmlns="http://www.w3.org/2000/svg" xmlns:xlink="http://www.w3.org/1999/xlink">
    <title>Icon/duedate_w</title>
    <g id="Icon/duedate_w" stroke="none" stroke-width="1" fill="none" fill-rule="evenodd" fill-opacity="0.7">
        <path d="M18,2 C18.6,2 19,2.4 19,3 L19,3 L19,4 L21,4 C21.5,4 22,4.4 22,5 L22,5 L22,21 C22,21.6 21.5,22 21,22 L21,22 L3,22 C2.4,22 2,21.6 2,21 L2,21 L2,5 C2,4.4 2.4,4 3,4 L3,4 L5,4 L5,3 C5,2.4 5.4,2 6,2 C6.6,2 7,2.4 7,3 L7,3 L7,4 L17,4 L17,3 C17,2.4 17.4,2 18,2 Z M20,8 L4,8 L4,20 L20,20 L20,8 Z M9,15 L9,17 L7,17 L7,15 L9,15 Z M13,15 L13,17 L11,17 L11,15 L13,15 Z M17,15 L17,17 L15,17 L15,15 L17,15 Z M9,11 L9,13 L7,13 L7,11 L9,11 Z M13,11 L13,13 L11,13 L11,11 L13,11 Z M17,11 L17,13 L15,13 L15,11 L17,11 Z" id="Combined-Shape" fill="#FFFFFF"></path>
    </g>
</svg>