<?xml version="1.0" encoding="UTF-8"?>
<svg width="349px" height="160px" viewBox="0 0 349 160" version="1.1" xmlns="http://www.w3.org/2000/svg" xmlns:xlink="http://www.w3.org/1999/xlink">
    <title>Img/Card/Event-08</title>
    <defs>
        <rect id="path-1" x="0" y="0" width="349" height="160"></rect>
        <linearGradient x1="0.556757601%" y1="43.1443307%" x2="102.381917%" y2="55.2452616%" id="linearGradient-3">
            <stop stop-color="#31BAF9" offset="0%"></stop>
            <stop stop-color="#0084A2" offset="99.9098558%"></stop>
        </linearGradient>
        <rect id="path-4" x="0" y="0.681944444" width="1353" height="501" rx="20"></rect>
        <filter id="filter-6">
            <feColorMatrix in="SourceGraphic" type="matrix" values="0 0 0 0 0.337255 0 0 0 0 0.909804 0 0 0 0 0.968627 0 0 0 1.000000 0"></feColorMatrix>
        </filter>
        <filter id="filter-7">
            <feColorMatrix in="SourceGraphic" type="matrix" values="0 0 0 0 0.337255 0 0 0 0 0.909804 0 0 0 0 0.968627 0 0 0 1.000000 0"></feColorMatrix>
        </filter>
        <filter id="filter-8">
            <feColorMatrix in="SourceGraphic" type="matrix" values="0 0 0 0 0.423529 0 0 0 0 0.572549 0 0 0 0 0.972549 0 0 0 1.000000 0"></feColorMatrix>
        </filter>
        <linearGradient x1="50%" y1="0%" x2="50%" y2="100%" id="linearGradient-9">
            <stop stop-color="#AA37E6" offset="0%"></stop>
            <stop stop-color="#9291B0" offset="100%"></stop>
        </linearGradient>
        <linearGradient x1="50%" y1="0%" x2="50%" y2="100%" id="linearGradient-10">
            <stop stop-color="#D238F2" offset="0%"></stop>
            <stop stop-color="#9FADB9" offset="100%"></stop>
        </linearGradient>
        <linearGradient x1="50%" y1="0%" x2="50%" y2="100%" id="linearGradient-11">
            <stop stop-color="#6F5FFD" offset="0%"></stop>
            <stop stop-color="#4BBFFD" offset="100%"></stop>
        </linearGradient>
        <filter id="filter-12">
            <feColorMatrix in="SourceGraphic" type="matrix" values="0 0 0 0 1.000000 0 0 0 0 0.732923 0 0 0 0 0.713243 0 0 0 1.000000 0"></feColorMatrix>
        </filter>
    </defs>
    <g id="Img/Card/Event-08" stroke="none" stroke-width="1" fill="none" fill-rule="evenodd">
        <g id="Group-6">
            <mask id="mask-2" fill="white">
                <use xlink:href="#path-1"></use>
            </mask>
            <g id="Image"></g>
            <g id="Group-4" mask="url(#mask-2)">
                <g transform="translate(-374.000000, -91.000000)">
                    <mask id="mask-5" fill="white">
                        <use xlink:href="#path-4"></use>
                    </mask>
                    <use id="Rectangle" stroke="none" fill="url(#linearGradient-3)" fill-rule="evenodd" xlink:href="#path-4"></use>
                    <g filter="url(#filter-6)" fill="none" fill-rule="evenodd" id="Group-5" stroke="none" stroke-width="1">
                        <g mask="url(#mask-5)">
                            <g transform="translate(503.000000, 119.000000)" fill="#2E867E" fill-rule="nonzero" id="Path">
                                <path d="M155.609572,126.949864 L156.397622,126.949864 C157.041846,126.521193 157.431519,125.800977 157.437847,125.027257 C157.309882,124.348996 156.671415,123.891022 155.987836,123.987159 L155.168264,124.680558 C155.180523,124.795799 155.180523,124.912016 155.168264,125.027257 C154.979132,125.50003 154.695434,126.477092 155.609572,126.949864 Z"></path>
                                <path d="M104.622906,123.240497 C105.269534,123.366937 105.907776,122.986755 106.104439,122.357988 C106.293571,121.82218 106.104439,121.065745 105.127257,120.656009 L104.087032,121.097263 C103.860435,121.60912 103.860435,122.192831 104.087032,122.704688 L104.622906,123.240497 Z"></path>
                                <path d="M192.88616,83.4113919 C193.367954,83.8521118 194.106554,83.8521118 194.588348,83.4113919 C194.862732,83.1606064 195.019025,82.8060306 195.019025,82.4343294 C195.019025,82.0626282 194.862732,81.7080524 194.588348,81.4572669 L193.422034,81.4572669 C192.948823,81.7633344 192.62796,82.2560274 192.539419,82.8125471 L192.88616,83.4113919 Z"></path>
                                <path d="M146.047409,102.047361 L147.245245,102.23647 C147.475352,102.213096 147.699483,102.149066 147.907207,102.047361 L148.096339,100.818153 C148.095921,100.584256 148.030436,100.355085 147.907207,100.156272 L146.677849,99.9356452 C146.456108,99.9705437 146.242518,100.045291 146.047409,100.156272 L145.826755,101.353962 C145.828633,101.602064 145.905555,101.843791 146.047409,102.047361 L146.047409,102.047361 Z"></path>
                                <path d="M84.1382014,84.9915124 L82.9403658,84.7708854 C82.6968001,84.7733421 82.4579707,84.8384694 82.246882,84.9599942 L82.0262281,86.1576837 C82.0570797,86.4146649 82.1431011,86.6619464 82.278404,86.8826011 L83.4447176,86.8826011 C83.6928503,86.8807237 83.9346067,86.8038106 84.1382014,86.6619741 L84.3273334,85.4642845 C84.2979827,85.2952219 84.2335566,85.1341764 84.1382014,84.9915124 L84.1382014,84.9915124 Z"></path>
                                <path d="M125.047227,36.2613833 C125.097757,37.0546867 125.765491,37.6667019 126.560283,37.6481817 L127.379855,36.6711192 C127.364548,36.5983732 127.364548,36.5232383 127.379855,36.4504922 L126.654849,36.4504922 L127.348333,36.1037926 C127.348333,35.757093 127.348333,34.7169942 126.245063,34.5909217 L125.488535,34.874585 C125.141225,35.2474893 124.979289,35.7563706 125.047227,36.2613833 Z"></path>
                                <path d="M68.3467809,89.1131795 L68.7565668,89.9641694 C69.2924406,90.3423872 70.0174464,90.8151593 70.7424522,90.4054234 C71.1858534,90.0353839 71.4113491,89.4657803 71.34137,88.8925525 L70.5217982,88.136117 C70.3658414,88.1683961 70.2049252,88.1683961 70.0489684,88.136117 C69.7076888,87.9850707 69.3185003,87.9850707 68.9772207,88.136117 C68.6524989,88.371734 68.4276272,88.7202427 68.3467809,89.1131795 L68.3467809,89.1131795 Z"></path>
                                <path d="M138.784923,100.717049 L139.856671,100.086687 L140.487111,99.2987329 L138.154483,97.3761261 L138.154483,97.3761261 C138.123067,97.2201007 138.123067,97.0593793 138.154483,96.9033539 L134.497932,96.9033539 C134.372024,98.203747 134.904296,99.4810436 135.916422,100.307314 C136.765412,100.860065 137.815103,101.010003 138.784923,100.717049 L138.784923,100.717049 Z"></path>
                                <path d="M167.785171,96.0015202 L167.785171,96.0015202 L168.226479,96.600365 L168.636265,98.1132359 L169.802579,99.3739617 C170.241317,99.6893577 170.749422,99.8947366 171.284112,99.9728065 L172.67108,99.5315525 L173.93196,98.3968993 C174.239369,97.9686661 174.434453,97.4701804 174.499355,96.9470646 L174.278701,96.0645565 C174.410194,95.6471487 174.463623,95.2090843 174.436311,94.7723126 L174.278701,94.2995404 L174.278701,94.2995404 C173.944842,92.652984 172.377981,91.5577018 170.716716,91.809607 C169.764907,91.9627138 168.915812,92.4950398 168.363365,93.2850015 C167.810919,94.0749633 167.602305,95.0550899 167.785171,96.0015202 L167.785171,96.0015202 Z"></path>
                                <path d="M32.0114677,101.495715 C31.6042002,101.910977 31.4587913,102.516773 31.6332039,103.071622 L32.3266876,103.733503 L32.5473416,103.733503 C33.0516934,103.943624 33.6190893,103.943624 34.1234411,103.733503 L34.7223589,102.882513 L34.7223589,101.464197 L33.9027872,100.707761 C33.1829001,100.654739 32.4807168,100.947279 32.0114677,101.495715 Z"></path>
                                <path d="M140.852771,127.234915 L140.064722,125.343826 L139.119062,124.524354 L136.124473,123.641846 C133.075163,124.104125 130.807988,126.70439 130.765735,129.787885 L132.152702,133.191844 L133.760324,134.389534 C135.240599,135.307137 137.074537,135.448192 138.677754,134.767751 L139.749502,134.137389 L140.411464,133.538544 C141.41402,132.43206 141.915794,130.961129 141.798431,129.472703 C141.70108,128.671643 141.46649,127.893329 141.104947,127.171879 L140.852771,127.234915 Z"></path>
                                <path d="M164.435508,62.5711287 C164.053238,62.758536 163.818157,63.1544138 163.83659,63.5797094 L164.025722,64.0839997 C164.366595,64.6021399 165.015728,64.8228184 165.601822,64.6198081 C166.274553,64.2582896 166.651656,63.5167445 166.547482,62.7602376 C166.556885,62.2419193 166.222961,61.7796191 165.72791,61.6255844 C165.381168,61.6255844 164.876816,61.6255844 164.372464,62.3189836 L164.435508,62.5711287 Z"></path>
                                <path d="M192.082737,99.7168059 L192.082737,100.536278 C192.210259,102.267421 193.518491,103.680139 195.234936,103.940237 C197.120793,104.219239 198.949984,103.16105 199.648014,101.387268 L199.648014,100.66235 L199.648014,100.000469 L199.458882,99.2755519 C198.76046,97.9755411 197.48445,97.0859542 196.022985,96.8801729 C194.713151,96.7230588 193.411587,97.2317896 192.555566,98.2354531 L192.082737,99.7168059 Z"></path>
                                <path d="M157.958691,119.13703 L156.256504,120.082574 L155.56302,120.965082 L154.743448,123.581088 L154.743448,125.030923 L155.941284,127.426302 L156.760855,128.182737 L159.251093,129.128282 C160.945328,129.187945 162.584748,128.523086 163.758737,127.300229 C164.877874,126.125263 165.45993,124.53907 165.366359,122.919207 L165.019617,121.406336 L164.704397,120.807492 L163.727215,119.546766 C162.04996,118.114373 159.654472,117.88746 157.738037,118.979439 L157.958691,119.13703 Z"></path>
                                <path d="M191.358298,121.411778 L190.980034,122.672504 L190.980034,123.744121 L191.641996,125.004847 L192.524612,125.729764 L193.848535,126.171018 L195.298547,126.171018 L196.496383,125.572174 L197.221388,124.78422 L197.72574,123.491976 L197.72574,123.08224 C197.66233,122.084607 197.167479,121.164066 196.370295,120.560788 C195.408475,119.884951 194.198178,119.665972 193.060486,119.961944 L191.925694,120.655343 L191.358298,121.411778 Z"></path>
                                <path d="M100.957363,129.111334 L100.957363,130.844832 L101.461715,131.72734 L101.461715,131.72734 C101.838411,133.349742 103.412554,134.399043 105.055222,134.122719 L106.063926,133.712983 C107.091455,133.012308 107.639397,131.794809 107.482415,130.561169 C107.320947,128.826367 106.039035,127.403618 104.330216,127.062655 C102.864589,126.870339 101.462164,127.722175 100.957363,129.111334 Z"></path>
                                <path d="M90.9021427,102.800184 C90.5558879,103.251585 90.3283007,103.782557 90.2401809,104.344574 L90.6814887,105.76289 L91.7532364,106.96058 C92.1694057,107.280161 92.6556059,107.496223 93.171726,107.590942 L94.6847815,107.181207 L95.9456611,106.046553 C96.269242,105.612404 96.4755094,105.102225 96.5445789,104.565201 L96.1347931,103.146884 L95.0315234,101.917676 C94.5973206,101.594135 94.0870802,101.387893 93.5499899,101.318832 L92.0999783,101.697049 L90.9021427,102.800184 Z"></path>
                                <path d="M128.344427,111.765681 L127.524856,112.837298 L127.178114,114.822941 C127.225182,115.872953 127.792633,116.83041 128.691169,117.37591 C129.617302,117.868995 130.728103,117.868995 131.654236,117.37591 L132.442286,116.745548 L132.946638,116.02063 L132.946638,115.800003 C133.960813,115.840838 134.932605,115.390881 135.557481,114.591137 C136.182358,113.791393 136.383858,112.739718 136.098837,111.765681 L136.098837,111.387463 L135.562963,110.315846 L134.869479,109.653965 L133.860776,109.181193 C132.267426,108.84072 130.633719,109.54984 129.794439,110.946209 L128.344427,111.765681 Z"></path>
                                <path d="M149.701751,98.5930738 L151.719158,100.263535 L152.0659,100.263535 C152.776431,100.596724 153.585713,100.652918 154.335484,100.421126 L154.713747,100.105945 L154.713747,100.105945 L155.060489,99.6962088 L155.344187,99.4440637 L155.344187,99.4440637 L156.415935,98.1833379 C156.322967,97.3847419 155.928289,96.6518587 155.312665,96.1346585 C154.57852,95.5395588 153.63483,95.266718 152.69634,95.378223 C150.99259,95.463121 149.665519,96.8878023 149.701751,98.5930738 Z"></path>
                                <path d="M179.564411,85.0618411 L179.186147,86.4171213 C179.192002,88.5371193 180.419379,90.4638664 182.338346,91.3654701 L184.544886,90.5459983 L185.332935,89.1907181 L185.522067,87.7408834 L185.522067,87.0790024 C185.501285,85.9708612 185.021913,84.9209379 184.198144,84.179333 C183.487652,83.5645922 182.539934,83.2988011 181.613341,83.4544157 L180.383983,84.1478149 L179.564411,85.0618411 Z"></path>
                                <path d="M209.368091,124.990512 L209.368091,124.990512 C208.69861,124.645997 207.936505,124.524517 207.193074,124.643812 L206.121326,125.179621 L205.459364,125.87302 L204.92349,126.976155 L204.92349,127.701073 C205.074368,129.549174 206.664768,130.944091 208.516997,130.852887 C210.337954,130.751074 211.740864,129.208061 211.669196,127.385891 L210.975713,125.999093 L209.998531,125.211139 L209.368091,124.990512 Z"></path>
                                <path d="M116.627158,59.1627958 C116.312845,59.5271389 116.174531,60.0111779 116.248894,60.4865579 L116.248894,60.738703 L117.036944,61.4005841 C117.56505,61.4356968 118.082459,61.240255 118.455434,60.8647756 C118.762347,60.4964788 118.899689,60.0158416 118.833697,59.5410135 L118.833697,59.1627958 L118.014126,58.5009147 C117.476002,58.5027368 116.967025,58.7456279 116.627158,59.1627958 L116.627158,59.1627958 Z"></path>
                                <path d="M74.2429372,120.934129 C74.8145362,120.951637 75.3659389,120.721914 75.7559927,120.303767 C76.0938444,119.718662 76.0938444,118.997783 75.7559927,118.412678 L75.030987,118.002942 C74.3690252,118.002942 73.5809754,118.286605 73.5494534,119.767958 L73.5494534,119.767958 L74.2429372,120.934129 Z"></path>
                                <path d="M121.813925,80.5533153 L121.530227,79.5132165 L120.647611,78.9143718 C119.972823,79.0414677 119.373802,79.4256982 118.976946,79.9859887 C118.690599,80.3301245 118.633385,80.8104361 118.830883,81.2121923 C119.02838,81.6139486 119.443667,81.8620423 119.891083,81.8455592 L120.206303,81.5618959 C120.577023,81.668722 120.970375,81.668722 121.341095,81.5618959 L121.813925,80.5533153 Z"></path>
                                <path d="M167.143829,110.552723 L167.553615,112.412293 L168.562318,113.452392 L170.359072,113.956682 L171.74604,113.578465 L172.723221,112.916584 L173.322139,112.12863 L173.700403,110.993977 L173.700403,110.079951 C173.284583,108.523578 171.761897,107.531235 170.16994,107.779126 L169.192758,108.157344 L167.963401,109.102888 L167.301439,110.458168 L169.035148,111.151567 L169.035148,111.151567 L167.143829,110.552723 Z"></path>
                                <path d="M145.517828,124.079308 L144.383036,122.030628 L142.933025,121.463302 L141.766711,121.463302 C140.663477,121.367575 139.575611,121.772582 138.803644,122.566437 C138.147701,123.355334 137.871129,124.392352 138.047116,125.40307 L139.150386,126.852904 L140.442788,127.388713 L142.302585,127.199604 C143.992771,127.084514 145.352333,125.7651 145.517828,124.079308 L145.517828,124.079308 Z"></path>
                                <path d="M172.734703,84.1931717 L172.545571,85.4854156 L172.545571,85.8321152 C172.766225,86.651587 173.617319,88.5741938 176.927128,88.2905305 L178.188007,87.6286494 L178.944535,86.7146232 L179.259755,84.7289801 C179.008439,83.7604653 178.354408,82.9458941 177.463002,82.4911918 C176.4034,81.9999702 175.181272,81.9999702 174.121671,82.4911918 L173.176011,83.2791455 L172.734703,84.1931717 Z"></path>
                                <path d="M129.985692,34.0005039 L129.575906,34.0005039 C129.055594,34.002955 128.56613,34.2476572 128.251982,34.6623849 C127.966275,35.100511 127.88571,35.6413796 128.031328,36.1437378 C128.178452,36.6842452 128.528492,37.1471441 129.00851,37.4359817 L129.449818,37.4359817 C129.963707,37.408016 130.443033,37.1683825 130.773741,36.7741006 C131.281418,35.7862152 130.936985,34.5739599 129.985692,34.0005039 Z"></path>
                                <path d="M12.2890343,125.401335 L11.9738144,125.180708 L10.7759787,126.283843 L11.0281547,127.229388 C11.1294897,127.880836 11.5091556,128.456017 12.0683803,128.805295 C12.5302575,129.00896 13.0565147,129.00896 13.5183919,128.805295 L13.9912217,127.954305 C13.9430516,126.85294 13.2872758,125.869396 12.2890343,125.401335 L12.2890343,125.401335 Z"></path>
                                <path d="M146.95263,106.998218 L146.95263,106.998218 L145.502619,105.863565 C144.754437,106.729467 144.47245,107.90427 144.746091,109.01538 C145.209788,110.318442 146.207428,111.361824 147.488504,111.883531 L147.961334,112.167194 L149.947219,112.167194 L151.176577,111.347722 L151.964627,109.488152 C151.239621,105.138648 148.560252,104.791948 147.456982,104.823466 L147.456982,106.683037 L146.95263,106.998218 Z"></path>
                                <path d="M132.527773,123.389206 C133.468846,123.440739 134.390353,123.107018 135.080151,122.464871 C135.769949,121.822724 136.168598,120.927483 136.184324,119.985246 L135.869104,118.409339 L135.049532,117.400758 L133.59952,118.535411 L133.59952,118.535411 L131.802767,118.535411 L130.100579,117.778976 L129.690794,118.72452 L129.690794,119.985246 L130.037535,121.340526 L130.731019,122.349107 L131.519069,122.947952 L132.527773,123.389206 Z"></path>
                                <path d="M201.663041,91.7946068 L200.307595,92.4564879 L199.267369,93.78025 C199.043893,94.2535909 198.925601,94.7697126 198.920627,95.2931209 L199.582589,96.6484011 L200.938035,97.6884999 C201.424414,97.9388528 201.967581,98.0583349 202.514134,98.0351995 L203.838058,97.3733185 L204.846762,96.0495564 C205.069057,95.5981901 205.187531,95.1028111 205.193504,94.5997217 L204.531542,93.1814052 L203.176096,92.1097883 C202.70258,91.8901327 202.184889,91.7822935 201.663041,91.7946068 L201.663041,91.7946068 Z"></path>
                                <path d="M73.0851327,51.7810262 C73.0511369,51.2137977 72.7460902,50.6976277 72.2655609,50.3942278 C71.5352746,50.1124653 70.726264,50.1124653 69.9959776,50.3942278 L69.4601038,51.1821814 C69.4406517,51.339172 69.4406517,51.497963 69.4601038,51.6549536 C69.6807577,52.4744254 70.3427195,52.7580887 71.4775112,52.4744254 L71.8557751,52.4744254 C71.7250726,52.4701095 71.6058708,52.3985972 71.5405552,52.2853165 L73.0851327,51.7810262 Z"></path>
                                <path d="M183.405328,61.4552089 L183.783592,62.0540536 C184.375617,62.4475305 185.14593,62.4475305 185.737955,62.0540536 C186.368086,61.5839406 186.544496,60.715566 186.147741,60.0368924 L185.296648,59.5641202 C183.373806,59.7532291 183.342284,61.0769911 183.405328,61.4552089 Z"></path>
                                <path d="M188.623324,113.784769 L189.34833,112.555561 C189.117554,111.678737 188.520306,110.943752 187.709186,110.5384 C187.020757,110.210593 186.236826,110.143408 185.502647,110.349291 C183.655537,110.830114 182.506637,112.670898 182.886322,114.541204 L184.935251,115.896485 L184.935251,115.896485 C185.429739,116.12024 185.968829,116.228045 186.51135,116.211666 L188.308104,114.824868 C188.444164,114.488323 188.549662,114.14022 188.623324,113.784769 L188.623324,113.784769 Z"></path>
                                <path d="M112.986899,122.588918 C111.978195,121.800964 111.316233,122.021591 111.001013,122.242218 C110.541213,122.568755 110.338774,123.150694 110.496662,123.692053 C110.615397,124.150004 110.980553,124.502945 111.442321,124.606079 C111.852107,124.606079 112.451025,124.606079 113.112987,123.723571 L112.986899,122.588918 Z"></path>
                                <path d="M63.18233,34.6908261 C63.7019271,35.2899227 64.5960039,35.3861962 65.2312594,34.9114531 L65.2312594,33.6192092 L65.0736494,33.6192092 L64.5377756,34.0919814 L64.8845175,33.3985822 C64.6638636,33.146437 63.9703798,32.3584834 63.087764,32.8312556 L62.6779782,33.5246548 C62.7012403,33.9611699 62.8801723,34.3748998 63.18233,34.6908261 L63.18233,34.6908261 Z"></path>
                                <path d="M175.013076,99.6498497 L174.098938,96.9708074 L173.373933,96.1828538 L170.978261,94.9536461 L169.906514,94.9536461 L167.353232,95.6470453 C166.147326,96.5160392 165.367962,97.8568399 165.209737,99.3346682 C165.111496,100.776982 165.600313,102.197788 166.565183,103.274436 L167.384754,104.030872 L169.811948,104.850344 L170.852173,104.850344 L173.184801,103.936317 L173.720674,103.463545 L174.950032,100.942094 L175.013076,99.6498497 Z"></path>
                                <path d="M48.6778031,110.905352 L49.4973749,111.378125 C50.1593367,111.378125 51.0419524,111.378125 51.3886943,110.558653 C51.7354362,109.739181 51.0734744,109.0773 50.8843425,108.825155 L49.7495508,108.825155 C49.6351573,108.934031 49.4936417,109.010223 49.3397649,109.045782 C48.9787601,109.164905 48.6824804,109.426966 48.5201932,109.770699 C48.4184288,110.154747 48.4752168,110.563571 48.6778031,110.905352 L48.6778031,110.905352 Z"></path>
                                <path d="M111.996345,78.9522353 L112.500697,77.7860639 L112.500697,76.7774833 L109.506108,76.6198926 L109.506108,76.6198926 C109.366406,76.5182604 109.248502,76.3896533 109.159366,76.2416748 L106.164777,78.3849087 C106.842971,79.4927883 108.020165,80.1990187 109.316976,80.2759974 C110.357907,80.2364908 111.332574,79.7549495 111.996345,78.9522353 L111.996345,78.9522353 Z"></path>
                                <path d="M156.273183,111.783056 L158.574288,114.146916 L159.803646,114.58817 L160.465608,114.58817 L160.465608,114.58817 C162.542588,115.152669 164.756854,114.435285 166.108044,112.760118 L166.927616,110.742957 L166.927616,109.734376 L166.927616,109.734376 L166.927616,108.788832 L166.927616,108.000878 L166.171088,106.141308 L165.88739,105.794608 C165.325681,105.159465 164.624341,104.663192 163.838461,104.344773 L163.397153,104.155664 L163.397153,104.155664 L162.419971,103.872001 L161.253658,103.872001 L158.4482,104.722991 C156.339865,106.405007 155.47683,109.206401 156.273183,111.783056 Z"></path>
                                <path d="M175.218251,83.8449106 L175.218251,82.7417756 L174.398679,79.9681788 L174.178025,79.7160337 C173.301908,78.7038182 172.096038,78.0339724 170.77365,77.824945 L169.859513,77.1000276 L168.913853,76.9109188 L166.64427,77.1000276 C164.856792,77.8876933 163.767489,79.724085 163.933379,81.6701586 C163.927403,82.6083021 164.166443,83.5317568 164.626862,84.349201 C164.497394,85.7255024 164.942259,87.0941502 165.85622,88.1313783 L167.180144,88.1313783 C167.736794,88.543655 168.368519,88.8434204 169.039941,89.0138864 L172.412794,88.2259328 L172.948668,87.7531606 L173.673674,86.2718078 L173.673674,86.2718078 L175.218251,83.8449106 Z"></path>
                                <path d="M182.014234,104.871764 C183.055854,105.882852 184.468833,106.418956 185.919078,106.353315 C187.369323,106.287674 188.728081,105.626116 189.674078,104.525064 L190.493649,103.106748 L190.777347,101.940577 C190.943194,100.522194 190.495973,99.1004345 189.54799,98.0323266 C187.453794,95.8081949 183.964845,95.6680935 181.699014,97.7171451 L180.343569,100.679851 L180.343569,101.940577 L182.014234,104.871764 Z"></path>
                                <path d="M131.941104,57.2994415 L131.941104,57.2994415 L132.66611,57.5200685 L133.895468,58.497131 L135.566133,58.8123124 C136.107644,58.8106556 136.639597,58.6695425 137.110711,58.4025765 L137.993326,57.2364052 L138.308546,55.5974616 C138.300465,55.0607413 138.171155,54.5327896 137.930282,54.0530725 L137.205277,53.5172641 C137.076139,53.0994076 136.86144,52.712997 136.574837,52.3826109 L136.165051,52.0674294 L136.165051,52.0674294 C134.951612,50.9266536 133.059977,50.9266536 131.846538,52.0674294 C131.128739,52.7547077 130.730746,53.7105793 130.748704,54.7041278 C130.766661,55.6976764 131.198938,56.6385449 131.941104,57.2994415 L131.941104,57.2994415 Z"></path>
                                <path d="M127.881003,98.0888217 L126.115772,97.0487229 L124.886414,97.0487229 L121.954869,98.1203398 C119.763221,100.295313 119.469672,103.737423 121.261385,106.252021 L124.413584,108.174628 L126.39947,108.174628 C128.137953,108.032249 129.700062,107.057517 130.591894,105.558622 L131.096246,104.423969 L131.253856,103.572979 C131.407134,102.077754 130.939928,100.585158 129.961455,99.4441019 C129.404656,98.8583301 128.754977,98.368468 128.038613,97.9942672 L127.881003,98.0888217 Z"></path>
                                <path d="M121.553676,125.881891 L121.143891,122.982222 C120.854057,122.189141 120.427293,121.453063 119.883011,120.80747 C118.85174,119.607765 117.294637,118.994436 115.722108,119.168526 C113.889661,119.444038 112.322527,120.631115 111.561206,122.320341 L111.15142,124.36902 L111.15142,125.251528 L111.907947,127.205653 L112.443821,127.836016 C113.300772,128.970267 114.575604,129.714968 115.984615,129.904391 C117.393627,130.093815 118.819909,129.712245 119.946055,128.844597 L121.269979,126.795917 L121.553676,125.881891 Z"></path>
                                <path d="M133.346978,127.108149 L136.499177,128.337357 L137.791579,128.337357 L138.516585,127.864585 L139.020936,127.864585 L139.367678,127.643958 C139.101324,127.757211 138.827486,127.85199 138.548107,127.927621 L140.66008,126.509305 C140.565071,126.653337 140.459721,126.790277 140.34486,126.919041 L141.700306,125.941978 L142.299223,124.775807 L142.299223,121.623992 C142.052179,121.099534 141.73396,120.611658 141.353564,120.174158 C139.789694,118.31724 137.089093,117.912199 135.049166,119.228613 L135.963303,122.380428 L133.788286,120.142639 L132.621972,121.277293 L132.43284,126.351714 L133.346978,127.108149 Z"></path>
                                <path d="M110.337312,32.6038433 C110.095175,32.9433162 110.095175,33.3990236 110.337312,33.7384965 L110.77862,34.0221598 C111.35756,34.2314389 112.004845,34.0243331 112.35472,33.5178695 C112.617366,32.8428428 112.456646,32.0764255 111.944934,31.5637445 C111.643733,31.1482645 111.111289,30.9708046 110.62101,31.1224905 C110.30579,31.1224905 109.927526,31.5952627 109.959048,32.4777707 L110.337312,32.6038433 Z"></path>
                                <path d="M145.466801,97.8761944 L143.22874,98.443521 C141.753713,99.3425952 140.741608,100.837568 140.454805,102.54088 C140.265033,104.153429 140.79549,105.767666 141.904816,106.95342 L142.5983,107.646819 L144.804839,108.560846 L145.750499,108.560846 L147.98856,107.993519 C149.447031,107.097822 150.446958,105.615353 150.730973,103.927678 C150.942516,102.318683 150.422018,100.699553 149.312484,99.5151379 L148.587478,98.7902206 L146.412461,97.9077126 L145.466801,97.8761944 Z"></path>
                                <path d="M153.573508,45.9300891 L154.046337,46.5919701 C155.220789,47.9264972 157.175545,48.243446 158.711592,47.3484056 C160.37879,46.4600839 161.214545,44.5406944 160.728999,42.7152383 L160.382258,42.0533572 L159.972472,41.5490669 L159.373554,41.0762947 C158.069549,40.3979481 156.516656,40.3979481 155.212651,41.0762947 C154.04817,41.7158101 153.288298,42.9029643 153.195244,44.2281092 L153.573508,45.9300891 Z"></path>
                                <path d="M136.677364,81.5335306 L135.889315,83.2985467 L135.889315,84.4016818 L136.803452,87.0176878 L137.780634,88.0893047 L140.144783,89.3185123 L141.248053,89.3185123 L143.801334,88.6251132 C145.203335,87.6716162 146.141015,86.1737979 146.386137,84.4962362 C146.571425,82.8818448 146.106394,81.2601078 145.093736,79.9891415 L143.8959,79.012079 L143.296982,78.6968975 L141.752405,78.2556435 C139.539217,78.12052 137.476159,79.3783291 136.582798,81.407458 L136.677364,81.5335306 Z"></path>
                                <path d="M166.074856,63.930207 L166.516164,65.1594146 L167.241169,65.9473683 L168.502049,66.5777312 L169.636841,66.5777312 L170.992286,66.1364771 L172.064034,65.1909328 L172.662952,63.9932433 L172.662952,62.9216263 L172.31621,61.5978643 L172.064034,61.2826828 C171.419654,60.5199033 170.477659,60.0719356 169.479231,60.0534752 C168.255417,60.0309071 167.090613,60.5782982 166.327032,61.534828 L165.854202,62.7640356 L166.074856,63.930207 Z"></path>
                                <path d="M98.1217201,123.620563 L99.2249897,124.944325 L100.139127,125.354061 L100.139127,125.354061 C101.402004,126.443228 103.29483,126.360341 104.45764,125.164952 L105.056558,124.219408 C105.421655,123.121177 105.155431,121.911215 104.363074,121.067593 C103.246635,119.775503 101.416156,119.365936 99.8554295,120.059013 C98.5104359,120.689452 97.7881564,122.173227 98.1217201,123.620563 Z"></path>
                                <path d="M74.2621141,108.286058 C74.247005,108.859479 74.3886903,109.426151 74.6719,109.925002 L75.8697356,110.839028 L77.4458352,111.154209 C77.9712054,111.166558 78.4913272,111.047378 78.9588907,110.80751 L79.9360724,109.60982 L80.2828143,107.939359 C80.2796139,107.38813 80.1387551,106.846431 79.8730284,106.363451 L78.7067148,105.480943 L77.0675713,105.134244 C76.5300701,105.136629 76.000772,105.266237 75.5229938,105.512461 L74.608856,106.710151 L74.2621141,108.286058 Z"></path>
                                <path d="M108.725804,92.9589223 L108.725804,94.3142025 L109.639942,96.1107368 C110.300984,96.9342618 111.330558,97.3720732 112.382355,97.2769081 C113.424397,97.1491229 114.334425,96.5109996 114.809548,95.5749283 L115.061724,94.5978658 L115.061724,93.7153578 L115.061724,93.4947307 C115.345422,93.2110674 115.723686,93.0219586 115.912818,92.6122227 C116.569398,91.1796148 116.309029,89.4936172 115.250856,88.325755 L114.99868,88.0736098 L113.89541,87.5378014 L112.949751,87.5378014 L111.878003,87.7269102 C110.397467,88.4104927 109.502974,89.9473219 109.639942,91.5721239 L108.725804,92.9589223 Z"></path>
                                <path d="M118.986296,70.1891296 L121.602621,70.3467203 L121.854797,70.1260933 C122.638284,69.9782417 123.336628,69.5390146 123.80916,68.8968857 L123.80916,68.4241135 L123.80916,68.4241135 L123.80916,67.9198232 L123.80916,67.5416054 L123.80916,67.5416054 L123.80916,65.93418 C123.268471,65.3466437 122.524923,64.9861795 121.728709,64.9255994 C120.775205,64.8817651 119.844,65.2224084 119.143906,65.8711438 C117.957677,67.0423491 117.888609,68.9345799 118.986296,70.1891296 Z"></path>
                                <path d="M135.197691,41.4701087 L135.702043,42.7623526 C136.928506,44.483261 139.052003,45.3226807 141.123825,44.9055865 L142.384705,42.9829796 L142.227095,41.4070724 L141.533611,40.1148285 L141.060781,39.6420563 C140.413764,38.7334847 139.398655,38.1567886 138.286846,38.066149 C137.342132,37.9964243 136.416143,38.3552011 135.765087,39.0432115 L135.229213,40.3039373 L135.197691,41.4701087 Z"></path>
                                <path d="M183.745944,131.163158 L183.935076,131.163158 C185.398848,129.527752 185.592243,127.11706 184.407906,125.269265 L181.255707,123.724876 L181.255707,123.724876 C179.529584,123.020922 177.550462,123.40433 176.212188,124.701938 C174.874381,126.013154 174.430199,127.987054 175.077397,129.744841 L175.896969,130.658867 C176.089193,131.154876 176.366547,131.613522 176.71654,132.014148 C178.255384,133.773547 180.863893,134.111395 182.800284,132.802101 L183.745944,131.163158 Z"></path>
                                <path d="M168.374128,128.440916 C168.807572,126.744605 168.409828,124.943278 167.30238,123.587122 L166.861072,123.177386 L166.262154,122.704614 C164.178544,121.487567 161.522094,121.939108 159.957756,123.776231 C159.504343,124.331982 159.171561,124.975998 158.980575,125.66732 L158.665355,125.66732 C157.06909,127.13723 156.404007,129.361962 156.931645,131.466658 L159.611014,134.114182 L160.997982,134.429364 L162.857779,133.893555 L162.857779,134.334809 C163.946061,134.097437 164.942336,133.5501 165.726281,132.758902 L166.482808,130.962368 C167.369645,130.348794 168.033339,129.463976 168.374128,128.440916 L168.374128,128.440916 Z"></path>
                                <path d="M184.537451,76.5417758 L184.537451,77.9285742 C184.667226,79.2047631 185.235338,80.3965381 186.145073,81.3010156 L186.145073,81.3010156 L187.784216,82.1835237 L188.414656,82.3726326 L189.959234,82.3726326 C191.738036,82.110025 193.234437,80.9033978 193.867961,79.2208181 C194.471379,77.4408616 194.060996,75.4736784 192.796213,74.0833605 C191.786675,72.9196622 190.300544,72.2811682 188.761398,72.3498625 C187.343589,72.4207073 186.029003,73.1125103 185.167891,74.2409512 L184.537451,76.5417758 Z"></path>
                                <path d="M86.1241703,0.686831167 L84.9263347,0.403167864 C84.6851252,0.391474559 84.4453113,0.445971077 84.2328509,0.560758588 L83.949153,1.72692995 C83.9374583,1.96811002 83.9919614,2.2078947 84.1067629,2.42032913 L85.2730766,2.70399244 C85.5001317,2.76560258 85.7395053,2.76560258 85.9665604,2.70399244 L86.2817803,1.53782108 C86.3020465,1.2453962 86.2478199,0.952608211 86.1241703,0.686831167 L86.1241703,0.686831167 Z"></path>
                                <path d="M206.250827,117.514541 L206.250827,115.528898 C206.085682,114.443225 205.615641,113.426749 204.895381,112.597711 C203.175419,110.639217 200.220691,110.375682 198.181197,111.998866 L196.920318,114.299691 L196.920318,114.299691 C196.197187,115.681679 196.197187,117.330243 196.920318,118.712231 L199.536643,120.60332 L199.536643,120.60332 C200.949424,121.33775 202.631507,121.33775 204.044288,120.60332 L205.777997,118.586158 L206.250827,117.514541 Z"></path>
                                <path d="M69.7680394,58.0371818 C69.7326585,58.5158468 69.9049068,58.9866014 70.2408692,59.3294257 L70.4300012,59.5185346 L71.4702268,59.5185346 C71.9087375,59.2323934 72.2062913,58.7746741 72.2897986,58.2578088 C72.3251794,57.7791438 72.1529311,57.3083892 71.8169687,56.9655649 L71.6278368,56.776456 L70.5876111,56.776456 C70.1432134,57.0566757 69.8437444,57.5173411 69.7680394,58.0371818 L69.7680394,58.0371818 Z"></path>
                                <path d="M202.344248,113.935356 L198.750741,112.643112 C199.11461,112.567496 199.490142,112.567496 199.854011,112.643112 C198.67622,112.242579 197.410294,112.177109 196.19746,112.454003 C195.731448,112.553262 195.277144,112.701157 194.842014,112.895257 L193.108305,114.597237 L192.635475,115.511263 L192.320255,118.001197 L192.509387,118.726114 L192.099601,120.018358 C192.187711,121.629863 192.969483,123.124245 194.243097,124.115717 L194.243097,124.115717 C194.958615,125.687118 196.350879,126.847196 198.025735,127.267531 L201.177934,126.542614 L201.58772,126.195914 L201.58772,126.195914 C203.592186,125.359538 204.854152,123.353257 204.739919,121.184529 C205.860172,118.823462 205.066245,115.997965 202.880122,114.565719 L202.344248,113.935356 Z"></path>
                                <path d="M187.567387,128.699344 L186.936947,127.375582 L185.676067,126.303965 C185.204787,126.070561 184.688698,125.941555 184.163012,125.925748 L182.776044,126.524592 L181.704297,127.785318 C181.437298,128.256375 181.296168,128.788262 181.294511,129.329707 L181.893429,130.716506 L183.18583,131.819641 C183.667057,132.056518 184.194168,132.185591 184.730408,132.197858 L186.085853,131.599014 L187.220645,130.243733 C187.453779,129.762557 187.572452,129.233987 187.567387,128.699344 L187.567387,128.699344 Z"></path>
                                <path d="M131.057493,64.0299198 L131.593367,62.8322303 C131.246625,61.6030227 130.52162,61.1617686 129.57596,61.6345408 L129.134652,62.548567 C129.209115,62.7629125 129.209115,62.9961025 129.134652,63.210448 L130.04879,64.282065 L131.057493,64.0299198 Z"></path>
                                <path d="M167.99093,76.5375208 L166.982226,77.1048474 L166.351786,77.8612829 L165.878956,78.9644179 C165.814946,79.9861083 166.325449,80.9583758 167.20288,81.4858695 C167.006044,81.2546948 166.885001,80.9686292 166.856138,80.6663977 L167.36049,81.4228332 C167.479145,82.30398 167.964488,83.0940316 168.696881,83.5982406 C169.429274,84.1024497 170.340584,84.2739102 171.206173,84.0703574 C172.013822,84.5120077 172.950634,84.6569728 173.85402,84.4800933 C174.812103,84.2678744 175.60296,83.5951377 175.965993,82.683559 C176.180003,82.0821698 176.180003,81.4253777 175.965993,80.8239885 C176.975897,80.1108656 177.50943,78.8984382 177.352961,77.672174 L176.344257,76.1908212 L175.083377,75.5604583 L174.043152,75.3713494 C173.378513,75.2262365 172.690383,75.2262365 172.025744,75.3713494 L171.017041,75.7495672 L170.197469,76.8211841 C169.511108,76.4935036 168.737868,76.3940991 167.99093,76.5375208 Z"></path>
                                <path d="M157.782472,128.610938 L159.64227,128.295756 L160.714017,127.318694 L161.312935,125.553678 L160.997715,124.166879 L160.367276,123.158299 L159.610748,122.496418 L158.475956,122.086682 L157.561818,122.086682 C155.982403,122.43195 154.920291,123.916002 155.103103,125.52216 L155.449845,126.499222 L156.332461,127.759948 L157.687906,128.484865 L158.444434,126.814404 L158.444434,126.814404 L157.782472,128.610938 Z"></path>
                                <path d="M131.556239,121.971332 L132.84864,122.223477 L133.195382,122.223477 C134.014954,122.034368 135.969317,121.277933 135.811708,117.968527 L135.21279,116.676283 L134.298652,115.856812 L132.344289,115.510112 C131.371984,115.708545 130.532968,116.31762 130.043183,117.180574 C129.563098,118.253476 129.563098,119.480112 130.043183,120.553015 L130.831233,121.49856 L131.556239,121.971332 Z"></path>
                                <path d="M185.155013,106.368723 L186.321327,105.801396 L187.928949,103.752717 L188.149603,103.752717 C189.564836,101.638203 189.329376,98.8261029 187.582207,96.9763159 L185.943063,95.904699 L185.155013,95.6525538 L183.20065,95.6525538 L181.813682,95.9677352 L179.481055,97.6381969 L178.882137,98.6467776 L178.472351,101.514929 C178.881293,103.503995 180.119838,105.223988 181.876726,106.24265 L185.155013,106.368723 Z"></path>
                                <path d="M140.533761,93.3652531 L141.132679,94.7520514 L142.42508,95.8236684 C142.88688,96.0854584 143.407324,96.2263948 143.938136,96.2334042 L145.325103,95.6345595 L146.428373,94.3423155 C146.664093,93.8495262 146.792998,93.3124906 146.806637,92.7664083 L146.207719,91.4426462 L144.915318,90.3710293 C144.481597,90.1240917 143.995432,89.983661 143.496828,89.9612934 L142.046816,90.5601382 L140.912025,91.8523821 C140.670552,92.3206106 140.541066,92.8384897 140.533761,93.3652531 L140.533761,93.3652531 Z"></path>
                                <path d="M154.423444,70.2372649 L155.274538,70.678519 C156.07152,71.4382206 157.191671,71.7565405 158.269127,71.5295089 L159.277831,70.899146 L159.90827,70.1427105 L160.349578,69.0395754 C160.431268,67.8489181 159.83336,66.714252 158.805001,66.108388 L158.805001,65.7616884 L158.079995,64.9737348 L156.913681,64.37489 L155.715846,64.37489 C154.896541,64.5376396 154.185583,65.0421292 153.761482,65.7616884 C153.272,66.620304 153.213652,67.6587722 153.603872,68.5668033 L154.423444,70.2372649 Z"></path>
                                <path d="M111.146568,110.010111 L111.745485,109.663411 C112.13901,109.071458 112.13901,108.301239 111.745485,107.709286 C111.303842,107.045955 110.429958,106.827511 109.728078,107.204996 L109.223726,108.055986 C109.44438,109.978592 110.736782,110.041629 111.146568,110.010111 Z"></path>
                                <path d="M161.862458,107.273588 L160.6331,106.517152 C158.977967,106.922631 157.944781,108.569942 158.300473,110.236293 C158.681452,112.123459 160.504489,113.357364 162.398332,113.00989 L163.816821,111.024247 L163.816821,111.024247 C164.045792,110.529088 164.174356,109.99347 164.195085,109.44834 L162.902684,107.620287 C162.571344,107.462826 162.222018,107.346399 161.862458,107.273588 L161.862458,107.273588 Z"></path>
                                <path d="M98.5196838,50.9311973 L99.3392555,50.0486893 C99.4518709,49.8340156 99.5164085,49.5974067 99.5283875,49.3552901 L98.6457717,48.5358183 C98.4310719,48.4232167 98.1944341,48.358687 97.9522879,48.3467095 L97.1327162,49.2607357 C97.0150407,49.4619631 96.9499929,49.6896026 96.9435843,49.9226167 L97.857722,50.7420885 C98.0589739,50.8597496 98.2866413,50.9247895 98.5196838,50.9311973 Z"></path>
                                <path d="M181.482484,74.7683685 L182.270534,74.7683685 L183.027062,74.5792596 L184.414029,72.7827254 C184.427221,71.7594245 183.974983,70.7854923 183.184672,70.1352012 C182.299599,69.3278944 181.033337,69.0920293 179.9169,69.5265176 C178.800463,69.9610058 178.026858,70.9907345 177.920499,72.1838806 C177.833574,73.5713213 178.666024,74.8518587 179.969429,75.3356951 L181.482484,74.7683685 Z"></path>
                                <path d="M50.5948108,93.5037989 L49.743717,94.3863069 C49.6280767,94.6018767 49.5532696,94.8369562 49.5230631,95.0797061 L50.4372008,95.8991779 C50.654122,96.0342128 50.9069565,96.1001615 51.1622066,96.0882868 L51.9502563,95.2057787 C52.0669602,94.9927339 52.1317587,94.7551682 52.1393883,94.5123795 L51.2252506,93.6929078 C51.0277735,93.5935128 50.8143964,93.5295075 50.5948108,93.5037989 L50.5948108,93.5037989 Z"></path>
                                <path d="M186.722757,85.659666 L186.376015,86.2900289 L186.376015,87.6453091 C186.482731,88.0150318 186.665224,88.3585057 186.911889,88.6538897 L187.353197,90.1037244 C188.104287,90.4892184 188.978644,90.5573418 189.78039,90.2928333 C190.686352,89.9964523 191.435708,89.3493606 191.860842,88.496299 C192.259394,87.7534203 192.343699,86.8818607 192.094917,86.0763814 C191.846136,85.2709021 191.285006,84.5986438 190.536918,84.2098313 L189.14995,84.6510853 C188.846059,84.6194446 188.539704,84.6194446 188.235813,84.6510853 L186.722757,85.659666 Z"></path>
                                <path d="M125.190353,129.655059 C125.606438,129.256039 125.805752,128.681615 125.726227,128.11067 C125.726227,127.732452 125.284919,127.165126 124.307738,126.881462 L123.519688,127.133607 C123.07838,127.637898 122.76316,128.425851 123.834908,129.434432 L125.190353,129.655059 Z"></path>
                                <path d="M127.376793,67.1679383 L126.431133,66.663648 L125.390907,66.9157932 C125.04117,67.5149635 124.928701,68.2234304 125.075688,68.9014363 C125.151512,69.3358204 125.472165,69.6869412 125.897941,69.8018191 C126.323716,69.9166969 126.777496,69.7745244 127.061573,69.4372447 L127.061573,69.0275089 C127.386185,68.8265012 127.639711,68.5289195 127.786579,68.1765189 L127.376793,67.1679383 Z"></path>
                                <path d="M198.97567,108.98595 L198.156098,108.103442 C196.741371,107.415343 195.055659,107.61219 193.837585,108.607732 L192.986492,110.120603 L192.986492,111.507401 L193.774541,113.05179 L194.373459,113.39849 C195.336965,113.938724 196.488509,114.030836 197.525658,113.650635 C198.509024,113.265574 199.263276,112.453401 199.574588,111.444365 L199.574588,110.057567 L198.97567,108.98595 Z"></path>
                                <path d="M193.115178,119.68632 L191.5706,118.929885 L190.246677,118.929885 L189.553193,119.087476 C189.051647,119.27727 188.60682,119.591866 188.260791,120.001502 L187.851005,121.451336 L188.103181,123.058762 C188.277277,123.716826 188.625764,124.315715 189.111885,124.79226 L189.962979,125.233514 L190.751028,125.391105 L191.665166,125.391105 C192.69875,125.110491 193.532649,124.347156 193.903227,123.342425 C194.255506,122.068232 193.961091,120.702313 193.115178,119.68632 Z"></path>
                                <path d="M174.04805,79.1475048 L171.778467,78.6116963 L170.359977,79.2735774 L169.508883,80.0930491 C168.688989,80.8380996 168.258644,81.9196453 168.34257,83.0242366 C168.471858,84.0388537 169.050588,84.9415623 169.918669,85.4826519 L171.746945,85.4826519 L173.007824,84.8838071 L174.111094,83.4024543 C175.076873,82.1402779 175.0508,80.3805214 174.04805,79.1475048 Z"></path>
                                <path d="M98.6231892,29.7253343 L98.2449253,29.9774795 C97.9109417,30.3687961 97.7718944,30.8901599 97.8666614,31.395796 C97.9884465,31.9079214 98.336367,32.3369711 98.8123211,32.5619674 C99.3258186,32.7809465 99.9064451,32.7809465 100.419943,32.5619674 L100.798207,32.3098222 C101.13219,31.9185057 101.271237,31.3971418 101.17647,30.8915057 C100.755372,29.9007572 99.6478571,29.3949173 98.6231892,29.7253343 L98.6231892,29.7253343 Z"></path>
                                <path d="M162.892459,66.4220119 L162.892459,66.4220119 L161.064183,66.7056752 C161.196585,67.8783431 161.906291,68.9072915 162.955503,69.4477538 C164.219703,70.0100708 165.663073,70.0100708 166.927273,69.4477538 L167.463147,69.2901631 L168.755549,67.7772922 L168.976203,66.3274575 L168.125109,64.467887 C164.437036,62.1040261 162.356585,63.8375241 161.820711,64.6569958 L163.207679,65.8546853 L162.892459,66.4220119 Z"></path>
                                <path d="M165.084178,88.4893996 C165.760078,87.8308856 166.141283,86.9273011 166.141283,85.983707 C166.141283,85.040113 165.760078,84.1365285 165.084178,83.4780145 L163.69721,82.6585428 L162.373287,82.6585428 L162.373287,84.5181133 L162.373287,84.5181133 L161.238495,85.9049117 L159.536308,86.6613472 L159.946094,87.6068915 L160.797187,88.5209177 L162.089589,89.1512806 L163.255902,89.3403895 L164.233084,89.1512806 L165.084178,88.4893996 Z"></path>
                                <path d="M73.2183304,83.8016577 C72.7869628,83.4226907 72.1861906,83.3025509 71.6422308,83.4864763 C70.9172251,83.7386214 70.5704832,84.4950569 70.2552633,85.2199742 L70.4443952,86.1655186 C70.559588,86.2877559 70.6992052,86.3844021 70.8541811,86.4491819 C71.5791869,86.8273996 72.2411487,86.4491819 72.7770225,85.5036375 L72.9661544,85.1569379 C72.8660865,85.2027984 72.7510025,85.2027984 72.6509345,85.1569379 L73.2183304,83.8016577 Z"></path>
                                <path d="M152.507062,102.11936 C151.246183,102.339987 150.962485,103.001868 150.899441,103.348567 C150.832511,103.916265 151.137588,104.462795 151.655969,104.703848 C152.054016,104.94139 152.550323,104.94139 152.94837,104.703848 C153.477251,104.243091 153.67633,103.509074 153.452722,102.844277 L152.507062,102.11936 Z"></path>
                                <path d="M175.370471,124.80841 L174.361768,125.155109 L173.825894,126.100654 C174.006377,126.76105 174.435691,127.325868 175.023729,127.676561 C175.322705,127.868938 175.689015,127.926167 176.032433,127.834151 C176.519011,127.642803 176.825242,127.157997 176.788961,126.636462 L176.505263,126.352799 C176.619423,125.983193 176.619423,125.587751 176.505263,125.218145 L175.370471,124.80841 Z"></path>
                                <path d="M173.795354,74.3393768 L175.119278,74.3393768 L175.434498,74.3393768 C176.254069,74.0557135 178.113867,73.078651 177.609515,69.8007639 L176.852987,68.5715563 L175.875806,67.8781571 L173.88992,67.8781571 C172.942382,68.1858935 172.173008,68.8862825 171.777947,69.8007639 C171.377871,70.8988855 171.469743,72.1160441 172.030123,73.1416873 L172.881217,74.0241953 L173.795354,74.3393768 Z"></path>
                                <path d="M128.311163,119.783886 L128.311163,120.22514 C128.354878,120.739716 128.634169,121.205144 129.06769,121.485866 C129.536669,121.707469 130.080246,121.707469 130.549224,121.485866 C131.087797,121.310844 131.531741,120.923863 131.778582,120.414249 L131.778582,119.972995 C131.739643,119.456887 131.459175,118.989496 131.022054,118.712269 C129.97735,118.270968 128.771629,118.74759 128.311163,119.783886 L128.311163,119.783886 Z"></path>
                                <path d="M197.797728,98.7789516 L197.797728,98.7789516 L196.757502,100.291823 C197.662496,100.963203 198.833661,101.162277 199.909701,100.827631 C201.175259,100.270679 202.147825,99.2067074 202.58907,97.8964435 L202.841246,97.3921532 L202.652114,95.4380282 L201.737976,94.2403387 L199.846657,93.5784577 C195.559666,94.6185564 195.370534,97.2975988 195.496622,98.3692157 L197.324898,98.1801068 L197.797728,98.7789516 Z"></path>
                                <path d="M152.286034,64.6624494 L152.85343,64.2211954 C153.191938,63.5916196 153.117262,62.8200615 152.664298,62.2670704 C152.13906,61.6852594 151.266026,61.5778221 150.615369,62.0149252 L150.205583,62.8974333 C150.583847,64.8200401 151.90777,64.7254857 152.286034,64.6624494 Z"></path>
                                <path d="M90.3217745,54.6719177 L89.5967687,55.6489802 C89.5463166,55.8773607 89.5463166,56.1139988 89.5967687,56.3423794 L90.6054724,57.0672967 C90.8426578,57.13312 91.0932927,57.13312 91.3304782,57.0672967 L92.023962,56.0902342 C92.1032385,55.8550957 92.1032385,55.6004554 92.023962,55.3653169 L91.0467803,54.6719177 C90.8112483,54.5949065 90.5573064,54.5949065 90.3217745,54.6719177 L90.3217745,54.6719177 Z"></path>
                                <path d="M190.633534,107.737615 C190.886638,107.231689 190.886638,106.636115 190.633534,106.13019 C190.2613,105.568801 189.597534,105.27383 188.931347,105.373754 L188.237863,105.878044 C187.954165,106.476889 187.891121,107.296361 189.215045,107.958242 L189.215045,107.958242 L190.633534,107.737615 Z"></path>
                                <path d="M174.327276,47.3663948 L173.255528,47.3663948 L172.34139,47.9022033 C172.193863,48.5766526 172.294593,49.2816776 172.625088,49.8878464 C172.799256,50.1961809 173.097954,50.4144331 173.44466,50.4866911 C173.957764,50.5740714 174.464535,50.3012279 174.674018,49.8248101 L174.674018,49.4150742 C174.929161,49.1248504 175.08392,48.7601069 175.115326,48.3749754 L174.327276,47.3663948 Z"></path>
                                <path d="M135.596286,20.379446 L135.312588,20.7261456 C135.077053,21.1807328 135.077053,21.7213931 135.312588,22.1759803 C135.569168,22.6340508 136.022823,22.9480809 136.541946,23.0269702 C137.092566,23.1281461 137.660731,23.003165 138.118045,22.6802706 L138.401743,22.333571 C138.614821,21.8627681 138.614821,21.3230211 138.401743,20.8522182 C137.737323,19.9800165 136.509917,19.7731756 135.596286,20.379446 L135.596286,20.379446 Z"></path>
                                <path d="M127.310403,79.4332724 C126.809753,79.1585329 126.203433,79.1585329 125.702782,79.4332724 C125.148169,79.9928432 124.851273,80.7578286 124.88321,81.5449881 L125.35604,82.3644599 C125.502155,82.3885647 125.651233,82.3885647 125.797348,82.3644599 C126.648442,82.5220506 127.184315,82.0177603 127.373447,80.9146252 C127.3623,80.788799 127.3623,80.6622337 127.373447,80.5364075 C127.301995,80.6286461 127.202385,80.6950448 127.08975,80.7255163 L127.310403,79.4332724 Z"></path>
                            </g>
                        </g>
                    </g>
                    <g filter="url(#filter-7)" fill="none" fill-rule="evenodd" id="Clipping_group-2" stroke="none" stroke-width="1">
                        <g mask="url(#mask-5)">
                            <g transform="translate(328.151387, 247.310807) rotate(-32.000000) translate(-328.151387, -247.310807) translate(84.651387, -144.189193)" id="Group">
                                <g transform="translate(0.314005, 0.569907)">
                                    <path d="M337.759788,370.008827 L338.73697,370.828299 C338.625559,370.872202 338.501638,370.872202 338.390228,370.828299 C338.623794,371.195669 339.026652,371.420768 339.461975,371.427143 L340.250025,370.63919 C340.237955,370.555575 340.237955,370.47066 340.250025,370.387045 C340.370389,370.018401 340.370389,369.621035 340.250025,369.252391 C340.220725,369.098015 340.167551,368.949146 340.092415,368.811137 L339.178277,368.369883 L338.484794,368.369883 L337.854354,369.252391 C337.752779,369.490753 337.72002,369.7528 337.759788,370.008827 L337.759788,370.008827 Z" id="Path" fill="#2E867E" fill-rule="nonzero"></path>
                                    <path d="M307.971507,380.977141 C307.166165,380.814661 306.329201,380.972986 305.63888,381.418395 L304.69322,382.332421 L303.779082,383.908329 C303.579348,384.354983 303.472121,384.837446 303.463862,385.326645 L303.873648,386.461298 L304.472566,387.249252 L305.512792,387.911133 C306.459577,388.132193 307.455294,387.973803 308.286727,387.469879 C309.727025,386.511053 310.468075,384.794496 310.178046,383.088857 L309.642172,382.111794 L308.980211,381.481432 L307.971507,380.977141 Z" id="Path" fill="#2E867E" fill-rule="nonzero"></path>
                                    <path d="M355.002317,351.728303 C354.4474,351.553912 353.84153,351.699303 353.426217,352.106521 L353.174041,353.020547 C353.174041,353.020547 353.174041,353.020547 353.174041,353.272692 C353.189314,353.813011 353.402434,354.328924 353.772959,354.722527 L354.781663,354.722527 L356.01102,353.966091 L356.294718,352.925992 C356.059021,352.35755 355.587066,351.920182 355.002317,351.728303 Z" id="Path" fill="#2E867E" fill-rule="nonzero"></path>
                                    <path d="M347.846825,347.095136 L348.634875,347.095136 C349.366723,346.814406 349.894683,346.166535 350.021842,345.393156 C350.021842,344.762793 349.612056,344.258502 348.792484,344.100912 L347.878347,344.63672 L347.720737,344.98342 C347.198325,345.61013 347.253549,346.535026 347.846825,347.095136 Z" id="Path" fill="#2E867E" fill-rule="nonzero"></path>
                                    <path d="M276.386473,418.357661 C275.03086,419.005859 274.06097,420.256046 273.770147,421.730102 L273.770147,422.990828 L273.770147,423.936373 C274.355958,425.556876 275.556298,426.881618 277.111478,427.623996 C278.52293,428.317431 280.17615,428.317431 281.587601,427.623996 C282.915638,426.981075 283.870384,425.758683 284.172404,424.31459 C284.852762,421.915722 283.653853,419.383503 281.366947,418.389179 C279.797083,417.62569 277.965876,417.614102 276.386473,418.357661 L276.386473,418.357661 Z" id="Path" fill="#2E867E" fill-rule="nonzero"></path>
                                    <path d="M301.982329,370.544635 L301.541021,372.404206 L301.950807,373.759486 L303.337774,375.020212 L304.724742,375.303875 L305.922578,375.303875 L306.805193,374.862621 L307.656287,374.011631 L307.939985,373.129123 C308.277002,371.549349 307.364987,369.970532 305.828012,369.473018 L304.787786,369.473018 L303.27473,369.756682 L302.076895,370.702226 L303.27473,372.089024 L303.27473,372.089024 L301.982329,370.544635 Z" id="Path" fill="#2E867E" fill-rule="nonzero"></path>
                                    <path d="M327.168399,361.246783 L326.411871,362.318399 L326.411871,362.633581 C326.222739,363.484571 326.128173,365.596287 329.217328,366.825494 L330.635818,366.825494 L331.739088,366.352722 L332.905401,364.713778 C333.103865,363.736152 332.886914,362.72003 332.306484,361.908664 C331.525615,360.974284 330.372074,360.432186 329.154284,360.427311 L327.956449,360.710974 L327.168399,361.246783 Z" id="Path" fill="#2E867E" fill-rule="nonzero"></path>
                                    <path d="M352.102293,358.56774 L352.102293,359.261139 C352.470586,359.868922 353.162573,360.202517 353.867525,360.112129 C354.65025,359.970209 355.204511,359.267328 355.159927,358.473186 L354.592531,357.653714 C352.827299,357.023351 352.259903,358.189522 352.102293,358.56774 Z" id="Path" fill="#2E867E" fill-rule="nonzero"></path>
                                    <path d="M312.857415,388.47846 L314.086773,387.690506 C314.257459,386.817658 314.051385,385.913333 313.519377,385.200573 C313.051403,384.595195 312.379166,384.180699 311.628058,384.034401 C309.763019,383.614068 307.898723,384.740856 307.404111,386.587371 L308.633469,388.730605 L308.633469,388.730605 C308.963028,389.158999 309.397224,389.49546 309.894348,389.707667 L312.100888,389.297931 C312.384931,389.056007 312.638921,388.780884 312.857415,388.47846 Z" id="Path" fill="#2E867E" fill-rule="nonzero"></path>
                                    <path d="M271.43752,422.738683 L271.43752,422.896274 C272.266196,423.636048 273.298948,424.10842 274.400587,424.251554 L277.174522,423.495119 L278.08866,422.770201 L278.971276,421.446439 L278.971276,421.446439 C279.475964,420.761165 279.830421,419.977159 280.011502,419.145615 C280.462229,417.028825 279.493992,414.863296 277.61583,413.78753 L274.463631,413.535385 L273.423406,413.945121 C271.326755,414.370696 269.68813,416.009121 269.262503,418.105516 L269.262503,418.389179 L270.050553,421.351885 L270.775558,422.234393 L271.43752,422.738683 Z" id="Path" fill="#2E867E" fill-rule="nonzero"></path>
                                    <path d="M327.010789,378.739353 L329.501026,377.415591 L330.19451,376.596119 L331.045604,374.043149 L331.045604,372.940014 L329.973856,370.544635 C328.940702,369.472069 327.488512,368.907397 326.002085,369.000246 C324.554872,369.11196 323.219092,369.819723 322.314013,370.954371 L321.683573,371.868397 L321.242265,374.358331 L321.431397,375.39843 L322.692276,377.541663 L323.22815,378.014436 L325.939041,378.833907 L327.010789,378.739353 Z" id="Path" fill="#2E867E" fill-rule="nonzero"></path>
                                    <path d="M278.971276,397.933903 C277.30734,399.939329 277.458075,402.885148 279.318018,404.710304 L279.948458,404.962449 L279.948458,405.340667 C280.988164,406.597576 282.541226,407.316069 284.172404,407.294792 L285.653938,406.948093 L286.410466,406.569875 L287.671345,405.62433 C289.306423,403.605154 289.114277,400.668417 287.230037,398.879447 L286.883295,398.595784 L286.883295,398.028458 C285.852029,396.839338 284.359504,396.150564 282.785437,396.137349 C281.308762,396.13322 279.908394,396.792818 278.971276,397.933903 L278.971276,397.933903 Z" id="Path" fill="#2E867E" fill-rule="nonzero"></path>
                                    <path d="M317.83789,357.874341 L315.852005,360.521865 L315.599829,361.814109 L315.599829,362.47599 L315.599829,362.47599 C315.334557,364.604825 316.380162,366.683333 318.247676,367.73952 L320.391171,368.275329 L321.368353,368.275329 L321.368353,368.275329 L322.345535,368.275329 L323.102062,368.054702 L324.835772,367.014603 L325.11947,366.699422 C325.659736,366.03544 326.047171,365.260665 326.254261,364.430115 L326.254261,363.988861 L326.254261,363.988861 L326.411871,362.980281 L326.411871,361.782591 L325.11947,359.166585 C323.185787,357.285855 320.30077,356.773858 317.83789,357.874341 L317.83789,357.874341 Z" id="Path" fill="#2E867E" fill-rule="nonzero"></path>
                                    <path d="M314.717213,384.696282 C313.875457,385.880055 313.56374,387.36043 313.856673,388.783071 C314.149605,390.205712 315.020821,391.442572 316.26179,392.197601 L317.774846,392.796446 L318.94116,392.796446 C320.376544,392.719704 321.714146,392.045269 322.629232,390.936875 C324.503478,388.540372 324.12593,385.086934 321.778139,383.151893 L318.62594,382.269385 L317.36506,382.52153 L314.717213,384.696282 Z" id="Path" fill="#2E867E" fill-rule="nonzero"></path>
                                    <path d="M346.207681,333.920551 L346.964209,331.997944 L346.964209,330.768736 L345.451153,328.026658 C342.966201,326.202008 339.525959,326.441995 337.31848,328.593984 L335.89999,331.997944 L336.183688,333.983587 C336.590796,335.650082 337.758535,337.027846 339.335887,337.702728 L340.533723,338.01791 L341.384817,338.01791 C342.891077,337.954467 344.299923,337.255856 345.262022,336.095303 C345.768396,335.479863 346.153462,334.773995 346.396813,334.015105 L346.207681,333.920551 Z" id="Path" fill="#2E867E" fill-rule="nonzero"></path>
                                    <path d="M338.043486,349.364442 L337.129348,347.284244 C336.035249,345.9509 334.409457,345.166926 332.684747,345.141011 C331.044697,345.194241 329.511236,345.966642 328.492323,347.252726 L327.924927,348.04068 L327.389053,350.373023 L327.389053,351.318567 L328.303191,353.430283 C329.394116,354.742172 331.009944,355.503827 332.716269,355.51048 C334.337975,355.476374 335.86141,354.726289 336.877172,353.461801 L337.47609,352.610811 L338.011964,350.341504 L338.043486,349.364442 Z" id="Path" fill="#2E867E" fill-rule="nonzero"></path>
                                    <path d="M353.962091,349.269887 L352.102293,348.765597 L350.967502,348.765597 L348.571831,350.089359 L347.626171,351.192494 L346.775077,353.745464 L346.775077,354.848599 L347.878347,357.243978 C349.035165,358.483487 350.658952,359.180944 352.354469,359.166585 C353.975719,359.114008 355.50365,358.39574 356.578416,357.180942 L357.397988,355.85718 L357.618642,355.226817 L357.807774,353.65091 C357.614221,351.45716 356.082864,349.612225 353.962091,349.017742 L353.962091,349.269887 Z" id="Path" fill="#2E867E" fill-rule="nonzero"></path>
                                    <path d="M353.930569,320.17864 L352.575123,320.367749 L350.93598,321.53392 C350.248516,322.316299 349.991961,323.387722 350.25051,324.396571 C350.509059,325.405419 351.24933,326.221437 352.228381,326.576823 L353.268607,326.576823 L354.119701,326.419232 L354.308833,326.419232 C354.596523,326.714049 354.939217,326.949623 355.317536,327.112632 C356.828562,327.543689 358.451285,327.035875 359.446917,325.820388 L359.667571,325.536724 L360.045835,324.370553 L360.045835,323.425009 L359.667571,322.353392 C358.775478,320.991057 357.116705,320.345354 355.53819,320.745966 L353.930569,320.17864 Z" id="Path" fill="#2E867E" fill-rule="nonzero"></path>
                                    <path d="M278.025616,425.985052 L278.845188,425.795943 L280.768029,424.724326 L281.114771,424.346109 C282.105114,423.188814 282.552594,421.662977 282.344129,420.154195 C282.063516,418.473334 281.061537,416.999338 279.601716,416.119873 L277.143,415.521028 L276.071253,415.521028 L273.454928,417.096935 C272.230596,418.404741 271.755536,420.245374 272.194048,421.982248 C272.757096,423.774288 274.175218,425.168605 275.976687,425.701389 L278.025616,425.985052 Z" id="Path" fill="#2E867E" fill-rule="nonzero"></path>
                                    <path d="M298.168168,401.432417 L300.185575,401.243308 C301.219413,400.886949 302.142767,400.267834 302.864945,399.446774 C304.536377,397.445265 304.327596,394.480941 302.392115,392.733409 L299.933399,391.850901 L299.933399,391.850901 C298.440972,391.399831 296.822688,391.692963 295.583365,392.638855 L294.133353,395.475488 L294.133353,395.475488 C293.64052,396.99119 293.923284,398.652228 294.889881,399.919546 L297.159464,401.306345 L298.168168,401.432417 Z" id="Path" fill="#2E867E" fill-rule="nonzero"></path>
                                    <path d="M341.447861,367.046121 L340.060893,369.630609 L340.281547,370.450081 L339.840239,371.805361 C340.592281,373.362781 342.046118,374.464748 343.748966,374.768067 C344.983714,374.952279 346.245363,374.765798 347.373995,374.232258 C348.689881,373.617365 349.70606,372.502985 350.19721,371.136216 C350.68836,369.769447 350.613893,368.263237 349.99032,366.951567 L348.760962,366.541831 L347.027253,365.249587 C345.28707,364.807773 343.441039,365.128783 341.952213,366.132095 L341.542427,366.857012 L341.542427,366.857012 L341.447861,367.046121 Z" id="Path" fill="#2E867E" fill-rule="nonzero"></path>
                                    <path d="M327.924927,371.584734 L326.727091,373.759486 L326.569481,374.768067 L327.042311,377.258 C327.644676,378.285972 328.562043,379.092715 329.658636,379.558825 C330.609588,381.039617 332.248674,381.93493 334.008671,381.93493 C335.768668,381.93493 337.407754,381.039617 338.358706,379.558825 C339.313402,378.00203 339.313402,376.041198 338.358706,374.484403 L338.358706,374.326813 L337.129348,373.538859 C337.070874,373.426084 337.018267,373.310363 336.971738,373.192159 C336.211904,371.592428 334.759187,370.430395 333.031489,370.040345 C331.180694,369.716604 329.286008,370.289618 327.924927,371.584734 L327.924927,371.584734 Z" id="Path" fill="#2E867E" fill-rule="nonzero"></path>
                                    <path d="M317.112884,368.495956 L318.184632,371.64777 C319.172047,373.099359 320.755223,374.035283 322.503145,374.20074 L324.709684,373.633413 L325.497734,373.129123 L326.947745,371.427143 C327.477149,369.995354 327.385764,368.407726 326.695569,367.046121 C326.059963,365.582679 324.852372,364.443581 323.354238,363.894307 C321.956301,363.451059 320.436807,363.610986 319.161814,364.335561 L317.302016,367.014603 L317.112884,368.495956 Z" id="Path" fill="#2E867E" fill-rule="nonzero"></path>
                                    <path d="M330.478208,345.235565 C329.005232,344.932113 327.474172,345.314831 326.317305,346.275664 L325.497734,347.221208 L325.024904,348.04068 C324.461314,349.662743 324.563321,351.441987 325.308602,352.989029 C325.982523,354.424194 327.288589,355.461923 328.839065,355.794143 C330.2825,356.104233 331.788763,355.745091 332.936923,354.817081 C334.904417,353.359797 335.530856,350.694423 334.418457,348.513452 C333.677561,346.874244 332.225025,345.665881 330.478208,345.235565 Z" id="Path" fill="#2E867E" fill-rule="nonzero"></path>
                                    <path d="M298.168168,390.936875 C297.315958,392.456466 297.222677,394.28689 297.915992,395.885224 L298.231212,396.389514 L298.704042,397.019877 C300.39799,398.807908 303.144716,399.089245 305.16605,397.681758 C305.766603,397.277776 306.26339,396.737856 306.616061,396.105851 L306.931281,396.105851 C308.834872,395.09041 310.040635,393.125256 310.08348,390.968393 L308.160639,387.816579 L306.931281,387.123179 L305.00844,387.123179 L305.00844,386.681925 C303.906159,386.618474 302.809654,386.881603 301.856241,387.438361 L300.658405,388.98275 C299.6356,389.34187 298.760139,390.028856 298.168168,390.936875 L298.168168,390.936875 Z" id="Path" fill="#2E867E" fill-rule="nonzero"></path>
                                    <polygon id="Path" fill="#2E867E" fill-rule="nonzero" points="362.34694 350.530613 362.441506 351.917412 362.756726 352.579293 363.828474 353.493319 364.900222 353.871537 366.318711 353.776982 367.579591 353.146619 368.52525 352.075002 368.903514 351.003385 368.808948 349.585069 368.493728 348.954706 367.421981 348.04068 366.350233 347.662462 364.931744 347.757017 363.670864 348.387379 362.725204 349.427478"></polygon>
                                    <path d="M313.582421,379.653379 L315.662873,383.088857 L316.829186,383.624665 C318.742325,384.760007 321.16736,384.544193 322.849886,383.088857 L324.17381,380.693478 L324.17381,379.558825 L324.0162,378.581762 C324.0162,378.833907 324.0162,379.086053 324.0162,379.369716 L322.91293,375.619057 L321.809661,374.673512 L317.9955,374.011631 C315.495046,374.792794 313.738277,377.038676 313.582421,379.653379 Z" id="Path" fill="#2E867E" fill-rule="nonzero"></path>
                                    <path d="M337.066304,314.316265 L336.278254,313.496793 L335.395639,313.024021 L334.197803,312.86643 C333.19148,313.013608 332.358395,313.724094 332.054308,314.694483 C332.24636,314.464403 332.496779,314.29022 332.779313,314.190192 L332.148874,314.820555 C331.308619,315.135651 330.642516,315.793905 330.317545,316.630302 C329.992574,317.466699 330.039546,318.401941 330.446686,319.201577 C330.216838,320.093993 330.294574,321.037825 330.66734,321.88062 C331.119916,322.743442 331.946133,323.348485 332.905401,323.519563 C333.540139,323.605892 334.18531,323.472425 334.733677,323.141345 C335.662113,323.944038 336.950801,324.184885 338.10653,323.771708 L339.304365,322.447946 L339.619585,321.061148 L339.619585,320.052567 C339.626712,319.361987 339.464361,318.680196 339.146755,318.066924 L338.57936,317.184416 L337.31848,316.617089 C337.505789,315.84424 337.416569,315.030209 337.066304,314.316265 L337.066304,314.316265 Z" id="Path" fill="#2E867E" fill-rule="nonzero"></path>
                                    <path d="M359.825181,331.020882 L359.825181,332.281607 L360.140401,332.91197 L360.644753,333.542333 L361.212149,333.983587 L362.000198,334.330287 C363.105138,334.652522 364.29789,334.34698 365.111755,333.533214 C365.92562,332.719449 366.231199,331.526842 365.908925,330.422037 L364.994787,329.192829 L363.324122,328.373357 C362.390953,328.170978 361.415774,328.377462 360.644753,328.940684 L359.919747,330.012301 L359.825181,331.020882 Z" id="Path" fill="#2E867E" fill-rule="nonzero"></path>
                                    <path d="M335.048897,330.043819 L335.206507,330.7057 L335.553249,331.367581 L337.602178,332.313126 C338.610427,332.133482 339.468548,331.475278 339.903283,330.548109 C340.352877,329.655996 340.352877,328.60359 339.903283,327.711476 C339.253058,326.591059 337.98343,325.982529 336.702631,326.17741 C335.421832,326.37229 334.39071,327.330892 334.103237,328.593984 L335.048897,330.043819 Z" id="Path" fill="#2E867E" fill-rule="nonzero"></path>
                                    <path d="M356.357762,356.140843 L358.280604,356.329952 C358.280604,356.329952 358.280604,356.519061 358.280604,356.645133 L359.352351,356.645133 C359.352351,356.645133 359.352351,356.424506 359.352351,356.329952 L361.275193,356.519061 C361.34774,355.208759 360.378229,354.072497 359.072698,353.937749 C357.767167,353.803001 356.585961,354.71728 356.389284,356.01477 L356.357762,356.140843 Z" id="Path" fill="#2E867E" fill-rule="nonzero"></path>
                                    <path d="M322.093359,367.73952 L321.589007,368.842655 C321.460151,370.398478 322.247696,371.887249 323.606414,372.656351 L325.340124,372.908496 L326.632525,372.435724 L327.767317,371.111962 L327.767317,370.450081 C327.913678,369.366488 327.579831,368.272984 326.853179,367.455857 C326.142283,366.688606 325.122969,366.283247 324.079244,366.352722 L322.786842,366.920049 L322.093359,367.73952 Z" id="Path" fill="#2E867E" fill-rule="nonzero"></path>
                                    <path d="M331.991264,375.745129 L331.802132,377.447109 L332.306484,378.676317 L332.716269,379.275161 C333.063065,379.669446 333.509417,379.963349 334.008671,380.126151 L335.521727,380.126151 L336.940216,379.30668 C337.489611,378.906955 337.915592,378.360891 338.169574,377.730772 L338.169574,376.785228 L338.169574,375.997274 L337.79131,375.146284 C337.178433,374.261294 336.156224,373.750252 335.080419,373.791004 C333.794286,373.901723 332.642196,374.630507 331.991264,375.745129 Z" id="Path" fill="#2E867E" fill-rule="nonzero"></path>
                                    <path d="M336.782606,347.410317 L335.74238,349.805696 C335.383564,352.322234 337.014785,354.693384 339.493497,355.258335 L341.353295,355.258335 L342.078301,355.037708 L343.717444,354.092164 C345.448934,353.020021 346.606415,351.226144 346.869643,349.206851 C346.947427,348.547255 346.947427,347.880804 346.869643,347.221208 L346.081593,345.424674 L345.545719,344.762793 L343.906576,343.62814 C342.469907,343.089749 340.869816,343.204849 339.525019,343.943321 C338.162375,344.660065 337.166256,345.919372 336.782606,347.410317 L336.782606,347.410317 Z" id="Path" fill="#2E867E" fill-rule="nonzero"></path>
                                    <path d="M346.333769,357.086387 L344.978324,357.496123 L344.095708,358.221041 L343.402224,359.450248 L343.244614,361.215264 L343.528312,362.412954 L344.095708,363.263944 L345.041368,364.020379 C346.084305,364.436714 347.266076,364.306735 348.193567,363.67368 C349.032239,363.118875 349.576406,362.215899 349.6751,361.215264 C349.789711,360.22277 349.500135,359.225906 348.871605,358.449232 C348.243074,357.672558 347.328451,357.181396 346.333769,357.086387 Z" id="Path" fill="#2E867E" fill-rule="nonzero"></path>
                                    <path d="M295.709453,394.750571 C294.844416,394.384592 293.869182,394.37837 292.999545,394.73328 C292.129908,395.088191 291.437567,395.774973 291.07572,396.641659 L290.823544,398.217566 L291.201808,399.478292 L292.96704,398.942484 L292.96704,398.942484 L294.700749,399.478292 L295.993151,400.770536 L296.718156,400.045619 L297.25403,398.942484 L297.41164,397.492649 L297.159464,396.357996 L296.62359,395.507006 L295.709453,394.750571 Z" id="Path" fill="#2E867E" fill-rule="nonzero"></path>
                                    <path d="M327.956449,353.367246 L328.555367,352.768402 L329.56407,350.814277 L329.56407,350.278468 C329.729432,348.76703 329.248613,347.256066 328.240147,346.118073 C327.057855,344.89146 325.402597,344.236334 323.70098,344.321539 L321.336831,345.204047 L320.548781,345.897446 L319.224858,348.671043 C318.961251,350.442189 319.599939,352.227932 320.927045,353.430283 C322.386167,354.609672 324.340442,354.976794 326.128173,354.407345 L327.956449,353.367246 Z" id="Path" fill="#2E867E" fill-rule="nonzero"></path>
                                    <path d="M320.990089,348.135234 L321.715095,350.845795 L322.377057,351.696785 L324.678162,353.083583 L325.781432,353.272692 L328.366235,352.736883 C329.638802,351.968936 330.504824,350.675834 330.730384,349.206851 C330.940695,347.772073 330.553303,346.313833 329.658636,345.172529 L328.902109,344.353057 L326.537959,343.407513 L325.497734,343.407513 L323.102062,344.163948 L322.566189,344.605202 L321.147699,347.032099 L320.990089,348.135234 Z" id="Path" fill="#2E867E" fill-rule="nonzero"></path>
                                    <path d="M343.370702,343.691176 L341.195685,341.169724 L339.997849,340.665434 L339.367409,340.665434 L339.367409,340.665434 C337.336642,339.970679 335.08715,340.539163 333.630407,342.115269 L332.653225,344.069394 L332.495615,345.046456 L332.495615,345.046456 L332.306484,346.023519 L332.306484,346.779954 L332.936923,348.702561 L333.189099,349.04926 C333.698266,349.737778 334.36959,350.289929 335.143463,350.656686 L335.584771,350.845795 L335.584771,350.845795 L336.53043,351.192494 L337.696744,351.413121 L340.533723,350.719722 C342.883009,349.222641 344.022594,346.399347 343.370702,343.691176 Z" id="Path" fill="#2E867E" fill-rule="nonzero"></path>
                                    <path d="M310.115002,361.089192 L309.92587,362.192327 L310.55631,364.997442 L310.745442,365.281105 C311.529675,366.318467 312.639842,367.062188 313.897641,367.392821 L314.780257,368.180774 L315.725917,368.43292 L318.15311,368.43292 C319.990075,367.768935 321.196222,366.004368 321.147699,364.051897 C321.232992,363.119152 321.058431,362.181001 320.643347,361.341337 C320.898518,359.973297 320.554148,358.561549 319.697687,357.464605 L318.373764,357.464605 C317.84477,357.009167 317.235423,356.656431 316.57701,356.424506 L313.141113,356.991833 L312.573718,357.433087 L311.785668,358.882922 L311.785668,358.882922 L310.115002,361.089192 Z" id="Path" fill="#2E867E" fill-rule="nonzero"></path>
                                    <path d="M370.479614,344.98342 L367.327415,343.533585 L366.003491,343.533585 L365.278485,343.943321 L364.742612,343.943321 L364.39587,344.163948 C364.668725,344.05359 364.954853,343.979417 365.246963,343.943321 L363.040424,345.204047 C363.135213,345.051154 363.252053,344.913087 363.387166,344.794311 L361.937154,345.708337 L361.275193,346.811472 L360.991495,349.963287 C361.200511,350.499781 361.47584,351.008019 361.811066,351.476158 C363.255182,353.469324 365.95671,354.077094 368.115465,352.894474 L367.421981,349.74266 L369.439388,352.106521 L370.668746,351.066422 L371.236142,346.023519 L370.479614,344.98342 Z" id="Path" fill="#2E867E" fill-rule="nonzero"></path>
                                    <path d="M347.216385,365.249587 L349.485968,364.839851 C351.069699,364.075677 352.226767,362.641088 352.638167,360.931601 C352.969949,359.334755 352.55179,357.673933 351.503376,356.424506 L350.872936,355.699589 L348.72944,354.627972 L347.783781,354.627972 L345.514197,355.037708 C343.998015,355.83107 342.904156,357.247157 342.519608,358.91444 C342.193243,360.506206 342.598168,362.160411 343.622878,363.421535 L344.28484,364.17797 L346.396813,365.218069 L347.216385,365.249587 Z" id="Path" fill="#2E867E" fill-rule="nonzero"></path>
                                    <path d="M343.843532,380.81955 L344.75767,379.117571 L344.75767,377.982917 L344.001142,375.335393 L343.150048,374.20074 L340.848943,372.813942 L339.745673,372.624833 L337.16087,373.160641 C335.710144,373.97621 334.677054,375.3727 334.321755,376.998443 C333.966457,378.624186 334.322809,380.324257 335.301073,381.67054 L336.404342,382.742157 L337.00326,383.120375 L338.484794,383.624665 C340.664993,383.947663 342.812085,382.861619 343.843532,380.914105 L343.843532,380.81955 Z" id="Path" fill="#2E867E" fill-rule="nonzero"></path>
                                    <path d="M309.579129,377.447109 L309.200865,376.186383 L308.570425,375.303875 L307.341067,374.610476 L306.206276,374.610476 L304.819308,374.988694 L303.684516,375.871202 L302.991033,376.974337 L302.801901,378.045954 L303.085598,379.401234 L303.306252,379.747934 C303.899141,380.545746 304.805973,381.050756 305.79649,381.134732 C306.98224,381.20284 308.137019,380.740985 308.948689,379.874006 L309.516085,378.676317 L309.579129,377.447109 Z" id="Path" fill="#2E867E" fill-rule="nonzero"></path>
                                    <path d="M330.951038,316.396462 L330.761906,316.396462 C329.185194,317.918108 328.823543,320.307297 329.87929,322.227319 L333.031489,323.992335 L333.031489,323.992335 C334.709638,324.811566 336.713757,324.558892 338.135989,323.348775 C339.558221,322.138658 340.128332,320.201028 339.588063,318.413624 L338.863058,317.436561 C338.699858,316.921463 338.443428,316.440715 338.10653,316.018245 C336.692991,314.173783 334.131651,313.661578 332.117352,314.820555 L330.951038,316.396462 Z" id="Path" fill="#2E867E" fill-rule="nonzero"></path>
                                    <path d="M342.046779,329.224347 C341.47869,330.873699 341.749176,332.696318 342.771784,334.10966 L343.18157,334.582432 L343.748966,335.086722 C345.769029,336.520625 348.536021,336.252018 350.242496,334.456359 C350.727142,333.925659 351.102086,333.3044 351.345766,332.628307 L351.660986,332.628307 C353.356816,331.269623 354.178259,329.095481 353.804481,326.955041 L351.282722,324.149926 L349.927276,323.708672 L348.035957,324.118408 L348.035957,323.677154 C346.934585,323.842065 345.905026,324.323928 345.07289,325.063952 L344.221796,326.828968 C343.230711,327.337867 342.457904,328.188971 342.046779,329.224347 L342.046779,329.224347 Z" id="Path" fill="#2E867E" fill-rule="nonzero"></path>
                                    <path d="M350.904458,326.79745 L351.282722,324.402071 L351.56642,323.803226 C351.622882,323.020066 351.504442,322.234151 351.219678,321.502402 C351.467797,321.232987 351.699382,320.948804 351.913162,320.651412 L352.165337,317.499598 L351.692508,316.301908 L349.706622,314.253229 C348.911673,313.640059 348.015541,313.170714 347.058775,312.86643 L347.058775,312.645803 L346.396813,309.493989 L346.396813,309.493989 L346.081593,308.80059 L343.6544,306.783428 L342.960916,306.594319 L340.218503,307.161646 L339.714151,307.161646 L339.714151,307.161646 L339.020667,307.476827 L337.034782,309.903725 L336.84565,310.597124 L337.507612,313.748938 L337.507612,313.748938 L337.854354,314.473856 L340.281547,316.459499 L340.848943,316.617089 L340.502201,317.468079 L340.502201,318.728805 L342.172866,321.281775 C341.96567,321.817077 341.838222,322.379903 341.794603,322.952237 C341.5593,325.469716 343.147506,327.7988 345.577241,328.49943 C347.534233,329.104837 349.661143,328.425315 350.904458,326.79745 L350.904458,326.79745 Z" id="Path" fill="#2E867E" fill-rule="nonzero"></path>
                                    <path d="M351.093605,350.215432 C351.098791,348.344511 349.777167,346.732326 347.941391,346.370218 C346.649781,346.002304 345.261206,346.233704 344.158752,347.000581 L343.370702,348.135234 L343.18157,349.301406 L343.559834,350.688204 C344.098718,351.404871 344.865969,351.916309 345.734851,352.138039 C346.142411,352.198439 346.556649,352.198439 346.964209,352.138039 L346.964209,351.94893 L348.319655,352.295629 L349.738144,351.759821 L351.093605,350.215432 Z" id="Path" fill="#2E867E" fill-rule="nonzero"></path>
                                    <path d="M371.740493,351.066422 L371.740493,351.066422 C372.275965,350.534525 372.638501,349.85348 372.780719,349.112297 L372.623109,347.946125 L372.181801,347.063617 L371.330708,346.212627 L370.637224,345.960482 C368.829024,345.474657 366.964689,346.525845 366.444799,348.324343 C365.931778,350.071938 366.913205,351.908385 368.651338,352.45322 L370.227438,352.232593 L371.267664,351.570712 L371.740493,351.066422 Z" id="Path" fill="#2E867E" fill-rule="nonzero"></path>
                                    <path d="M366.539365,330.012301 L365.719793,328.84613 C364.911324,327.885655 363.799357,327.229675 362.567594,326.986559 L362.283896,326.986559 L360.455621,327.14415 L359.825181,327.364777 L358.501257,328.184249 C357.186276,329.427006 356.654427,331.288249 357.11429,333.038043 C357.572901,334.678813 358.806171,335.990941 360.415537,336.550379 C362.024903,337.109817 363.806262,336.845615 365.183919,335.843158 C366.319331,334.987944 367.01303,333.670077 367.075239,332.250089 L366.539365,330.012301 Z" id="Path" fill="#2E867E" fill-rule="nonzero"></path>
                                    <path d="M321.589007,346.622363 L320.012907,346.3387 L318.78355,346.6854 L318.62594,346.6854 C317.52267,346.6854 316.10418,347.567908 315.820483,350.183914 L316.135702,351.413121 L316.73462,352.295629 L317.806368,353.020547 L320.233561,353.65091 L321.462919,353.65091 L322.377057,353.241174 L323.259672,352.390184 C323.818106,351.407008 323.955644,350.239966 323.641071,349.15393 C323.326497,348.067894 322.586492,347.154973 321.589007,346.622363 Z" id="Path" fill="#2E867E" fill-rule="nonzero"></path>
                                    <path d="M339.052189,375.871202 C338.716211,375.905033 338.414229,376.090845 338.232618,376.375492 L338.232618,376.911301 C338.259516,376.8054 338.327604,376.714627 338.42175,376.659155 L338.42175,377.888363 L338.926101,378.392653 L339.682629,378.61328 C340.153953,378.523594 340.539865,378.185963 340.691333,377.730772 C340.766808,377.257224 340.626896,376.774712 340.309797,376.414969 C339.992697,376.055226 339.531525,375.855824 339.052189,375.871202 Z" id="Path" fill="#2E867E" fill-rule="nonzero"></path>
                                    <path d="M369.344822,347.946125 L368.808948,347.315763 C367.546435,346.06584 365.572095,345.893603 364.112172,346.906027 C362.493059,347.90758 361.785728,349.898342 362.409984,351.696785 L362.81977,352.327148 L363.261078,352.768402 L363.891518,353.209656 C365.267623,353.748637 366.820002,353.584011 368.052421,352.768402 C369.116252,352.065311 369.773999,350.890908 369.817652,349.616587 L369.344822,347.946125 Z" id="Path" fill="#2E867E" fill-rule="nonzero"></path>
                                    <path d="M346.806599,335.338867 C346.480999,335.062155 346.120715,334.829058 345.734851,334.645468 L344.789192,334.424841 C343.527765,334.36403 342.328441,334.975611 341.636993,336.032267 C340.958728,337.280358 340.958728,338.78698 341.636993,340.035071 L342.298954,340.759988 L343.02396,341.232761 L343.938098,341.516424 C345.521226,341.53456 346.96146,340.603488 347.594649,339.152563 C348.176703,337.843853 347.859706,336.309776 346.806599,335.338867 L346.806599,335.338867 Z" id="Path" fill="#2E867E" fill-rule="nonzero"></path>
                                    <path d="M336.814128,336.189857 L337.00326,334.866095 L336.467386,333.290188 C335.392885,332.26681 333.84328,331.91577 332.432571,332.376162 L333.157577,334.141178 L332.936923,334.141178 L333.252143,334.866095 C333.024816,335.0697 332.814008,335.291022 332.621703,335.527976 L334.040193,336.725666 L334.040193,336.725666 L335.458683,337.891837 C335.647814,337.67121 335.647814,337.639692 335.805424,337.576656 L336.814128,336.189857 Z" id="Path" fill="#2E867E" fill-rule="nonzero"></path>
                                    <path d="M350.746848,327.175668 L350.746848,327.175668 C351.548641,327.064475 352.285427,326.673803 352.827299,326.072533 L353.300129,325.000916 L353.300129,324.023853 L352.827299,322.920718 L352.354469,322.353392 C351.027672,321.039434 348.889924,321.039434 347.563127,322.353392 C346.905848,322.950738 346.531119,323.797629 346.531119,324.685735 C346.531119,325.57384 346.905848,326.420731 347.563127,327.018077 L348.981616,327.616922 L350.242496,327.616922 L350.746848,327.175668 Z" id="Path" fill="#2E867E" fill-rule="nonzero"></path>
                                    <path d="M350.494672,362.854208 L350.904458,363.011799 C351.405011,363.092748 351.915245,362.942016 352.291425,362.602063 C352.655307,362.225034 352.829116,361.703672 352.764255,361.183746 C352.743903,360.618311 352.479441,360.089453 352.039249,359.733912 L351.629464,359.576321 C351.118918,359.490075 350.596869,359.640871 350.210974,359.986057 C349.53692,360.868066 349.660882,362.121308 350.494672,362.854208 L350.494672,362.854208 Z" id="Path" fill="#2E867E" fill-rule="nonzero"></path>
                                    <path d="M335.364117,335.717085 L334.355413,335.212795 C334.155277,335.304516 333.925109,335.304516 333.724973,335.212795 L332.653225,336.000749 C332.665296,336.084364 332.665296,336.169279 332.653225,336.252894 C332.552352,336.613689 332.552352,336.995234 332.653225,337.356029 C332.702584,337.518754 332.765861,337.676929 332.842357,337.828801 L333.693451,338.238537 C334.352156,338.201151 334.961987,337.879015 335.364117,337.356029 C335.650571,336.847255 335.650571,336.225859 335.364117,335.717085 L335.364117,335.717085 Z" id="Path" fill="#2E867E" fill-rule="nonzero"></path>
                                    <path d="M319.25638,387.690506 L318.247676,386.902552 C318.36212,386.879629 318.479974,386.879629 318.594418,386.902552 C318.357545,386.542807 317.953387,386.328867 317.52267,386.335226 L316.73462,387.186216 C316.745878,387.259327 316.745878,387.333731 316.73462,387.406843 C316.634204,387.778397 316.634204,388.169942 316.73462,388.541496 C316.789996,388.69175 316.853124,388.839032 316.923752,388.98275 L317.83789,389.392486 L318.531374,389.203377 L319.130292,388.320869 C319.221119,388.123523 319.264309,387.907601 319.25638,387.690506 L319.25638,387.690506 Z" id="Path" fill="#2E867E" fill-rule="nonzero"></path>
                                </g>
                            </g>
                        </g>
                    </g>
                    <g filter="url(#filter-8)" fill="none" fill-rule="evenodd" id="Clipping_group-2" stroke="none" stroke-width="1">
                        <g mask="url(#mask-5)">
                            <g transform="translate(972.595788, 650.431488) rotate(-32.000000) translate(-972.595788, -650.431488) translate(729.095788, 258.931488)" id="Group">
                                <g transform="translate(0.314005, 0.569907)"></g>
                            </g>
                        </g>
                    </g>
                    <path d="M0,-3.31805556 L182.987162,-3.31805556 C239.908174,17.9323328 279.044157,40.5446157 300.39511,64.5187933 C360.685678,132.216791 284.820561,209.566055 301.505073,254.21733 C332.179222,336.307827 451.137538,333.326923 495.017911,366.641931 C543.769876,403.655567 564.219103,452.002238 556.365592,511.681944 L0,507.981221 L0,-3.31805556 Z" id="Rectangle" stroke="none" fill="url(#linearGradient-9)" fill-rule="evenodd" mask="url(#mask-5)"></path>
                    <path d="M0,45.6819444 C108.294218,57.3894473 173.534998,89.0791491 195.722339,140.75105 C218.190031,193.075858 167.793625,259.399661 195.722339,298.889225 C227.416644,343.703114 309.63086,343.965579 347.768641,382.792601 C381.958467,417.60032 395.388645,459.230101 388.059175,507.681944 L0,507.681944 L0,45.6819444 Z" id="Rectangle" stroke="none" fill="url(#linearGradient-10)" fill-rule="evenodd" mask="url(#mask-5)"></path>
                    <path d="M700,0.681944444 L1353,0.681944444 L1353,507.681944 L1006.89899,507.681944 C983.186115,478.71302 978.372692,444.409204 992.458719,404.770496 C1028.8834,302.269812 1038.40252,306.735556 1018.55878,244.561433 C996.834053,176.493826 897.225619,142.29621 805.883014,98.6366653 C754.313755,73.987813 719.019417,41.3362394 700,0.681944444 Z" id="Rectangle" stroke="none" fill="url(#linearGradient-11)" fill-rule="evenodd" mask="url(#mask-5)"></path>
                    <g filter="url(#filter-12)" fill="none" fill-rule="evenodd" id="Group-3-2" stroke="none" stroke-width="1">
                        <g mask="url(#mask-5)">
                            <g transform="translate(195.244184, 473.123629) rotate(-135.000000) translate(-195.244184, -473.123629) translate(-30.755816, 294.123629)" id="Group-3">
                                <g transform="translate(0.035029, 0.384718)">
                                    <g id="Group" transform="translate(0.000000, 0.000000)"></g>
                                </g>
                            </g>
                        </g>
                    </g>
                </g>
            </g>
        </g>
    </g>
</svg>