<?xml version="1.0" encoding="UTF-8"?>
<svg width="349px" height="160px" viewBox="0 0 349 160" version="1.1" xmlns="http://www.w3.org/2000/svg" xmlns:xlink="http://www.w3.org/1999/xlink">
    <title>Img/Card/Event-03</title>
    <defs>
        <rect id="path-1" x="0" y="0" width="349" height="160"></rect>
        <linearGradient x1="0%" y1="50.4939096%" x2="100%" y2="50.2933176%" id="linearGradient-3">
            <stop stop-color="#392C95" offset="0%"></stop>
            <stop stop-color="#7D5AC0" offset="100%"></stop>
        </linearGradient>
        <rect id="path-4" x="0" y="0.174070248" width="1079" height="336" rx="16"></rect>
        <filter x="-0.0%" y="-0.1%" width="100.1%" height="100.3%" filterUnits="objectBoundingBox" id="filter-6">
            <feGaussianBlur stdDeviation="0.5" in="SourceAlpha" result="shadowBlurInner1"></feGaussianBlur>
            <feOffset dx="0" dy="0" in="shadowBlurInner1" result="shadowOffsetInner1"></feOffset>
            <feComposite in="shadowOffsetInner1" in2="SourceAlpha" operator="arithmetic" k2="-1" k3="1" result="shadowInnerInner1"></feComposite>
            <feColorMatrix values="0 0 0 0 1   0 0 0 0 1   0 0 0 0 1  0 0 0 0.1 0" type="matrix" in="shadowInnerInner1"></feColorMatrix>
        </filter>
        <linearGradient x1="98.0059003%" y1="50%" x2="0.888820993%" y2="50%" id="linearGradient-7">
            <stop stop-color="#5A90FF" offset="0%"></stop>
            <stop stop-color="#8062FE" offset="100%"></stop>
        </linearGradient>
        <linearGradient x1="50%" y1="100%" x2="50%" y2="3.061617e-15%" id="linearGradient-8">
            <stop stop-color="#8B57FD" offset="0%"></stop>
            <stop stop-color="#5F8AFD" offset="100%"></stop>
        </linearGradient>
        <linearGradient x1="50%" y1="98.1243373%" x2="50%" y2="0%" id="linearGradient-9">
            <stop stop-color="#FFACA0" offset="0%"></stop>
            <stop stop-color="#FFD6BD" offset="99.3990385%"></stop>
        </linearGradient>
        <filter id="filter-10">
            <feColorMatrix in="SourceGraphic" type="matrix" values="0 0 0 0 1.000000 0 0 0 0 0.717647 0 0 0 0 0.623529 0 0 0 1.000000 0"></feColorMatrix>
        </filter>
    </defs>
    <g id="Img/Card/Event-03" stroke="none" stroke-width="1" fill="none" fill-rule="evenodd">
        <g id="Group-3">
            <mask id="mask-2" fill="white">
                <use xlink:href="#path-1"></use>
            </mask>
            <g id="Image"></g>
            <g id="Group-2" mask="url(#mask-2)">
                <g transform="translate(-730.000000, -57.000000)">
                    <mask id="mask-5" fill="white">
                        <use xlink:href="#path-4"></use>
                    </mask>
                    <g id="Rectangle" stroke="none" fill="none">
                        <use fill="url(#linearGradient-3)" fill-rule="evenodd" xlink:href="#path-4"></use>
                        <use fill="black" fill-opacity="1" filter="url(#filter-6)" xlink:href="#path-4"></use>
                    </g>
                    <path d="M960.876669,77.2373498 C982.790829,34.4483531 1022.16527,18.9930769 1079,30.8715213 L1079,309 C978.336952,197.280563 938.962508,120.026347 960.876669,77.2373498 Z" id="Rectangle" stroke="none" fill="url(#linearGradient-7)" fill-rule="evenodd" mask="url(#mask-5)"></path>
                    <path d="M30,1 L781.717708,1 C791.476079,33.9555132 784.556616,59.6433632 760.959319,78.0635499 C675.046087,145.127918 594.907745,84.9432884 488.185574,131.578449 C434.487936,155.043094 464.605495,201.83703 398.755406,209.923925 C347.47527,216.221518 224.556801,194.877213 30,145.89101 L30,1 Z" id="Rectangle" stroke="none" fill="url(#linearGradient-8)" fill-rule="evenodd" mask="url(#mask-5)"></path>
                    <path d="M847.421002,257 L894.674374,193.406654 C903.558125,181.30191 908,170.036969 908,159.61183 C908,147.85459 903.441233,137.661121 894.323699,129.031423 C885.206166,120.343808 874.481374,116 862.149326,116 C849.758831,116 839.121708,120.401725 830.237958,129.205176 C821.412653,137.950709 817,148.491682 817,160.828096 C817,172.411583 820.97431,182.315465 828.922929,190.539741 C836.929994,198.821935 846.398202,202.963031 857.327553,202.963031 C858.087347,202.963031 859.080925,202.905114 860.308285,202.789279 C861.535645,202.673444 863.026012,202.499692 864.779383,202.268022 L864.779383,202.268022 L832.429672,245.966728 L847.421002,257 Z M860.5,186 C853.179224,186 846.917237,183.496575 841.714041,178.489726 C836.571347,173.541096 834,167.428082 834,160.150685 C834,153.339041 836.601598,147.429795 841.804795,142.422945 C846.947489,137.474315 853.148973,135 860.409247,135 C867.790525,135 874.052511,137.474315 879.195205,142.422945 C884.398402,147.429795 887,153.455479 887,160.5 C887,167.544521 884.398402,173.570205 879.195205,178.577055 C874.052511,183.525685 867.820776,186 860.5,186 Z" id="9" stroke="none" fill="url(#linearGradient-9)" fill-rule="nonzero" mask="url(#mask-5)" transform="translate(862.500000, 186.500000) rotate(-180.000000) translate(-862.500000, -186.500000) "></path>
                    <g filter="url(#filter-10)" fill="none" fill-rule="evenodd" id="Group" stroke="none" stroke-width="1">
                        <g mask="url(#mask-5)">
                            <g transform="translate(771.925390, 42.386554) rotate(-121.000000) translate(-771.925390, -42.386554) translate(665.925390, -52.113446)" fill="#E9EFBA" fill-rule="nonzero">
                                <path d="M95.1308307,96.8262572 L96.4149271,95.5421329 L96.7187973,94.8358646 L96.9246448,92.8197894 L96.7776108,91.9979499 L95.9052094,90.3414295 C95.202994,89.6899682 94.3182042,89.4741035 93.4840505,89.7507324 C92.6697324,90.0321236 91.9810775,90.7436189 91.5824116,91.7154425 L91.3177505,92.4859171 L91.3177505,94.4121036 L91.5334002,95.1568956 L92.5136265,96.5951149 L92.8763102,96.8519397 L94.4936836,97.1087646 L95.1308307,96.8262572 Z" id="Shape-1047"></path>
                                <path d="M113.054223,53.7008791 L113.83226,53.7008791 L114.442073,53.4706443 L113.916372,51.1547532 L113.916372,51.0734939 C113.951086,50.9512326 114.000781,50.8369241 114.063568,50.7349133 L112.202588,49.0284672 C111.681104,49.8283389 111.507221,50.9126089 111.739971,51.9131737 C111.943378,52.736143 112.427346,53.3944596 113.054223,53.7008791 Z" id="Shape-1051"></path>
                                <path d="M71.2112714,117.717593 C70.496053,119.479747 70.8934601,121.677067 72.1325522,122.811484 L72.5147857,122.915974 L72.632396,123.1772 C73.3610535,123.980352 74.3198111,124.310544 75.2492255,124.078427 L76.052896,123.59516 L76.4449304,123.203322 L77.0525837,122.302095 C77.7677626,120.53484 77.3405812,118.33169 76.0724977,117.247387 L75.8666797,117.077591 L75.7294676,116.672692 C75.0266812,115.903478 74.1045879,115.5879 73.2106467,115.810649 C72.3633739,116.01471 71.6295144,116.714643 71.2112714,117.717593 L71.2112714,117.717593 Z" id="Shape-1053"></path>
                                <path d="M88.229466,83.1899074 L87.466859,85.4629065 L87.466859,86.4573437 L87.5361869,86.9481049 L87.5361869,86.9481049 C87.6092274,88.5831636 88.3334075,89.9932932 89.3733764,90.5254956 L90.4912889,90.6288137 L90.9765842,90.4350922 L90.9765842,90.4350922 L91.4705455,90.2930298 L91.8258511,90.0347344 L92.597124,89.001553 L92.7184478,88.7174281 C92.9290953,88.1498014 93.0505798,87.5183475 93.0737533,86.8706163 C93.0737533,86.8706163 93.0737533,86.5994061 93.0737533,86.5090028 L93.0737533,86.5090028 L93.0737533,85.7341167 L92.9350975,84.8559124 L92.0684987,83.0607597 C90.8987781,81.8920386 89.3626078,81.9437164 88.229466,83.1899074 Z" id="Shape-1054"></path>
                                <path d="M73.6672913,70.3391154 C72.6186819,70.0988209 71.573446,70.7913818 71.0543866,72.0703952 L70.8235647,72.8596551 L70.8881948,74.8328049 L71.0728524,75.4183848 L71.7283868,76.5640847 C72.456187,77.3511477 73.3992069,77.654063 74.30436,77.3915346 C75.0591893,77.1393196 75.7063533,76.4724025 76.0955385,75.5456848 C76.5420991,74.4101843 76.5420991,73.0404057 76.0955385,71.9049052 C75.6513625,70.7898054 74.8196635,70.0719008 73.8981133,70.0081354 L73.6672913,70.3391154 Z" id="Shape-1056"></path>
                                <path d="M100.960168,61.0396018 L101.176483,59.5353971 L101.012084,58.6379305 L99.9997276,56.8303568 C99.1863819,56.2615399 97.5856482,55.7053634 95.9589566,58.3724826 L95.5695889,61.0522422 L95.8983883,62.4679642 C96.2685728,63.6541183 97.0052781,64.5094652 97.8798371,64.7685125 L98.5114779,64.7685125 L98.9527613,64.6800299 C99.6867348,64.4093196 100.312388,63.7101094 100.683284,62.7460525 C100.877225,62.2149712 101.003305,61.636711 101.055347,61.0396018 L100.960168,61.0396018 Z" id="Shape-1060"></path>
                                <path d="M87.6963639,54.6942733 L89.0675388,53.6313549 C89.4209012,53.2176969 89.7223516,52.7138811 89.9579121,52.1432692 C90.372404,51.0670812 90.4056962,49.7555333 90.0469494,48.6356387 C89.5890045,47.327872 88.7094182,46.4679247 87.7230751,46.3636507 L86.6279159,46.5895208 L86.2094405,46.8818234 L85.3813933,47.9447417 L85.1498962,48.5160604 C84.7394146,49.4477666 84.5941549,50.584862 84.7461525,51.6765721 C84.8981501,52.7682822 85.3349196,53.7249306 85.960136,54.3355383 L87.1977549,54.7739921 L87.6963639,54.6942733 Z" id="Shape-1061"></path>
                                <path d="M75.7838551,41.1377908 L75.9105195,40.0736789 L75.9105195,39.9711139 C76.0178714,39.1915349 75.7911433,38.3991972 75.3088638,37.8685313 L74.5066563,37.5095538 L73.7994471,37.5095538 L73.0500164,37.8813519 C72.3731812,38.4532965 72.0580451,39.474008 72.2583643,40.445477 L72.6172466,41.1890733 L73.4194541,41.9583108 C74.2647462,42.454277 75.2818781,42.1013009 75.7838551,41.1377908 Z" id="Shape-1063"></path>
                                <path d="M83.5118949,63.9209858 L83.4475859,66.364077 L83.7599436,67.2191589 L84.1274233,67.597838 L84.2468542,67.9276553 L84.439781,68.0986717 C84.324952,67.9550418 84.2259774,67.79054 84.1457973,67.6100535 L85.2482362,68.72166 C85.1532244,68.6892103 85.0608942,68.6441959 84.9726265,68.58729 L85.7259597,69.2835709 L86.4241711,69.417941 L88.0962034,68.6972291 C88.3202792,68.4018205 88.5148063,68.0692673 88.6749839,67.7077771 C89.3688269,66.1792743 89.0879673,64.2015983 88.0227075,63.1147657 L86.5619759,64.4951122 L87.3244962,62.4673465 L86.534415,61.9420819 L83.8977485,63.017042 L83.5118949,63.9209858 Z" id="Shape-1064"></path>
                                <path d="M98.5226253,73.9315334 L97.8577051,72.5620596 C97.1535128,71.763137 96.2276645,71.4235881 95.3238202,71.6327738 C94.4739056,71.8855027 93.7499884,72.6377722 93.3470305,73.6869845 L93.1223953,74.3105842 L93.0594975,76.0346539 L93.203264,76.7071634 L93.886155,78.0766372 C94.5849278,78.8704191 95.5063434,79.2017998 96.4020691,78.9814681 C97.24636,78.7354682 97.9689138,77.9980237 98.3788587,76.9639397 L98.6034939,76.3036577 L98.6663918,74.6040429 L98.5226253,73.9315334 Z" id="Shape-1066"></path>
                                <path d="M88.5662785,36.7880023 L88.0358435,37.9367316 L88.0358435,38.7069023 L87.9557778,38.7069023 C87.6477414,39.9159604 88.0763426,41.2352621 88.9565985,41.7875853 L89.5871156,41.9833914 C90.2943363,41.9731881 90.9449302,41.4769471 91.2985189,40.6780173 C91.7893901,39.5280841 91.6603388,38.097346 90.9782563,37.1273996 C90.3411865,36.2731663 89.328377,36.1306506 88.5662785,36.7880023 L88.5662785,36.7880023 Z" id="Shape-1071"></path>
                                <path d="M103.718388,50.4841673 L102.983215,50.7918775 L102.200304,51.7978532 C101.883082,52.4207992 101.843058,53.2009038 102.09406,53.8686445 C102.345062,54.5363852 102.852669,55.0001915 103.441504,55.0998204 L104.014366,55.0406454 L104.472656,54.8157802 L104.57768,54.7211002 C104.769224,54.8818736 104.982742,54.9981675 105.207828,55.0643154 C106.093274,55.1796465 106.946706,54.6179371 107.365608,53.6441144 L107.461085,53.4310843 L107.537466,52.5671287 L107.422894,51.9280383 L107.10782,51.2534428 C106.470858,50.427953 105.481276,50.1949839 104.644514,50.6735274 L103.718388,50.4841673 Z" id="Shape-1073"></path>
                                <path d="M76.8455118,99.5063122 L76.8455118,99.6286031 C77.9927883,100.248684 79.3246761,99.8065064 80.0870246,98.5524434 L80.3082554,95.972106 L80.3082554,95.972106 C80.3640264,94.6299074 79.7903617,93.3727433 78.8462081,92.7680851 C77.8984345,92.1920277 76.7742545,92.3635392 75.9605885,93.2083322 L75.6239328,93.9665356 C75.3932477,94.2252027 75.1981863,94.5310665 75.0468089,94.8714881 C74.3924963,96.3390023 74.7020322,98.1965043 75.7682138,99.200585 L76.8455118,99.5063122 Z" id="Shape-1080"></path>
                                <path d="M81.5756755,88.525836 C82.55636,88.4117244 83.4396854,87.6674081 83.9570348,86.5192317 L84.1004902,86.0864347 L84.2343819,85.5093721 C84.5303722,83.6372997 83.7757383,81.7521789 82.4650989,81.0895968 C82.0820656,80.9024423 81.6756148,80.8221793 81.2696374,80.8535257 L81.1453094,80.6699148 C80.0629824,79.8696672 78.7474624,79.950294 77.7215077,80.8797558 L76.8225206,83.5027679 L76.8990302,84.5913179 L77.5302338,85.8241335 L77.3293963,86.0077444 C77.6506196,86.7476939 78.127294,87.3373791 78.6970043,87.6995872 L79.8063925,87.7782775 C80.3113999,88.3111537 80.939547,88.5765587 81.5756755,88.525836 L81.5756755,88.525836 Z" id="Shape-1082"></path>
                                <path d="M82.1091989,117.700895 L83.1920906,117.291133 C83.7225075,116.874025 84.1667189,116.284017 84.4839613,115.575253 C85.2004328,113.854644 84.7811135,111.678401 83.5340563,110.645301 L82.0807018,110.31237 L82.0807018,110.248344 C81.2125333,110.115764 80.3500449,110.554147 79.7629337,111.426411 L79.249985,113.756933 L79.249985,113.756933 C79.132345,114.952928 79.4592148,116.150299 80.1238975,116.958201 L81.5107588,117.68809 L82.1091989,117.700895 Z" id="Shape-1095"></path>
                                <path d="M91.9212104,86.0528968 L93.5298999,84.2423062 C93.4634645,84.4948969 93.3613429,84.7288788 93.2288585,84.932055 C93.9498909,84.0940869 94.3977584,82.9257432 94.4800615,81.6680651 L94.14139,79.95601 L93.8215336,79.3278459 L92.7114438,78.2562718 L92.3069196,78.0961516 L91.7989124,77.3817689 C90.9998954,76.8403082 90.0577863,76.7951262 89.2306537,77.2585994 L89.2306537,77.2585994 C88.2638913,77.1260915 87.3039399,77.5798203 86.6247649,78.4902937 L86.06972,80.8674638 L86.1261653,81.236972 L86.0791276,81.236972 C86.2391104,82.837544 86.9012151,84.2784712 87.9062914,85.2133977 C88.9113677,86.1483241 90.1685224,86.4927006 91.375573,86.1637493 L91.9212104,86.0528968 Z" id="Shape-1109"></path>
                                <path d="M89.2474325,54.2197028 L88.8585099,54.0426078 L88.0612186,54.1515893 C87.8706338,54.2890715 87.6993488,54.4736732 87.5556193,54.696497 L86.7777741,55.2822728 C86.6444639,55.933577 86.6967494,56.6319475 86.9236201,57.2303177 C87.1859137,57.8952231 87.6269919,58.3856845 88.1487262,58.5925869 C88.6115755,58.8012348 89.1147886,58.7414581 89.5459587,58.4266096 C89.9771289,58.1117612 90.3003312,57.5680741 90.4433694,56.9169958 L90.0544469,55.8816712 C90.0412845,55.6355255 90.0053318,55.3928229 89.9474932,55.1596685 L89.2474325,54.2197028 Z" id="Shape-1110"></path>
                                <path d="M94.1474756,70.0655804 L95.0479293,70.1574536 L96.0216756,69.7112121 C96.291422,69.4851518 96.5198222,69.1899026 96.6917806,68.8449784 L96.7860141,67.6768754 L96.4404912,66.4825229 C96.2662198,66.1231982 96.0256296,65.8216158 95.7389751,65.6031645 L94.8071103,65.4850417 L93.8124231,65.9312833 C93.5360029,66.1583288 93.306376,66.4641587 93.1423181,66.8237665 L93.0480846,67.9524952 L93.4354891,69.2649705 C93.6173446,69.6004503 93.8617368,69.8752628 94.1474756,70.0655804 L94.1474756,70.0655804 Z" id="Shape-1111"></path>
                                <path d="M77.8652541,85.7378622 C78.2713956,83.7457675 77.5371455,81.6457053 76.1654029,80.8760399 L75.7908594,80.8760399 L75.6275969,80.6470898 C74.8063002,80.045096 73.8341924,80.0004813 72.9865852,80.5258809 L72.2951203,81.2396665 L71.9781989,81.7514372 L71.5460333,82.8423171 C71.1377095,84.8287512 71.8918552,86.9203916 73.2746955,87.6368012 C73.348407,87.6847002 73.4257208,87.7208403 73.5051838,87.7445424 L73.6972574,88.1216366 C74.493176,88.6761958 75.4213178,88.7204001 76.2422323,88.2428455 C77.0257155,87.7953756 77.622493,86.874305 77.8652541,85.7378622 Z" id="Shape-1112"></path>
                                <path d="M74.5334714,106.11571 L74.4763476,106.004466 C73.2626059,105.732222 72.056168,106.532996 71.5154296,107.969777 L71.7439249,110.577831 L71.7439249,110.577831 C71.9138741,111.895247 72.6564851,112.965416 73.6480522,113.321851 C74.6758168,113.659221 75.759882,113.173904 76.4090369,112.085806 L76.5994496,111.245295 C76.7805007,110.927505 76.9189096,110.572296 77.008837,110.194658 C77.3915637,108.565466 76.7790841,106.821394 75.5807415,106.128071 L74.5334714,106.11571 Z" id="Shape-1124"></path>
                                <path d="M107.75739,59.366112 L107.395515,60.7783947 L107.561782,61.8739037 L108.295312,62.9430149 L109.087525,63.2729875 L109.772153,63.2729875 L110.310075,62.9958105 L110.847997,62.4018599 L111.063166,61.7419147 C111.314527,60.5345942 110.873748,59.2607329 110.026443,58.7457635 L109.439619,58.6005756 L108.549602,58.7193657 L107.806292,59.3529131 L108.432238,60.5144166 L108.432238,60.5144166 L107.75739,59.366112 Z" id="Shape-1130"></path>
                                <path d="M77.3163927,56.4321294 L77.7393674,55.7512252 C77.9921897,54.7027869 77.697022,53.5787863 76.9840554,52.8749917 L75.9769726,52.4875807 L75.1713065,52.6519369 L74.3555694,53.3915398 L74.2145779,53.8259097 C73.9999424,54.5420396 74.0662316,55.3319556 74.3958528,55.9860198 C74.7244721,56.6198603 75.2781758,57.0501679 75.9064769,57.1599926 L76.712143,56.9369378 L77.3163927,56.4321294 Z" id="Shape-1131"></path>
                                <path d="M97.0176968,46.6211661 L97.0798476,44.876348 L96.5826408,43.947452 L96.085434,43.4327934 C95.6254083,42.9366455 95.0300457,42.7655264 94.469512,42.9683454 C93.9566586,43.2078353 93.5442764,43.7541332 93.3419181,44.4621106 L93.4395837,45.805244 L93.8657609,46.6462714 L94.7536302,47.2613512 C95.5207789,47.8284363 96.463832,47.5617796 97.0176968,46.6211661 Z" id="Shape-1132"></path>
                                <path d="M104.454484,43.2449993 L104.454484,43.2449993 L104.10648,42.0181078 C103.482775,42.2727415 102.994319,42.9099016 102.799114,43.723487 C102.632954,44.7067833 102.80101,45.7357671 103.259984,46.5453376 L103.401067,46.9011361 L104.341618,47.6250021 L105.178709,47.6250021 L106.119261,46.7907159 C107.059812,43.8339073 105.893528,42.5824779 105.366819,42.1898726 L104.858922,43.4167642 L104.454484,43.2449993 Z" id="Shape-1135"></path>
                                <path d="M93.2726206,40.0352772 C93.711653,40.4169667 94.2547088,40.5594854 94.7785292,40.4304856 C95.3023497,40.3014858 95.7625069,39.9119084 96.0545579,39.350177 L96.3604754,38.2804592 L96.2744361,37.354973 L95.2419645,37.4992046 L95.2419645,37.4992046 L94.3433318,36.8862203 L93.7601766,35.8044831 L93.2726206,36.2131394 L92.851984,36.9222782 L92.6225459,37.8958416 L92.6225459,38.7371926 L92.8233042,39.3862349 L93.2726206,40.0352772 Z" id="Shape-1136"></path>
                                <path d="M92.4973071,62.8774744 C92.5586878,62.6180959 92.6028902,62.3524203 92.6294349,62.0833285 L92.4501186,61.179224 L92.1197992,60.5439073 L91.780042,60.1529432 L90.8362721,59.6886733 L90.5625788,59.7497615 C89.9391081,59.4387107 89.2385844,59.5293974 88.675039,59.994114 L88.269218,60.5927778 L88.0521509,61.2280945 C87.7690199,62.4498574 88.1087771,63.5250087 89.1941125,64.502419 L89.2696141,64.404678 L89.5810581,64.8445126 L90.2700102,65.1743886 L91.2137801,65.0033418 C91.8287056,64.5227229 92.2855617,63.7660458 92.4973071,62.8774744 L92.4973071,62.8774744 Z" id="Shape-1145"></path>
                                <path d="M79.6303991,95.2470089 L78.9860796,95.4536586 L77.6884918,96.8515835 L77.4647697,97.6052473 C77.0799678,99.3192248 77.4647697,101.689619 79.7556834,102.722868 L81.2680445,102.552686 L81.8139262,102.163698 L82.7804055,100.583435 L82.9414853,99.8419271 L82.9414853,98.4561581 L82.8340987,97.8726765 L82.3329614,96.6570896 C81.9071898,96.0318004 81.3463214,95.6061773 80.7311116,95.4415028 L80.7311116,95.5630615 L79.6303991,95.2470089 Z" id="Shape-1147"></path>
                                <path d="M88.3231438,96.7383122 L88.2537453,96.8314647 C88.6355871,97.4936919 89.141612,97.9585196 89.7024387,98.1622149 L91.1511322,97.7629898 L91.6542712,97.2706122 L92.1660851,96.2991646 L92.2354836,96.2991646 C92.5223351,95.7909101 92.7378975,95.1974959 92.8687448,94.5558818 C93.1831992,92.9251707 92.789749,91.1678792 91.8884911,90.1777135 L90.2316022,89.7518734 L89.6850891,90.004716 C88.5950879,90.1820192 87.6814818,91.3473178 87.3689146,92.9589815 L87.3689146,93.185209 L87.6378337,95.5539444 L87.9761513,96.3124721 L88.3231438,96.7383122 Z" id="Shape-1150"></path>
                                <path d="M84.9224869,38.0252195 L86.4460327,37.6504939 L86.7222311,37.1077879 L87.4350011,36.7589054 C87.8368667,35.5710364 87.8169425,34.1743955 87.3815433,33.0116495 C87.0690848,32.1741891 86.5828106,31.5005942 85.9916419,31.0863352 C85.3088455,30.5769119 84.5134858,30.4870749 83.7845397,30.8370399 C83.0555936,31.1870049 82.4542961,31.9473731 82.1159551,32.9470416 L82.3386957,33.8773948 L82.3386957,35.5184345 C82.7252079,36.756749 83.4577665,37.6969483 84.3522709,38.102749 L84.7799329,37.9993764 L84.7799329,37.9993764 L84.9224869,38.0252195 Z" id="Shape-1152"></path>
                                <path d="M91.4035427,43.8221637 L92.7270688,43.5049032 L93.2108404,43.1083277 L94.1236171,41.6277791 C94.3617203,40.7603592 94.3969883,39.8038364 94.2240225,38.9046272 C94.7113188,36.9673957 94.092347,34.8125427 92.8000909,33.9474332 C92.3387954,33.6200675 91.8232183,33.4872228 91.312265,33.5640769 C90.3350889,33.7296352 89.5019308,34.666414 89.1489844,35.9964067 L89.1033455,36.1153794 L89.1854954,37.23901 L89.0942178,37.5033937 C88.6793505,38.7292098 88.6793505,40.1640177 89.0942178,41.3898338 C89.559263,42.6786708 90.4136184,43.578533 91.4035427,43.8221637 L91.4035427,43.8221637 Z" id="Shape-1154"></path>
                                <path d="M86.8236377,80.4190812 L84.9764718,81.8422497 C85.0731194,81.6085322 85.2037109,81.4003621 85.361298,81.228815 C84.7687393,81.7165611 84.2901758,82.3988944 83.9759236,83.2040747 C83.857786,83.5131776 83.7674198,83.8383164 83.7065453,84.1733015 L83.8316138,85.9277247 L84.0817508,86.6025029 L85.0438164,87.9029844 L85.4286426,88.1360896 L85.8615721,88.9458234 C86.6027514,89.6398041 87.547381,89.878034 88.4399078,89.5960642 L88.4399078,89.5960642 C89.3991295,89.915129 90.4200128,89.6673671 91.2202773,88.921286 L92.0668949,86.7006524 L92.0668949,86.3203229 L92.1149982,86.3203229 C92.1514038,84.7133414 91.660089,83.159938 90.7595808,82.0348628 C89.8590726,80.9097876 88.63114,80.315201 87.372015,80.3945438 L86.8236377,80.4190812 Z" id="Shape-1159"></path>
                                <path d="M82.6088932,95.5928414 L81.7293804,95.333982 L80.6823413,95.5928414 C80.3840686,95.7487918 80.1215305,95.9933054 79.9180028,96.3047047 L79.6771838,97.4178001 L79.8656508,98.712097 C79.9933488,99.0978023 80.1944954,99.4396923 80.4519927,99.7087056 L81.3524463,100.006394 L82.3994854,99.7604775 C82.7050304,99.5953591 82.9742577,99.3424272 83.1847647,99.0227283 L83.4151133,97.9355188 L83.1847647,96.6412219 C83.0719925,96.2344594 82.873146,95.8724572 82.6088932,95.5928414 L82.6088932,95.5928414 Z" id="Shape-1162"></path>
                                <path d="M117.120774,46.9995434 L116.455553,49.3503205 L116.455553,50.3503748 L116.541945,50.8309204 L116.541945,50.8309204 C116.68054,52.4694324 117.460928,53.8219302 118.520331,54.259678 L119.634793,54.259678 L120.11859,54.0258991 L120.11859,54.0258991 L120.602388,53.8310833 L120.947957,53.5323658 L121.673653,52.4284097 L121.777324,52.1426799 C121.966843,51.5513258 122.064338,50.9028768 122.062447,50.246473 C122.062447,50.246473 122.062447,49.9867187 122.062447,49.8828169 L122.062447,49.8828169 L122.062447,49.1165415 L121.880995,48.2463644 L120.92204,46.5189979 C119.711948,45.4739969 118.197787,45.6654131 117.120774,46.9995434 L117.120774,46.9995434 Z" id="Shape-1165"></path>
                                <path d="M101.329777,35.7181444 C100.283191,35.571665 99.2820255,36.3476308 98.8228107,37.661199 L98.6306709,38.47398 L98.7770631,40.4297342 L98.9875019,41.0012208 L99.6920143,42.0806956 C100.444656,42.8046259 101.391065,43.0235651 102.272177,42.6775816 C103.011773,42.3763602 103.626044,41.6573929 103.964836,40.696428 C104.372328,39.5379735 104.320445,38.1696938 103.827594,37.0770126 C103.34348,36.0006879 102.490928,35.3512838 101.576814,35.3625528 L101.329777,35.7181444 Z" id="Shape-1167"></path>
                                <path d="M93.3903871,51.7694504 L94.4649637,49.7394204 C94.7524478,48.5372952 94.5999458,47.2369411 94.0486863,46.1899068 L93.0128332,45.1931256 L92.5094279,44.97432 L91.2315531,44.97432 C90.3956394,45.29887 89.7091987,46.0547209 89.3437834,47.0529735 C88.9477223,48.0563825 88.8918513,49.2183234 89.1888895,50.2742786 C89.4815447,51.2607323 90.0885038,52.0492981 90.86368,52.4501791 L92.7127262,52.3043086 L93.3903871,51.7694504 Z" id="Shape-1169"></path>
                                <path d="M78.8111453,54.99438 C79.1675651,56.0563921 79.8433697,56.8197139 80.6414729,57.0617364 L81.3186941,57.1279978 L81.8220342,57.0219795 C82.7027874,56.5801392 83.426748,55.6509188 83.8353945,54.4377841 C84.2147964,53.3269684 84.2147964,52.0234921 83.8353945,50.9126765 C83.4959432,49.8659249 82.839932,49.10694 82.0599767,48.8585724 C80.761191,48.3451082 79.3969107,49.2711632 78.8386002,51.0451993 C78.4143774,52.2867675 78.4042696,53.7406961 78.8111453,54.99438 L78.8111453,54.99438 Z" id="Shape-1188"></path>
                                <path d="M106.466315,64.0476761 L106.466315,64.1574084 C107.642484,64.6795551 108.948729,64.1405727 109.657601,62.8406206 L109.753724,60.255815 L109.753724,60.255815 C109.749709,58.9013906 109.110393,57.6800237 108.127844,57.1496881 C107.145294,56.6193525 106.008162,56.8818731 105.235939,57.8173191 L104.937958,58.5976378 C104.723687,58.8731331 104.545242,59.1900143 104.409281,59.5364587 C103.827366,61.0582392 104.241533,62.8916693 105.370512,63.791634 L106.466315,64.0476761 Z" id="Shape-1192"></path>
                                <path d="M109.923587,52.5908724 C110.898501,52.4044905 111.749247,51.5679621 112.207613,50.3450168 L112.331331,49.9038666 L112.436016,49.3022981 C112.651226,47.3723716 111.817693,45.5161277 110.485077,44.9576369 C110.096666,44.7939616 109.68789,44.7483896 109.285963,44.823955 L109.152728,44.6368004 C108.043244,43.9145446 106.740712,44.1098458 105.764756,45.1447916 L104.993898,47.8986383 L105.117616,49.008198 L105.793307,50.2113349 L105.602971,50.4118577 C105.954122,51.1370976 106.455929,51.6926044 107.040004,52.0026721 L108.134433,52.0026721 C108.664247,52.4841422 109.296694,52.6920647 109.923587,52.5908724 L109.923587,52.5908724 Z" id="Shape-1194"></path>
                                <path d="M72.1923188,31.9774239 L72.236115,31.9774239 L72.236115,32.3074109 C72.457339,33.0234528 72.8878333,33.5587775 73.4098536,33.7669685 C73.9301492,34.0061471 74.4990661,33.8110374 74.8901657,33.2592963 C75.4485303,33.1327084 75.9256799,32.6082198 76.160256,31.8631977 L76.2478484,31.4824435 L76.3091631,30.9366958 L76.3091631,30.3528728 C76.1945832,29.7804395 75.9941906,29.2517222 75.7222938,28.8044724 C76.0043095,28.9429391 76.3067993,28.9692369 76.5982182,28.8806233 C77.1654283,28.7088163 77.6430097,28.158043 77.8858269,27.395682 C78.1978381,26.6126731 78.1988494,25.6482941 77.8884818,24.8639149 C77.5781142,24.0795358 77.0032256,23.5935786 76.3792371,23.5881402 L75.8887195,23.6769828 C75.4306855,23.911354 75.0557152,24.3998833 74.8463695,25.0350061 C74.7403272,25.3245458 74.6832853,25.6464521 74.6799439,25.9741997 L74.6273884,26.8626261 L74.7500178,27.5733673 L74.8025733,27.6875935 L74.6186292,27.5860591 L74.250741,27.4972164 L73.8040196,27.4972164 C73.6654473,27.5561415 73.5328972,27.6415015 73.4098536,27.7510525 L73.2697057,27.7510525 L72.3937814,28.0175805 C72.1566742,28.1768998 71.947174,28.4110728 71.7806344,28.702938 L71.5791718,29.7817415 L71.7455974,31.0509221 C71.8375781,31.4098719 71.9913519,31.7287994 72.1923188,31.9774239 Z" id="Shape-1196"></path>
                                <path d="M99.5656272,48.5080726 L100.328532,45.823635 L100.172275,44.944873 C100.017627,43.3753734 99.1148135,42.1106236 97.9295171,41.8029976 L96.4496646,42.1280192 L95.9257417,42.5493435 L95.5672681,43.0669705 C95.6836764,42.9514008 95.8101877,42.854414 95.944125,42.7780624 L94.7216382,45.0532135 L94.7216382,46.0764296 L95.7143342,48.4839969 C96.8706173,49.5349438 98.4017362,49.5445153 99.5656272,48.5080726 L99.5656272,48.5080726 Z" id="Shape-1198"></path>
                                <path d="M79.1260312,78.8238418 L79.2864829,77.8256437 L78.9655796,75.842557 L79.0903753,75.7760104 C78.6928933,73.8568647 77.4536345,72.6103949 76.1131055,72.7814163 L75.1236536,73.2605513 L74.7581803,73.6199026 L74.0807177,74.7778124 L73.7509004,75.7760104 L73.6795886,78.051902 L73.8935241,78.917007 L74.93646,80.5673611 C75.8935962,81.2910725 77.0116312,81.3733288 78.0117835,80.7936193 L79.1260312,78.8238418 Z" id="Shape-1211"></path>
                                <path d="M84.0526653,102.116918 C83.9662473,102.359896 83.8931071,102.610133 83.833763,102.865858 L83.890868,103.783913 L84.1478401,104.472455 L84.4428822,104.907323 L85.337526,105.559625 L85.6135331,105.559625 C86.1934913,105.993163 86.9031099,106.042699 87.5170306,105.692502 L88.0024224,105.197235 L88.287947,104.605331 C88.7257514,103.457762 88.5163667,102.358512 87.5551005,101.186784 L87.4694431,101.271341 L87.212471,100.776075 L86.5652818,100.317047 L85.6135331,100.317047 C84.9313433,100.642219 84.3729279,101.286141 84.0526653,102.116918 L84.0526653,102.116918 Z" id="Shape-1216"></path>
                                <path d="M70.8107058,59.2661996 L71.0982725,58.8609949 L71.2899836,58.3418265 L70.9598145,56.6956825 C70.4621987,56.2046897 69.8039255,56.0090324 69.1705108,56.1638514 C68.5716279,56.3151795 68.0625716,56.7807357 67.7859305,57.430116 C67.3686556,58.3372185 67.5205666,59.4650784 68.1552216,60.1719088 C68.7898767,60.8787392 69.7464149,60.9853857 70.4805367,60.431163 L70.8107058,59.2661996 Z" id="Shape-1218"></path>
                                <path d="M100.338108,73.4249182 L100.987214,73.3648229 L102.418804,72.2710879 L102.730019,71.5860011 C103.299099,69.9874653 103.21018,67.5956712 101.067241,66.105307 L99.5645156,65.9490591 L98.9865444,66.2134786 L97.8572776,67.559614 L97.6083054,68.2447008 L97.4215763,69.6028552 L97.4215763,70.1797704 L97.7772509,71.4898486 C98.1237968,72.1917032 98.6291646,72.7230046 99.2177329,73.0042509 L99.2621922,72.8840602 L100.338108,73.4249182 Z" id="Shape-1220"></path>
                                <path d="M91.6803458,71.3151202 L91.7585388,71.2412237 C91.4420616,70.5669809 90.9871485,70.0467818 90.4553221,69.7509783 L88.9783432,69.7509783 L88.4309921,70.0958285 L87.8228243,70.8717414 L87.7706956,70.7978449 C87.4355424,71.1959771 87.1606943,71.6861425 86.9627013,72.238826 C86.4832224,73.6604731 86.6925404,75.3567487 87.483988,76.4632406 L89.0826005,77.2268374 L89.6473277,77.1159927 C90.7451584,77.1917155 91.76964,76.3348686 92.2537612,74.936047 L92.314578,74.7266737 L92.314578,72.5097797 L92.0626227,71.7461829 L91.6803458,71.3151202 Z" id="Shape-1222"></path>
                                <path d="M81.7134851,60.2592669 L82.0720696,58.1300756 L81.8330133,57.5597565 L81.8330133,56.4951609 C81.2198333,55.5123684 80.2944342,55.0097237 79.3596995,55.1517426 C78.6779425,55.2346183 78.0334274,55.6166329 77.5208045,56.2416857 C76.9119309,56.9429989 76.5343648,57.953565 76.4737735,59.044093 C76.4131823,60.1346211 76.6747028,61.2126539 77.1989979,62.0335929 L77.897778,62.0335929 L78.9919205,62.603912 C79.9678804,62.5962869 80.8922336,61.9986004 81.5204011,60.9689973 L81.6215403,60.3606569 L81.6215403,60.3606569 L81.7134851,60.2592669 Z" id="Shape-1224"></path>
                                <path d="M1.69966929,85.4332435 L1.78234216,84.6013263 L1.58943881,84.2366502 L1.29319437,84.0429161 C1.10036737,84.0706198 0.934261933,84.2789084 0.866051223,84.578534 C0.832292463,84.8830641 0.874891516,85.1972075 0.98405032,85.4487091 C1.09320912,85.7002108 1.25953117,85.8674212 1.44476129,85.9118808 C1.58232535,85.9038808 1.7097382,85.7900702 1.78923157,85.6041854 L1.78923157,85.2281132 C1.77854181,85.3145711 1.74592511,85.3892752 1.69966929,85.4332435 L1.69966929,85.4332435 Z" id="Shape-1225"></path>
                                <path d="M88.4446641,54.0674124 L88.7767412,52.2747675 L88.7181394,51.5100728 L88.073519,49.8427877 C87.5814016,49.2199955 86.9427466,48.8233578 86.2568617,48.7145496 C85.1358211,47.3922019 83.4125104,47.3922019 82.2914698,48.7145496 C81.8800228,49.1814997 81.5760259,49.7841144 81.4124421,50.4570506 C81.1196985,51.7564042 81.4131861,53.1569308 82.1742661,54.0924843 L82.242635,54.1927722 L83.0435269,54.5061716 L83.1802646,54.7067473 C83.843402,55.6881085 84.8271753,56.2126776 85.8368817,56.1233128 C86.9104478,56.0055389 87.8774211,55.243205 88.4446641,54.0674124 Z" id="Shape-1226"></path>
                                <path d="M85.9736684,37.6827956 C85.4422945,38.9131218 85.577408,40.4306189 86.3119406,41.4820255 L86.8048515,42.0178143 L88.2352596,42.5536032 L88.7185056,42.5536032 L89.7719819,42.0908764 C90.5853411,41.4329916 91.1238329,40.352818 91.2410497,39.1440379 C91.3301694,38.1231376 91.0740767,37.1021297 90.5355106,36.3311465 C89.8911693,35.3993769 88.9166099,34.9412179 87.945312,35.1134446 C86.9936894,35.3117931 86.1921729,36.1187478 85.8286946,37.2444229 L85.9736684,37.6827956 Z" id="Shape-1236"></path>
                                <path d="M94.7918096,54.3728094 L93.7916393,52.2805722 C93.0670861,51.4359846 92.1078656,51.0780252 91.1730115,51.3033597 L90.1182865,52.1427602 L89.7818656,52.6564232 L89.2817804,54.1598272 C89.1976722,55.2869983 89.4692489,56.4096033 90.0273619,57.2418053 C90.5729872,58.1173967 91.3549546,58.6470732 92.1913668,58.7076241 C92.9812279,58.7670248 93.7509035,58.351043 94.3008169,57.5675428 L94.8736417,55.3124369 L94.7918096,54.3728094 Z" id="Shape-1237"></path>
                                <path d="M90.7794363,73.463943 C91.5727105,73.4001548 92.3020946,72.7879253 92.7560935,71.8047792 L93.0512504,70.9010071 L93.1764685,70.1725937 C93.2228619,68.7925036 92.9007278,67.4419043 92.2820535,66.4226138 C91.7296701,65.4851672 90.9203078,64.9869462 90.0907367,65.0737002 C89.3143376,65.1291652 88.5982585,65.7213992 88.1498562,66.6789074 C87.3338873,68.2402544 87.39075,70.464235 88.2840184,71.9261814 C88.9139465,72.9919903 89.834863,73.5594904 90.7794363,73.463943 L90.7794363,73.463943 Z" id="Shape-1242"></path>
                                <path d="M107.741379,43.0175822 L107.840742,43.0175822 C108.616985,41.8207275 108.72018,40.0644353 108.093667,38.7130275 L106.359328,37.5874111 L106.359328,37.5255641 C105.431711,37.0125302 104.37055,37.2934643 103.649425,38.2429899 C102.939261,39.2149021 102.706529,40.6635066 103.053246,41.953813 L103.486831,42.6093917 C103.765516,43.5640664 104.344571,44.2949185 105.062101,44.5976125 C105.779631,44.9003065 106.558641,44.7423618 107.181332,44.1679374 L107.741379,43.0175822 Z" id="Shape-1246"></path>
                                <path d="M94.4345648,45.1816118 L92.8934922,43.1737079 L92.2253972,43.0249743 C91.0965626,42.5884176 89.8937405,43.2079003 89.2412394,44.5618884 L88.9116458,46.5202144 L89.0096331,47.3506438 L89.2234235,47.9951561 C89.1935165,47.8037804 89.178583,47.6084632 89.1788838,47.4126161 L90.2656518,49.8915098 L90.9515627,50.3624996 L92.9736636,50.0774268 C94.1621683,49.0471383 94.7490996,47.0801968 94.4345648,45.1816118 L94.4345648,45.1816118 Z" id="Shape-1249"></path>
                                <path d="M91.8378856,97.4533614 L92.3866988,97.9019285 L92.9262102,98.0734395 L93.5680427,97.9678943 C94.0817117,97.6422627 94.4206242,96.9314577 94.4424232,96.1340462 C94.3808218,96.3505602 94.2736264,96.5348487 94.1354598,96.6617723 L94.3773097,96.0548873 C94.7624675,95.6301744 95.0075418,94.9995113 95.0550412,94.3108436 C95.1025406,93.6221759 94.9482853,92.9361061 94.6284616,92.4135775 C94.6333434,91.7002072 94.4585188,91.0077957 94.1354598,90.4609911 C93.7775629,89.8744903 93.2359383,89.5820787 92.6936622,89.6825952 C92.3357708,89.7268856 92.0031869,89.9627418 91.7634702,90.3422527 C91.1615106,89.9344408 90.4516774,90.0149828 89.9030862,90.5533432 L89.456594,91.8726583 L89.456594,92.980883 L89.6333305,93.7328927 C89.7404994,94.2445091 89.9245598,94.7171132 90.1728419,95.1181736 L90.6100321,95.6722859 L91.3541857,95.8306038 C91.3845957,96.4324588 91.5546838,97.0030848 91.8378856,97.4533614 L91.8378856,97.4533614 Z" id="Shape-1251"></path>
                                <path d="M90.4743,85.689896 L90.2814607,85.2301308 L89.9668281,84.8086794 L88.6271022,84.5404831 C88.0968474,84.9081139 87.7246768,85.554382 87.6121584,86.3029162 C87.5107217,87.0441946 87.6867389,87.8029029 88.089182,88.3590881 C88.6073512,89.170096 89.495417,89.4384216 90.2497386,89.0118918 C91.0040602,88.585362 91.4342772,87.5716159 91.2964045,86.54557 L90.4743,85.689896 Z" id="Shape-1277"></path>
                                <path d="M111.734976,54.2932451 L111.939348,53.4479062 L111.752748,51.2258725 L111.397319,50.573754 C110.508746,49.2453643 108.864886,48.4362542 107.025541,50.573754 L106.332454,52.3972707 L106.332454,53.2184571 L106.812283,55.1506602 L107.185484,55.7303212 L108.074056,56.4911262 L108.4828,56.6722702 L109.504659,56.7326516 C110.115527,56.5690554 110.672437,56.1462193 111.095204,55.5250246 L111.033004,55.4163382 L111.734976,54.2932451 Z" id="Shape-1279"></path>
                                <path d="M106.79729,63.3907443 L106.79729,63.2498894 C106.208977,63.4239184 105.669779,63.8332946 105.245646,64.4279482 L104.639679,66.5151609 L104.639679,67.398705 L104.9243,68.5383487 L104.850849,68.5383487 C104.987741,69.1501548 105.212678,69.7165849 105.511905,70.2029969 C106.290987,71.4264605 107.540247,71.827347 108.624374,71.2017859 L109.808765,69.3322579 L109.964847,68.5255437 C110.465718,67.0608255 110.288449,65.3201113 109.514963,64.1078235 L109.404787,63.9413587 L107.871505,63.0834246 L107.237994,63.0834246 L106.79729,63.3907443 Z" id="Shape-1282"></path>
                            </g>
                        </g>
                    </g>
                </g>
            </g>
        </g>
    </g>
</svg>