<?xml version="1.0" encoding="UTF-8"?>
<svg width="349px" height="160px" viewBox="0 0 349 160" version="1.1" xmlns="http://www.w3.org/2000/svg" xmlns:xlink="http://www.w3.org/1999/xlink">
    <title>Img/Card/Event-01</title>
    <defs>
        <rect id="path-1" x="0" y="0" width="349" height="160"></rect>
        <linearGradient x1="0%" y1="50.5625849%" x2="100%" y2="50.3341017%" id="linearGradient-3">
            <stop stop-color="#392C95" offset="0%"></stop>
            <stop stop-color="#7D5AC0" offset="100%"></stop>
        </linearGradient>
        <rect id="path-4" x="0" y="0.174070248" width="1011" height="336" rx="16"></rect>
        <filter x="-0.0%" y="-0.1%" width="100.1%" height="100.3%" filterUnits="objectBoundingBox" id="filter-6">
            <feGaussianBlur stdDeviation="0.5" in="SourceAlpha" result="shadowBlurInner1"></feGaussianBlur>
            <feOffset dx="0" dy="0" in="shadowBlurInner1" result="shadowOffsetInner1"></feOffset>
            <feComposite in="shadowOffsetInner1" in2="SourceAlpha" operator="arithmetic" k2="-1" k3="1" result="shadowInnerInner1"></feComposite>
            <feColorMatrix values="0 0 0 0 1   0 0 0 0 1   0 0 0 0 1  0 0 0 0.1 0" type="matrix" in="shadowInnerInner1"></feColorMatrix>
        </filter>
        <linearGradient x1="50%" y1="100%" x2="50%" y2="3.061617e-15%" id="linearGradient-7">
            <stop stop-color="#8B57FD" offset="0%"></stop>
            <stop stop-color="#5F8AFD" offset="100%"></stop>
        </linearGradient>
        <linearGradient x1="50%" y1="98.1243373%" x2="50%" y2="0.589689527%" id="linearGradient-8">
            <stop stop-color="#FFACA0" offset="0%"></stop>
            <stop stop-color="#FFD6BD" offset="100%"></stop>
        </linearGradient>
        <linearGradient x1="10.8656684%" y1="99.4999022%" x2="86.7281421%" y2="24.3488381%" id="linearGradient-9">
            <stop stop-color="#FF7E9E" offset="0%"></stop>
            <stop stop-color="#BB6CFF" offset="100%"></stop>
        </linearGradient>
        <filter id="filter-10">
            <feColorMatrix in="SourceGraphic" type="matrix" values="0 0 0 0 0.578631 0 0 0 0 0.341098 0 0 0 0 0.845335 0 0 0 1.000000 0"></feColorMatrix>
        </filter>
    </defs>
    <g id="Img/Card/Event-01" stroke="none" stroke-width="1" fill="none" fill-rule="evenodd">
        <g id="Group-3">
            <mask id="mask-2" fill="white">
                <use xlink:href="#path-1"></use>
            </mask>
            <g id="Image"></g>
            <g id="Group-2" mask="url(#mask-2)">
                <g transform="translate(-1.000000, -57.000000)">
                    <mask id="mask-5" fill="white">
                        <use xlink:href="#path-4"></use>
                    </mask>
                    <g id="Rectangle" stroke="none" fill="none">
                        <use fill="url(#linearGradient-3)" fill-rule="evenodd" xlink:href="#path-4"></use>
                        <use fill="black" fill-opacity="1" filter="url(#filter-6)" xlink:href="#path-4"></use>
                    </g>
                    <path d="M-2,1.17407025 L749.717708,1.17407025 C759.476079,34.1295835 752.556616,59.8174334 728.959319,78.2376202 C643.046087,145.301988 562.907745,85.1173587 456.185574,131.752519 C402.487936,155.217164 432.605495,202.0111 366.755406,210.097995 C315.47527,216.395588 192.556801,195.051283 -2,146.06508 L-2,1.17407025 Z" id="Rectangle" stroke="none" fill="url(#linearGradient-7)" fill-rule="evenodd" mask="url(#mask-5)"></path>
                    <path d="M68.3082942,185 C73.1611148,185 77.7051196,184.349229 81.9403085,183.047686 C86.1754974,181.746143 89.8812877,179.793829 93.0576794,177.190743 C96.2340711,174.587658 98.7487145,171.401122 100.60161,167.631136 C102.454505,163.86115 103.380952,159.462833 103.380952,154.436185 C103.380952,150.486676 102.719204,146.918654 101.395708,143.732118 C100.072211,140.545582 98.2193159,137.807854 95.8370221,135.518934 C93.4547284,133.230014 90.6533274,131.457223 87.4328191,130.200561 C84.2123109,128.943899 80.7050451,128.270687 76.9110217,128.180926 L75.0581265,128.180926 L77.175721,124.814867 L99.5428124,94.2510519 L99.5428124,89 L47.2646993,89 L47.2646993,100.309958 L75.0581265,100.309958 L81.9403085,100.309958 L77.9698189,105.02244 L57.7203219,133.02805 L57.7203219,138.14446 L68.4406439,138.14446 C75.5875252,138.14446 81.102094,139.580645 84.9843505,142.453015 C88.866607,145.325386 90.8077353,149.723703 90.8077353,155.647966 C90.8077353,158.340813 90.2562784,160.809257 89.1533646,163.053296 C88.0504509,165.297335 86.5284298,167.227209 84.5873016,168.842917 C82.6461733,170.458626 80.3079961,171.715288 77.57277,172.612903 C74.8375438,173.510519 71.8376183,173.959327 68.5729935,173.959327 C64.7789701,173.959327 61.3599374,173.600281 58.3158954,172.882188 C55.2718533,172.164095 52.602802,171.26648 50.3087413,170.189341 L47,181.230014 C49.6469931,182.396914 52.7792682,183.316971 56.3968254,183.990182 C60.0143826,184.663394 63.9848722,185 68.3082942,185 Z" id="3" stroke="none" fill="url(#linearGradient-8)" fill-rule="nonzero" mask="url(#mask-5)"></path>
                    <path d="M292.718954,122.996331 C295.456075,125.721033 295.466143,130.148716 292.741441,132.885837 C292.733962,132.89335 292.726466,132.900846 292.718954,132.908324 L146.016618,278.945019 C143.263366,281.685779 138.812697,281.685779 136.059445,278.945019 C133.322324,276.220317 133.312256,271.792635 136.036958,269.055514 C136.044437,269.048001 136.051933,269.040505 136.059445,269.033027 L282.761782,122.996331 C285.515034,120.255572 289.965702,120.255572 292.718954,122.996331 Z M395.045014,92.157447 C397.782135,94.8821489 397.792203,99.3098315 395.067501,102.046953 C395.060022,102.054465 395.052526,102.061961 395.045014,102.06944 L248.342677,248.106135 C245.589426,250.846894 241.138757,250.846894 238.385505,248.106135 C235.648384,245.381433 235.638316,240.95375 238.363018,238.216629 L238.385505,238.194142 L238.385505,238.194142 L385.087841,92.157447 C387.841093,89.4166875 392.291762,89.4166875 395.045014,92.157447 Z M382.613898,-43.1055459 C385.35102,-40.380844 385.361087,-35.9531614 382.636385,-33.2160402 C382.628907,-33.2085274 382.621411,-33.2010317 382.613898,-33.193553 L235.911562,112.843142 C233.15831,115.583902 228.707642,115.583902 225.95439,112.843142 C223.217269,110.11844 223.207201,105.690758 225.931903,102.953636 C225.939382,102.946124 225.946877,102.938628 225.95439,102.931149 L372.656726,-43.1055459 C375.409978,-45.8463054 379.860646,-45.8463054 382.613898,-43.1055459 Z M484.939958,-73.9444304 C487.677079,-71.2197284 487.687147,-66.7920459 484.962445,-64.0549246 C484.954967,-64.0474119 484.947471,-64.0399162 484.939958,-64.0324375 L338.237622,82.0042576 C335.48437,84.7450171 331.033702,84.7450171 328.28045,82.0042576 C325.543329,79.2795556 325.533261,74.8518731 328.257963,72.1147518 C328.265442,72.1072391 328.272937,72.0997434 328.28045,72.0922647 L474.982786,-73.9444304 C477.736038,-76.6851899 482.186706,-76.6851899 484.939958,-73.9444304 Z" id="Combined-Shape" stroke="none" fill="url(#linearGradient-9)" fill-rule="evenodd" mask="url(#mask-5)"></path>
                    <g filter="url(#filter-10)" fill="none" fill-rule="evenodd" id="Group-6" stroke="none" stroke-width="1">
                        <g mask="url(#mask-5)">
                            <g transform="translate(74.949793, 293.319334) rotate(-120.000000) translate(-74.949793, -293.319334) translate(-58.050207, 168.319334)" fill="#895DCD" fill-rule="nonzero">
                                <path d="M164.419654,238.486803 L163.976988,238.987873 C163.841374,239.759679 164.111957,240.549122 164.680713,241.041038 L164.862319,241.248798 L165.804403,240.674401 L165.804403,239.977792 C165.847271,239.500604 165.693786,239.027154 165.384438,238.682342 C165.107009,238.463041 164.75215,238.391119 164.419654,238.486803 L164.419654,238.486803 Z" id="Shape-43"></path>
                                <path d="M174.372109,206.750768 C174.042965,206.715844 173.713433,206.813076 173.47617,207.015123 C173.140356,207.320389 173.023945,207.761915 173.173132,208.164492 L173.805559,208.612746 L174.358933,208.612746 L174.978185,208.049555 L174.978185,207.313959 L174.372109,206.750768 Z" id="Shape-57"></path>
                                <path d="M202.948669,170.262348 L202.258224,170.762326 C202.147285,170.897087 202.069783,171.05617 202.032043,171.226591 L202.520117,171.905133 C202.651761,172.020838 202.812128,172.098966 202.984382,172.131313 L203.662923,171.643239 C203.780593,171.515948 203.862702,171.35994 203.901008,171.190879 L203.40103,170.500433 C203.267881,170.391319 203.113996,170.310326 202.948669,170.262348 Z" id="Shape-58"></path>
                            </g>
                        </g>
                    </g>
                </g>
            </g>
        </g>
    </g>
</svg>