<?xml version="1.0" encoding="UTF-8"?>
<svg width="349px" height="160px" viewBox="0 0 349 160" version="1.1" xmlns="http://www.w3.org/2000/svg" xmlns:xlink="http://www.w3.org/1999/xlink">
    <title>Img/Card/Event-09</title>
    <defs>
        <rect id="path-1" x="0" y="0" width="349" height="160"></rect>
        <linearGradient x1="0.556757601%" y1="43.1443307%" x2="102.381917%" y2="55.2452616%" id="linearGradient-3">
            <stop stop-color="#31BAF9" offset="0%"></stop>
            <stop stop-color="#0084A2" offset="99.9098558%"></stop>
        </linearGradient>
        <rect id="path-4" x="0" y="0.681944444" width="1353" height="501" rx="20"></rect>
        <filter id="filter-6">
            <feColorMatrix in="SourceGraphic" type="matrix" values="0 0 0 0 0.337255 0 0 0 0 0.909804 0 0 0 0 0.968627 0 0 0 1.000000 0"></feColorMatrix>
        </filter>
        <linearGradient x1="50%" y1="0%" x2="50%" y2="44.7246436%" id="linearGradient-7">
            <stop stop-color="#22D0C2" offset="0%"></stop>
            <stop stop-color="#19CCFF" offset="100%"></stop>
        </linearGradient>
        <linearGradient x1="50%" y1="0.895015394%" x2="50%" y2="99.2870411%" id="linearGradient-8">
            <stop stop-color="#B8FFE9" offset="0%"></stop>
            <stop stop-color="#8BFFF3" offset="100%"></stop>
        </linearGradient>
    </defs>
    <g id="Img/Card/Event-09" stroke="none" stroke-width="1" fill="none" fill-rule="evenodd">
        <g id="Group">
            <mask id="mask-2" fill="white">
                <use xlink:href="#path-1"></use>
            </mask>
            <g id="Image"></g>
            <g id="Group-4" mask="url(#mask-2)">
                <g transform="translate(-733.000000, -91.000000)">
                    <mask id="mask-5" fill="white">
                        <use xlink:href="#path-4"></use>
                    </mask>
                    <use id="Rectangle" stroke="none" fill="url(#linearGradient-3)" fill-rule="evenodd" xlink:href="#path-4"></use>
                    <g filter="url(#filter-6)" fill="none" fill-rule="evenodd" id="Group-5" stroke="none" stroke-width="1">
                        <g mask="url(#mask-5)">
                            <g transform="translate(551.000000, 135.000000)" fill="#2E867E" fill-rule="nonzero" id="Path">
                                <path d="M192.88616,83.4113919 C193.367954,83.8521118 194.106554,83.8521118 194.588348,83.4113919 C194.862732,83.1606064 195.019025,82.8060306 195.019025,82.4343294 C195.019025,82.0626282 194.862732,81.7080524 194.588348,81.4572669 L193.422034,81.4572669 C192.948823,81.7633344 192.62796,82.2560274 192.539419,82.8125471 L192.88616,83.4113919 Z"></path>
                                <path d="M192.082737,99.7168059 L192.082737,100.536278 C192.210259,102.267421 193.518491,103.680139 195.234936,103.940237 C197.120793,104.219239 198.949984,103.16105 199.648014,101.387268 L199.648014,100.66235 L199.648014,100.000469 L199.458882,99.2755519 C198.76046,97.9755411 197.48445,97.0859542 196.022985,96.8801729 C194.713151,96.7230588 193.411587,97.2317896 192.555566,98.2354531 L192.082737,99.7168059 Z"></path>
                                <path d="M179.564411,85.0618411 L179.186147,86.4171213 C179.192002,88.5371193 180.419379,90.4638664 182.338346,91.3654701 L184.544886,90.5459983 L185.332935,89.1907181 L185.522067,87.7408834 L185.522067,87.0790024 C185.501285,85.9708612 185.021913,84.9209379 184.198144,84.179333 C183.487652,83.5645922 182.539934,83.2988011 181.613341,83.4544157 L180.383983,84.1478149 L179.564411,85.0618411 Z"></path>
                                <path d="M201.663041,91.7946068 L200.307595,92.4564879 L199.267369,93.78025 C199.043893,94.2535909 198.925601,94.7697126 198.920627,95.2931209 L199.582589,96.6484011 L200.938035,97.6884999 C201.424414,97.9388528 201.967581,98.0583349 202.514134,98.0351995 L203.838058,97.3733185 L204.846762,96.0495564 C205.069057,95.5981901 205.187531,95.1028111 205.193504,94.5997217 L204.531542,93.1814052 L203.176096,92.1097883 C202.70258,91.8901327 202.184889,91.7822935 201.663041,91.7946068 L201.663041,91.7946068 Z"></path>
                                <path d="M183.405328,61.4552089 L183.783592,62.0540536 C184.375617,62.4475305 185.14593,62.4475305 185.737955,62.0540536 C186.368086,61.5839406 186.544496,60.715566 186.147741,60.0368924 L185.296648,59.5641202 C183.373806,59.7532291 183.342284,61.0769911 183.405328,61.4552089 Z"></path>
                                <path d="M188.623324,113.784769 L189.34833,112.555561 C189.117554,111.678737 188.520306,110.943752 187.709186,110.5384 C187.020757,110.210593 186.236826,110.143408 185.502647,110.349291 C183.655537,110.830114 182.506637,112.670898 182.886322,114.541204 L184.935251,115.896485 L184.935251,115.896485 C185.429739,116.12024 185.968829,116.228045 186.51135,116.211666 L188.308104,114.824868 C188.444164,114.488323 188.549662,114.14022 188.623324,113.784769 L188.623324,113.784769 Z"></path>
                                <path d="M182.014234,104.871764 C183.055854,105.882852 184.468833,106.418956 185.919078,106.353315 C187.369323,106.287674 188.728081,105.626116 189.674078,104.525064 L190.493649,103.106748 L190.777347,101.940577 C190.943194,100.522194 190.495973,99.1004345 189.54799,98.0323266 C187.453794,95.8081949 183.964845,95.6680935 181.699014,97.7171451 L180.343569,100.679851 L180.343569,101.940577 L182.014234,104.871764 Z"></path>
                                <path d="M184.537451,76.5417758 L184.537451,77.9285742 C184.667226,79.2047631 185.235338,80.3965381 186.145073,81.3010156 L186.145073,81.3010156 L187.784216,82.1835237 L188.414656,82.3726326 L189.959234,82.3726326 C191.738036,82.110025 193.234437,80.9033978 193.867961,79.2208181 C194.471379,77.4408616 194.060996,75.4736784 192.796213,74.0833605 C191.786675,72.9196622 190.300544,72.2811682 188.761398,72.3498625 C187.343589,72.4207073 186.029003,73.1125103 185.167891,74.2409512 L184.537451,76.5417758 Z"></path>
                                <path d="M206.250827,117.514541 L206.250827,115.528898 C206.085682,114.443225 205.615641,113.426749 204.895381,112.597711 C203.175419,110.639217 200.220691,110.375682 198.181197,111.998866 L196.920318,114.299691 L196.920318,114.299691 C196.197187,115.681679 196.197187,117.330243 196.920318,118.712231 L199.536643,120.60332 L199.536643,120.60332 C200.949424,121.33775 202.631507,121.33775 204.044288,120.60332 L205.777997,118.586158 L206.250827,117.514541 Z"></path>
                                <path d="M202.344248,113.935356 L198.750741,112.643112 C199.11461,112.567496 199.490142,112.567496 199.854011,112.643112 C198.67622,112.242579 197.410294,112.177109 196.19746,112.454003 C195.731448,112.553262 195.277144,112.701157 194.842014,112.895257 L193.108305,114.597237 L192.635475,115.511263 L192.320255,118.001197 L192.509387,118.726114 L192.099601,120.018358 C192.187711,121.629863 192.969483,123.124245 194.243097,124.115717 L194.243097,124.115717 C194.958615,125.687118 196.350879,126.847196 198.025735,127.267531 L201.177934,126.542614 L201.58772,126.195914 L201.58772,126.195914 C203.592186,125.359538 204.854152,123.353257 204.739919,121.184529 C205.860172,118.823462 205.066245,115.997965 202.880122,114.565719 L202.344248,113.935356 Z"></path>
                                <path d="M185.155013,106.368723 L186.321327,105.801396 L187.928949,103.752717 L188.149603,103.752717 C189.564836,101.638203 189.329376,98.8261029 187.582207,96.9763159 L185.943063,95.904699 L185.155013,95.6525538 L183.20065,95.6525538 L181.813682,95.9677352 L179.481055,97.6381969 L178.882137,98.6467776 L178.472351,101.514929 C178.881293,103.503995 180.119838,105.223988 181.876726,106.24265 L185.155013,106.368723 Z"></path>
                                <path d="M181.482484,74.7683685 L182.270534,74.7683685 L183.027062,74.5792596 L184.414029,72.7827254 C184.427221,71.7594245 183.974983,70.7854923 183.184672,70.1352012 C182.299599,69.3278944 181.033337,69.0920293 179.9169,69.5265176 C178.800463,69.9610058 178.026858,70.9907345 177.920499,72.1838806 C177.833574,73.5713213 178.666024,74.8518587 179.969429,75.3356951 L181.482484,74.7683685 Z"></path>
                                <path d="M186.722757,85.659666 L186.376015,86.2900289 L186.376015,87.6453091 C186.482731,88.0150318 186.665224,88.3585057 186.911889,88.6538897 L187.353197,90.1037244 C188.104287,90.4892184 188.978644,90.5573418 189.78039,90.2928333 C190.686352,89.9964523 191.435708,89.3493606 191.860842,88.496299 C192.259394,87.7534203 192.343699,86.8818607 192.094917,86.0763814 C191.846136,85.2709021 191.285006,84.5986438 190.536918,84.2098313 L189.14995,84.6510853 C188.846059,84.6194446 188.539704,84.6194446 188.235813,84.6510853 L186.722757,85.659666 Z"></path>
                                <path d="M198.97567,108.98595 L198.156098,108.103442 C196.741371,107.415343 195.055659,107.61219 193.837585,108.607732 L192.986492,110.120603 L192.986492,111.507401 L193.774541,113.05179 L194.373459,113.39849 C195.336965,113.938724 196.488509,114.030836 197.525658,113.650635 C198.509024,113.265574 199.263276,112.453401 199.574588,111.444365 L199.574588,110.057567 L198.97567,108.98595 Z"></path>
                                <path d="M197.797728,98.7789516 L197.797728,98.7789516 L196.757502,100.291823 C197.662496,100.963203 198.833661,101.162277 199.909701,100.827631 C201.175259,100.270679 202.147825,99.2067074 202.58907,97.8964435 L202.841246,97.3921532 L202.652114,95.4380282 L201.737976,94.2403387 L199.846657,93.5784577 C195.559666,94.6185564 195.370534,97.2975988 195.496622,98.3692157 L197.324898,98.1801068 L197.797728,98.7789516 Z"></path>
                                <path d="M190.633534,107.737615 C190.886638,107.231689 190.886638,106.636115 190.633534,106.13019 C190.2613,105.568801 189.597534,105.27383 188.931347,105.373754 L188.237863,105.878044 C187.954165,106.476889 187.891121,107.296361 189.215045,107.958242 L189.215045,107.958242 L190.633534,107.737615 Z"></path>
                            </g>
                        </g>
                    </g>
                    <path d="M700,0.681944444 L1353,0.681944444 L1353,507.681944 L1006.89899,507.681944 C983.186115,478.71302 978.372692,444.409204 992.458719,404.770496 C1028.8834,302.269812 1038.40252,306.735556 1018.55878,244.561433 C996.834053,176.493826 897.225619,142.29621 805.883014,98.6366653 C754.313755,73.987813 719.019417,41.3362394 700,0.681944444 Z" id="Rectangle" stroke="none" fill="url(#linearGradient-7)" fill-rule="evenodd" mask="url(#mask-5)"></path>
                    <path d="M806.5,134 C821.687831,134 834,146.312169 834,161.5 C834,176.687831 821.687831,189 806.5,189 C791.312169,189 779,176.687831 779,161.5 C779,146.312169 791.312169,134 806.5,134 Z M806.5,147.75 C798.906085,147.75 792.75,153.906085 792.75,161.5 C792.75,169.093915 798.906085,175.25 806.5,175.25 C814.093915,175.25 820.25,169.093915 820.25,161.5 C820.25,153.906085 814.093915,147.75 806.5,147.75 Z" id="Combined-Shape" stroke="none" fill="url(#linearGradient-8)" fill-rule="nonzero" mask="url(#mask-5)"></path>
                </g>
            </g>
        </g>
    </g>
</svg>