<?xml version="1.0" encoding="UTF-8"?>
<svg width="349px" height="160px" viewBox="0 0 349 160" version="1.1" xmlns="http://www.w3.org/2000/svg" xmlns:xlink="http://www.w3.org/1999/xlink">
    <title>Img/Card/Event-11</title>
    <defs>
        <rect id="path-1" x="0" y="0" width="349" height="160"></rect>
        <linearGradient x1="0.556757601%" y1="44.0898111%" x2="98.4652144%" y2="55.7277557%" id="linearGradient-3">
            <stop stop-color="#FCBC7D" offset="0%"></stop>
            <stop stop-color="#F88E59" offset="100%"></stop>
        </linearGradient>
        <rect id="path-4" x="0" y="0.0171919771" width="1082" height="372"></rect>
        <linearGradient x1="50%" y1="0%" x2="50%" y2="100%" id="linearGradient-6">
            <stop stop-color="#FF8C55" offset="0%"></stop>
            <stop stop-color="#FDC377" offset="99.9890734%"></stop>
        </linearGradient>
        <filter id="filter-7">
            <feColorMatrix in="SourceGraphic" type="matrix" values="0 0 0 0 1.000000 0 0 0 0 0.826645 0 0 0 0 0.576471 0 0 0 1.000000 0"></feColorMatrix>
        </filter>
        <linearGradient x1="50%" y1="3.061617e-15%" x2="50%" y2="99.2870411%" id="linearGradient-8">
            <stop stop-color="#FFE88E" offset="0%"></stop>
            <stop stop-color="#FFBC00" offset="100%"></stop>
        </linearGradient>
        <polygon id="path-9" points="68.9161989 125.799411 68.9161989 2.18781584 38.8031017 2.18781584 28.4416059 19.6407483 50.0550385 19.6407483 50.0550385 125.799411"></polygon>
        <filter id="filter-11">
            <feColorMatrix in="SourceGraphic" type="matrix" values="0 0 0 0 1.000000 0 0 0 0 0.952800 0 0 0 0 0.184947 0 0 0 1.000000 0"></feColorMatrix>
        </filter>
    </defs>
    <g id="Img/Card/Event-11" stroke="none" stroke-width="1" fill="none" fill-rule="evenodd">
        <mask id="mask-2" fill="white">
            <use xlink:href="#path-1"></use>
        </mask>
        <g id="Rectangle"></g>
        <g id="Group-4" mask="url(#mask-2)">
            <g transform="translate(-366.000000, -114.000000)">
                <mask id="mask-5" fill="white">
                    <use xlink:href="#path-4"></use>
                </mask>
                <use id="Rectangle" stroke="none" fill="url(#linearGradient-3)" fill-rule="evenodd" xlink:href="#path-4"></use>
                <circle id="Oval" stroke="none" fill="url(#linearGradient-6)" fill-rule="evenodd" mask="url(#mask-5)" cx="673" cy="270.017192" r="124"></circle>
                <g filter="url(#filter-7)" fill="none" fill-rule="evenodd" id="Clipping_group-2" stroke="none" stroke-width="1">
                    <g mask="url(#mask-5)">
                        <g transform="translate(156.542809, 333.751482) rotate(-315.000000) translate(-156.542809, -333.751482) translate(-24.457191, 42.751482)" id="Group">
                            <g transform="translate(0.233123, 0.423110)">
                                <path d="M284.616255,85.8662437 C285.096325,85.9601156 285.570167,85.6778609 285.716174,85.211053 C285.856589,84.8132587 285.716174,84.2516666 284.990696,83.947471 L284.218412,84.2750663 C284.050182,84.6550786 284.050182,85.0884371 284.218412,85.4684494 L284.616255,85.8662437 Z" id="Path" fill="#2E867E" fill-rule="nonzero"></path>
                                <path d="M286.090614,52.9429109 L285.201318,52.7791133 C285.02049,52.7809372 284.843179,52.8292889 284.686463,52.9195113 L284.522645,53.8086987 C284.54555,53.9994863 284.609414,54.1830728 284.709865,54.346891 L285.575759,54.346891 C285.759977,54.3454972 285.939462,54.2883955 286.090614,54.1830933 L286.231029,53.293906 C286.209239,53.1683907 286.161408,53.0488274 286.090614,52.9429109 L286.090614,52.9429109 Z" id="Path" fill="#2E867E" fill-rule="nonzero"></path>
                                <path d="M331.163873,39.3009045 C331.201387,39.889868 331.697126,40.3442397 332.287194,40.3304899 L332.89566,39.6051002 C332.884296,39.5510922 332.884296,39.4953106 332.89566,39.4413025 L332.357402,39.4413025 L332.872257,39.1839062 C332.872257,38.9265098 332.872257,38.1543208 332.053169,38.0607221 L331.491509,38.2713191 C331.233659,38.5481704 331.113434,38.9259735 331.163873,39.3009045 Z" id="Path" fill="#2E867E" fill-rule="nonzero"></path>
                                <path d="M274.506365,50.3689475 L274.810598,51.0007385 C275.208441,51.2815345 275.746699,51.6325295 276.284957,51.3283338 C276.614147,51.0536095 276.781559,50.630725 276.729605,50.2051498 L276.121139,49.6435578 C276.005354,49.6675224 275.885887,49.6675224 275.770102,49.6435578 C275.516729,49.5314181 275.227788,49.5314181 274.974416,49.6435578 C274.733336,49.8184842 274.566387,50.0772237 274.506365,50.3689475 L274.506365,50.3689475 Z" id="Path" fill="#2E867E" fill-rule="nonzero"></path>
                                <path d="M246.563753,43.6532428 C246.26139,43.9615414 246.153436,44.4112961 246.282923,44.8232262 L246.797778,45.3146192 L246.961596,45.3146192 C247.336036,45.470617 247.757282,45.470617 248.131722,45.3146192 L248.57637,44.6828282 L248.57637,43.6298431 L247.967904,43.0682511 C247.433447,43.0288862 246.912132,43.2460739 246.563753,43.6532428 Z" id="Path" fill="#2E867E" fill-rule="nonzero"></path>
                                <path d="M288.430866,103.649991 L289.437175,101.731219 C289.634794,101.128068 289.714252,100.492476 289.6712,99.8592451 C289.571637,98.6953379 288.906827,97.6545134 287.892608,97.0746847 C286.678444,96.3953822 285.198552,96.3953822 283.984387,97.0746847 L282.837663,98.1276697 L282.486626,98.6892617 L282.088783,100.163441 L282.088783,100.795232 C282.100997,101.852323 282.536007,102.860515 283.296699,103.594735 C284.057391,104.328955 285.080427,104.728069 286.137419,104.702976 L287.798998,104.047786 L288.430866,103.649991 Z" id="Path" fill="#2E867E" fill-rule="nonzero"></path>
                                <path d="M279.56131,88.4870065 L279.56131,89.7739883 L279.935751,90.429179 L279.935751,90.429179 C280.215417,91.6336809 281.384091,92.4127018 282.603638,92.2075537 L283.352519,91.903358 C284.115377,91.3831638 284.522179,90.4792689 284.405633,89.5633913 C284.285755,88.2754414 283.334039,87.2191657 282.06538,86.9660281 C280.977271,86.8232493 279.936084,87.4556687 279.56131,88.4870065 Z" id="Path" fill="#2E867E" fill-rule="nonzero"></path>
                                <path d="M283.422727,67.6379024 C283.16566,67.9730308 282.996695,68.3672345 282.931274,68.7844861 L283.258909,69.8374712 L284.054595,70.7266586 C284.363567,70.9639216 284.724531,71.1243306 285.107708,71.1946519 L286.231029,70.8904562 L287.16713,70.0480682 C287.407363,69.7257471 287.5605,69.3469812 287.611778,68.9482838 L287.307545,67.8952987 L286.488457,66.9827117 C286.166097,66.7425085 285.787285,66.5893903 285.388538,66.538118 L284.312022,66.818914 L283.422727,67.6379024 Z" id="Path" fill="#2E867E" fill-rule="nonzero"></path>
                                <path d="M316.513894,50.2051498 C316.280542,50.475645 316.177855,50.8350048 316.233064,51.1879358 L316.233064,51.3751332 L316.818127,51.8665262 C317.210203,51.8925946 317.594337,51.7474949 317.87124,51.4687319 C318.099099,51.1953014 318.201064,50.8384671 318.152071,50.4859458 L318.152071,50.2051498 L317.543605,49.7137568 C317.144091,49.7151095 316.766217,49.8954365 316.513894,50.2051498 L316.513894,50.2051498 Z" id="Path" fill="#2E867E" fill-rule="nonzero"></path>
                                <path d="M266.455897,72.528433 C266.880263,72.541431 267.289635,72.3708802 267.579219,72.0604396 C267.830046,71.6260467 267.830046,71.0908525 267.579219,70.6564596 L267.040961,70.3522639 C266.549508,70.3522639 265.964444,70.5628609 265.941042,71.6626453 L265.941042,71.6626453 L266.455897,72.528433 Z" id="Path" fill="#2E867E" fill-rule="nonzero"></path>
                                <path d="M312.02061,64.8533419 L311.809987,64.0811529 L311.154716,63.6365592 C310.65374,63.7309176 310.209016,64.0161776 309.914382,64.4321479 C309.701793,64.6876409 309.659317,65.0442333 309.805943,65.3425047 C309.952569,65.6407762 310.260886,65.8249657 310.593056,65.8127283 L310.827081,65.6021313 C311.10231,65.681441 311.394342,65.681441 311.669572,65.6021313 L312.02061,64.8533419 Z" id="Path" fill="#2E867E" fill-rule="nonzero"></path>
                                <path d="M334.674252,38.9733092 L334.370019,38.9733092 C333.98373,38.975129 333.620342,39.1568005 333.387113,39.4647022 C333.174999,39.7899753 333.115186,40.1915264 333.223295,40.5644866 C333.332523,40.9657696 333.592399,41.3094345 333.948773,41.523873 L334.276409,41.523873 C334.65793,41.5031108 335.01379,41.3252022 335.259315,41.03248 C335.636223,40.2990551 335.38051,39.3990538 334.674252,38.9733092 Z" id="Path" fill="#2E867E" fill-rule="nonzero"></path>
                                <path d="M292.807138,27.3904736 C292.781899,26.9693524 292.555427,26.586138 292.198673,26.3608882 C291.656494,26.1517023 291.055869,26.1517023 290.513691,26.3608882 L290.115848,26.9458799 C290.101407,27.0624327 290.101407,27.1803221 290.115848,27.2968749 C290.279666,27.9052662 290.771119,28.1158633 291.61361,27.9052662 L291.89444,27.9052662 C291.797404,27.9020621 291.708906,27.84897 291.660415,27.7648682 L292.807138,27.3904736 Z" id="Path" fill="#2E867E" fill-rule="nonzero"></path>
                                <path d="M289.530785,87.8786152 C288.781904,87.2936235 288.290451,87.4574211 288.056426,87.6212188 C287.715061,87.8636459 287.564767,88.2956886 287.681986,88.6976035 C287.770137,89.0375954 288.041236,89.2996254 288.384061,89.3761939 C288.688294,89.3761939 289.132942,89.3761939 289.624395,88.7210032 L289.530785,87.8786152 Z" id="Path" fill="#2E867E" fill-rule="nonzero"></path>
                                <path d="M293.111371,13.8888652 C293.49713,14.3336458 294.160909,14.405121 294.632535,14.0526628 L294.632535,13.0932764 L294.515522,13.0932764 L294.11768,13.4442715 L294.375107,12.9294788 C294.21129,12.7422814 293.696434,12.1572897 293.041163,12.5082847 L292.736931,13.0230774 C292.754201,13.3471545 292.887043,13.6543155 293.111371,13.8888652 L293.111371,13.8888652 Z" id="Path" fill="#2E867E" fill-rule="nonzero"></path>
                                <path d="M253.95895,56.3826621 L254.567416,56.7336571 C255.058869,56.7336571 255.714139,56.7336571 255.971567,56.1252658 C256.228995,55.5168744 255.737542,55.0254814 255.597127,54.838284 L254.754636,54.838284 C254.669708,54.9191159 254.564644,54.9756818 254.450403,55.0020817 C254.182386,55.0905208 253.962423,55.2850803 253.841938,55.5402741 C253.766386,55.8253982 253.808546,56.1289169 253.95895,56.3826621 L253.95895,56.3826621 Z" id="Path" fill="#2E867E" fill-rule="nonzero"></path>
                                <path d="M307.152885,59.0268246 L307.527325,58.1610369 L307.527325,57.4122475 L305.304085,57.2952492 L305.304085,57.2952492 C305.200368,57.2197955 305.112834,57.1243152 305.046658,57.0144532 L302.823418,58.6056306 C303.326922,59.4281414 304.200894,59.9524602 305.16367,60.0096107 C305.936478,59.9802802 306.660089,59.6227749 307.152885,59.0268246 L307.152885,59.0268246 Z" id="Path" fill="#2E867E" fill-rule="nonzero"></path>
                                <path d="M329.034244,55.4466754 L329.034244,55.4466754 L329.572502,55.6104731 L330.4852,56.3358628 L331.725534,56.5698595 C332.127562,56.5686294 332.522493,56.4638644 332.872257,56.2656638 L333.527528,55.3998761 L333.761553,54.1830933 C333.755554,53.784622 333.659552,53.3926606 333.480723,53.0365096 L332.942465,52.6387153 C332.846591,52.3284907 332.687194,52.0416121 332.474415,51.7963272 L332.170182,51.5623305 L332.170182,51.5623305 C331.269302,50.7153969 329.864916,50.7153969 328.964036,51.5623305 C328.431129,52.0725789 328.135651,52.7822361 328.148983,53.5198654 C328.162315,54.2574946 328.483245,54.9560133 329.034244,55.4466754 L329.034244,55.4466754 Z" id="Path" fill="#2E867E" fill-rule="nonzero"></path>
                                <path d="M309.188904,76.3659785 L307.878363,75.5937895 L306.965665,75.5937895 L304.78923,76.3893782 C303.162109,78.0041193 302.944173,80.5596075 304.274374,82.4264925 L306.614627,83.8538723 L308.088986,83.8538723 C309.379668,83.7481673 310.539408,83.0245081 311.201521,81.9116998 L311.575962,81.0693118 L311.692974,80.4375208 C311.80677,79.3274376 311.459908,78.2193057 310.733471,77.3721643 C310.320093,76.9372761 309.837759,76.5735932 309.305917,76.2957795 L309.188904,76.3659785 Z" id="Path" fill="#2E867E" fill-rule="nonzero"></path>
                                <path d="M296.80897,90.990771 L296.504737,88.8380015 C296.289559,88.2492034 295.972721,87.7027247 295.568636,87.2234245 C294.803001,86.332741 293.646978,85.8773938 292.479503,86.0066417 C291.119059,86.2111865 289.955589,87.0924954 289.39037,88.3466085 L289.086137,89.8675869 L289.086137,90.5227776 L289.647798,91.9735571 L290.045641,92.4415504 C290.681857,93.2836398 291.628316,93.8365196 292.674393,93.9771514 C293.72047,94.1177832 294.779369,93.8344985 295.615441,93.1903398 L296.598347,91.6693614 L296.80897,90.990771 Z" id="Path" fill="#2E867E" fill-rule="nonzero"></path>
                                <path d="M323.324028,31.0876211 C323.144261,31.3396522 323.144261,31.677978 323.324028,31.9300091 L323.651663,32.1406061 C324.08148,32.2959789 324.562036,32.1422196 324.82179,31.7662115 C325.016783,31.2650588 324.897462,30.6960561 324.517557,30.315432 C324.29394,30.0069718 323.898643,29.8752222 323.534651,29.9878367 C323.300626,29.9878367 323.019795,30.3388317 323.043198,30.9940224 L323.324028,31.0876211 Z" id="Path" fill="#2E867E" fill-rule="nonzero"></path>
                                <path d="M280.661229,84.087869 L281.480317,85.070655 L282.15899,85.3748507 L282.15899,85.3748507 C283.096574,86.1834689 284.501843,86.1219317 285.365136,85.2344527 L285.809784,84.5324626 C286.080839,83.7171155 285.883189,82.8188165 285.294928,82.1924959 C284.466063,81.2332237 283.107081,80.9291529 281.948368,81.4437065 C280.949819,81.9117564 280.413585,83.013339 280.661229,84.087869 Z" id="Path" fill="#2E867E" fill-rule="nonzero"></path>
                                <path d="M271.370427,64.9937399 C271.35921,65.4194586 271.4644,65.8401666 271.67466,66.2105227 L272.563956,66.889113 L273.734082,67.1231097 C274.124127,67.1322775 274.510275,67.043796 274.857403,66.8657134 L275.582881,65.976526 L275.840309,64.7363436 C275.837933,64.327101 275.733357,63.9249338 275.536076,63.5663602 L274.670183,62.9111695 L273.453252,62.6537731 C273.054201,62.655544 272.66124,62.7517676 272.306528,62.9345691 L271.627855,63.8237565 L271.370427,64.9937399 Z" id="Path" fill="#2E867E" fill-rule="nonzero"></path>
                                <path d="M299.991713,69.1588808 L299.991713,70.1650665 L300.670386,71.4988476 C301.161156,72.1102482 301.925531,72.4352877 302.706405,72.3646353 C303.480037,72.2697651 304.155659,71.7960103 304.5084,71.1010533 L304.69562,70.3756635 L304.69562,69.7204728 L304.69562,69.5566752 C304.906243,69.3460782 305.187073,69.2056802 305.327488,68.9014845 C305.814946,67.8378892 305.621642,66.5861726 304.836035,65.7191296 L304.648815,65.5319323 L303.829727,65.1341379 L303.127651,65.1341379 L302.331965,65.2745359 C301.232787,65.7820405 300.568698,66.9230116 300.670386,68.1292954 L299.991713,69.1588808 Z" id="Path" fill="#2E867E" fill-rule="nonzero"></path>
                                <path d="M315.437378,58.5354316 L317.379787,58.6524299 L317.567007,58.4886322 C318.148683,58.3788644 318.667147,58.0527739 319.017964,57.5760452 L319.017964,57.2250502 L319.017964,57.2250502 L319.017964,56.8506555 L319.017964,56.5698595 L319.017964,56.5698595 L319.017964,55.3764764 C318.616546,54.9402783 318.064522,54.6726628 317.473397,54.627687 C316.765498,54.5951436 316.074153,54.8480437 315.55439,55.3296771 C314.673712,56.1992021 314.622434,57.6040301 315.437378,58.5354316 Z" id="Path" fill="#2E867E" fill-rule="nonzero"></path>
                                <path d="M336.125208,46.9291963 L336.499648,47.8885827 C337.410198,49.1662177 338.986722,49.7894187 340.524882,49.4797601 L341.460983,48.0523803 L341.343971,46.8823969 L340.829115,45.9230106 L340.478077,45.5720155 C339.997719,44.8974748 339.244083,44.4693247 338.418655,44.4020321 C337.717281,44.3502672 337.02981,44.6166298 336.546454,45.1274218 L336.148611,46.0634086 L336.125208,46.9291963 Z" id="Path" fill="#2E867E" fill-rule="nonzero"></path>
                                <path d="M320.492323,0.621253435 L319.603027,0.410656424 C319.423948,0.401975093 319.245906,0.442434341 319.088171,0.527654764 L318.877549,1.39344248 C318.868866,1.57249913 318.909331,1.75051982 318.994561,1.90823517 L319.860455,2.11883218 C320.029025,2.16457272 320.20674,2.16457272 320.37531,2.11883218 L320.609335,1.25304447 C320.624381,1.0359427 320.584123,0.818571349 320.492323,0.621253435 L320.492323,0.621253435 Z" id="Path" fill="#2E867E" fill-rule="nonzero"></path>
                                <path d="M287.681986,31.2748184 C287.655718,31.6301884 287.783599,31.9796856 288.033024,32.2342048 L288.173439,32.3746028 L288.945722,32.3746028 C289.271281,32.1621662 289.49219,31.8223467 289.554188,31.4386161 C289.580455,31.0832461 289.452575,30.733749 289.20315,30.4792297 L289.062735,30.3388317 L288.290451,30.3388317 C287.960522,30.5468721 287.738191,30.8888789 287.681986,31.2748184 L287.681986,31.2748184 Z" id="Path" fill="#2E867E" fill-rule="nonzero"></path>
                                <path d="M324.634569,58.5354316 L325.032412,57.6462442 C324.774985,56.7336571 324.236726,56.4060618 323.534651,56.7570568 L323.207015,57.4356472 C323.262299,57.5947814 323.262299,57.767906 323.207015,57.9270402 L323.885689,58.7226289 L324.634569,58.5354316 Z" id="Path" fill="#2E867E" fill-rule="nonzero"></path>
                                <path d="M294.11768,79.7589304 L294.562327,79.501534 C294.854488,79.0620569 294.854488,78.4902317 294.562327,78.0507546 C294.234443,77.558285 293.585655,77.3961078 293.064566,77.6763599 L292.690126,78.308151 C292.853943,79.7355307 293.813447,79.7823301 294.11768,79.7589304 Z" id="Path" fill="#2E867E" fill-rule="nonzero"></path>
                                <path d="M309.305917,37.6629278 L309.914382,37.0077371 C309.99799,36.8483593 310.045904,36.6726963 310.054798,36.4929444 L309.399527,35.884553 C309.24013,35.8009554 309.064445,35.7530473 308.884671,35.744155 L308.276206,36.4227454 C308.188841,36.5721404 308.140549,36.7411444 308.135791,36.9141384 L308.814464,37.5225298 C308.963877,37.6098836 309.132902,37.6581705 309.305917,37.6629278 Z" id="Path" fill="#2E867E" fill-rule="nonzero"></path>
                                <path d="M261.307342,45.5252162 L260.675474,46.1804069 C260.589621,46.34045 260.534082,46.5149774 260.511657,46.6951996 L261.19033,47.303591 C261.351376,47.4038434 261.539085,47.452805 261.728588,47.443989 L262.313651,46.7887983 C262.400294,46.6306298 262.448402,46.4542565 262.454066,46.2740056 L261.775393,45.6656142 C261.628782,45.5918215 261.470367,45.5443028 261.307342,45.5252162 L261.307342,45.5252162 Z" id="Path" fill="#2E867E" fill-rule="nonzero"></path>
                                <path d="M320.234895,58.6992292 L319.532819,58.3248346 L318.760536,58.5120319 C318.500884,58.9568674 318.417385,59.4828466 318.526511,59.986211 C318.582805,60.308706 318.820863,60.5693848 319.136967,60.6546722 C319.453071,60.7399597 319.789966,60.6344082 320.00087,60.3840053 L320.00087,60.0798097 C320.241868,59.9305778 320.43009,59.7096475 320.539128,59.4480186 L320.234895,58.6992292 Z" id="Path" fill="#2E867E" fill-rule="nonzero"></path>
                                <path d="M316.513894,24.4655151 L316.233064,24.6527124 C315.985108,24.9432332 315.881877,25.3303036 315.952233,25.7056975 C316.042649,26.085909 316.300952,26.4044436 316.654309,26.5714852 C317.035539,26.7340594 317.466607,26.7340594 317.847838,26.5714852 L318.128668,26.3842878 C318.376624,26.093767 318.479855,25.7066966 318.409498,25.3313028 C318.096866,24.5957523 317.274627,24.2202072 316.513894,24.4655151 L316.513894,24.4655151 Z" id="Path" fill="#2E867E" fill-rule="nonzero"></path>
                                <path d="M279.608115,47.654586 C279.28786,47.3732337 278.841835,47.2840396 278.437989,47.4205893 C277.899731,47.6077866 277.642303,48.1693787 277.408278,48.707571 L277.548693,49.4095611 C277.634215,49.5003124 277.737869,49.5720643 277.852926,49.6201581 C278.391184,49.9009541 278.882637,49.6201581 279.28048,48.9181681 L279.420895,48.6607717 C279.346603,48.6948194 279.261162,48.6948194 279.18687,48.6607717 L279.608115,47.654586 Z" id="Path" fill="#2E867E" fill-rule="nonzero"></path>
                                <path d="M301.606487,36.8205397 L301.068229,37.5459294 C301.030772,37.7154835 301.030772,37.8911681 301.068229,38.0607221 L301.81711,38.5989145 C301.993201,38.6477829 302.179277,38.6477829 302.355368,38.5989145 L302.870223,37.8735248 C302.929079,37.6989535 302.929079,37.5099037 302.870223,37.3353324 L302.144745,36.8205397 C301.969882,36.7633652 301.78135,36.7633652 301.606487,36.8205397 L301.606487,36.8205397 Z" id="Path" fill="#2E867E" fill-rule="nonzero"></path>
                                <path d="M343.543808,33.2871899 L343.333185,33.5445862 C343.15832,33.8820804 343.15832,34.2834768 343.333185,34.6209709 C343.523675,34.9610512 343.860477,35.1941931 344.245884,35.252762 C344.654675,35.3278769 345.076491,35.2350886 345.41601,34.9953656 L345.626632,34.7379693 C345.784826,34.3884363 345.784826,33.9877179 345.626632,33.6381849 C345.133354,32.9906459 344.222105,32.8370832 343.543808,33.2871899 L343.543808,33.2871899 Z" id="Path" fill="#2E867E" fill-rule="nonzero"></path>
                                <path d="M315.27356,66.2807217 C314.901867,66.0767499 314.451724,66.0767499 314.080032,66.2807217 C313.668276,66.6961576 313.447855,67.2640973 313.471566,67.8484994 L313.822604,68.4568908 C313.931082,68.4747866 314.041761,68.4747866 314.150239,68.4568908 C314.782107,68.5738891 315.17995,68.1994944 315.320365,67.3805061 C315.312089,67.2870903 315.312089,67.1931258 315.320365,67.09971 C315.267318,67.1681897 315.193365,67.2174854 315.109743,67.240108 L315.27356,66.2807217 Z" id="Path" fill="#2E867E" fill-rule="nonzero"></path>
                            </g>
                        </g>
                    </g>
                </g>
            </g>
        </g>
        <g id="Group-3" mask="url(#mask-2)">
            <g transform="translate(-21.000000, 85.435245) rotate(-60.000000) translate(21.000000, -85.435245) translate(-70.000000, 21.435245)">
                <mask id="mask-10" fill="white">
                    <use xlink:href="#path-9"></use>
                </mask>
                <use id="1" stroke="none" fill="url(#linearGradient-8)" fill-rule="nonzero" transform="translate(48.678902, 63.993613) rotate(30.000000) translate(-48.678902, -63.993613) " xlink:href="#path-9"></use>
                <g filter="url(#filter-11)" fill="none" fill-opacity="0.6" fill-rule="evenodd" id="Group" stroke="none" stroke-width="1">
                    <g mask="url(#mask-10)">
                        <g transform="translate(51.847164, 93.990589) rotate(7.000000) translate(-51.847164, -93.990589) translate(-42.652836, 34.990589)" fill="#FFFFFF" fill-rule="nonzero" id="Path">
                            <path d="M80.8218196,89.2417898 L80.2985151,89.4095324 L80.2003955,89.6611464 L80.2003955,89.9546959 C80.3245832,90.0996967 80.5317721,90.174831 80.7400533,90.1503957 C80.9342798,90.0911199 81.0915182,89.9662817 81.1749911,89.8050802 C81.258464,89.6438786 81.2608502,89.4604524 81.1815915,89.297704 C81.0963933,89.1970528 80.9660624,89.1312225 80.8218196,89.1159829 L80.6092272,89.2278113 C80.6771305,89.1962866 80.7603557,89.2017589 80.8218196,89.2417898 L80.8218196,89.2417898 Z" transform="translate(80.719879, 89.635466) rotate(-66.000000) translate(-80.719879, -89.635466) "></path>
                            <path d="M67.1558916,100.762899 L67.2082449,101.191524 C67.2727328,101.254412 67.3158177,101.335982 67.3314062,101.424698 L67.8185046,101.641568 L67.8185046,101.641568 C67.9642952,101.598644 68.0957951,101.517161 68.1991275,101.405716 L68.2774417,101.22982 L68.2340769,100.853834 C68.0771533,100.64101 67.8373012,100.504759 67.5741417,100.478949 C67.4046449,100.51916 67.2558111,100.620203 67.1558916,100.762899 Z"></path>
                            <path d="M56.5592603,83.6084259 C56.4015399,83.5384946 56.2165549,83.5820012 56.1065383,83.7149013 L56.0221999,83.9043284 C55.9738156,84.3043151 56.1797375,84.460848 56.2744511,84.5030172 C56.5565503,84.58683 56.8613364,84.491989 57.0460722,84.2629099 C57.195848,84.1222532 57.2416627,83.9029415 57.1607224,83.7140876 C57.0886234,83.5847112 56.9368234,83.452275 56.6059715,83.4670966 L56.5592603,83.6084259 Z"></path>
                            <path d="M97.9949394,96.5214763 L97.5516469,96.682443 C97.5638168,96.6370893 97.5941958,96.5996504 97.6347642,96.5800097 C97.470788,96.5762762 97.3174846,96.6656225 97.2330304,96.814143 L97.3438536,97.2385097 L97.3438536,97.3116764 C97.4359926,97.4260158 97.5556421,97.5119613 97.6901758,97.5604431 L97.8702634,97.5604431 L98.1888798,97.3409431 L98.2719972,97.0629097 L98.1196154,96.682443 C98.0874862,96.6213559 98.0452612,96.56684 97.9949394,96.5214763 L97.9949394,96.5214763 Z" transform="translate(97.752514, 97.040960) rotate(-66.000000) translate(-97.752514, -97.040960) "></path>
                            <path d="M82.7734587,82.7494561 L83.2471053,82.6119458 C83.3398716,82.5659425 83.4150069,82.4908072 83.4610102,82.3980409 L83.3234999,81.9243943 C83.2713567,81.8412174 83.2039658,81.7686426 83.1248739,81.7104894 L82.6359484,81.8632786 C82.5492819,81.9107289 82.4757747,81.9789855 82.4220435,82.0619046 L82.5595538,82.5355512 C82.6101003,82.6249602 82.6840497,82.6989096 82.7734587,82.7494561 Z" transform="translate(82.941527, 82.229973) rotate(-66.000000) translate(-82.941527, -82.229973) "></path>
                            <path d="M93.460043,91.4597517 L92.9645975,91.4597517 L92.7897344,91.6887281 L92.7897344,92.0092952 C92.8375714,92.1980161 92.9852079,92.3407785 93.1686045,92.3756575 C93.3532211,92.386012 93.5327794,92.310429 93.6592272,92.1691355 C93.7856749,92.0278419 93.8461034,91.835262 93.8243412,91.6429328 C93.8005777,91.5065686 93.7129712,91.3918512 93.5911904,91.3376309 L93.3871834,91.3376309 C93.4263666,91.3662106 93.4526901,91.4103317 93.460043,91.4597517 L93.460043,91.4597517 Z" transform="translate(93.309218, 91.857114) rotate(-66.000000) translate(-93.309218, -91.857114) "></path>
                            <path d="M65.5198928,116.1643 C65.3586237,116.133762 65.1930349,116.188838 65.0821835,116.309884 L64.9932076,116.691798 L64.9932076,116.691798 C65.1536029,116.971378 65.4764142,117.115103 65.7915076,117.047225 L66.0324745,116.506004 C65.9276619,116.315236 65.7363001,116.187668 65.5198928,116.1643 L65.5198928,116.1643 Z"></path>
                            <path d="M83.5135517,73.0429642 L83.6134477,73.1223146 L84.1842823,72.9536949 L84.1842823,72.695806 C84.235132,72.52103 84.1724708,72.3395637 84.013032,72.1998657 C83.8673087,72.1058827 83.6661612,72.0654127 83.4707391,72.0907589 L83.1995927,72.2593786 C83.095323,72.5408011 83.2150061,72.8395086 83.5135517,73.0429642 Z" transform="translate(83.682076, 72.602831) rotate(-66.000000) translate(-83.682076, -72.602831) "></path>
                            <path d="M93.5654962,83.3079077 L93.1083508,83.1915881 L92.9005575,83.3909931 L92.7897344,83.7067178 C92.7981409,83.9215563 92.9047016,84.1132919 93.0667922,84.2052304 C93.2347344,84.2596732 93.4140671,84.2254412 93.5596256,84.1111555 C93.705184,83.9968698 93.8030955,83.8134227 93.8287011,83.6070153 C93.8278071,83.4587767 93.7719601,83.3187053 93.6763193,83.2248223 L93.468526,83.2248223 C93.5049178,83.2449556 93.5378165,83.2731436 93.5654962,83.3079077 L93.5654962,83.3079077 Z" transform="translate(93.309218, 83.711071) rotate(-66.000000) translate(-93.309218, -83.711071) "></path>
                            <path d="M56.8638855,83.3918701 C56.9375027,83.3892613 57.0070456,83.4202238 57.0543665,83.4766777 C57.1556973,83.2315121 57.1286979,82.9548621 56.9832387,82.7478659 L56.6169266,82.6820491 L56.455095,82.7721235 C56.4257969,82.7901172 56.394219,82.8034019 56.3614805,82.8115068 L56.2725893,82.7719299 L56.1329032,82.7097377 L55.8452144,83.1166676 L55.9632348,83.6718056 L56.469233,83.7998147 C56.514031,83.8126182 56.5567298,83.8316289 56.5962204,83.8563531 C56.7201694,83.9608418 56.8930149,83.9814865 57.0440987,83.9098476 C57.1758373,83.8212928 57.2471651,83.6610879 57.2248238,83.5039323 L56.8638855,83.3918701 Z"></path>
                            <path d="M85.8741709,71.3427985 L85.7841481,71.3427985 L85.4111961,71.5644448 C85.3594954,71.7506862 85.3828287,71.9517579 85.4754981,72.1185604 C85.5961756,72.2772447 85.7739349,72.3729835 85.9641938,72.3817653 L86.1313792,72.3817653 L86.4014479,72.160119 C86.530052,71.5505919 86.0542167,71.3982101 85.8741709,71.3427985 Z" transform="translate(85.903724, 71.862282) rotate(-66.000000) translate(-85.903724, -71.862282) "></path>
                            <path d="M112.893019,37.4239462 C112.650171,37.1900624 112.25787,37.1900624 112.015022,37.4239462 L112.015022,37.9496027 L112.015022,37.9496027 L112.238512,37.7331559 L112.110804,38.0269051 C112.284894,38.2712692 112.616747,38.3565372 112.893019,38.2278914 L113.052655,37.9341422 C113.063592,37.7511246 113.007013,37.5702991 112.893019,37.4239462 L112.893019,37.4239462 Z" transform="translate(112.534506, 37.768017) rotate(-66.000000) translate(-112.534506, -37.768017) "></path>
                            <path d="M88.4146153,67.6400518 L88.0102521,67.6400518 C87.9493129,67.6896712 87.8742447,67.7209248 87.7945917,67.7298391 L87.6058889,68.1531218 L87.6058889,68.2300823 C87.6328546,68.3565236 87.6985081,68.4725535 87.7945917,68.5635778 L87.9293795,68.6790185 L88.2798275,68.6790185 C88.4809312,68.5554798 88.6141956,68.3535107 88.6437544,68.1274683 C88.6556844,67.9391213 88.5701221,67.7571163 88.4146153,67.6400518 L88.4146153,67.6400518 Z" transform="translate(88.125372, 68.159535) rotate(-66.000000) translate(-88.125372, -68.159535) "></path>
                            <path d="M110.103319,72.1425113 L109.577092,72.1425113 C109.617339,72.1309067 109.660664,72.1309067 109.70091,72.1425113 C109.547673,72.0636268 109.358876,72.0636268 109.205638,72.1425113 L109.08182,72.5565127 C109.087115,72.5885398 109.087115,72.621086 109.08182,72.653113 C109.116743,72.7878448 109.191572,72.9117533 109.298502,73.0119142 C109.342917,73.056067 109.395213,73.0933699 109.453274,73.1223146 L109.87116,73.1223146 L110.087842,72.929114 L110.087842,72.5427126 C110.125726,72.4119219 110.131009,72.2753182 110.103319,72.1425113 L110.103319,72.1425113 Z" transform="translate(109.601303, 72.602831) rotate(-66.000000) translate(-109.601303, -72.602831) "></path>
                            <path d="M101.743262,51.5370825 L102.27875,51.6463836 C102.391375,51.6389648 102.500582,51.6014225 102.596695,51.5370825 L102.713833,51.0634448 C102.722421,50.9411184 102.69295,50.8192042 102.630163,50.7173249 L102.094676,50.6080239 C101.982657,50.6025403 101.871759,50.63431 101.77673,50.6991081 L101.676327,51.2820468 C101.685473,51.3705155 101.708095,51.4567073 101.743262,51.5370825 L101.743262,51.5370825 Z" transform="translate(102.195810, 51.126900) rotate(-66.000000) translate(-102.195810, -51.126900) "></path>
                            <path d="M117.775638,37.9890827 L117.386318,38.1276116 C117.345982,38.1899111 117.279657,38.2389268 117.198868,38.2661405 L117.198868,38.6817272 L117.198868,38.7394475 C117.278129,38.8412009 117.39364,38.9216166 117.530511,38.970329 L117.703542,39.0280494 L118.049604,38.9126087 C118.206529,38.7528772 118.26961,38.546658 118.222636,38.346949 C118.154357,38.1769697 117.987953,38.0437466 117.775638,37.9890827 L117.775638,37.9890827 Z" transform="translate(117.718351, 38.508566) rotate(-66.000000) translate(-117.718351, -38.508566) "></path>
                            <path d="M94.9139432,72.151701 L94.8323516,72.0833479 L94.3971964,72.1653716 C94.284154,72.3181109 94.2443095,72.5133816 94.2884077,72.6985256 C94.3568014,72.8879853 94.4992782,73.0410947 94.682767,73.1223146 L94.8459502,73.1223146 L95.1995138,72.9992791 C95.5122815,72.6165019 95.0771264,72.3157483 94.9139432,72.151701 Z" transform="translate(94.790316, 72.602831) rotate(-66.000000) translate(-94.790316, -72.602831) "></path>
                            <path d="M138.805148,34.2903384 L138.285665,34.3816588 C138.310807,34.3407889 138.348226,34.3088392 138.392617,34.2903384 C138.221678,34.2693599 138.051059,34.3316792 137.934249,34.4577591 L137.934249,34.9295811 L137.934249,35.0056814 C138.021103,35.1411775 138.142326,35.2514325 138.285665,35.3253027 L138.453733,35.3253027 L138.850985,35.1426619 L138.973216,34.8839209 L138.866264,34.4577591 C138.854243,34.3992689 138.833651,34.3428583 138.805148,34.2903384 L138.805148,34.2903384 Z" transform="translate(138.453733, 34.805819) rotate(-66.000000) translate(-138.453733, -34.805819) "></path>
                            <path d="M81.1932129,59.5108381 C81.066602,59.5661853 80.9728874,59.6812497 80.9409448,59.8205768 L81.0299806,60.0219069 C81.017202,59.9764031 81.017202,59.9280283 81.0299806,59.8825245 L81.1338557,60.4090803 L81.400963,60.5329757 L81.7125882,60.5329757 C81.8817924,60.4389045 81.9852907,60.252878 81.9796956,60.0528808 C81.9476985,59.870237 81.8456747,59.7091283 81.6972176,59.6068119 C81.5487605,59.5044955 81.3667269,59.4698322 81.1932129,59.5108381 L81.1932129,59.5108381 Z" transform="translate(81.460428, 60.013492) rotate(-66.000000) translate(-81.460428, -60.013492) "></path>
                            <path d="M113.734639,38.0593343 C113.532004,37.9656655 113.293359,37.9656655 113.090724,38.0593343 C112.855075,38.1930447 112.726174,38.4417309 112.76128,38.6949225 L112.940977,38.957448 C113.180573,39.0679851 113.524992,39.1094365 113.794538,38.6120197 L113.794538,38.6120197 L113.734639,38.0593343 Z" transform="translate(113.275055, 38.508566) rotate(-66.000000) translate(-113.275055, -38.508566) "></path>
                            <path d="M83.2694854,73.7217432 L83.3823629,73.7997437 C83.5389192,73.8792171 83.7298217,73.883921 83.8910951,73.812279 C84.0523686,73.740637 84.1626745,73.6021283 84.1850472,73.4431699 C84.2260895,73.2779739 84.1898788,73.1050522 84.0847117,72.9640237 L83.9718342,72.8748803 C83.8133601,72.8069029 83.6286306,72.8069029 83.4701565,72.8748803 C83.1580126,73.0634058 83.06939,73.437407 83.2694854,73.7217432 L83.2694854,73.7217432 Z" transform="translate(83.682076, 73.343381) rotate(-66.000000) translate(-83.682076, -73.343381) "></path>
                            <path d="M136.695132,31.5326856 L136.78437,31.6225559 L137.409041,31.5027288 L137.409041,31.2530888 C137.519809,31.0914786 137.519809,30.9054335 137.409041,30.7438233 C137.278028,30.6369015 137.079612,30.5776955 136.873609,30.5840537 L136.5464,30.7238521 C136.38148,30.9923371 136.437906,31.299191 136.695132,31.5326856 L136.695132,31.5326856 Z" transform="translate(136.972634, 31.103073) rotate(-66.000000) translate(-136.972634, -31.103073) "></path>
                            <path d="M105.444091,63.1967557 C105.357401,63.4008403 105.357401,63.6496648 105.444091,63.8537494 C105.610962,64.0940577 105.845945,64.2323678 106.093048,64.2357225 L106.347995,64.0523754 C106.376921,63.997346 106.396669,63.9348565 106.405937,63.8690283 C106.46388,63.532892 106.313229,63.3037082 105.965574,63.1967557 L105.849689,63.1967557 C105.860293,63.2363001 105.860293,63.2794427 105.849689,63.3189871 L105.444091,63.1967557 Z" transform="translate(105.898557, 63.716239) rotate(-66.000000) translate(-105.898557, -63.716239) "></path>
                            <path d="M131.100957,44.683022 L130.996433,44.683022 L130.617531,44.8744107 C130.537824,45.0471462 130.537824,45.2484997 130.617531,45.4212353 C130.725479,45.5878224 130.896965,45.6974723 131.087892,45.7219888 L131.257744,45.7219888 L131.545187,45.5032589 C131.754237,44.9427637 131.27081,44.7513751 131.100957,44.683022 Z" transform="translate(131.077234, 45.202505) rotate(-66.000000) translate(-131.077234, -45.202505) "></path>
                            <path d="M133.643614,20.345436 C133.542791,20.4322179 133.485642,20.5724022 133.491343,20.7189515 L133.615929,20.9138292 C133.608686,20.8654802 133.608686,20.8160199 133.615929,20.7676709 L133.851257,21.2548651 L134.100429,21.2548651 L134.377287,21.1574263 C134.505174,21.0095316 134.557698,20.7938658 134.515715,20.5890331 C134.435718,20.410681 134.293939,20.2815724 134.126819,20.2348923 C133.9597,20.1882122 133.783539,20.228513 133.643614,20.345436 Z" transform="translate(134.010437, 20.735382) rotate(-66.000000) translate(-134.010437, -20.735382) "></path>
                            <path d="M124.753453,38.8118863 C124.64763,38.9027608 124.591675,39.0526861 124.606802,39.2048218 L124.738788,39.4098316 C124.72312,39.3543471 124.72312,39.2944746 124.738788,39.2389901 L124.973431,39.7685988 L125.252069,39.7685988 L125.545373,39.6660939 C125.629488,39.5338093 125.661469,39.3661577 125.633364,39.2048218 C125.56978,39.0085906 125.437227,38.8533794 125.269108,38.7783039 C125.10099,38.7032284 124.913341,38.7154491 124.753453,38.8118863 L124.753453,38.8118863 Z" transform="translate(125.123844, 39.249115) rotate(-66.000000) translate(-125.123844, -39.249115) "></path>
                            <path d="M100.50743,52.8290649 L100.247097,53.0104665 C100.177938,53.2054564 100.177938,53.4294516 100.247097,53.6244414 C100.307108,53.7495809 100.40575,53.8358683 100.518277,53.861659 L100.518277,53.861659 C100.693465,53.8877134 100.870177,53.8333532 101.01725,53.7081653 C101.127613,53.6145595 101.205397,53.4694687 101.234195,53.3035 L101.038944,52.9546506 L100.50743,52.8290649 Z" transform="translate(100.714711, 53.348548) rotate(-66.000000) translate(-100.714711, -53.348548) "></path>
                            <path d="M62.7134825,76.6013579 L62.8244999,77.0074642 L63.0815796,77.1219235 L63.5357838,77.0485333 L63.7781373,76.6862693 L63.7122534,76.2516199 C63.5957809,76.128607 63.4350983,76.0570665 63.2657466,76.0528222 C62.9850477,76.1021589 62.7647195,76.3209996 62.7134825,76.6013579 L62.7134825,76.6013579 Z"></path>
                            <path d="M95.6259824,72.0833479 L95.2016157,72.2735812 C95.1213077,72.3362283 95.0562633,72.416283 95.0113824,72.5077146 L95.2162491,72.9320813 C95.2681592,73.016516 95.3447935,73.0829324 95.4357491,73.1223146 L95.8601158,72.9320813 C95.9407904,72.8698091 96.0059102,72.7896616 96.0503491,72.6979479 L95.8454825,72.2735812 C95.7935724,72.1891465 95.716938,72.1227301 95.6259824,72.0833479 L95.6259824,72.0833479 Z" transform="translate(95.530866, 72.602831) rotate(-66.000000) translate(-95.530866, -72.602831) "></path>
                            <path d="M125.643328,44.2412088 C125.524907,44.0552629 125.340317,43.9357442 125.137164,43.9134775 C124.990644,43.9134775 124.777522,44.0177556 124.604361,44.3752807 L124.604361,44.7179089 C124.750882,44.9264652 125.003964,45.1201246 125.430206,44.7179089 L125.430206,44.7179089 L125.643328,44.2412088 Z" transform="translate(125.123844, 44.432961) rotate(-66.000000) translate(-125.123844, -44.432961) "></path>
                            <path d="M81.6850425,68.3442404 L81.6850425,68.4712252 C81.7865612,68.6002214 81.947425,68.6772069 82.1192336,68.6790185 C82.2956929,68.6711736 82.4592991,68.5908215 82.5658302,68.4596811 C82.6852478,68.3241159 82.7391246,68.1486404 82.7146957,67.97483 L82.6526684,67.8478452 C82.5511497,67.718849 82.3902859,67.6418634 82.2184773,67.6400518 C81.8772906,67.718769 81.6500447,68.0187569 81.6850425,68.3442404 L81.6850425,68.3442404 Z" transform="translate(82.200978, 68.159535) rotate(-66.000000) translate(-82.200978, -68.159535) "></path>
                            <path d="M138.737169,47.0122569 L138.737169,47.1288756 L139.304205,47.2030875 L139.515196,47.0016552 C139.679227,46.8624013 139.760884,46.6731778 139.739373,46.4821718 C139.695407,46.3413468 139.574065,46.2242828 139.4097,46.1641207 L139.080028,46.1641207 C138.769669,46.3688201 138.635798,46.6999781 138.737169,47.0122569 L138.737169,47.0122569 Z" transform="translate(139.223277, 46.683604) rotate(-66.000000) translate(-139.223277, -46.683604) "></path>
                            <path d="M106.335744,69.1211505 C106.184781,69.2363538 106.104539,69.4156621 106.121977,69.5988364 C106.121977,69.8496214 106.386042,70.0048693 106.612383,70.1601172 L106.939321,70.1601172 C106.983139,70.1305882 107.021399,70.0942522 107.052492,70.0526379 C107.24111,69.8376793 107.178237,69.6107785 106.863874,69.3838777 C106.83786,69.3530232 106.808341,69.3249886 106.775852,69.3002827 C106.796068,69.3335369 106.796068,69.3745078 106.775852,69.407762 L106.335744,69.1211505 Z" transform="translate(106.639106, 69.640634) rotate(-66.000000) translate(-106.639106, -69.640634) "></path>
                            <path d="M112.015022,37.5527734 C112.015022,38.0453525 112.240202,38.2047164 112.37531,38.2626669 C112.59661,38.330988 112.838392,38.2551536 112.975789,38.0743278 C113.080055,37.9202817 113.080055,37.7213071 112.975789,37.567261 C112.975789,37.4223848 112.735597,37.2485333 112.285238,37.2485333 L112.015022,37.5527734 Z" transform="translate(112.534506, 37.768017) rotate(-66.000000) translate(-112.534506, -37.768017) "></path>
                            <path d="M145.339743,30.9832622 L145.428797,31.4307678 L145.651433,31.6225559 L146.111547,31.6225559 L146.378709,31.254962 L146.378709,30.7754917 C146.254528,30.6492369 146.089356,30.5803887 145.918596,30.5837036 C145.674778,30.6011819 145.456291,30.7519949 145.339743,30.9832622 Z" transform="translate(145.859226, 31.103073) rotate(-66.000000) translate(-145.859226, -31.103073) "></path>
                            <path d="M151.264138,7.02688694 L151.264138,7.59039433 C151.273475,7.71121408 151.316899,7.82708076 151.38953,7.92497684 L151.980666,7.92497684 C152.096294,7.89864119 152.205737,7.85082452 152.303104,7.7841 L152.303104,7.22059261 C152.285103,7.09888683 152.235775,6.9837187 152.159799,6.8860101 L151.586575,6.8860101 C151.471348,6.91351216 151.362118,6.96123632 151.264138,7.02688694 L151.264138,7.02688694 Z" transform="translate(151.783621, 7.405493) rotate(-66.000000) translate(-151.783621, -7.405493) "></path>
                            <path d="M121.406991,33.5801917 C121.015398,33.7256405 120.81411,34.094814 120.938015,34.4403207 L121.141918,34.5779413 C121.212878,34.587024 121.285056,34.587024 121.356016,34.5779413 C121.474581,34.5609368 121.570329,34.4868889 121.600699,34.3887129 C121.758024,34.3845776 121.885941,34.28038 121.896358,34.1478768 L121.896358,33.9586485 C121.955322,33.8523646 121.955322,33.7294821 121.896358,33.6231982 L121.549723,33.5457866 L121.406991,33.5801917 Z" transform="translate(121.421098, 34.065270) rotate(-66.000000) translate(-121.421098, -34.065270) "></path>
                            <path d="M98.2643369,50.604432 C98.3015581,50.3512966 98.2009727,50.0976018 98.0096889,49.9621636 C97.8184051,49.8267253 97.574298,49.8363608 97.391693,49.9865575 L97.2330304,50.2879597 C97.2330304,50.5441516 97.3255836,50.875694 97.8412368,50.9058342 L97.8412368,50.9058342 L98.2643369,50.604432 Z" transform="translate(97.752514, 50.386351) rotate(-66.000000) translate(-97.752514, -50.386351) "></path>
                            <path d="M146.273107,19.6412665 L146.08042,19.9220498 C146.07688,20.1154142 146.147016,20.3012364 146.273107,20.4325651 C146.371893,20.5110752 146.497085,20.5345698 146.613144,20.4963795 L146.613144,20.4963795 C146.787714,20.4405232 146.93735,20.3130154 147.032523,20.1390188 C147.105891,20.0057405 147.134065,19.8471187 147.111864,19.692318 L146.771828,19.475349 L146.273107,19.6412665 Z" transform="translate(146.599775, 19.994832) rotate(-66.000000) translate(-146.599775, -19.994832) "></path>
                            <path d="M128.59772,26.9230449 L128.382843,27.3654825 C128.368903,27.3377425 128.368903,27.3071929 128.382843,27.2794529 L128.382843,27.3531926 C128.281863,27.4779569 128.281863,27.633996 128.382843,27.7587604 C128.502465,27.8696754 128.688069,27.9294769 128.878713,27.9185295 L129.242351,27.6727308 C129.380649,27.4721146 129.380649,27.2342705 129.242351,27.0336543 C129.092563,26.8847644 128.820109,26.8380153 128.59772,26.9230449 L128.59772,26.9230449 Z" transform="translate(128.826591, 27.400326) rotate(-66.000000) translate(-128.826591, -27.400326) "></path>
                            <path d="M112.1054,69.6647959 L112.044017,69.761444 L112.340698,70.1601172 L112.596458,70.0876312 C112.778269,70.0662885 112.941099,69.9455513 113.036364,69.761444 C113.098524,69.6129679 113.098524,69.4387607 113.036364,69.2902846 L112.811296,69.1211505 C112.509706,69.1369948 112.239274,69.3452674 112.1054,69.6647959 L112.1054,69.6647959 Z" transform="translate(112.563501, 69.640634) rotate(-66.000000) translate(-112.563501, -69.640634) "></path>
                            <path d="M120.380294,53.6461214 L120.19006,54.040572 L120.19006,54.3403545 L120.58516,54.608581 L120.994894,54.4981348 L121.229027,54.1036841 C121.21774,53.9255682 121.131484,53.7628127 120.994894,53.6618994 C120.805736,53.544714 120.57441,53.5387754 120.380294,53.6461214 L120.380294,53.6461214 Z" transform="translate(120.709544, 54.089098) rotate(-66.000000) translate(-120.709544, -54.089098) "></path>
                            <path d="M149.428391,38.7492968 L149.116701,39.1191424 C149.068904,39.2088171 149.043398,39.3094507 149.042489,39.4119367 L149.398707,39.7509618 C149.491344,39.7744778 149.588074,39.7744778 149.680712,39.7509618 L150.007244,39.3811163 C150.04786,39.2832202 150.072923,39.1791353 150.081456,39.0729117 L149.710397,38.7492968 C149.618091,38.7230771 149.520697,38.7230771 149.428391,38.7492968 L149.428391,38.7492968 Z" transform="translate(149.561973, 39.249115) rotate(-66.000000) translate(-149.561973, -39.249115) "></path>
                            <path d="M166.371918,44.4076202 C166.371918,44.1347127 166.079774,43.9134775 165.719396,43.9134775 L165.334575,44.2302356 L165.334575,44.3062576 L165.669202,44.3062576 L165.334575,44.4202905 C165.334575,44.5343234 165.334575,44.8890926 165.819784,44.9524442 L166.154411,44.8637519 C166.30729,44.7411217 166.386064,44.5759252 166.371918,44.4076202 L166.371918,44.4076202 Z" transform="translate(165.854058, 44.432961) rotate(-66.000000) translate(-165.854058, -44.432961) "></path>
                            <path d="M125.657403,58.3249016 L125.364114,58.0779085 C125.286858,58.0807381 125.210788,58.0579293 125.147336,58.0129103 L124.726531,58.1949052 C124.73206,58.220599 124.73206,58.2472093 124.726531,58.2729031 C124.662837,58.3923203 124.631996,58.5270699 124.637269,58.6628923 C124.632052,58.7190985 124.632052,58.7756813 124.637269,58.8318876 L124.892302,59.0398818 C125.11087,59.0800978 125.335596,59.0180511 125.504383,58.8708865 C125.644423,58.7280236 125.70227,58.5216229 125.657403,58.3249016 Z" transform="translate(125.152840, 58.532394) rotate(-66.000000) translate(-125.152840, -58.532394) "></path>
                            <path d="M175.260134,13.4044113 L175.144693,13.06384 C174.965119,12.9219354 174.708584,12.7090783 174.464876,12.8651735 C174.221167,13.0212686 174.221167,13.3760304 174.221167,13.4895541 L174.503356,13.8017444 L174.657277,13.8017444 C174.774626,13.8652474 174.911904,13.8652474 175.029253,13.8017444 C175.157342,13.7156201 175.24249,13.569085 175.260134,13.4044113 L175.260134,13.4044113 Z" transform="translate(174.740651, 13.329888) rotate(-66.000000) translate(-174.740651, -13.329888) "></path>
                            <path d="M149.704725,24.6807219 L149.152661,24.8273801 L148.821423,25.0107028 L149.925551,25.5148402 L149.925551,25.5148402 C149.946646,25.5538651 149.946646,25.594975 149.925551,25.6339999 L151.765764,25.6981629 C151.852653,25.3772732 151.618994,25.0555003 151.140091,24.8365462 C150.731879,24.6809599 150.205896,24.6238589 149.704725,24.6807219 Z" transform="translate(150.302521, 25.178679) rotate(-66.000000) translate(-150.302521, -25.178679) "></path>
                            <path d="M90.1259544,65.836793 L90.1259544,65.750203 L89.8392052,65.4285827 C89.6357432,65.3937541 89.4256195,65.4495355 89.2800444,65.5770228 C89.1330106,65.7084417 89.0642672,65.8909347 89.0936574,66.0718232 C89.0871259,66.1252784 89.0871259,66.179178 89.0936574,66.2326333 L89.3804066,66.4552934 C90.0399296,66.4924035 90.1259544,66.0223431 90.1259544,65.836793 Z" transform="translate(89.606471, 65.937887) rotate(-66.000000) translate(-89.606471, -65.937887) "></path>
                            <path d="M140.667594,33.7059437 L140.667594,33.7059437 L140.487314,33.4207232 L140.339812,32.7328386 L139.864528,32.14562 C139.67685,31.9858802 139.45022,31.8814788 139.208965,31.8436219 L138.586179,31.994621 L138.012561,32.4811735 C137.86235,32.6706142 137.760925,32.8955803 137.717558,33.1355028 L137.815892,33.5381669 C137.734252,33.7160136 137.700313,33.9128971 137.717558,34.1086078 L137.717558,34.3434953 L137.717558,34.3434953 C137.762476,34.7064814 137.946788,35.0361985 138.229739,35.25974 C138.512689,35.4832816 138.870968,35.5822315 139.225354,35.5347101 C140.112562,35.4292713 140.753937,34.6160044 140.667594,33.7059437 Z" transform="translate(139.194282, 33.694995) rotate(-66.000000) translate(-139.194282, -33.694995) "></path>
                            <path d="M142.485695,15.5661381 L142.768911,16.3065055 L143.126657,16.6339756 L144.319144,17.032635 C145.555567,16.9101517 146.519175,15.953648 146.599775,14.7688194 L146.107875,13.430463 L145.481819,12.9463767 C144.903203,12.5707522 144.170029,12.4858668 143.514215,12.7185713 L143.067033,12.9321389 L142.798723,13.1457064 C142.369122,13.5558068 142.137001,14.1178289 142.157762,14.6976302 C142.182369,15.0014096 142.257859,15.2994481 142.381353,15.5803759 L142.485695,15.5661381 Z" transform="translate(144.378127, 14.810987) rotate(-66.000000) translate(-144.378127, -14.810987) "></path>
                            <path d="M113.6195,49.9467524 C113.495261,49.8750139 113.340938,49.8501136 113.193848,49.878073 L113.046507,50.0429036 C113.094983,50.0335115 113.145372,50.0335115 113.193848,50.0429036 L112.784567,50.3588289 L112.784567,50.592339 L112.96465,50.8395849 C113.147001,50.9279173 113.371665,50.9279173 113.554015,50.8395849 C113.712333,50.7329971 113.809704,50.575312 113.822172,50.4053236 C113.83464,50.2353352 113.761047,50.0688229 113.6195,49.9467524 L113.6195,49.9467524 Z" transform="translate(113.304050, 50.386351) rotate(-66.000000) translate(-113.304050, -50.386351) "></path>
                            <path d="M147.596684,43.9048999 C147.763215,43.8542864 147.869896,43.7190581 147.859052,43.572322 L147.859052,43.4060331 C147.724454,43.2230344 147.46113,43.1346961 147.210849,43.1885783 C146.945165,43.3104717 146.793222,43.552262 146.825014,43.8025682 C146.814344,43.979118 146.937533,44.1424791 147.133682,44.2118948 C147.288016,44.2118948 147.48865,44.2118948 147.720151,43.9944401 L147.596684,43.9048999 Z" transform="translate(147.340325, 43.692411) rotate(-66.000000) translate(-147.340325, -43.692411) "></path>
                            <path d="M131.048088,38.4521691 L131.048088,38.1991577 C131.059548,37.6294304 130.417313,37.1402227 129.538292,37.049106 C128.634568,36.9420037 127.732225,37.2401509 127.345492,37.7736386 L127.345492,38.0036489 L127.345492,38.2106582 L127.435361,38.4406686 C127.741396,38.8505772 128.336485,39.1415008 129.035026,39.2227038 C129.693692,39.3118413 130.376979,39.1719368 130.832403,38.8546872 L131.048088,38.4521691 Z" transform="translate(129.196866, 38.138291) rotate(-66.000000) translate(-129.196866, -38.138291) "></path>
                            <path d="M137.77981,24.1331578 L138.487041,23.7825375 L138.809907,23.4319173 L139.194272,22.3648122 L139.194272,21.7855266 L138.748409,20.7641546 L138.425543,20.4440231 L137.410819,20.0019367 C136.711261,19.9496626 136.021102,20.1869643 135.50437,20.6574441 C135.021539,21.1210365 134.749593,21.7593749 134.751009,22.4257896 L134.874011,23.0508083 L134.981634,23.3099624 L135.365998,23.843515 C136.024712,24.4704659 137.010691,24.6171099 137.825933,24.2093796 L137.77981,24.1331578 Z" transform="translate(136.972641, 22.216465) rotate(-66.000000) translate(-136.972641, -22.216465) "></path>
                            <path d="M137.521113,76.3869429 L137.196166,76.0489657 C137.239672,76.0388447 137.285593,76.0388447 137.329099,76.0489657 C137.274542,75.9141299 137.139546,75.8140232 136.974612,75.7860946 L136.590584,76.0114127 L136.590584,76.0865187 C136.514197,76.1960845 136.478193,76.3224982 136.487192,76.4495312 C136.480464,76.5036246 136.480464,76.5581676 136.487192,76.6122609 L136.826909,76.8250614 L137.107544,76.8250614 L137.417721,76.5747079 C137.468046,76.5193188 137.503348,76.4552096 137.521113,76.3869429 L137.521113,76.3869429 Z" transform="translate(137.001629, 76.305578) rotate(-66.000000) translate(-137.001629, -76.305578) "></path>
                            <path d="M127.166459,29.8446009 L127.345492,29.4057624 L127.345492,29.0314591 L127.085079,28.5926206 L126.727012,28.3086664 L126.141083,28.1408752 L125.506326,28.1408752 L124.969224,28.3215734 L124.627432,28.5797136 L124.383295,29.0185521 L124.383295,29.1605292 C124.386128,29.5096654 124.582575,29.8401201 124.920397,30.0640201 C125.330768,30.3167869 125.859374,30.4156978 126.368944,30.3350673 L126.873494,30.1027411 L127.166459,29.8446009 Z" transform="translate(125.864394, 29.251699) rotate(-66.000000) translate(-125.864394, -29.251699) "></path>
                            <path d="M156.226917,7.54239717 L156.226917,7.00030686 L156.009454,6.72349478 L156.009454,6.72349478 C155.852745,6.22719191 155.188081,5.8871748 154.45376,5.92766006 L153.968651,6.04299843 C153.511287,6.24135537 153.243161,6.59349271 153.266079,6.96570535 C153.282683,7.50694395 153.813543,7.97620939 154.570855,8.119089 C155.25293,8.23074989 155.952422,7.98716505 156.226917,7.54239717 L156.226917,7.54239717 Z" transform="translate(154.745818, 7.035219) rotate(-66.000000) translate(-154.745818, -7.035219) "></path>
                            <path d="M164.765015,14.3377365 C164.941274,14.1839692 165.061384,13.9982072 165.113509,13.7987568 L164.939262,13.2860688 L164.468796,12.83911 C164.274344,12.7210337 164.048536,12.6358546 163.806657,12.5893389 L163.092245,12.7076515 L162.464956,13.0888811 C162.306331,13.2427851 162.198792,13.4230774 162.151312,13.6147149 L162.308134,14.1274029 L162.81345,14.5743617 C163.004004,14.6943109 163.231855,14.775737 163.475588,14.8109869 L164.172576,14.6926743 L164.765015,14.3377365 Z" transform="translate(163.632410, 13.700163) rotate(-66.000000) translate(-163.632410, -13.700163) "></path>
                            <path d="M150.514839,19.6716552 L150.877055,19.211011 L151.043072,18.3691439 C151.036134,17.9178071 150.822536,17.4977756 150.469561,17.2413597 C150.112218,17.0019372 149.664866,16.9661784 149.277264,17.146054 L148.945232,17.4002026 L148.733939,17.702004 L148.733939,17.7973097 C148.574405,17.7651289 148.410516,17.7651289 148.250983,17.7973097 C147.656673,18.0675667 147.292339,18.7066517 147.34544,19.3857381 L147.34544,19.6716552 L147.556734,20.164068 L147.813304,20.4499852 L148.220798,20.6723651 C148.86244,20.8682601 149.550101,20.5968564 149.911144,20.0052252 L150.514839,19.6716552 Z" transform="translate(149.191698, 18.884008) rotate(-66.000000) translate(-149.191698, -18.884008) "></path>
                            <path d="M145.859226,28.7920079 L145.019937,28.4360939 L144.85537,28.4360939 C144.54267,28.360411 144.177338,28.3418263 143.835058,28.3841898 L143.670491,28.4435088 L143.670491,28.4435088 L143.522382,28.5176576 L143.390728,28.5621468 L143.390728,28.5621468 L142.897029,28.8068377 C142.910592,28.9654693 143.064708,29.1150325 143.324902,29.2220706 C143.64426,29.3455775 144.056502,29.4092611 144.476867,29.4000276 C145.224147,29.3962752 145.832896,29.1285218 145.859226,28.7920079 Z" transform="translate(144.378127, 28.881425) rotate(-66.000000) translate(-144.378127, -28.881425) "></path>
                            <path d="M138.236197,40.7554538 L138.448597,40.151059 C138.512283,39.1647637 137.979456,38.2331114 137.085698,37.7680167 L136.0237,38.0961167 L135.6166,38.7177799 L135.492701,39.37398 L135.492701,39.6848116 C135.474081,40.2075879 135.679285,40.7143457 136.0591,41.0835538 C136.39584,41.3677652 136.837182,41.5050519 137.280398,41.4634591 L137.864497,41.1698959 L138.236197,40.7554538 Z" transform="translate(136.972634, 39.619390) rotate(-66.000000) translate(-136.972634, -39.619390) "></path>
                            <path d="M120.676925,37.3092359 C120.66455,37.165397 120.622018,37.0241247 120.551028,36.8910644 L120.330709,36.6327821 C119.955629,36.3492647 119.425121,36.2294877 118.91437,36.3130039 C118.334108,36.4472812 117.882563,36.8048253 117.718351,37.2600393 L117.718351,37.5921166 L117.812774,37.8626981 L118.017356,38.1455788 C118.499855,38.5073665 119.212153,38.6090227 119.827122,38.4038612 C120.379052,38.2170247 120.719791,37.7781203 120.676925,37.3092359 Z" transform="translate(119.199450, 37.397742) rotate(-66.000000) translate(-119.199450, -37.397742) "></path>
                            <path d="M115.58405,38.3622299 L115.841493,38.0695578 L116.016186,37.5108199 C115.992682,36.9839303 115.774836,36.5162155 115.446134,36.286918 L115.27144,36.9254755 C115.27144,36.9254755 115.27144,36.9254755 115.27144,36.9254755 L115.197885,37.1915412 L114.97722,37.1915412 L115.032386,37.8567052 L115.032386,37.8567052 L115.087552,38.508566 L115.197885,38.508566 L115.58405,38.3622299 Z" transform="translate(115.496703, 37.397742) rotate(-66.000000) translate(-115.496703, -37.397742) "></path>
                            <path d="M119.430113,32.4206693 L119.430113,32.4206693 C119.720941,32.5504848 120.054401,32.6050622 120.385138,32.5769785 L120.854557,32.4076436 L121.162108,32.1731798 L121.421098,31.7954327 L121.421098,31.5349174 C121.403402,30.8781735 120.731983,30.3553041 119.915719,30.3625986 C119.117419,30.362559 118.46777,30.8795305 118.4589,31.5218916 L118.734077,32.0298964 L119.154936,32.3164632 L119.430113,32.4206693 Z" transform="translate(119.939999, 31.473347) rotate(-66.000000) translate(-119.939999, -31.473347) "></path>
                            <path d="M145.368738,54.1110476 L145.65734,54.4915143 C145.732269,54.5530098 145.821859,54.5933886 145.917082,54.608581 L146.277834,54.3305476 C146.34106,54.2544012 146.38557,54.1641291 146.407705,54.0671476 L146.119103,53.6866809 C146.048284,53.6274511 145.963936,53.5871985 145.873791,53.5696142 L145.498609,53.8476476 C145.435382,53.923794 145.390873,54.0140661 145.368738,54.1110476 L145.368738,54.1110476 Z" transform="translate(145.888221, 54.089098) rotate(-66.000000) translate(-145.888221, -54.089098) "></path>
                            <path d="M164.717204,33.6609567 C164.834941,33.5233945 164.897053,33.3498147 164.892176,33.1719724 L164.892176,33.0741755 L164.585975,32.8087268 C164.382454,32.788765 164.180008,32.8551254 164.031895,32.9903496 C163.901405,33.1207851 163.837413,33.2996215 163.856923,33.479334 L163.856923,33.5771309 L164.163125,33.8425795 C164.36575,33.8555789 164.565349,33.7901521 164.717204,33.6609567 L164.717204,33.6609567 Z" transform="translate(164.372960, 33.324721) rotate(-66.000000) translate(-164.372960, -33.324721) "></path>
                            <path d="M187.832011,30.9816835 C187.760312,30.7267807 187.449123,30.5559091 187.113765,30.5873004 L186.810506,30.94471 C186.810506,30.94471 186.810506,30.94471 186.810506,31.0309813 L187.113765,31.0309813 L186.842428,31.1665505 C186.842428,31.2774708 186.970116,31.6102315 187.401064,31.6225559 L187.704323,31.4993112 C187.832253,31.3460973 187.87804,31.1604831 187.832011,30.9816835 Z" transform="translate(187.329990, 31.103073) rotate(-66.000000) translate(-187.329990, -31.103073) "></path>
                            <path d="M149.289273,50.044252 L148.956347,49.8668675 C148.88554,49.8891902 148.809472,49.8891902 148.738665,49.8668675 L148.35452,50.120274 C148.35452,50.120274 148.35452,50.120274 148.35452,50.2089663 C148.323074,50.3337591 148.323074,50.4642832 148.35452,50.5890761 C148.370327,50.6418693 148.391791,50.69284 148.418544,50.74112 L148.700251,50.9058342 C148.926247,50.905635 149.141078,50.8085899 149.289273,50.6397574 C149.396779,50.4555074 149.396779,50.228502 149.289273,50.044252 Z" transform="translate(148.850419, 50.386351) rotate(-66.000000) translate(-148.850419, -50.386351) "></path>
                            <path d="M167.313247,14.3528145 L166.857525,14.5581222 L166.594608,14.7829831 L167.804026,15.2131516 L167.804026,15.2131516 C167.818191,15.2518588 167.818191,15.2917632 167.804026,15.3304703 L169.556805,15.2327047 C169.534094,14.8909918 169.213392,14.5770409 168.697943,14.3919208 C168.265631,14.273289 167.764832,14.2591456 167.313247,14.3528145 L167.313247,14.3528145 Z" transform="translate(168.075707, 14.810987) rotate(-66.000000) translate(-168.075707, -14.810987) "></path>
                            <path d="M141.916886,15.8730376 L141.673565,16.2371693 L141.41593,17.405425 L141.41593,17.5268022 C141.516168,18.0669784 141.795396,18.5513238 142.203147,18.892296 L142.374903,19.3322884 L142.64685,19.590215 L143.44838,19.984691 C144.204738,20.0683888 144.926302,19.6278207 145.237508,18.892296 C145.415708,18.5592017 145.509404,18.1828283 145.509456,17.799901 C145.82328,17.3346339 145.932805,16.7486079 145.81003,16.1916528 L145.380639,15.9033819 C145.274959,15.6397764 145.119026,15.4021672 144.922622,15.2054629 L143.634449,14.8109869 L143.362502,14.8109869 L142.847233,15.2054629 L142.847233,15.2054629 L141.916886,15.8730376 Z" transform="translate(143.637578, 17.402910) rotate(-66.000000) translate(-143.637578, -17.402910) "></path>
                            <path d="M115.304438,64.2914983 L115.304438,64.1970468 L114.941305,63.9373051 C114.728606,63.9424542 114.529502,64.0201347 114.396604,64.149821 C114.27325,64.3004568 114.234935,64.4841105 114.29069,64.6574979 L114.29069,64.7991752 L114.638693,64.9762718 C115.3347,64.9172396 115.304438,64.4567884 115.304438,64.2914983 Z" transform="translate(114.785149, 64.456788) rotate(-66.000000) translate(-114.785149, -64.456788) "></path>
                            <path d="M159.882689,26.0543111 L159.882689,26.0543111 L159.659668,25.7824124 L159.404788,25.1366529 L158.847236,24.6268427 C158.647984,24.4915351 158.414021,24.4261679 158.178175,24.4399123 L157.604694,24.7118111 L157.142723,25.2895959 C157.027289,25.5010951 156.966801,25.7416015 156.967487,25.9863364 L157.110863,26.3771909 C157.071232,26.5731966 157.071232,26.7759637 157.110863,26.9719694 L157.190513,27.1758935 L157.190513,27.1758935 C157.411152,27.8824391 158.108687,28.2842579 158.783516,28.0935517 C159.602983,27.8378695 160.08778,26.9384495 159.882689,26.0543111 Z" transform="translate(158.448571, 26.289489) rotate(-66.000000) translate(-158.448571, -26.289489) "></path>
                            <path d="M158.983686,7.72136979 L159.385074,8.41187194 L159.80133,8.68519571 L161.035229,8.88659216 C162.225973,8.56387451 163.004012,7.45884741 162.878644,6.2684382 L162.150198,5.01690306 L161.451484,4.6284956 C160.814525,4.34985853 160.077485,4.38739556 159.474272,4.72919383 L159.072883,5.01690306 L158.849889,5.27584136 C158.500963,5.75090655 158.37173,6.34491143 158.493099,6.91578396 C158.564103,7.2201926 158.69536,7.5084135 158.879622,7.76452618 L158.983686,7.72136979 Z" transform="translate(160.670213, 6.664944) rotate(-66.000000) translate(-160.670213, -6.664944) "></path>
                            <path d="M135.707091,44.7203353 C135.580978,44.6705843 135.434135,44.6705843 135.308023,44.7203353 L135.200581,44.8840459 C135.24064,44.8742469 135.283313,44.8742469 135.323371,44.8840459 L135.001047,45.2240603 L135.001047,45.4633297 L135.21593,45.6648197 C135.382949,45.7410452 135.586119,45.7410452 135.753137,45.6648197 C135.941191,45.5536281 136.048725,45.3724557 136.03946,45.1824252 C136.030196,44.9923947 135.905368,44.818848 135.707091,44.7203353 L135.707091,44.7203353 Z" transform="translate(135.520531, 45.202505) rotate(-66.000000) translate(-135.520531, -45.202505) "></path>
                            <path d="M169.149834,34.222181 C169.287271,34.1452861 169.357701,34.0081793 169.329658,33.8721157 L169.22476,33.7095853 C169.071747,33.5457933 168.799289,33.4982213 168.580389,33.5970643 C168.343781,33.7441084 168.2421,33.9986062 168.325638,34.2346833 C168.348592,34.4103557 168.506971,34.5526557 168.715258,34.5847487 C168.850126,34.5847487 169.059921,34.5847487 169.22476,34.297195 L169.149834,34.222181 Z" transform="translate(168.816258, 34.065271) rotate(-66.000000) translate(-168.816258, -34.065271) "></path>
                            <path d="M152.192377,8.65517049 L153.141498,8.88659216 C153.877231,8.87404007 154.568285,8.53987623 155.023921,7.97633359 C155.439921,7.43322073 155.584995,6.73708279 155.419388,6.07867589 L155.308657,5.67754499 L154.67591,4.90613942 L154.327899,4.69014586 L153.378778,4.44329608 C152.648194,4.4725625 151.966834,4.81046291 151.512174,5.36898277 C151.099442,5.90753753 150.949153,6.59533138 151.100888,7.25121236 L151.227438,7.66777136 L151.844366,8.42374882 L152.192377,8.65517049 Z" transform="translate(153.264720, 6.664944) rotate(-66.000000) translate(-153.264720, -6.664944) "></path>
                            <path d="M151.783621,32.2825802 L151.783621,32.0282279 C151.612703,31.4812281 150.867254,31.0920546 150.011972,31.1033106 C149.106481,31.0948634 148.309217,31.49104 148.080874,32.0629123 L148.080874,32.2941416 L148.080874,32.4906865 L148.20489,32.7103544 C148.615627,33.0845266 149.27146,33.3113587 149.976539,33.3231121 C150.634987,33.3449118 151.264251,33.1439572 151.641889,32.7912847 L151.783621,32.2825802 Z" transform="translate(149.932248, 32.213897) rotate(-66.000000) translate(-149.932248, -32.213897) "></path>
                            <path d="M155.873699,16.5294446 L156.520716,16.0650215 L156.767199,15.6755053 L156.967466,14.5818638 L156.844225,14.012571 L156.228018,13.0987062 L155.842888,12.8440225 L154.779931,12.5893389 C154.076698,12.6395433 153.430411,12.9838562 153.008336,13.5331665 C152.605728,14.0617686 152.444195,14.7280469 152.561585,15.3758775 L152.792663,15.9601518 L152.93131,16.199854 L153.40887,16.6492957 C154.157736,17.1604147 155.155644,17.1604147 155.904509,16.6492957 L155.873699,16.5294446 Z" transform="translate(154.745818, 14.810987) rotate(-66.000000) translate(-154.745818, -14.810987) "></path>
                            <path d="M164.179335,65.906593 L163.788688,65.6312042 C163.832944,65.6210832 163.879656,65.6210832 163.923912,65.6312042 C163.838817,65.5031995 163.678789,65.4222529 163.503215,65.4184038 L163.172668,65.6937925 C163.177712,65.7186516 163.177712,65.7440395 163.172668,65.7688986 C163.131674,65.8917457 163.131674,66.0215816 163.172668,66.1444287 C163.159143,66.1938655 163.159143,66.245204 163.172668,66.2946408 L163.54829,66.4573705 L163.833763,66.4573705 L164.089186,66.1694641 C164.156516,66.0938527 164.188556,66.0004264 164.179335,65.906593 L164.179335,65.906593 Z" transform="translate(163.661406, 65.937887) rotate(-66.000000) translate(-163.661406, -65.937887) "></path>
                            <path d="M145.763671,25.2038153 L145.859226,24.7570503 L145.763671,24.3996383 L145.413304,23.9911675 L144.999233,23.7869321 L144.409979,23.6975791 L143.804799,23.7996968 L143.327025,24.0422264 L143.040361,24.3485795 L142.897029,24.8081092 L142.897029,24.948521 C142.978736,25.2873254 143.240332,25.5808658 143.613689,25.752698 C144.059473,25.9496603 144.592914,25.9731526 145.062937,25.8165215 L145.508859,25.5356978 L145.763671,25.2038153 Z" transform="translate(144.378127, 24.808403) rotate(-66.000000) translate(-144.378127, -24.808403) "></path>
                            <path d="M167.033908,10.5390831 L167.335157,10.0477847 L167.335157,9.21871855 C167.261008,8.79015296 166.968963,8.42655948 166.55825,8.25147476 C166.143521,8.07944534 165.667404,8.11978606 165.289831,8.3589463 L164.988581,8.66600781 L164.830029,8.97306933 L164.830029,9.08054087 C164.65858,9.09577615 164.491735,9.14268104 164.338516,9.21871855 C163.78787,9.602157 163.525984,10.2663249 163.672596,10.9075569 L163.672596,11.0457346 L163.973845,11.4602676 L164.29095,11.6905638 L164.750752,11.8440945 C165.432533,11.8956824 166.07165,11.5181686 166.336277,10.9075569 L167.033908,10.5390831 Z" transform="translate(165.483784, 9.997416) rotate(-66.000000) translate(-165.483784, -9.997416) "></path>
                            <path d="M165.107684,19.8080487 L164.122227,19.5204667 L163.9552,19.5204667 C163.628555,19.4603098 163.262983,19.4603098 162.936337,19.5204667 L162.786013,19.5961461 L162.786013,19.5961461 L162.669095,19.6793936 L162.552176,19.7399371 L162.552176,19.7399371 L162.151312,20.0199512 C162.228118,20.1801925 162.44509,20.3194648 162.752608,20.4059165 C163.118474,20.5056979 163.554793,20.5381958 163.971903,20.4967319 C164.683179,20.4323351 165.172945,20.1353645 165.107684,19.8080487 L165.107684,19.8080487 Z" transform="translate(163.632410, 19.994832) rotate(-66.000000) translate(-163.632410, -19.994832) "></path>
                            <path d="M158.34583,33.1380931 L158.448565,32.4922058 C158.339641,31.500208 157.669032,30.6661114 156.736312,30.3625232 L155.777451,30.8513028 L155.486368,31.5495594 L155.486368,32.2303596 L155.486368,32.5271186 C155.537498,33.0546469 155.820981,33.5299089 156.256881,33.8188933 C156.616863,34.0563167 157.059007,34.1261536 157.472581,34.0109138 L158.003379,33.6094163 L158.34583,33.1380931 Z" transform="translate(156.967466, 32.213897) rotate(-66.000000) translate(-156.967466, -32.213897) "></path>
                            <path d="M141.390333,31.9373205 C141.338953,31.800246 141.26506,31.6688959 141.170481,31.5465193 L140.887813,31.3144811 C140.460538,31.07896 139.904784,31.0371342 139.427365,31.2045683 C138.888213,31.4100754 138.521118,31.8152777 138.453733,32.2792715 L138.453733,32.5967975 L138.595066,32.8532607 L138.86203,33.109724 C139.419013,33.3963861 140.142386,33.3963861 140.699368,33.109724 C141.227535,32.8734462 141.504964,32.4027156 141.390333,31.9373205 L141.390333,31.9373205 Z" transform="translate(139.934831, 32.213897) rotate(-66.000000) translate(-139.934831, -32.213897) "></path>
                            <path d="M131.500253,28.8814245 C132.277011,28.4839343 132.683452,27.5697011 132.475147,26.6885357 C132.341976,26.0548265 131.964028,25.5078659 131.431839,25.1786778 L130.78191,25.1786778 L130.268808,25.3584228 L129.77281,25.8077853 C129.58177,26.1947021 129.521464,26.6383446 129.601776,27.0660002 C129.651876,27.2613396 129.726656,27.4487435 129.82412,27.6232096 L129.909637,27.6232096 L130.046464,28.2882661 L130.559566,28.791552 L131.500253,28.8814245 Z" transform="translate(131.048239, 27.030051) rotate(-66.000000) translate(-131.048239, -27.030051) "></path>
                            <path d="M126.829212,46.1698674 C126.694989,46.1235449 126.543053,46.1235449 126.40883,46.1698674 L126.29565,46.3391177 L126.441167,46.3391177 L126.08546,46.6776184 L126.08546,46.9380036 L126.311819,47.1463117 C126.504387,47.2022093 126.719265,47.1725479 126.877717,47.0681962 C127.042558,46.9536866 127.13321,46.784705 127.123754,46.609569 C127.114297,46.434433 127.005773,46.2724245 126.829212,46.1698674 L126.829212,46.1698674 Z" transform="translate(126.604943, 46.654609) rotate(-66.000000) translate(-126.604943, -46.654609) "></path>
                            <path d="M136.414606,35.2751209 L136.648607,34.9263739 L136.751568,34.3580453 C136.667854,33.8565056 136.390824,33.4593182 136.030843,33.3247206 L135.937243,33.9705485 C135.937243,33.9705485 135.937243,33.9705485 135.937243,33.9705485 L135.937243,34.2417963 L135.712601,34.3192956 L135.843642,34.9263739 L135.843642,34.9263739 L135.984043,35.5463687 L136.096364,35.5463687 L136.414606,35.2751209 Z" transform="translate(136.232085, 34.435545) rotate(-66.000000) translate(-136.232085, -34.435545) "></path>
                            <path d="M138.828662,27.3404348 L138.828662,27.3404348 C139.14781,27.4202895 139.490073,27.4202895 139.80922,27.3404348 L140.234129,27.1063879 L140.495612,26.8333332 L140.675381,26.4302524 L140.675381,26.1702003 C140.539994,25.5238976 139.771724,25.0872877 138.959403,25.1950049 C138.147081,25.302722 137.598317,25.9139758 137.733704,26.5602785 L138.125928,27.0153697 L138.583522,27.236414 L138.828662,27.3404348 Z" transform="translate(139.194282, 26.289502) rotate(-66.000000) translate(-139.194282, -26.289502) "></path>
                            <path d="M138.020821,20.5825003 L138.290751,20.0464824 C138.473544,19.53022 138.503482,18.9597333 138.375993,18.4221858 L138.375993,18.4221858 L138.006614,17.7237382 L137.821925,17.5288227 L137.324684,17.1714774 C136.677573,16.8949172 135.950374,17.0376235 135.420963,17.5450656 C134.882564,18.1009909 134.644305,18.942972 134.79586,19.754109 C134.920698,20.4119469 135.29576,20.9717887 135.818755,21.2809478 C136.314859,21.5409255 136.885407,21.5409255 137.381511,21.2809478 L138.020821,20.5825003 Z" transform="translate(136.602359, 19.254283) rotate(-66.000000) translate(-136.602359, -19.254283) "></path>
                            <path d="M108.479378,40.407042 L108.190486,40.2119401 C107.99266,40.2007056 107.799616,40.2681917 107.665228,40.3955654 C107.580285,40.4893998 107.551073,40.6127972 107.586439,40.7283862 L107.586439,40.7283862 C107.638273,40.9042942 107.765121,41.0562163 107.940989,41.1530197 C108.076858,41.2303416 108.239776,41.2628869 108.400589,41.2448323 L108.610693,40.9464412 L108.479378,40.407042 Z" transform="translate(108.091209, 40.730214) rotate(-66.000000) translate(-108.091209, -40.730214) "></path>
                            <path d="M178.670261,46.0118747 L179.039366,46.3581642 C179.127755,46.4092954 179.228925,46.4353595 179.331574,46.4334445 L179.65454,46.072099 C179.694364,45.9927788 179.710364,45.9040193 179.700678,45.8161459 L179.331574,45.4698565 C179.24689,45.4231779 179.151888,45.3973433 179.054745,45.3945761 L178.70102,45.7559216 C178.667216,45.8369221 178.656582,45.9254056 178.670261,46.0118747 Z" transform="translate(179.183947, 45.914060) rotate(-66.000000) translate(-179.183947, -45.914060) "></path>
                            <path d="M184.781151,21.7423328 C184.877342,21.5928639 184.909564,21.4180436 184.871988,21.2494896 L184.871988,21.1695691 L184.508639,20.9564477 C184.295918,20.9736156 184.099758,21.0647025 183.963616,21.2095293 C183.853311,21.3543691 183.82015,21.5342864 183.872778,21.7023725 L183.872778,21.7956131 L184.236127,21.9954144 C184.450918,21.9845794 184.649783,21.8922365 184.781151,21.7423328 L184.781151,21.7423328 Z" transform="translate(184.367792, 21.475931) rotate(-66.000000) translate(-184.367792, -21.475931) "></path>
                            <path d="M153.752286,5.18384543 L153.034735,5.18384543 L152.280387,5.4460275 C152.068049,5.56538673 151.897568,5.72166073 151.783621,5.90139635 L151.783621,6.46715765 L152.114798,7.0191199 C152.282433,7.1758061 152.488533,7.30696025 152.721957,7.40549347 L153.476305,7.40549347 L154.249052,7.1433114 C154.455279,7.01375465 154.624282,6.85414064 154.745818,6.67414349 L154.745818,6.1359803 L154.359445,5.52882183 C154.20032,5.37632511 153.9911,5.25745003 153.752286,5.18384543 Z" transform="translate(153.264720, 6.294669) rotate(-66.000000) translate(-153.264720, -6.294669) "></path>
                            <path d="M130.086624,32.5034042 L129.758684,32.0878462 C129.307766,31.9955 129.034482,32.1801924 129.048147,32.6265325 L129.294102,32.9497443 C129.373781,32.9786258 129.44475,33.031918 129.499064,33.1036546 L130.004639,32.9343532 L130.086624,32.5034042 Z" transform="translate(129.567140, 32.584171) rotate(-66.000000) translate(-129.567140, -32.584171) "></path>
                            <path d="M172.813087,25.6740287 L172.740069,26.0580275 L172.910446,26.4008836 C173.125549,26.4689849 173.355438,26.444545 173.555445,26.3323124 C173.666269,26.2758127 173.747302,26.1642034 173.774501,26.030599 C173.79988,25.8415248 173.717067,25.654879 173.567614,25.5643147 L173.433747,25.5643147 C173.338563,25.4700521 173.219208,25.4124084 173.092993,25.3997438 L172.813087,25.6740287 Z" transform="translate(173.259552, 25.919227) rotate(-66.000000) translate(-173.259552, -25.919227) "></path>
                            <path d="M153.785091,18.1059628 L154.005269,17.4029097 L153.818964,16.8826503 L153.192303,16.4045741 L152.548705,16.2920856 L152.006728,16.2920856 L151.600246,16.4608184 L151.210699,16.7842229 L151.075205,17.1076273 C150.922281,17.7074248 151.327769,18.3085668 152.023665,18.5137337 L152.497895,18.5137337 L153.192303,18.4153062 L153.73428,18.0637796 L153.192303,17.5294592 L153.192303,17.5294592 L153.785091,18.1059628 Z" transform="translate(152.524170, 17.402910) rotate(-66.000000) translate(-152.524170, -17.402910) "></path>
                            <path d="M162.151312,9.4097402 L162.151312,10.2507253 L162.581061,10.6778924 L162.995461,10.9048249 C163.385356,11.1171032 163.864163,11.1660961 164.300056,11.0383146 C164.68443,10.8845227 164.978762,10.5995492 165.113509,10.2507253 L164.975376,9.60997476 L164.607019,9.22285461 L163.901003,8.96922418 C163.269802,8.76664555 162.560488,8.94522794 162.151312,9.4097402 L162.151312,9.4097402 Z" transform="translate(163.632410, 9.997416) rotate(-66.000000) translate(-163.632410, -9.997416) "></path>
                            <path d="M152.883078,28.5877584 L153.229796,28.2174837 L153.229796,28.115339 C153.312347,27.8216729 153.361879,27.0938916 151.991517,26.6597765 L151.364123,26.6597765 L150.868811,26.8257617 L150.340479,27.3875577 C150.243783,27.7194774 150.333798,28.0675385 150.588135,28.3451647 C150.911072,28.6665462 151.399744,28.8624987 151.925476,28.8814245 L152.453808,28.7792798 L152.883078,28.5877584 Z" transform="translate(151.783621, 27.770601) rotate(-66.000000) translate(-151.783621, -27.770601) "></path>
                            <path d="M171.366624,45.5552565 L171.480305,45.6450792 C171.641055,45.708965 171.824807,45.708965 171.985556,45.6450792 C172.142562,45.5690597 172.25018,45.431807 172.276076,45.2745607 C172.324184,45.1097321 172.292096,44.9345184 172.187657,44.7917638 L172.073975,44.7019411 C171.913226,44.6380553 171.729474,44.6380553 171.568724,44.7019411 C171.254357,44.8919031 171.165103,45.2687539 171.366624,45.5552565 Z" transform="translate(171.778453, 45.173510) rotate(-66.000000) translate(-171.778453, -45.173510) "></path>
                            <path d="M161.588178,16.9145764 L161.588178,16.9145764 L161.91556,17.7195213 C162.395743,17.504304 162.754077,17.0529958 162.881339,16.5031601 C162.939267,15.8565885 162.756346,15.2117833 162.373896,14.7143935 L162.242943,14.4997416 L161.457225,14.0704376 L160.80246,14.1598759 L160.114956,14.7680565 C159.525668,16.8072504 160.491446,17.5585323 160.933413,17.7731843 L161.277164,16.9682394 L161.588178,16.9145764 Z" transform="translate(161.410762, 15.921811) rotate(-66.000000) translate(-161.410762, -15.921811) "></path>
                            <path d="M168.203958,9.79184909 C167.840176,9.62699539 167.403429,9.58363807 166.996423,9.67197305 C166.589417,9.76030803 166.248065,9.9725406 166.052642,10.258762 L165.854058,10.7761519 L165.969899,11.2178262 L166.780779,11.1042528 L166.780779,11.1042528 L167.525466,11.3440189 L168.038472,11.8487896 L168.402541,11.6216428 L168.683867,11.2683033 L168.816256,10.7887712 L168.816256,10.3849546 L168.617673,10.0820922 L168.203958,9.79184909 Z" transform="translate(167.335157, 10.737966) rotate(-66.000000) translate(-167.335157, -10.737966) "></path>
                            <path d="M140.138482,26.6597765 L140.897545,26.6597765 L141.656609,26.3975944 C141.870566,26.2842109 142.042531,26.1323022 142.156479,25.9560246 L142.156479,25.3902633 L141.804718,24.824502 C141.648283,24.6538372 141.429975,24.5198373 141.175252,24.4381285 L140.453216,24.4381285 L139.694153,24.7003105 C139.483334,24.8046537 139.311372,24.9470652 139.194282,25.1142822 L139.194282,25.6938426 L139.564557,26.287202 C139.719182,26.4396787 139.91462,26.5665507 140.138482,26.6597765 L140.138482,26.6597765 Z" transform="translate(140.675381, 25.548952) rotate(-66.000000) translate(-140.675381, -25.548952) "></path>
                            <path d="M148.600358,37.8621251 L148.600358,37.5871523 C148.474319,37.3491445 148.239349,37.2188488 148.000088,37.2542905 C147.734837,37.3055752 147.545909,37.5804359 147.562391,37.8910696 L147.749975,38.2094591 C148.350245,38.4699597 148.550335,38.0068476 148.600358,37.8621251 Z" transform="translate(148.080874, 37.768017) rotate(-66.000000) translate(-148.080874, -37.768017) "></path>
                            <path d="M144.947856,16.7394227 L144.410772,17.0424574 C144.325736,17.3833879 144.408611,17.7402924 144.638626,18.0237129 C144.835711,18.2687458 145.134086,18.4347371 145.468666,18.4854802 C146.283616,18.6300845 147.090529,18.2070434 147.340325,17.5042247 L146.80324,16.6817018 L146.80324,16.6817018 C146.639203,16.5245661 146.446666,16.3928756 146.233605,16.2920856 L145.257087,16.4508181 C145.147829,16.5416607 145.04458,16.6380226 144.947856,16.7394227 Z" transform="translate(145.859226, 17.402910) rotate(-66.000000) translate(-145.859226, -17.402910) "></path>
                            <path d="M126.383877,46.7733479 L126.190926,46.3280765 C126.140304,46.2462188 126.068511,46.1795541 125.983133,46.1351255 L125.523019,46.3280765 C125.450083,46.3903366 125.389642,46.4658884 125.34491,46.5507122 L125.537861,46.9959837 C125.589961,47.0728593 125.661715,47.1343633 125.745655,47.1740922 L126.205769,46.9959837 C126.278704,46.9337235 126.339146,46.8581717 126.383877,46.7733479 Z" transform="translate(125.864394, 46.654609) rotate(-66.000000) translate(-125.864394, -46.654609) "></path>
                            <path d="M154.753407,3.14482013 C154.743289,3.31978155 154.743289,3.49524442 154.753407,3.67020584 L154.933552,4.24813013 L155.228333,4.65092584 L155.523115,4.87859299 L156.292822,5.10626013 L156.50572,5.10626013 C157.010531,5.27250573 157.559331,5.16817285 157.979628,4.82605442 L158.27441,4.40574584 L158.405424,3.96792441 C158.595105,3.09913726 158.143734,2.21673006 157.357312,1.91892012 L157.357312,1.91892012 L157.095284,1.65622727 L156.538474,1.48109869 L155.785143,1.65622727 C155.275913,1.99312201 154.906706,2.52581583 154.753407,3.14482013 L154.753407,3.14482013 Z" transform="translate(156.597192, 3.332472) rotate(-66.000000) translate(-156.597192, -3.332472) "></path>
                            <path d="M135.741596,61.3610096 L135.919705,61.8211235 C135.970328,61.9029812 136.04212,61.9696458 136.127498,62.0140744 L136.587612,61.8211235 C136.669613,61.764302 136.735974,61.6877326 136.780563,61.5984877 L136.587612,61.1532163 C136.529411,61.076213 136.452878,61.0149863 136.364977,60.9751077 L135.919705,61.1532163 C135.846008,61.2087868 135.785242,61.279681 135.741596,61.3610096 Z" transform="translate(136.261080, 61.494591) rotate(-66.000000) translate(-136.261080, -61.494591) "></path>
                        </g>
                    </g>
                </g>
            </g>
        </g>
    </g>
</svg>