<?xml version="1.0" encoding="UTF-8"?>
<svg width="349px" height="160px" viewBox="0 0 349 160" version="1.1" xmlns="http://www.w3.org/2000/svg" xmlns:xlink="http://www.w3.org/1999/xlink">
    <title>Img/Card/Event-12</title>
    <defs>
        <rect id="path-1" x="0" y="0" width="349" height="160"></rect>
        <linearGradient x1="0.556757601%" y1="44.0898111%" x2="98.4652144%" y2="55.7277557%" id="linearGradient-3">
            <stop stop-color="#FCBC7D" offset="0%"></stop>
            <stop stop-color="#F88E59" offset="100%"></stop>
        </linearGradient>
        <rect id="path-4" x="0" y="0.0171919771" width="1082" height="372"></rect>
        <linearGradient x1="50%" y1="0%" x2="50%" y2="100%" id="linearGradient-6">
            <stop stop-color="#FF8C55" offset="0%"></stop>
            <stop stop-color="#FDC377" offset="99.9890734%"></stop>
        </linearGradient>
        <linearGradient x1="50%" y1="0%" x2="50%" y2="96.8504152%" id="linearGradient-7">
            <stop stop-color="#F16847" offset="0%"></stop>
            <stop stop-color="#F97794" offset="100%"></stop>
        </linearGradient>
        <filter id="filter-8">
            <feColorMatrix in="SourceGraphic" type="matrix" values="0 0 0 0 1.000000 0 0 0 0 0.717647 0 0 0 0 0.623529 0 0 0 1.000000 0"></feColorMatrix>
        </filter>
        <linearGradient x1="50%" y1="0%" x2="50%" y2="100%" id="linearGradient-9">
            <stop stop-color="#FEA098" offset="0%"></stop>
            <stop stop-color="#FE8997" offset="100%"></stop>
        </linearGradient>
        <linearGradient x1="81.8968206%" y1="12.9742411%" x2="81.8968206%" y2="100%" id="linearGradient-10">
            <stop stop-color="#F6FFA9" offset="0%"></stop>
            <stop stop-color="#FFDD59" offset="100%"></stop>
        </linearGradient>
    </defs>
    <g id="Img/Card/Event-12" stroke="none" stroke-width="1" fill="none" fill-rule="evenodd">
        <mask id="mask-2" fill="white">
            <use xlink:href="#path-1"></use>
        </mask>
        <g id="Rectangle"></g>
        <g id="Group-4" mask="url(#mask-2)">
            <g transform="translate(-731.000000, -114.000000)">
                <mask id="mask-5" fill="white">
                    <use xlink:href="#path-4"></use>
                </mask>
                <use id="Rectangle" stroke="none" fill="url(#linearGradient-3)" fill-rule="evenodd" xlink:href="#path-4"></use>
                <circle id="Oval" stroke="none" fill="url(#linearGradient-6)" fill-rule="evenodd" mask="url(#mask-5)" cx="673" cy="270.017192" r="124"></circle>
                <path d="M544.090919,0.0171919771 C555.321731,119.763707 624.951049,210.895647 752.978872,273.413012 C881.006694,335.930377 990.680404,369.798437 1082,375.017192 L478.022343,372.947222 L477,0.0171919771 L544.090919,0.0171919771 Z" id="Rectangle" stroke="none" fill="url(#linearGradient-7)" fill-rule="evenodd" mask="url(#mask-5)" transform="translate(779.500000, 187.517192) scale(-1, 1) translate(-779.500000, -187.517192) "></path>
                <g filter="url(#filter-8)" fill="none" fill-rule="evenodd" id="Group" stroke="none" stroke-width="1">
                    <g mask="url(#mask-5)">
                        <g transform="translate(931.227762, 71.674877) rotate(-267.000000) translate(-931.227762, -71.674877) translate(750.727762, -89.325123)" fill="#E9EFBA" fill-rule="nonzero">
                            <path d="M239.882486,42.8235999 C239.591375,43.4898093 239.745686,44.3352075 240.236004,44.7603671 L241.157679,44.4156882 C241.182388,44.3466218 241.211974,44.2806859 241.246058,44.2187288 L240.778908,43.8740499 L241.347064,43.9725296 C241.678839,43.4418175 241.678839,42.6813674 241.347064,42.1506553 L240.766283,41.9701092 C240.396918,42.0927443 240.079472,42.3993049 239.882486,42.8235999 L239.882486,42.8235999 Z" id="Shape-1046"></path>
                            <path d="M265.764201,145.260147 L266.079,146.276097 C266.246679,146.378278 266.3746,146.550995 266.436725,146.759089 L267.552828,146.942293 C267.552828,146.942293 267.652991,146.942293 267.724536,146.792399 C268.003443,146.611471 268.235655,146.34694 268.39706,146.026273 C268.460557,145.881936 268.51322,145.731482 268.554459,145.57659 L268.296897,144.677224 C267.871829,144.262574 267.314147,144.080579 266.765832,144.177577 C266.295889,144.317496 265.918846,144.725006 265.764201,145.260147 Z" id="Shape-1048"></path>
                            <path d="M269.851761,261.401093 L269.678355,261.604787 L269.804468,262.826955 C270.180938,263.152114 270.668724,263.288058 271.144423,263.200395 C271.643897,263.047975 272.057757,262.670423 272.279443,262.164947 L272.468613,261.757558 L272.216386,260.773035 C271.838424,260.46945 271.3541,260.36399 270.896289,260.485588 C270.438477,260.607185 270.055256,260.94307 269.851761,261.401093 Z" id="Shape-1057"></path>
                            <path d="M243.18064,182.841769 C243.27064,183.175956 243.464445,183.431941 243.705399,183.53489 L244.080227,183.321622 C243.995505,183.319543 243.913032,183.282497 243.842836,183.214988 L244.767411,182.983947 L245.017297,182.326371 L245.017297,181.508843 C244.870463,181.055541 244.555892,180.759531 244.20517,180.744632 C243.871205,180.822216 243.573646,181.089168 243.380542,181.484437 C243.187438,181.879707 243.115305,182.369487 243.18064,182.841769 L243.18064,182.841769 Z" id="Shape-1062"></path>
                            <path d="M231.817285,101.813532 C231.418074,101.746023 231.020366,101.943293 230.813342,102.311505 L230.699994,102.843821 C230.681985,103.463557 231.072489,104.013325 231.639166,104.166026 C232.331435,104.226443 232.982926,103.811918 233.258429,103.135736 C233.566728,102.723315 233.566728,102.140095 233.258429,101.727674 C233.047925,101.452931 232.610724,101.21253 231.817285,101.538788 L231.817285,101.813532 Z" id="Shape-1065"></path>
                            <path d="M310.039886,112.666253 L310.214161,113.990743 C310.118518,113.915139 310.041054,113.818527 309.987604,113.708185 C309.913235,114.147974 310.056517,114.596752 310.371007,114.909055 L311.538645,114.909055 L311.747774,114.750117 C312.091257,114.56346 312.37532,114.281732 312.566864,113.937763 C312.647405,113.792406 312.711703,113.638403 312.758565,113.478607 L312.375162,112.471995 L311.730347,112.118798 L310.667274,112.348376 C310.436499,112.403184 310.22162,112.512056 310.039886,112.666253 L310.039886,112.666253 Z" id="Shape-1069"></path>
                            <path d="M218.418705,131.168999 L217.340714,132.257179 C216.776052,133.571208 215.441396,136.650962 217.10116,139.340615 L219.394031,140.038693 L220.831353,139.217425 L221.806678,137.882864 L222.131787,137.184787 C222.753822,136.053467 222.958197,134.663819 222.696449,133.345359 C222.432071,132.272048 221.814038,131.374729 220.985351,130.861023 L219.56514,130.737833 L218.418705,131.168999 Z" id="Shape-1075"></path>
                            <path d="M228.625554,241.367724 C228.711731,241.707284 228.90588,241.966728 229.14756,242.065289 L229.520421,241.86854 C229.436013,241.853792 229.355157,241.810923 229.284275,241.743336 L230.204,241.528701 L230.465003,240.866909 L230.465003,240.026254 C230.317689,239.574131 230.004089,239.282519 229.657137,239.275031 C229.32525,239.349141 229.028332,239.613396 228.834005,240.007612 C228.639678,240.401828 228.564487,240.892444 228.625554,241.367724 Z" id="Shape-1079"></path>
                            <path d="M267.733679,78.3007057 L267.637935,76.8546596 C267.5767,76.5743644 267.468418,76.3219917 267.323347,76.1214532 L266.365906,76.2640211 C266.175071,76.3468525 266.004186,76.5094217 265.873507,76.7324586 L265.955574,78.1785046 C266.023744,78.4537957 266.131055,78.7039042 266.270161,78.9117111 L267.241281,78.7691432 C267.429518,78.6779618 267.599004,78.5167237 267.733679,78.3007057 Z" id="Shape-1090"></path>
                            <path d="M216.226213,44.3042215 C215.786107,44.4459658 215.418642,44.7999045 215.215947,45.2773001 L215.103695,45.5205698 L215.376307,46.6433528 C215.77334,46.9970434 216.281902,47.1334716 216.771436,47.0176138 C217.208531,46.880155 217.575478,46.5335127 217.781701,46.0632483 L217.893953,45.8012656 L217.621342,44.6971956 C217.226881,44.3369311 216.718073,44.1936122 216.226213,44.3042215 Z" id="Shape-1099"></path>
                            <path d="M250.695141,263.7965 L250.695141,264.682251 C251.066944,265.430622 251.73297,265.899823 252.460728,265.926071 C253.059766,265.926071 253.45387,265.285315 253.485399,264.361873 L252.870596,263.438431 C252.757125,263.415301 252.646114,263.377384 252.539549,263.325356 C252.098152,263.17459 251.18383,262.816521 250.695141,263.7965 Z" id="Shape-1107"></path>
                            <path d="M280.802856,212.947509 C280.703464,213.707601 280.95607,214.473303 281.399174,214.755077 C281.923366,215.00718 282.474833,214.52936 282.641501,213.67866 L282.343343,212.378836 C281.970199,212.003253 281.512263,211.928389 281.101015,212.175738 L280.802856,212.947509 Z" id="Shape-1108"></path>
                            <path d="M234.175687,154.85592 L234.948891,156.064024 C236.175932,156.403803 236.915519,155.950764 236.965945,154.761537 L236.377638,153.836583 C236.159123,153.836583 236.075079,153.666694 235.873374,153.383544 L234.478245,153.704447 L234.175687,154.85592 Z" id="Shape-1122"></path>
                            <path d="M231.421482,12.1738731 L231.145086,11.7582389 C230.743797,11.4068677 230.258324,11.347446 229.824529,11.5966033 C229.38362,11.8755476 229.054341,12.4475412 228.93392,13.1436865 C228.777095,13.8699949 228.821373,14.6606707 229.056763,15.3373118 L229.348514,15.7760369 C229.753858,16.134725 230.24616,16.1942899 230.684427,15.9376724 C231.55952,15.180879 231.884165,13.5230691 231.421482,12.1738731 L231.421482,12.1738731 Z" id="Shape-1134"></path>
                            <path d="M230.706257,91.4998134 L230.706257,92.2759191 C230.99177,92.9510963 231.582998,93.3614543 232.214504,93.3227593 C232.921521,93.2419986 233.469506,92.5476591 233.496515,91.6983521 L233.059123,90.7959036 C231.475463,90.0197979 230.857082,91.1929809 230.706257,91.4998134 Z" id="Shape-1141"></path>
                            <path d="M268.059807,151.089815 L268.334463,152.381948 C268.428837,152.598547 268.552111,152.783459 268.69651,152.925019 L269.557932,152.513034 C269.708538,152.375068 269.833158,152.181692 269.919979,151.951237 L269.645323,150.677831 C269.560324,150.456469 269.440262,150.269945 269.29576,150.134761 L268.421854,150.546745 C268.274045,150.681905 268.149913,150.868101 268.059807,151.089815 L268.059807,151.089815 Z" id="Shape-1143"></path>
                            <path d="M288.540331,71.1967814 L288.149694,69.9132627 C288.017807,69.686241 287.832666,69.4947159 287.610245,69.3552112 L286.326726,69.764449 C286.084562,69.8992209 285.884845,70.0989386 285.750073,70.3411023 L286.177912,71.5688158 C286.311245,71.8058245 286.503453,72.0044388 286.735964,72.1454691 L288.000881,71.7176295 C288.22486,71.5964966 288.411416,71.4163739 288.540331,71.1967814 L288.540331,71.1967814 Z" id="Shape-1148"></path>
                            <path d="M229.221668,212.265932 L229.588369,213.291695 C230.141963,213.548302 230.80548,213.454072 231.255189,213.054981 L231.488544,212.928733 C231.627318,212.920746 231.766476,212.920746 231.90525,212.928733 C232.705943,213.134045 233.544242,212.750659 233.872098,212.029218 L233.438725,211.08236 C232.728331,210.648895 231.853569,210.530369 231.043276,210.757788 C230.232984,210.985207 229.567775,211.535947 229.221668,212.265932 L229.221668,212.265932 Z" id="Shape-1149"></path>
                            <path d="M313.821128,74.4255304 L314.177029,75.4357875 C314.347688,75.5269043 314.484363,75.6885567 314.561401,75.8904032 L315.686046,75.9914289 C315.733061,75.9269078 315.791344,75.8752078 315.856878,75.8398903 C316.123376,75.6348022 316.339435,75.3502197 316.483262,75.014847 C316.540797,74.8638824 316.583776,74.7057349 316.611386,74.5433937 L316.31243,73.6678375 C315.876155,73.2695566 315.31481,73.1158691 314.774941,73.2468971 C314.306556,73.4191863 313.946154,73.8645372 313.821128,74.4255304 Z" id="Shape-1156"></path>
                            <path d="M237.228742,26.4134925 L238.463984,26.4134925 L239.415454,25.8887574 L238.397214,21.7158643 L238.397214,21.56594 C238.433364,21.3310342 238.501561,21.1098496 238.597524,20.916268 L235.509419,18.0427189 C234.7528,19.6039302 234.559196,21.6232612 234.991952,23.4399938 C235.411045,24.8732698 236.22845,25.9598946 237.228742,26.4134925 L237.228742,26.4134925 Z" id="Shape-1158"></path>
                            <path d="M226.105417,107.913222 L227.136161,107.548794 L229.278177,105.341981 L229.407021,104.997799 C229.973042,103.561257 230.121188,101.92096 229.825761,100.361466 L230.099552,99.0049845 L229.938498,97.8712088 L228.923859,95.4821813 C227.589642,93.8549906 225.572899,93.4951504 223.93119,94.5913575 C223.095886,95.0154364 222.367025,95.7148622 221.821384,96.6159571 C220.561789,97.1161553 219.520029,98.242843 218.938521,99.7338403 L219.357261,101.232044 C219.193773,102.046208 219.166353,102.894142 219.276734,103.722301 L221.20938,107.062891 L221.821384,107.427318 L223.431923,107.427318 L223.431923,107.427318 L226.105417,107.913222 Z" id="Shape-1166"></path>
                            <path d="M322.998,189.253892 L322.840358,189.488579 L323.029528,190.662014 C323.416112,190.973803 323.916179,191.078919 324.385247,190.946991 C324.876788,190.770706 325.269438,190.371589 325.45721,189.857373 C325.45721,189.740029 325.567559,189.589159 325.630616,189.438289 L325.315333,188.482778 C324.921527,188.210923 324.434262,188.139879 323.986178,188.288983 C323.538095,188.438087 323.175831,188.79182 322.998,189.253892 L322.998,189.253892 Z" id="Shape-1168"></path>
                            <path d="M251.66692,58.8832464 L251.66692,59.0225615 L251.66692,59.9181583 L251.276639,61.6695477 L251.604475,63.659763 C251.797126,64.2563805 252.109369,64.7779856 252.509926,65.1723266 L253.805658,65.5703696 L255.366781,65.1723266 C255.826603,64.9373035 256.230232,64.5530904 256.537623,64.057806 L256.756181,63.0228941 C257.062873,62.685921 257.312522,62.2728499 257.489908,61.8088628 L257.599187,61.2516025 L257.599187,61.2516025 C258.147913,59.4220069 257.456343,57.3677479 256.038064,56.614401 C255.223221,56.1664311 254.3014,56.1543913 253.479528,56.5809843 C252.657657,57.0075773 252.004588,57.8370648 251.66692,58.8832464 L251.66692,58.8832464 Z" id="Shape-1171"></path>
                            <path d="M218.592221,40.8657616 L218.839662,38.3642854 L218.519444,36.9050909 L216.685472,34.0909302 C215.229938,33.2779504 212.551756,32.5900444 210.004573,37.1969298 L209.538802,41.6787414 L210.193792,43.9509157 C210.88629,45.8595352 212.184079,47.1660313 213.672517,47.4529824 L214.735057,47.4529824 L215.477379,47.244526 C216.712223,46.6998639 217.734449,45.4471671 218.301114,43.7841506 C218.600716,42.8896024 218.773849,41.9190368 218.810551,40.9282985 L218.592221,40.8657616 Z" id="Shape-1172"></path>
                            <path d="M294.428444,113.847948 C294.535034,114.174508 294.738236,114.414189 294.981378,114.500144 L295.358379,114.246512 C295.281048,114.285165 295.196943,114.285165 295.119612,114.246512 L296.03698,113.938531 L296.263181,113.250102 L296.263181,112.41674 C296.091063,111.971279 295.762268,111.699424 295.408646,111.710195 C295.081989,111.806203 294.79518,112.085397 294.611346,112.486328 C294.427511,112.887259 294.361717,113.377067 294.428444,113.847948 Z" id="Shape-1174"></path>
                            <path d="M277.795583,34.0864982 C277.399483,34.0590209 277.025008,34.2767741 276.840204,34.6420393 L276.840204,35.1639114 C277.002133,36.1739862 277.601269,36.3760012 277.844161,36.4096704 C278.552805,36.4223942 279.1961,35.9809933 279.463447,35.298588 C279.722639,34.862811 279.676586,34.3019508 279.350097,33.9181524 C279.107204,33.6656336 278.669997,33.4467841 277.89274,33.8171449 L277.795583,34.0864982 Z" id="Shape-1177"></path>
                            <path d="M259.604997,88.4382357 L259.239774,89.310623 C258.56541,91.3223293 258.963379,93.7478897 260.189354,95.098168 C261.47588,96.5683767 263.285509,96.5683767 264.572035,95.098168 L264.981085,94.3747249 L265.229437,93.6512817 L265.419353,92.7150612 C265.482217,90.877882 264.939503,89.1072596 263.95846,87.9488477 C263.055424,86.9227454 261.858626,86.6268945 260.773712,87.1615713 L259.604997,88.4382357 Z" id="Shape-1179"></path>
                            <path d="M228.948525,57.9910406 L227.290233,57.9910406 L226.396196,58.4759618 L224.665804,60.79515 L224.132266,62.3974982 L223.959227,65.7497794 L224.233206,67.0569583 L225.6752,69.6502324 C226.890261,70.7868994 228.374588,71.1307767 229.770462,70.5989912 C231.102954,70.0458756 232.222962,68.7205822 232.870748,66.9304571 L233.260087,65.09619 L233.260087,64.2528488 L233.072627,62.2920806 C232.476626,59.6924109 230.837259,57.9094286 228.962945,57.8223724 L228.948525,57.9910406 Z" id="Shape-1180"></path>
                            <path d="M357.549635,37.231047 L357.812867,38.4748969 C357.701632,38.4223379 357.614264,38.3326777 357.567184,38.2227651 C357.505342,38.643644 357.678535,39.0647478 358.023453,39.3321448 L359.199222,39.2144833 C359.252756,39.1525823 359.318311,39.1012083 359.392259,39.0632043 C359.720411,38.8508814 359.986256,38.5615241 360.164405,38.2227651 C360.239326,38.0836378 360.298171,37.9370941 360.339893,37.7857368 L359.883625,36.8612538 L359.216771,36.5418869 L358.146294,36.8276362 C357.920072,36.9205394 357.716784,37.0579857 357.549635,37.231047 Z" id="Shape-1181"></path>
                            <path d="M239.9006,99.4944338 L238.956253,100.629091 L238.492363,101.870792 L238.409526,103.647708 L238.790578,105.01786 L239.70179,106.345195 L240.977488,107.137314 L242.269752,107.287174 L243.28037,106.901819 L244.340689,105.809979 L244.539499,105.360398 C244.995704,104.239099 245.044234,102.914312 244.672039,101.74234 C244.193679,100.377152 243.281288,99.3465049 242.170347,98.9164009 L240.878083,98.9164009 L239.9006,99.4944338 Z" id="Shape-1182"></path>
                            <path d="M221.79252,21.3008393 L220.600652,22.0079641 L219.392893,24.0609071 C218.921016,25.3134166 218.921016,26.8230418 219.392893,28.0755512 C219.885349,29.2888825 220.755037,30.0871377 221.728954,30.2197362 L222.682448,30.0144419 L223.429351,29.5354218 L223.588267,29.3301275 C223.921286,29.613059 224.287502,29.8063166 224.668893,29.9003895 C226.146914,29.9993264 227.51835,28.7983395 228.133255,26.8665959 L228.260387,26.4103864 L228.339845,24.7680319 L228.08558,23.5362661 L227.513484,22.2816898 C226.381354,20.7957101 224.719956,20.494191 223.365785,21.5289441 L221.79252,21.3008393 Z" id="Shape-1184"></path>
                            <path d="M241.95786,39.8261187 L242.8426,42.7360508 L243.172209,42.9154301 C243.613033,43.7023456 244.304037,44.2602195 245.097821,44.4700514 L245.566213,44.3703962 L245.704996,44.3703962 L246.208084,44.1710857 L246.589736,44.1710857 L246.589736,44.1710857 L248.168391,43.5332924 C248.520993,42.6772051 248.564645,41.6956587 248.289826,40.8027398 C247.949271,39.7532334 247.255192,38.9055145 246.364214,38.4508769 C245.621285,37.9613016 244.739422,37.8311556 243.912914,38.0891121 C243.086407,38.3470685 242.38307,38.9719621 241.95786,39.8261187 Z" id="Shape-1185"></path>
                            <path d="M266.414005,63.6316916 L265.376654,64.8071883 C264.875268,66.1682897 263.647736,69.344193 265.497678,71.9220366 L267.849007,72.4376053 L269.266719,71.5095816 L270.183046,70.1072347 L270.459673,69.3854385 C271.040658,68.2154921 271.178868,66.8067004 270.840035,65.5083618 C270.508414,64.438067 269.819895,63.5794618 268.938225,63.1367457 L267.503223,63.1367457 L266.414005,63.6316916 Z" id="Shape-1186"></path>
                            <path d="M254.339269,120.540977 C254.170783,121.039145 254.065904,121.573583 254.02924,122.120819 L254.122249,123.316375 C254.426128,124.817239 255.299488,125.970971 256.40096,126.326614 C257.67956,126.694361 259.00607,126.13904 259.919785,124.853518 L260.353825,123.764708 L260.539842,122.739946 L260.539842,121.480342 C260.09265,119.596431 258.873049,118.261082 257.439556,118.085817 C256.133003,117.918118 254.891298,118.901441 254.339269,120.540977 Z" id="Shape-1189"></path>
                            <path d="M240.932666,144.88419 C239.116358,144.4292 237.29012,145.606817 236.550855,147.709721 C235.956857,149.183695 235.907871,150.903802 236.416547,152.425866 L237.457437,153.610096 L238.548692,154.087943 L239.958931,154.087943 C240.763966,153.623756 241.415866,152.831693 241.805671,151.844139 C241.982695,151.378781 242.096157,150.880326 242.141442,150.369045 L241.990345,150.223613 L242.577944,148.665416 L242.342905,146.837131 L240.932666,144.88419 Z" id="Shape-1190"></path>
                            <path d="M281.16595,172.080644 C281.268731,172.400228 281.471763,172.633901 281.714807,172.712333 L282.076553,172.484223 C281.991047,172.491195 281.9067,172.453727 281.839547,172.378942 L282.75015,172.098191 L282.987156,171.413862 L282.987156,170.606704 C282.816308,170.175249 282.489937,169.911942 282.138923,169.922374 C281.801139,170.013709 281.505158,170.297192 281.320949,170.705809 C281.13674,171.114426 281.080654,171.611906 281.16595,172.080644 Z" id="Shape-1191"></path>
                            <path d="M258.886318,131.599252 L257.670232,131.886786 L256.406765,133.119077 C255.836774,134.756249 255.993949,136.666565 256.817392,138.109853 L258.159825,136.590028 C258.153596,136.671982 258.153596,136.754534 258.159825,136.836487 L258.696798,136.199803 C258.948334,136.388395 259.212668,136.546519 259.486464,136.672181 L260.102404,134.618364 L260.102404,134.618364 L260.718344,132.564546 C260.449857,132.441317 260.434064,132.420779 260.323511,132.277012 L258.886318,131.599252 Z" id="Shape-1193"></path>
                            <path d="M246.764228,119.731574 L246.764228,119.731574 C246.350883,118.916066 245.754724,118.277788 245.053158,117.899615 L243.855409,117.899615 L242.89721,118.226751 L241.887678,119.077303 L241.494132,119.906046 C241.074901,120.935216 240.994457,122.134803 241.270578,123.239727 C241.546698,124.34465 242.156651,125.26395 242.965652,125.794485 C244.599724,126.85537 246.599454,126.085913 247.499988,124.049762 L247.619763,122.043331 L247.174885,120.538508 L246.764228,119.731574 Z" id="Shape-1195"></path>
                            <path d="M227.001162,120.570573 L225.798253,121.278777 C224.750159,122.077136 223.933224,123.360256 223.487402,124.90832 C223.481443,124.974453 223.481443,125.04137 223.487402,125.107502 L223.281641,127.519821 L223.376607,128.382944 L223.867268,130.26411 C224.748032,132.290699 226.351882,133.479959 228.045794,133.362501 C229.803647,133.180044 231.356425,131.693158 232.113526,129.467381 C232.738825,127.64897 232.738825,125.531638 232.113526,123.713227 C231.53989,122.03435 230.460446,120.800905 229.169564,120.349259 L227.001162,120.570573 Z" id="Shape-1197"></path>
                            <path d="M253.429083,229.608699 L253.664863,230.957872 C254.080674,231.467765 254.644101,231.69475 255.197437,231.57529 C255.580045,231.444764 255.896947,231.08197 256.056351,230.591994 L256.056351,230.591994 C256.27367,229.858306 256.27367,229.038948 256.056351,228.30526 C255.928283,227.728518 255.637783,227.243684 255.247961,226.956087 L254.170107,227.482036 L253.429083,229.608699 Z" id="Shape-1199"></path>
                            <path d="M312.759039,8.68711562 L312.600726,7.29198668 C312.533831,7.02311349 312.419975,6.78569937 312.270908,6.60424706 L311.347419,6.8400435 C311.171076,6.94104178 311.016168,7.11069249 310.898867,7.33128609 L311.043986,8.70676532 C311.111662,8.96997516 311.220154,9.20562934 311.360611,9.39450494 L312.297294,9.1587085 C312.477514,9.06809487 312.637345,8.90485476 312.759039,8.68711562 L312.759039,8.68711562 Z" id="Shape-1206"></path>
                            <path d="M249.469858,288.408262 L249.616014,289.73604 C249.688438,289.995401 249.802273,290.226212 249.948188,290.40955 L250.878274,290.197875 C251.06415,290.07257 251.221038,289.872084 251.33003,289.620581 L251.183873,288.292803 C251.114848,288.030768 251.000462,287.79884 250.8517,287.619292 L249.921614,287.830967 C249.734879,287.954364 249.577649,288.155287 249.469858,288.408262 L249.469858,288.408262 Z" id="Shape-1219"></path>
                            <path d="M233.038113,181.35893 L232.536162,183.123548 L232.609978,184.627483 L232.698558,184.84806 C232.698558,186.171523 233.008586,187.976245 235.19355,188.858553 L236.300795,188.858553 L237.157065,188.377294 L237.983808,187.314513 L238.928657,184.647535 L239.046763,183.183705 L238.840078,182.020662 L238.26431,180.797461 C237.523405,179.909118 236.548767,179.467284 235.563567,179.573127 C234.578367,179.678971 233.666987,180.323427 233.038113,181.35893 L233.038113,181.35893 Z" id="Shape-1221"></path>
                            <path d="M247.474803,78.4748262 L249.045815,76.9972128 C249.045815,77.0944242 249.045815,77.2110779 249.267605,77.2694048 L250.154765,76.4528289 C250.154765,76.2778484 250.006905,76.2584061 249.914493,76.180637 L251.503988,74.7030235 C250.500295,73.5969256 248.844057,73.5259409 247.75815,74.5424806 C246.672243,75.5590204 246.54696,77.2977234 247.474803,78.4748262 L247.474803,78.4748262 Z" id="Shape-1223"></path>
                            <path d="M276.759686,115.745378 C277.884172,116.988511 279.462268,116.890529 280.508995,115.512589 L280.669909,114.232253 C280.566725,113.901138 280.437112,113.588628 280.283714,113.301099 C280.019107,112.835969 279.594945,112.628421 279.189495,112.765685 C278.926832,112.069823 278.341289,111.777378 277.837813,112.090599 L277.210247,112.788964 C276.737999,112.830999 276.302471,113.171572 276.019479,113.720118 L276.293034,115.419474 L276.759686,115.745378 Z" id="Shape-1229"></path>
                            <path d="M223.109628,148.959229 L223.536055,148.276662 L224.015786,146.497112 C224.042086,145.954817 224.010403,145.408343 223.922505,144.888204 L224.00246,142.694239 C223.558479,141.787527 222.934703,141.243313 222.270099,141.182841 C221.525177,141.099708 220.793859,141.574987 220.24457,142.49922 C219.739149,143.295625 219.428223,144.427883 219.380696,145.645075 C219.333169,146.862268 219.552966,148.063873 219.991379,148.983606 L221.137402,149.105493 C221.351489,149.309685 221.580298,149.457414 221.817021,149.544286 L223.109628,148.959229 Z" id="Shape-1230"></path>
                            <path d="M291.306664,179.418828 C290.735377,179.637966 290.310862,180.071627 290.154103,180.59622 C290.08825,181.251047 290.465083,181.879787 291.120767,182.209086 L292.050252,182.209086 C292.700891,181.91877 293.332941,181.338139 292.626533,180.080103 C292.637975,180.106068 292.637975,180.134782 292.626533,180.160747 L291.306664,179.418828 Z" id="Shape-1232"></path>
                            <path d="M218.283163,34.2236995 L216.593937,36.4694071 L216.053384,36.8757732 C215.553398,37.6557903 215.200935,38.5702594 215.022956,39.5492346 C214.664447,39.6422595 214.313755,39.77833 213.975636,39.9556007 L211.948564,43.120979 L211.661396,44.7036681 L212.151271,48.2540248 C212.460297,49.4552369 212.934988,50.5776173 213.553329,51.5691169 L213.384407,51.7829938 L212.117487,55.6113905 L212.21884,55.6113905 L212.083702,56.5524489 L212.9621,60.4022333 L213.435083,61.0652517 L216.0196,62.4554516 L216.475691,62.6907162 L216.475691,62.5623901 L217.21895,62.7121039 L220.259558,61.599944 L220.783218,61.0010886 L222.06703,57.1726919 L221.965676,57.1726919 L222.083922,56.1888581 L221.205525,52.3818492 L220.817003,51.8257692 L221.560262,51.1627508 L222.185276,49.7511632 L222.185276,45.8799911 C222.666424,45.4757724 223.094019,44.9776955 223.452196,44.4042404 C225.092734,41.9307837 225.092734,38.3226208 223.452196,35.849164 C222.137246,34.0552567 220.108214,33.4172032 218.283163,34.2236995 L218.283163,34.2236995 Z" id="Shape-1241"></path>
                            <path d="M231.040079,8.97052878 C230.079097,10.9056265 230.233851,13.5072253 231.410608,15.1995448 C232.212593,16.4838038 233.378792,17.223328 234.606413,17.2261083 L235.779752,16.4794796 L236.489931,15.4128673 L236.922214,13.7062876 C236.891174,12.5799692 236.580424,11.5027613 236.04221,10.6557763 C235.790521,10.2545404 235.486839,9.92174643 235.146767,9.67449292 L234.99238,9.67449292 L234.143253,8.37322587 L232.800088,7.92524869 L231.040079,8.97052878 Z" id="Shape-1244"></path>
                            <path d="M244.197196,225.355224 L244.901747,226.080836 L245.9418,226.204344 C246.478935,225.826674 246.838986,225.2744 246.948302,224.660489 C247.017292,224.337494 246.924907,224.003065 246.696677,223.749615 C246.342197,223.402698 245.780591,223.314453 245.321123,223.533475 L245.170148,223.873123 C244.790706,223.94411 244.444748,224.122195 244.180421,224.382595 L244.197196,225.355224 Z" id="Shape-1245"></path>
                            <path d="M207.716816,19.6392898 L207.716816,21.4699113 C207.859149,23.1532375 208.426503,24.7143915 209.319908,25.8810474 L209.416094,26.0354372 L211.019186,27.226444 L211.612331,27.4470008 L213.071145,27.4470008 C214.768339,27.0829255 216.187173,25.4773341 216.774289,23.2564214 C217.319347,20.9608773 216.934523,18.4396898 215.76434,16.6397172 C214.795662,15.144607 213.386884,14.3336337 211.932949,14.4341492 C210.587907,14.5323468 209.343507,15.4449137 208.534393,16.9264411 L207.716816,19.6392898 Z" id="Shape-1248"></path>
                            <path d="M291.06054,26.8666199 L291.960712,27.0073178 C292.410275,26.7874239 292.740901,26.3682634 292.860883,25.8661017 C292.91677,25.504783 292.811871,25.136595 292.575829,24.8655835 L292.575829,24.8655835 C292.205932,24.4747498 291.70697,24.2455368 291.180563,24.2246265 C290.786231,24.1840643 290.392511,24.3077038 290.085354,24.5685546 L290.085354,25.6316052 L291.06054,26.8666199 Z" id="Shape-1250"></path>
                            <path d="M277.118785,85.219507 L278.429401,84.9579203 C278.399681,85.0492871 278.349985,85.1255155 278.287286,85.1759092 L278.492563,85.1759092 C278.898331,85.2025848 279.283579,84.9283573 279.503159,84.4565458 C279.663591,83.9417945 279.621877,83.3494754 279.392625,82.8870258 L278.429401,82.4292491 C277.987266,82.5600424 277.166157,82.7998302 276.850346,83.7371825 C276.744602,84.2620755 276.846555,84.8250625 277.118785,85.219507 L277.118785,85.219507 Z" id="Shape-1252"></path>
                            <path d="M233.361278,121.536436 L233.814335,123.052746 C234.858954,124.627735 236.479797,125.220718 237.958971,124.569056 L239.301363,123.052746 L239.80476,121.329667 L239.620181,119.032227 L239.200683,118.320021 C238.516558,117.17025 237.498144,116.489863 236.41522,116.459095 C235.373814,116.479406 234.391764,117.126487 233.730436,118.228124 L233.294158,120.020126 L233.361278,121.536436 Z" id="Shape-1254"></path>
                            <path d="M244.212702,119.146308 L245.418155,120.763395 L246.749552,121.337887 L247.487217,121.486829 C248.057185,121.492073 248.61948,121.331308 249.124475,121.018725 L250.096035,119.486748 L250.473863,117.486666 C250.546293,116.633639 250.421942,115.773341 250.114026,114.997204 L249.46632,114.10355 L248.764638,113.529059 L247.829062,113.146065 C246.698589,112.983155 245.573298,113.493158 244.824425,114.507822 C243.987277,115.840618 243.758504,117.575331 244.212702,119.146308 Z" id="Shape-1255"></path>
                            <path d="M224.836799,170.032756 L226.620312,171.719888 L228.075283,171.546849 L229.076554,171.006101 C230.031609,170.483297 230.76662,169.395652 231.079094,168.042804 C231.29072,166.765319 231.090939,165.423734 230.531525,164.36572 L228.96704,163.349115 L227.684162,163.457264 L226.229191,164.711799 C224.90551,165.798119 224.322263,168.026971 224.836799,170.032756 Z" id="Shape-1256"></path>
                            <path d="M228.857528,89.8859167 L229.787306,92.9840582 C231.194822,95.5033756 233.66594,96.0319972 235.498798,94.2058605 L236.561401,92.394975 L236.871327,91.5004411 L237.225528,89.1441082 C237.529937,86.5777575 237.030571,83.9457955 235.867758,81.9878376 C235.485377,81.3559878 235.054476,80.79219 234.583779,80.3078595 L232.945599,79.4787793 L232.192921,79.4787793 L230.495708,80.0460447 C229.314306,80.9245406 228.447826,82.5157843 228.119609,84.4096243 C227.841418,86.3073523 228.108663,88.2906466 228.857528,89.8859167 L228.857528,89.8859167 Z" id="Shape-1257"></path>
                            <path d="M256.727819,57.4734253 C256.828415,58.3926315 257.070607,59.254543 257.431449,59.9775029 L259.421024,57.1355736 C259.421024,57.1355736 259.421024,57.1355736 259.421024,57.0362054 L259.518077,56.4797437 L256.97045,55.3270731 L256.776345,56.4399965 L256.727819,57.4734253 Z" id="Shape-1258"></path>
                            <path d="M253.774172,72.6390882 L254.225896,74.0784531 L255.113211,75.3926558 L256.097324,76.1019081 L257.033038,76.3522324 L258.178481,76.1227684 C259.210113,75.5101788 259.957617,74.3039348 260.195106,72.8685522 C260.381919,71.6276413 260.107107,70.3453307 259.452988,69.4057324 C258.801225,68.4428909 257.8438,67.92002 256.855575,67.9872278 C255.753233,68.0644175 254.737965,68.7860549 254.096832,69.9481017 L253.741906,71.3874666 L253.774172,72.6390882 Z" id="Shape-1260"></path>
                            <path d="M233.511844,283.752141 L233.891188,283.614689 C234.277898,283.290128 234.551135,282.709692 234.635287,282.034001 C234.705794,281.323836 234.559941,280.602882 234.241352,280.086777 C233.92901,279.510209 233.482062,279.155197 233.001188,279.101711 L232.621843,279.26207 C232.226016,279.586206 231.946483,280.177038 231.863154,280.865667 C231.836759,282.362924 232.561021,283.630939 233.511844,283.752141 L233.511844,283.752141 Z" id="Shape-1261"></path>
                            <path d="M351.232777,180.623803 L351.522332,180.623803 L351.956665,178.422539 L351.482848,177.359006 C351.179237,176.544809 350.694747,176.034954 350.166688,175.973941 C349.766482,176.015912 349.398265,176.398308 349.166407,177.01274 L349.166407,178.397805 C349.586032,179.795428 350.378943,180.64959 351.232777,180.623803 Z" id="Shape-1262"></path>
                            <path d="M241.876213,89.8480219 L241.287134,91.3993261 L241.287134,92.8248488 L241.728943,94.4809708 L242.874374,96.1370928 L243.921624,96.8708178 L244.887058,97.0804535 L246.048852,96.8288906 C246.933033,96.2329158 247.556287,95.1521554 247.741177,93.8942958 C247.926068,92.6364363 247.65234,91.3392767 246.997923,90.3721112 C246.38061,89.4173221 245.488122,88.8229769 244.523465,88.7242664 C243.558808,88.625556 242.603996,89.0308725 241.876213,89.8480219 Z" id="Shape-1263"></path>
                            <path d="M222.579147,188.269226 L222.579147,188.269226 L224.113845,188.770435 C224.364585,187.239632 224.120988,185.612694 223.462322,184.419036 C222.608992,183.123177 221.445369,182.460368 220.262621,182.596461 L219.784837,182.596461 L218.337009,183.849481 L217.699964,185.580928 L217.801312,188.292009 C220.030968,193.076269 222.144798,191.937159 223.027974,191.230911 L222.275103,188.952692 L222.579147,188.269226 Z" id="Shape-1264"></path>
                            <path d="M235.776163,170.044188 C234.937461,170.524411 234.28241,171.424417 233.958725,172.541254 C233.635041,173.658091 233.669977,174.89772 234.055656,175.980604 L235.022417,177.560801 L236.169422,178.265484 L236.939554,176.130082 L236.939554,176.130082 L238.463433,174.976966 L240.249484,174.976966 L240.249484,173.674371 L239.807067,172.222298 L238.889463,170.855641 L237.88993,170.129604 L236.939554,169.89471 L235.776163,170.044188 Z" id="Shape-1265"></path>
                            <path d="M226.375698,104.669117 L226.375698,103.582991 L225.710271,101.0274 L225.407804,100.494986 C224.522702,99.0357928 223.23167,98.1889368 221.86894,98.1736574 C220.346082,98.1957917 218.907551,99.1619085 217.936869,100.814434 L217.074838,103.77466 L217.074838,105.095049 L218.103226,108.672876 C219.10676,110.442256 220.676458,111.379289 222.27727,111.164576 C223.930892,110.809987 225.349476,109.315752 226.058108,107.182114 L226.375698,104.669117 Z" id="Shape-1267"></path>
                            <path d="M286.26299,269.120292 C286.492029,269.598013 286.906659,269.904894 287.365482,269.936282 C287.988335,269.849746 288.554226,269.46034 288.930749,268.859176 L289.053248,267.961587 C288.998485,267.817977 288.924969,267.685758 288.835472,267.569913 C288.386309,266.949761 287.801035,267.01504 287.106873,267.73311 C287.030992,267.817792 286.949006,267.894249 286.861875,267.961587 C286.949944,267.924254 287.046026,267.924254 287.134095,267.961587 L286.26299,269.120292 Z" id="Shape-1271"></path>
                            <path d="M256.501783,172.375006 C257.770891,172.66555 258.240287,172.12078 258.483677,171.775759 C258.76074,171.244258 258.683903,170.587605 258.292442,170.141449 C257.977207,169.753458 257.479191,169.584748 257.005949,169.705633 C256.588708,169.814587 256.067157,170.195926 255.858537,171.358102 L256.501783,172.375006 Z" id="Shape-1274"></path>
                            <path d="M332.683481,129.517746 L333.497251,129.517746 L333.897677,128.993402 L333.897677,127.738722 L333.355164,126.839847 L332.528477,126.727488 C332.253739,126.980502 332.073159,127.400757 332.037631,127.869808 C332.031118,128.548174 332.278189,129.178595 332.683481,129.517746 Z" id="Shape-1276"></path>
                            <path d="M330.466693,54.3800199 L331.388853,54.7054705 C331.587688,54.7194005 331.785108,54.6488972 331.958423,54.5020639 L332.188963,53.0985585 C332.199486,52.8066062 332.15231,52.5164919 332.053351,52.2645915 L331.131191,51.9188003 C330.928007,51.9043104 330.726131,51.9747283 330.54806,52.1222069 L330.331081,53.5257123 C330.323232,53.8237414 330.370144,54.1192735 330.466693,54.3800199 L330.466693,54.3800199 Z" id="Shape-1278"></path>
                            <path d="M250.549466,34.9807274 L251.793519,36.3280213 L253.092457,36.8179464 L253.33029,36.8179464 C255.002931,37.6572641 256.974051,36.9852292 257.940603,35.2461035 L258.416271,33.7967418 L258.416271,32.5106886 L257.922308,31.0613269 L256.092819,28.7954235 L254.921946,28.0809495 L253.842547,27.8768141 L252.54361,28.1217766 C251.461262,28.7330858 250.642139,29.8008474 250.267805,31.0883857 C249.893472,32.375924 249.994849,33.7768814 250.549466,34.9807274 L250.549466,34.9807274 Z" id="Shape-1280"></path>
                        </g>
                    </g>
                </g>
                <path d="M564,149.017192 C616.541464,208.250315 683.731422,257.541788 765.569875,296.891613 C847.408327,336.241437 952.885035,361.283297 1082,372.017192 L564,372.017192 L564,149.017192 Z" id="Rectangle" stroke="none" fill="url(#linearGradient-9)" fill-rule="evenodd" mask="url(#mask-5)" transform="translate(823.000000, 260.517192) scale(-1, 1) translate(-823.000000, -260.517192) "></path>
                <path d="M877.220779,274 L877.220779,257.103074 L890,257.103074 L890,240.746233 L877.220779,240.746233 L877.220779,146 L800,257.103074 L859.064935,257.103074 L859.064935,274 L877.220779,274 Z M858.561003,239.452752 L830.561003,239.452752 L858.561003,200.452752 L858.561003,239.452752 Z" id="4" stroke="none" fill="url(#linearGradient-10)" fill-rule="nonzero" mask="url(#mask-5)" transform="translate(845.000000, 210.000000) rotate(-345.000000) translate(-845.000000, -210.000000) "></path>
            </g>
        </g>
    </g>
</svg>