<?xml version="1.0" encoding="UTF-8"?>
<svg width="349px" height="160px" viewBox="0 0 349 160" version="1.1" xmlns="http://www.w3.org/2000/svg" xmlns:xlink="http://www.w3.org/1999/xlink">
    <title>Img/Card/Event-04</title>
    <defs>
        <rect id="path-1" x="0" y="0.464127219" width="349" height="160"></rect>
        <linearGradient x1="84.0811127%" y1="51.6814197%" x2="9.90201813%" y2="47.4037248%" id="linearGradient-3">
            <stop stop-color="#FE9499" offset="0%"></stop>
            <stop stop-color="#FF7F9C" offset="100%"></stop>
        </linearGradient>
        <rect id="path-4" x="0" y="0.464127219" width="1061" height="353" rx="16"></rect>
        <filter x="-0.0%" y="-0.1%" width="100.1%" height="100.3%" filterUnits="objectBoundingBox" id="filter-6">
            <feGaussianBlur stdDeviation="0.5" in="SourceAlpha" result="shadowBlurInner1"></feGaussianBlur>
            <feOffset dx="0" dy="0" in="shadowBlurInner1" result="shadowOffsetInner1"></feOffset>
            <feComposite in="shadowOffsetInner1" in2="SourceAlpha" operator="arithmetic" k2="-1" k3="1" result="shadowInnerInner1"></feComposite>
            <feColorMatrix values="0 0 0 0 1   0 0 0 0 1   0 0 0 0 1  0 0 0 0.1 0" type="matrix" in="shadowInnerInner1"></feColorMatrix>
        </filter>
        <linearGradient x1="31.1258397%" y1="47.1092949%" x2="4.35790145%" y2="51.4607065%" id="linearGradient-7">
            <stop stop-color="#FEC99F" offset="0%"></stop>
            <stop stop-color="#FE9FA0" offset="100%"></stop>
        </linearGradient>
        <linearGradient x1="63.0892818%" y1="48.9257122%" x2="28.3265098%" y2="51.6670352%" id="linearGradient-8">
            <stop stop-color="#EA81A5" offset="0%"></stop>
            <stop stop-color="#AD85C0" offset="100%"></stop>
        </linearGradient>
        <filter id="filter-9">
            <feColorMatrix in="SourceGraphic" type="matrix" values="0 0 0 0 1.000000 0 0 0 0 0.498767 0 0 0 0 0.397085 0 0 0 1.000000 0"></feColorMatrix>
        </filter>
        <filter id="filter-10">
            <feColorMatrix in="SourceGraphic" type="matrix" values="0 0 0 0 0.966344 0 0 0 0 0.817740 0 0 0 0 1.000000 0 0 0 1.000000 0"></feColorMatrix>
        </filter>
    </defs>
    <g id="Img/Card/Event-04" stroke="none" stroke-width="1" fill="none" fill-rule="evenodd">
        <g id="Group-4" transform="translate(0.000000, -0.464127)">
            <mask id="mask-2" fill="white">
                <use xlink:href="#path-1"></use>
            </mask>
            <g id="Image"></g>
            <g id="Group-3" mask="url(#mask-2)">
                <g transform="translate(0.000000, -105.000000)">
                    <mask id="mask-5" fill="white">
                        <use xlink:href="#path-4"></use>
                    </mask>
                    <g id="Rectangle" stroke="none" fill="none">
                        <use fill="url(#linearGradient-3)" fill-rule="evenodd" xlink:href="#path-4"></use>
                        <use fill="black" fill-opacity="1" filter="url(#filter-6)" xlink:href="#path-4"></use>
                    </g>
                    <path d="M0,150.042032 C84.46196,176.382783 147.361423,184.921467 188.698388,175.658087 C267.955815,157.896945 340.128673,26 429.916946,26 C574.801211,26 765.983853,224.48669 918.056075,224.48669 C957.313238,224.48669 1004.96121,212.82446 1061,189.5 L1061,353 L0,353 L0,150.042032 Z" id="Rectangle" stroke="none" fill="url(#linearGradient-7)" fill-rule="evenodd" mask="url(#mask-5)"></path>
                    <path d="M0,213.321385 C57.4656356,234.375694 147.10788,244.902848 268.926733,244.902848 C291.094136,244.902848 351.842463,240.019856 387.632673,213.321385 C465.946865,154.901242 539.357823,47.4604618 636.582654,49.4925456 C781.166746,52.5144791 842.115171,165.604457 918.056075,203.354704 C959.776777,224.094078 1007.42475,238.350084 1061,246.122721 L1061,353.464127 L0,353.464127 L0,213.321385 Z" id="Rectangle" stroke="none" fill="url(#linearGradient-8)" fill-rule="evenodd" mask="url(#mask-5)"></path>
                    <g filter="url(#filter-9)" fill="none" fill-opacity="0.6" fill-rule="evenodd" id="Group" stroke="none" stroke-width="1">
                        <g mask="url(#mask-5)">
                            <g transform="translate(241.000000, 84.464127)" fill="#FFFFFF" fill-rule="nonzero">
                                <path d="M47.3938264,38.0985927 L46.6795405,38.1928957 L45.8076505,38.7773702 C45.4142365,39.1781793 45.2376148,39.7454271 45.3361932,40.2915275 C45.4526133,40.8255708 45.8211429,41.2612073 46.3229317,41.457945 L46.8606903,41.5226358 L47.3081294,41.4614512 L47.3485467,41.3716402 C47.4895858,41.5292389 47.6609614,41.6559441 47.8526629,41.7443546 C48.6220412,42.0340603 49.5011184,41.789041 50.0372465,41.13546 L50.1099976,40.9738002 L50.3848349,40.3630853 L50.3955354,39.8727737 L50.2310171,39.3052811 C49.8021486,38.5759607 48.9631899,38.2064137 48.1283907,38.3791101 L47.3938264,38.0985927 Z" id="Path"></path>
                                <path d="M55.501554,47.9410591 L55.6451384,48.9500018 L55.785416,49.0117917 C55.9094248,49.3139093 56.1599109,49.5777637 56.4822641,49.74583 L56.6693009,49.8282165 L56.6693009,49.8282165 L56.8907101,49.8342245 L57.0465741,49.9028799 L57.0465741,49.9028799 L57.7788759,49.9356362 C57.9980425,49.7137885 58.0992054,49.4148147 58.0618531,49.0993335 C57.9982154,48.7301184 57.7766913,48.3760539 57.4426779,48.1096987 C56.8736892,47.621541 56.027268,47.5480063 55.501554,47.9410591 L55.501554,47.9410591 Z" id="Path"></path>
                                <path d="M41.4515748,61.9506821 L40.7752383,62.4245662 C39.9025825,63.3755994 39.4682586,64.7429084 39.66405,65.9227336 L40.6785275,66.3695935 L41.4772429,66.0525218 L42.1278173,65.4643835 L42.3725904,65.1348493 C42.844062,64.6426893 43.1493373,63.9643384 43.2035479,63.2883821 C43.236146,62.7215256 43.0597292,62.2210153 42.7204906,61.9179056 L42.1246864,61.655464 L41.4515748,61.9506821 Z" id="Path"></path>
                                <path d="M73.5156322,25.1517992 C73.258306,25.1687114 73.0184254,25.2864648 72.8491573,25.4789604 L72.7928841,25.6040049 L72.8266358,26.1539857 C73.0204742,26.3547393 73.2864305,26.4718885 73.5669301,26.4800727 C73.8225901,26.4571911 74.0603401,26.3404837 74.2334049,26.1529115 L74.2896781,26.027867 L74.2739824,25.4858395 C74.0771168,25.2778132 73.8036203,25.1573426 73.5156322,25.1517992 Z" id="Path"></path>
                                <path d="M7.8263542,59.8827611 L7.14300881,61.4012202 L7.31409084,61.8911396 L7.08751211,62.6665193 C7.58970461,63.5506224 8.4975296,64.164829 9.52635908,64.3165686 C10.2679735,64.4173121 11.0154236,64.2958062 11.6650846,63.9688961 C12.4374266,63.6122117 13.0139075,62.9655958 13.2628191,62.1767803 C13.5117306,61.3879649 13.4118059,60.5243457 12.9858748,59.7832332 L12.2710414,59.4683613 L11.1933836,58.7633599 C10.1451219,58.5245662 9.05681883,58.7246313 8.2052714,59.3126708 L7.96307303,59.8508588 L7.8263542,59.8827611 Z" id="Path"></path>
                                <path d="M23.9705045,67.6280369 L23.9705045,67.6280369 C23.1389075,67.4191409 22.2570582,67.672533 21.6645763,68.2906263 L21.4544653,68.7575132 L21.2808954,69.1432023 L21.2320935,69.6324963 C21.2563103,70.025023 21.3581721,70.408749 21.5318726,70.7618015 L21.7217891,71.2103067 L22.0638794,71.7015186 L22.4494825,72.0416337 L23.0012029,72.2846571 C24.0736574,72.4115146 25.1313387,71.9427829 25.7537969,71.0647923 C26.3233698,70.3377077 26.3834018,69.3389494 25.9047711,68.5530184 L25.5831149,68.0708073 L24.8883559,67.7647779 L24.2726887,67.6638505 L23.9705045,67.6280369 Z" id="Path"></path>
                                <path d="M0.64582925,63.6646727 L0.0830158708,64.9152981 L0,65.4826182 L0.28331051,66.8151861 C0.61554814,67.3620388 1.11550091,67.7783529 1.70891132,68.0022938 C2.49364197,69.1753368 4.04155596,69.5189951 5.29210359,68.797812 C5.74025408,68.5382141 6.11692333,68.1637307 6.38338089,67.7128675 C6.8797655,66.8351625 6.86230491,65.7646797 6.33818404,64.9419172 L6.33818404,64.9419172 L5.63721013,64.6331501 L5.55222201,64.4391509 C5.12203755,63.6025694 4.32980163,63.0306379 3.40650031,62.8901099 C2.43391808,62.7037941 1.41537372,62.9895676 0.64582925,63.6646727 L0.64582925,63.6646727 Z" id="Path"></path>
                                <path d="M10.9527795,73.8500592 L10.9527795,73.8500592 L9.08366622,74.5616458 C8.77867243,73.7397288 8.77855087,72.8234953 9.08332385,71.9810849 C8.88253975,71.3999004 8.84665558,70.7678277 8.97970111,70.1558476 L8.97970111,70.1558476 C8.98892119,70.4551763 9.06361142,70.7464517 9.19833726,71.0084802 L9.2596732,69.0557002 L9.68362605,68.3526476 L10.7059065,67.8019235 L10.6303608,67.6351775 L11.194916,67.5279357 L11.5619842,67.3337044 L11.5118563,67.4450934 L12.2091957,67.3296061 L12.8254766,67.4898427 L14.0061302,68.4992886 C14.3874372,69.2942553 14.3840257,70.235578 13.9968739,71.0533766 C14.2728817,71.305413 14.510866,71.5975032 14.7036293,71.9208131 L14.844049,73.4730749 L14.5767002,74.0671496 L13.6340514,75.2535628 C12.7111402,76.0006301 11.5198605,76.2934835 10.3928353,76.050354 L9.65301506,75.5910063 L9.37998236,75.3372706 L8.90662069,74.57264 L10.9527795,73.8500592 Z M13.7055987,69.3901757 L13.5561697,71.1562889 L14.3662475,71.9056717 C14.2334201,70.9827524 13.9071214,70.0828298 13.4063759,69.2583732 L13.7055987,69.3901757 Z" id="Shape"></path>
                                <path d="M34.3947296,59.1014784 L34.388847,59.9655746 L34.539638,60.3471545 L34.9862723,60.8327851 L35.6423428,61.1217729 C35.8906811,61.161245 36.1560784,61.124915 36.4156316,61.0159182 L37.0833955,60.3383164 L37.5765876,59.2423964 C37.6774092,58.7205592 37.6304358,58.2093121 37.4433006,57.7917333 L37.4433006,57.7917333 L36.8800578,57.3860549 L36.3498498,57.3100869 L35.7012757,57.4971396 L35.1716056,57.8678838 L34.6384203,58.6047652 L34.3947296,59.1014784 Z" id="Path"></path>
                                <path d="M78.6616815,38.8524187 L78.9665275,39.13653 C79.3730465,39.241521 79.8055923,39.1331491 80.1126016,38.8493877 C80.3177606,38.5536141 80.2653005,38.1525192 79.9908029,37.9181508 L79.4309408,37.8641821 L79.2582928,37.95937 C78.8582476,38.0628618 78.6011245,38.4477414 78.6616815,38.8524187 L78.6616815,38.8524187 Z" id="Path"></path>
                                <path d="M87.4338365,93.6951254 C87.2186289,93.6548087 86.9976569,93.7275219 86.8497298,93.887332 L86.7309948,94.3915496 L86.7309948,94.3915496 C86.9450364,94.760661 87.3758159,94.950412 87.7962963,94.8607967 L88.1178575,94.1462568 C87.977989,93.8943974 87.7226239,93.7259768 87.4338365,93.6951254 L87.4338365,93.6951254 Z" id="Path"></path>
                                <path d="M18.4230445,52.8081316 L18.4230445,52.8081316 L18.1969626,52.7085464 C17.6270888,52.588604 17.0444466,52.6980667 16.5940798,53.0096847 C16.1429228,53.3144804 15.9112764,53.8292209 15.9842117,54.3648703 C15.7265636,54.8631433 15.7609241,55.4646717 16.0757486,55.9673488 L16.2477915,56.1870137 L16.5517155,56.46477 L16.9473588,56.6390441 C17.3648545,56.7911459 17.8083783,56.8528506 18.2432854,56.8193382 C17.9833367,56.9841673 17.778977,57.2132793 17.6509701,57.4833954 C17.4198498,58.0006654 17.4749023,58.6057748 17.7990275,59.1107701 C18.1012805,59.627944 18.6289505,60.0038909 19.2349234,60.1337973 C19.9105555,60.2269011 20.5706874,60.0013372 20.9956036,59.5321812 L21.1963197,59.0861708 C21.3275111,58.627418 21.2515186,58.1269781 20.9855846,57.6983988 C20.883856,57.4907585 20.7210669,57.311863 20.5173375,57.1838233 L20.0104912,56.755019 L19.5206472,56.5392511 L19.4264464,56.4977573 L19.608966,56.3931616 L19.8798044,56.1424765 L20.0573609,55.7479288 L20.2271976,55.3705354 L20.2812366,55.2504556 L20.6517894,54.4270517 C20.6940576,54.173997 20.6731195,53.9116453 20.5905812,53.660121 L20.0701331,53.0608877 L19.2223261,52.6874432 C18.9459144,52.6707047 18.6728162,52.7119415 18.4230445,52.8081316 L18.4230445,52.8081316 Z" id="Path"></path>
                                <path d="M53.0183809,70.1713274 C53.1215692,70.1695997 53.2187156,70.2123911 53.2864643,70.2894136 C53.3511128,69.9434504 53.2297595,69.5976064 52.9698164,69.3870011 L52.4721781,69.4221114 L52.3766649,69.634351 L52.3289083,69.7404707 C52.3289083,69.7404707 52.3289083,69.7404707 52.1885798,69.7846216 L51.9573522,69.8523108 L51.6867314,70.4536562 L51.9983613,71.0995468 L52.6962257,71.1102475 C52.7561362,71.1247804 52.8127735,71.1497282 52.8637778,71.1840513 C53.0554186,71.2753151 53.2855484,71.2458647 53.4602747,71.107716 C53.6382551,70.9955571 53.7339016,70.7830213 53.6990578,70.5771171 L53.0183809,70.1713274 Z" id="Path"></path>
                                <polygon id="Path" points="42.2960679 50.8606269 42.2920646 51.6661209 42.4271997 51.9947313 42.9179446 52.4555196 43.4270887 52.5819395 44.1120966 52.4433516 44.7748234 51.9769387 45.2722243 51.2909285 45.4848623 50.6507216 45.4888655 49.8452276 45.362918 49.4962017 44.872173 49.0354135 44.3472825 48.9020576 43.653087 49.0610609 43.0152942 49.5139944 42.5178934 50.2000045"></polygon>
                                <path d="M41.3424426,40.1126464 L41.3360387,40.8809212 L41.4679364,41.2580939 L41.6927267,41.5964158 L41.9916609,41.7280912 L42.3535287,41.8874878 C42.8871792,41.9713515 43.4941382,41.6675822 43.9442982,41.0913437 C44.3944582,40.5151052 44.6189033,39.7546148 44.5325431,39.0981862 L44.1501354,38.397952 L43.3477328,38.0445074 C42.8901334,38.0196723 42.3934237,38.2437186 41.9758235,38.663322 L41.5576199,39.3831536 L41.3424426,40.1126464 Z" id="Path"></path>
                            </g>
                        </g>
                    </g>
                    <g filter="url(#filter-10)" fill="none" fill-opacity="0.6" fill-rule="evenodd" id="Group-2" stroke="none" stroke-width="1">
                        <g mask="url(#mask-5)">
                            <g transform="translate(53.980672, 247.410051) rotate(52.000000) translate(-53.980672, -247.410051) translate(-18.049556, 196.410547)" fill="#FFFFFF" fill-rule="nonzero">
                                <path d="M2.94722222,13.9308091 L2.33270841,13.2916525 C2.41498405,13.2725124 2.50182479,13.2725124 2.58410043,13.2916525 C2.48092679,13.0366612 2.22563287,12.8473471 1.91372172,12.7945306 L1.18747813,13.2206351 L1.18747813,13.3626699 C1.04302066,13.5698722 0.97493124,13.8089362 0.991951009,14.0491714 C0.979226207,14.1514687 0.979226207,14.2546162 0.991951009,14.3569135 L1.63439726,14.7593455 L2.16511374,14.7593455 L2.7516951,14.2858961 C2.84686723,14.1811484 2.91362662,14.05991 2.94722222,13.9308091 L2.94722222,13.9308091 Z" id="Path" transform="translate(1.964815, 13.776938) rotate(-66.000000) translate(-1.964815, -13.776938) "></path>
                                <path d="M55.6248071,87.6688655 L56.1452152,88.0941343 C56.083574,88.0942932 56.0247979,88.0681244 55.98367,88.0222097 C56.124681,88.203523 56.3469058,88.3024639 56.5760027,88.2859332 L57.005204,87.8533062 L57.0531537,87.7456094 C57.1250075,87.5507543 57.1369569,87.338865 57.0874665,87.1371667 L57.0157953,86.9116885 L56.5132099,86.6879231 L56.1480683,86.7834424 L55.816606,87.2380781 C55.7024328,87.3535849 55.6342486,87.506729 55.6248071,87.6688655 L55.6248071,87.6688655 Z" id="Path"></path>
                                <path d="M59.7481556,47.5171004 L60.0390263,48.1197711 L60.3800663,48.2716119 L60.7711491,48.1661346 C60.986437,48.0266226 61.0992255,47.7732954 61.0588474,47.5199535 C60.9558587,47.2943814 60.7628788,47.1224245 60.5269723,47.0460205 C60.2910658,46.9696164 60.0339171,46.9957881 59.8182406,47.1181528 C59.6816658,47.2340616 59.6052091,47.4057862 59.6104585,47.5848392 L59.7878603,47.8143766 C59.7170182,47.7318483 59.7014555,47.6153278 59.7481556,47.5171004 L59.7481556,47.5171004 Z" id="Path"></path>
                                <path d="M46.1419164,88.9804848 C45.9690138,89.1194877 45.8737893,89.3333654 45.8861845,89.5548681 L46.2130808,89.9800102 L46.2130808,89.9800102 C46.6248583,90.0845881 47.0572028,89.9126224 47.2846575,89.5537887 L46.9020731,88.8672694 C46.716553,88.8491932 46.387437,88.7671841 46.1419164,88.9804848 Z" id="Path"></path>
                                <path d="M20.3313595,72.4980721 C20.3115676,72.8007433 20.435568,73.0950438 20.6659941,73.2922883 C20.9744693,73.4660878 21.3543006,73.4524687 21.6495363,73.2570228 L21.8333436,72.8441848 C21.8176137,72.4930602 21.658288,72.0780026 20.8842409,72.0774959 L20.8842409,72.0774959 L20.3313595,72.4980721 Z" id="Path"></path>
                                <path d="M60.3123175,40.702133 L60.3922337,40.5226382 L59.7841711,39.9077901 L59.2973157,40.0351493 C58.9493582,40.0805076 58.6427746,40.2863291 58.46904,40.591203 C58.3642239,40.8415793 58.3802184,41.1262259 58.5124239,41.3632838 L58.9611608,41.5630744 C59.5324264,41.5362376 60.046653,41.2085784 60.3123175,40.702133 Z" id="Path"></path>
                                <path d="M51.410704,90.3652523 C51.7132689,90.3501379 51.9858483,90.1777542 52.1291899,89.9108701 C52.2635182,89.5193498 52.2379917,89.0906465 52.0581521,88.7178329 L51.6094152,88.5180424 C51.5214921,88.5175752 51.4336008,88.5215126 51.3460717,88.5298398 C50.9210563,88.6632243 50.7791733,89.0302055 50.874566,89.5888589 L50.9183299,89.7804044 C50.9263541,89.7207834 50.9513167,89.6647165 50.9902545,89.6188591 L51.410704,90.3652523 Z" id="Path"></path>
                                <path d="M27.4116881,79.8189126 L27.6400128,80.5568881 L27.8717413,80.8127768 L28.4326624,81.062515 L29.1449042,80.9723814 C29.3974175,80.8998173 29.6456518,80.7678533 29.8744786,80.5845318 L30.2622377,79.7136104 L30.4342947,78.5939358 C30.3888294,78.1097484 30.2013511,77.694101 29.9027762,77.4155366 L29.8226446,77.3798598 L29.1634681,77.2645447 L28.6464309,77.3906834 L28.0545246,77.8143741 L27.6549341,78.3236893 L27.2955476,79.1308847 L27.4116881,79.8189126 Z" id="Path"></path>
                                <path d="M65.571357,53.0937157 L65.948296,53.2615398 C66.3609163,53.2270516 66.7277671,52.9853348 66.9222604,52.6197979 C67.0226532,52.2709934 66.8427403,51.9028099 66.50587,51.7676741 L65.9571745,51.8890079 L65.8772583,52.0685026 C65.6217798,52.2558623 65.2524523,52.6506241 65.571357,53.0937157 Z" id="Path"></path>
                                <path d="M66.8385672,32.1032226 C66.7061254,32.6347071 66.9615743,33.1905632 67.4259437,33.3813524 C67.6885288,33.499983 67.9838072,33.4898221 68.2393258,33.3533629 C68.4948444,33.2169036 68.6869548,32.9667754 68.7685185,32.6643527 L68.4888154,31.7603097 C68.1343777,31.4970973 67.691639,31.4282441 67.2860921,31.5732664 L66.8385672,32.1032226 Z" id="Path" transform="translate(67.786111, 32.481144) rotate(-66.000000) translate(-67.786111, -32.481144) "></path>
                                <path d="M48.7917543,83.0455231 C48.8943558,83.0463319 48.9907959,83.0892698 49.0600508,83.1649764 C49.0096068,82.8197222 48.7804661,82.5384275 48.4624322,82.4313357 L48.0026589,82.6516894 L47.8526161,82.9886911 L47.7973371,83.1128496 L47.617756,83.2454239 L47.5416092,83.9128668 L48.0672809,84.4019457 L48.7342245,84.1675657 C48.7342245,84.1675657 48.8348356,84.2123606 48.9246262,84.1460735 C49.138542,84.1692073 49.3525076,84.0690368 49.4830616,83.8846354 C49.578647,83.6960922 49.5704025,83.4727945 49.4615209,83.3012166 L48.7917543,83.0455231 Z" id="Path"></path>
                                <path d="M40.3665326,56.3953696 L40.961208,56.508911 C41.1986893,56.3557627 41.2724243,56.0750937 41.1469535,55.8018789 L41.1844142,55.7177407 C41.2000821,55.6577814 41.2252611,55.6012285 41.2593357,55.5494644 C41.5205325,55.3046067 41.4800316,54.8941332 41.1656948,54.6004219 L40.5944314,54.5309098 C40.2326253,54.684049 39.9988966,54.9790278 39.9550349,55.3378645 C39.9111732,55.6967011 40.0615944,56.0832676 40.3665326,56.3953696 L40.3665326,56.3953696 Z" id="Path"></path>
                                <path d="M92.3346579,32.4329976 C92.0510134,32.739671 92.0568368,33.2146517 92.3479148,33.5142787 L93.014265,33.4668358 L93.0622147,33.3591389 L92.7870739,33.1075929 L93.1460634,33.2674253 C93.4374151,33.0350603 93.5193498,32.6267771 93.3402086,32.2999931 L92.9632696,32.132169 C92.7230101,32.1485126 92.4981036,32.2561439 92.3346579,32.4329976 Z" id="Path"></path>
                                <path d="M13.3865238,75.100139 L14.7748787,74.3132525 L15.1738418,73.8368204 L15.8309265,72.3609839 L15.8487232,71.7148455 L15.415168,70.3105886 C14.9299232,69.695549 14.2044625,69.3725531 13.4227068,69.4234877 C12.6576577,69.5056425 11.9206052,69.930599 11.3838272,70.5990283 L11.0015133,71.1313221 L10.640996,72.5938519 L10.6848543,73.1947673 L11.2250703,74.4527165 L11.5002526,74.7205827 L12.8536908,75.1778251 L13.3865238,75.100139 Z" id="Path"></path>
                                <path d="M74.1407805,11.8505881 L73.4972931,11.8505881 C73.1507999,12.0772975 72.6310601,12.4047667 72.7053086,12.9589452 C72.7795572,13.5131237 73.3735455,13.7398331 73.5715417,13.8154029 L74.2645281,13.4879338 C74.3073855,13.3867564 74.3658738,13.2932107 74.4377747,13.2108445 C74.5981483,13.0234295 74.6783363,12.7785848 74.6605204,12.5307163 C74.5871333,12.2406111 74.3989789,11.9943934 74.1407805,11.8505881 L74.1407805,11.8505881 Z" id="Path" transform="translate(73.680556, 12.832996) rotate(-66.000000) translate(-73.680556, -12.832996) "></path>
                                <path d="M61.0900999,47.5951144 L61.5111823,47.7825924 L61.8927074,47.7498507 L61.8375389,46.6031537 L61.8375389,46.6031537 C61.8505089,46.5471825 61.8741152,46.4941619 61.9070313,46.4470713 L60.9832969,45.3968051 C60.5871113,45.7065651 60.3692905,46.1957986 60.4041938,46.6974918 C60.4971468,47.0826452 60.7459902,47.4082984 61.0900999,47.5951144 Z" id="Path"></path>
                                <path d="M22.2626724,80.3661097 L22.9013335,80.4070911 L24.3685966,79.9043567 L24.4364185,79.7520263 C24.9239236,79.2794612 25.2026939,78.653333 25.2276735,77.9748383 L25.4612822,77.4501447 L25.4930386,76.9572651 L25.1649571,75.797157 C24.5620602,74.9027897 23.4331197,74.400153 22.3650585,74.5505618 C21.8374945,74.5712345 21.3411634,74.7214794 20.9279384,74.9855938 C20.1448309,74.9539485 19.4168799,75.216682 18.9153382,75.7119855 L18.9874692,76.3930838 C18.780973,76.676538 18.6379411,76.9977929 18.5654665,77.3409174 L19.3257158,79.0584924 L19.6329361,79.31696 L20.4944433,79.7005278 L20.4944433,79.7005278 L22.2626724,80.3661097 Z" id="Path"></path>
                                <path d="M42.0946408,64.1731539 L42.0946408,64.1731539 L41.983705,64.625793 L41.5105703,65.4443031 L41.3269955,66.4670384 C41.3203878,66.786347 41.3822694,67.0819922 41.5066085,67.3251551 L42.0963277,67.587715 L42.8713156,67.5562387 C43.1311182,67.4958513 43.3898142,67.3507846 43.619878,67.1364738 L43.843727,66.6337007 C44.0496889,66.5001949 44.2408516,66.3202989 44.4050434,66.105467 L44.5262949,65.8331316 L44.5262949,65.8331316 C45.0944675,64.9651168 45.0923339,63.8479773 44.5214967,63.3208409 C43.809846,62.8001841 42.7481295,63.1730595 42.0946408,64.1731539 L42.0946408,64.1731539 Z" id="Path"></path>
                                <path d="M49.1887492,51.5297967 L49.6237807,50.5526999 L49.5943839,49.9124052 L48.7953636,48.4276869 C47.4432187,47.383334 45.5497687,47.3783926 44.3080868,48.4159762 L43.5312448,50.1607919 L43.6800499,51.1887607 C43.8852738,52.0869842 44.5304524,52.8575248 45.4104812,53.255425 L46.0478583,53.5392035 L46.5146577,53.6006878 C47.3377649,53.6101802 48.1107834,53.2967282 48.6527282,52.7337196 C48.933743,52.4261484 49.1528248,52.0707188 49.2998782,51.6838089 L49.1887492,51.5297967 Z" id="Path"></path>
                                <path d="M56.6709527,92.5646743 C56.706924,92.7355531 56.8123407,92.8837749 56.9619501,92.9738332 L57.2592262,92.9341285 C57.198086,92.9320194 57.1401591,92.9062287 57.097681,92.8622039 L57.7679637,92.9025421 L58.0195097,92.6274012 L58.1873338,92.2504622 C58.1396354,92.0014455 57.9470359,91.8054449 57.6988921,91.7533955 C57.4510478,91.6983509 57.1915888,91.757679 56.9922965,91.9149662 C56.7930041,92.0722533 56.675008,92.3108235 56.6709527,92.5646743 L56.6709527,92.5646743 Z" id="Path"></path>
                                <path d="M81.9079575,56.90516 C81.6987268,56.8123897 81.453327,56.8701051 81.3073798,57.0464095 L81.1954971,57.2977022 C81.1313107,57.8283215 81.4044853,58.035977 81.5301317,58.0919184 C81.9043624,58.2031039 82.3086894,58.0772884 82.5537586,57.7733937 C82.7524501,57.5867996 82.8132276,57.2958622 82.7058528,57.0453301 C82.6102067,56.8737003 82.40883,56.6980113 81.9699242,56.7176736 L81.9079575,56.90516 Z" id="Path"></path>
                                <path d="M21.064924,60.4911225 L20.6297263,59.3048502 C20.0627834,58.5274541 19.1787178,58.0576252 18.2201644,58.0243095 C17.3106329,58.0062427 16.4342003,58.4160954 15.8433947,59.135776 L15.4981007,59.5590818 L15.1174815,60.866843 L15.1445905,61.4097901 L15.5899091,62.6236501 C16.1638674,63.3832376 17.0406166,63.8410632 17.9893502,63.8766031 C18.8922652,63.893723 19.7631774,63.492061 20.3575434,62.7843997 L20.7114138,62.3418308 L21.0834566,61.0533327 L21.064924,60.4911225 Z" id="Path"></path>
                                <path d="M41.9550459,76.5894376 L41.6799224,76.9222966 C41.1105698,77.6515944 40.958395,78.6657384 41.316985,79.3410335 C41.6801865,80.0794652 42.476676,80.2908717 43.2466601,79.8532455 L43.5373354,79.5923609 L43.7456922,79.3381926 L43.9068315,78.976268 C44.2059547,78.2173932 44.2101528,77.4094912 43.918073,76.8129309 C43.6332106,76.3349914 43.1397704,76.1152977 42.593982,76.2234076 L41.9550459,76.5894376 Z" id="Path"></path>
                                <path d="M29.9187931,60.3764669 L28.9080582,60.03905 L28.2878357,60.0781648 L26.9165391,60.7511646 L26.383362,61.3469543 L25.7809264,62.7000469 L25.7972378,63.3153021 L26.3291461,64.6780356 C26.9506321,65.3728592 27.8378166,65.7678591 28.7700264,65.7648034 C29.6668627,65.7636291 30.5280718,65.4008147 31.160848,64.7575686 L31.6343304,64.0451281 L31.7933065,63.688062 L31.9314007,62.8262971 C31.881071,61.6087207 31.0930698,60.5516202 29.9465667,60.16365 L29.9187931,60.3764669 Z" id="Path"></path>
                                <path d="M29.664916,78.2945736 L29.0687685,78.7134836 L28.6837157,79.2019386 L28.338623,79.9770296 L28.2863573,80.6380914 L28.5099676,81.3486598 L28.9759517,81.8494144 L29.5353731,82.0984848 L30.0548343,82.0609192 L30.7040583,81.6900808 L30.7948722,81.4861095 C31.1652522,81.028608 31.380738,80.4377882 31.3853627,79.8670999 C31.3752223,79.1946826 31.1127574,78.6220862 30.667513,78.3010308 L30.0691428,78.1812618 L29.664916,78.2945736 Z" id="Path"></path>
                                <path d="M42.2686577,31.5140841 L41.5750296,32.2058794 L41.3519482,32.7069283 L41.3519482,32.7069283 C40.8742738,33.4811748 40.9542972,34.4656915 41.5394726,35.0140163 L42.0222115,35.2289455 C42.5916692,35.3344097 43.2015857,35.0883274 43.6204182,34.584119 C44.210167,33.874732 44.3598022,32.8762394 43.9921594,32.1035487 C43.6423847,31.4908725 42.9398761,31.2506036 42.2686577,31.5140841 L42.2686577,31.5140841 Z" id="Path"></path>
                                <path d="M70.3978771,27.1833761 C70.2218304,26.9339784 69.9560508,26.7271534 69.6311201,26.5866992 L68.6726739,26.5866992 L67.6902665,26.8217538 C67.403655,26.9621424 67.1521873,27.1396577 66.9474706,27.3461062 L66.8037037,28.087432 L67.163121,28.8830012 C67.3356836,29.1189784 67.5931992,29.3133 67.9059169,29.4435159 L68.840402,29.5339215 L69.8707317,29.2627047 C70.1675919,29.1389804 70.4156406,28.9580418 70.5895664,28.7383523 L70.7333333,27.9970264 L70.3978771,27.1833761 Z" id="Path" transform="translate(68.768519, 28.060310) rotate(-66.000000) translate(-68.768519, -28.060310) "></path>
                                <path d="M53.9911843,44.2294172 L53.2811107,44.3241741 L52.4143624,44.9114618 C52.0232686,45.3142001 51.8476884,45.8841781 51.9456855,46.432907 C52.061419,46.9695208 52.4277752,47.4072541 52.9266049,47.6049387 L53.4611922,47.6699409 L53.9059926,47.6084618 L53.9461715,47.5182185 C54.0863789,47.6765757 54.2567439,47.8038908 54.4473148,47.8927268 C55.212156,48.183827 56.086049,47.9376283 56.6190154,47.2809016 L56.6913374,47.1184636 L56.964554,46.5048092 L56.9751914,46.0121376 L56.8116432,45.4419136 C56.3853039,44.7090828 55.5512927,44.3377571 54.7214166,44.5112848 L53.9911843,44.2294172 Z" id="Path"></path>
                                <path d="M62.0510984,54.1192573 L62.193836,55.1330562 L62.3332864,55.1951435 C62.4565639,55.4987153 62.7055728,55.7638396 63.026025,55.9327148 L63.2119588,56.0154979 L63.2119588,56.0154979 L63.4320622,56.0215348 L63.5870071,56.0905207 L63.5870071,56.0905207 L64.3149903,56.1234347 C64.5328644,55.9005192 64.6334307,55.6001063 64.5962988,55.2831067 C64.5330364,54.9121145 64.3128186,54.5563457 63.980775,54.2887085 C63.4151418,53.7982013 62.5737121,53.7243126 62.0510984,54.1192573 L62.0510984,54.1192573 Z" id="Path"></path>
                                <path d="M48.0839756,68.1963113 L47.4116277,68.6724763 C46.5441182,69.6280869 46.1123556,71.0019771 46.3069924,72.1874809 L47.3154872,72.6364918 L48.1094924,72.3178939 L48.7562302,71.7269248 L48.9995598,71.3958044 C49.468251,70.9012756 49.771726,70.2196596 49.8256169,69.5404499 C49.8580228,68.9708649 49.6826464,68.4679456 49.3454084,68.1633769 L48.7531178,67.8996722 L48.0839756,68.1963113 Z" id="Path"></path>
                                <path d="M79.9589428,31.2203083 C79.7031341,31.237302 79.4646681,31.3556221 79.2963983,31.5490442 L79.240457,31.6746906 L79.2740096,32.2273185 C79.4667049,32.4290384 79.7310928,32.5467514 80.0099381,32.554975 C80.2640905,32.5319833 80.5004384,32.4147141 80.6724826,32.2262391 L80.728424,32.1005928 L80.7128208,31.5559564 C80.5171162,31.3469289 80.2452325,31.2258784 79.9589428,31.2203083 Z" id="Path"></path>
                                <path d="M14.657052,66.118437 L13.9777364,67.6442046 L14.1478096,68.1364822 L13.922567,68.9155939 C14.4217979,69.8039523 15.3242693,70.4211153 16.3470315,70.5735852 C17.0842724,70.6748136 17.8273146,70.5527228 18.4731443,70.2242393 C19.2409316,69.8658381 19.8140129,69.2161099 20.0614565,68.4234977 C20.3089002,67.6308856 20.2095648,66.7631096 19.7861455,66.01843 L19.0755277,65.7020426 L18.0042251,64.9936479 C16.9621453,64.7537048 15.8802602,64.9547328 15.0337346,65.5456027 L14.7929645,66.0863811 L14.657052,66.118437 Z" id="Path"></path>
                                <path d="M30.7059959,73.9009922 L30.7059959,73.9009922 C29.8793031,73.6910907 29.0026543,73.9457025 28.4136664,74.5667708 L28.2047945,75.0359049 L28.0322481,75.4234504 L27.983734,75.9150995 C28.0078081,76.3095155 28.1090692,76.6950884 28.2817453,77.0498402 L28.4705418,77.5005042 L28.8106147,77.9940804 L29.1939438,78.3358325 L29.7424105,78.5800256 C30.8085405,78.7074937 31.8599843,78.2365059 32.4787717,77.3542894 C33.0449858,76.6237052 33.1046637,75.6201397 32.6288556,74.8304258 L32.3090963,74.3458938 L31.6184345,74.0383914 L31.0063981,73.9369782 L30.7059959,73.9009922 Z" id="Path"></path>
                                <path d="M7.51887247,69.9185517 L6.95937816,71.1751965 L6.87685185,71.7452472 L7.1584916,73.0842291 C7.48876994,73.6337138 7.98577435,74.0520318 8.57568526,74.2770505 C9.35578815,75.4557396 10.8945737,75.801052 12.1377465,75.0763977 C12.5832541,74.8155503 12.9577021,74.4392644 13.2225882,73.9862311 C13.7160455,73.1043016 13.6986879,72.0286664 13.1776579,71.2019437 L13.1776579,71.2019437 L12.4808179,70.8916905 L12.3963309,70.6967576 C11.9686834,69.8561494 11.1811195,69.281465 10.2632631,69.1402607 C9.29641647,68.9530481 8.28387873,69.2401971 7.51887247,69.9185517 L7.51887247,69.9185517 Z" id="Path"></path>
                                <path d="M17.7650399,80.1529623 L17.7650399,80.1529623 L15.9069493,80.8679739 C15.6037541,80.0421008 15.6036333,79.1214574 15.9066089,78.2749923 C15.7070089,77.6910104 15.6713364,77.0558954 15.8035973,76.4409698 L15.8035973,76.4409698 C15.812763,76.7417392 15.8870127,77.0344165 16.0209441,77.2977063 L16.0819183,75.3355272 L16.503371,74.6290906 L17.5196228,74.0757158 L17.4445226,73.9081672 L18.0057485,73.8004093 L18.370652,73.605243 L18.3208197,73.7171682 L19.0140466,73.601125 L19.6266932,73.7621329 L20.8003842,74.7764374 C21.1794425,75.5752305 21.1760511,76.5210839 20.7911824,77.3428187 C21.0655625,77.5960682 21.3021435,77.8895643 21.4937699,78.2144304 L21.6333616,79.7741636 L21.3675894,80.3710977 L20.4304997,81.5632213 C19.5130311,82.3138843 18.3287767,82.6081473 17.2083978,82.3638475 L16.4729405,81.9022889 L16.201518,81.6473319 L15.7309478,80.879021 L17.7650399,80.1529623 Z M20.501625,75.6716125 L20.3530772,77.4462264 L21.1583778,78.1992161 C21.0263337,77.2718546 20.7019592,76.3676005 20.2041668,75.5391756 L20.501625,75.6716125 Z" id="Shape"></path>
                                <path d="M41.0687466,65.3333938 L41.0628986,66.201649 L41.2128004,66.5850656 L41.6568008,67.0730336 L42.3090023,67.3634124 C42.5558761,67.4030744 42.8197083,67.3665696 43.0777308,67.2570481 L43.7415567,66.5761849 L44.2318403,65.47499 C44.3320673,64.9506411 44.2853709,64.4369333 44.0993393,64.0173446 L44.0993393,64.0173446 L43.5394181,63.6097137 L43.0123369,63.53338 L42.3675876,63.721333 L41.8410411,64.0938617 L41.3110001,64.8342898 L41.0687466,65.3333938 Z" id="Path"></path>
                                <path d="M85.0746445,44.9868715 L85.3776927,45.2723503 C85.7818144,45.3778466 86.2118093,45.2689531 86.5170081,44.9838259 C86.7209573,44.6866287 86.6688065,44.2836033 86.3959277,44.0481068 L85.8393672,43.9938783 L85.6677374,44.0895244 C85.2700514,44.1935143 85.0144446,44.5802464 85.0746445,44.9868715 L85.0746445,44.9868715 Z" id="Path"></path>
                                <path d="M96.4490394,19.0573268 C96.1616786,19.4996722 96.2386052,20.0820999 96.6312463,20.4368537 C96.8665207,20.6294834 97.1710999,20.7191581 97.4747772,20.6852076 C97.7784544,20.6512571 98.0550259,20.4966108 98.2407407,20.2569154 L98.2407407,19.3272343 C97.9575168,18.9614303 97.5224775,18.741111 97.0563958,18.72744 L96.4490394,19.0573268 Z" id="Path" transform="translate(97.258333, 19.709847) rotate(-66.000000) translate(-97.258333, -19.709847) "></path>
                                <path d="M61.8916667,23.3022509 L62.1372685,24.2559971 C62.9013632,24.8170243 63.5290123,24.7328702 63.8564815,24.0035349 L63.6654578,23.2461482 C63.5318553,23.1406512 63.4359169,22.9927237 63.3925669,22.8253778 L62.3555813,22.6570696 L61.8916667,23.3022509 Z" id="Path" transform="translate(62.874074, 23.639477) rotate(-66.000000) translate(-62.874074, -23.639477) "></path>
                                <path d="M25.1912507,59.0097559 L25.1912507,59.0097559 L24.9665021,58.9096914 C24.399989,58.7891716 23.8207828,58.8991612 23.373072,59.2122791 C22.9245755,59.5185419 22.6942952,60.0357599 22.7668003,60.5739875 C22.5106717,61.0746588 22.5448296,61.6790824 22.8577975,62.184179 L23.0288258,62.4049012 L23.3309575,62.6839944 L23.7242675,62.8591073 C24.1393011,63.0119413 24.5802094,63.0739429 25.0125517,63.0402692 C24.754136,63.2058917 24.5509815,63.4361064 24.4237295,63.7075226 C24.1939722,64.2272824 24.2487,64.8353043 24.5709138,65.3427302 C24.8713843,65.8623933 25.3959425,66.2401498 25.9983418,66.3706814 C26.6699895,66.4642333 27.3262284,66.2375837 27.7486388,65.7661697 L27.9481712,65.3180125 C28.0785889,64.8570516 28.0030445,64.3542031 27.7386788,63.9235609 C27.6375502,63.7149211 27.4757211,63.5351646 27.2731932,63.4065086 L26.7693359,62.9756405 L26.2823806,62.758834 L26.1887353,62.7171404 L26.3701785,62.6120414 L26.6394197,62.3601497 L26.8159292,61.9637029 L26.9847643,61.584493 L27.0384846,61.4638353 L27.4068522,60.6364682 C27.4488711,60.3821955 27.4280565,60.118581 27.3460049,59.8658461 L26.828626,59.2637285 L25.9858188,58.8884866 C25.7110371,58.8716675 25.4395494,58.9131028 25.1912507,59.0097559 L25.1912507,59.0097559 Z" id="Path"></path>
                                <path d="M59.5825692,76.4565241 C59.685149,76.4547881 59.7817225,76.4977854 59.8490717,76.5751786 C59.913339,76.2275503 59.7927013,75.8800416 59.5342911,75.6684226 L59.0395876,75.703702 L58.9446376,75.9169631 L58.8971626,76.0235936 C58.8971626,76.0235936 58.8971626,76.0235936 58.7576617,76.067957 L58.5277978,76.135972 L58.2587729,76.7402118 L58.5685649,77.3892112 L59.2623139,77.3999633 C59.321871,77.4145662 59.3781744,77.4396341 59.4288779,77.4741224 C59.6193885,77.5658254 59.8481612,77.5362333 60.0218571,77.3974197 C60.1987878,77.284721 60.2938703,77.0711622 60.259232,76.8642669 L59.5825692,76.4565241 Z" id="Path"></path>
                                <polygon id="Path" points="48.9234886 57.0528775 48.9195089 57.8622485 49.053847 58.1924406 49.5416979 58.6554467 50.0478394 58.7824751 50.7288077 58.6432201 51.3876262 58.1745623 51.8820937 57.4852503 52.0934778 56.8419619 52.0974574 56.0325909 51.9722526 55.6818851 51.4844017 55.218879 50.9626066 55.0848812 50.272505 55.2446498 49.6384734 55.6997634 49.1440059 56.3890754"></polygon>
                                <path d="M47.9754871,46.2531649 L47.9691209,47.0251376 L48.1002408,47.4041257 L48.3237054,47.744076 L48.6208768,47.8763852 L48.9806106,48.036549 C49.5111139,48.1208163 50.1144935,47.815585 50.5619988,47.2365729 C51.0095041,46.6575608 51.2326256,45.8934101 51.1467747,45.2338219 L50.7666221,44.5302174 L49.9689516,44.1750716 C49.5140507,44.1501169 49.0202702,44.3752416 48.6051327,44.7968647 L48.1893954,45.520161 L47.9754871,46.2531649 Z" id="Path"></path>
                                <path d="M72.6981481,7.17984413 L72.6981481,8.28289806 C72.7488108,8.50540079 72.8407972,8.71600112 72.9691571,8.9033659 L74.087069,8.9033659 C74.2955494,8.87211145 74.4933014,8.78925562 74.662963,8.66207285 L74.662963,7.52454849 C74.6322474,7.31241049 74.5508201,7.11118919 74.4258301,6.93855108 L73.2740421,6.93855108 C73.0647892,6.96690886 72.8663537,7.05005109 72.6981481,7.17984413 L72.6981481,7.17984413 Z" id="Path" transform="translate(73.680556, 7.920958) rotate(-66.000000) translate(-73.680556, -7.920958) "></path>
                                <path d="M62.6237544,38.5614828 L63.1801882,38.8092231 C63.4871615,38.7457184 63.679404,38.5090489 63.6561463,38.2232716 L63.7012603,38.1219439 L63.8619011,38.0026728 C64.2126332,37.832459 64.3301407,37.446457 64.1408956,37.0862 L63.6203608,36.854443 C63.1689149,36.8827605 62.7913339,37.0941475 62.5966929,37.4275388 C62.4020519,37.7609302 62.4120336,38.1791867 62.6237544,38.5614828 L62.6237544,38.5614828 Z" id="Path"></path>
                                <path d="M70.8058223,32.1980392 C70.968922,32.6834412 71.2045104,33.4288799 72.2193526,33.4635515 L72.5999184,33.2208505 C72.6515232,33.1113819 72.6822115,32.9939555 72.6905293,32.8741348 C72.7263271,32.6714748 72.6339996,32.467657 72.454941,32.3540612 C72.531589,32.0920919 72.3915116,31.8166497 72.1287417,31.7126372 L71.7300537,31.7126372 C71.5566275,31.5525412 71.316811,31.4760713 71.0776551,31.5046078 L70.7333336,32.0073455 C70.7333336,32.0073455 70.7877001,32.1113602 70.8058223,32.1980392 Z" id="Path" transform="translate(71.715741, 32.481144) rotate(-66.000000) translate(-71.715741, -32.481144) "></path>
                                <path d="M73.7397495,51.7868126 C73.506779,51.9815793 73.3769703,52.2731344 73.3881181,52.5765895 C73.4854224,52.9213984 73.7696987,53.1812965 74.121827,53.247379 L74.5468425,53.1139944 C74.7903969,52.8568031 74.9742042,52.4439651 74.4139646,51.9149319 L73.7397495,51.7868126 Z" id="Path"></path>
                                <path d="M30.2463198,80.23961 L30.7668546,80.4713671 L31.3155501,80.3500333 C31.5134056,80.0392537 31.5876722,79.6656337 31.5237124,79.3028116 C31.4932577,79.1130781 31.375053,78.9488425 31.2048077,78.85972 C30.9578462,78.7314031 30.6559103,78.7807111 30.4626003,78.9809271 L30.4724315,79.2003799 C30.2882091,79.3041703 30.146208,79.4692663 30.0711376,79.6669396 L30.2463198,80.23961 Z" id="Path"></path>
                                <path d="M66.8037191,19.6657598 L67.5465087,20.377848 L67.3787831,20.377848 L67.4985871,20.377848 C67.6893223,20.6267329 67.9691402,20.7385055 68.2413717,20.6745515 C68.5044275,20.5488451 68.701262,20.2718704 68.7685092,19.9327929 L68.4570189,19.1316936 C68.1278799,18.7795775 67.6813242,18.6468661 67.2589791,18.7756494 C66.9802552,18.937342 66.8026347,19.284624 66.8037191,19.6657598 L66.8037191,19.6657598 Z" id="Path" transform="translate(67.786114, 19.709841) rotate(-66.000000) translate(-67.786114, -19.709841) "></path>
                                <path d="M40.3672143,37.8767115 L41.0950434,38.2007619 L41.7565704,38.1201605 L42.0961243,37.9962428 C42.3585163,37.8750676 42.6011776,37.6703106 42.7945719,37.4068945 L43.1662752,36.5720352 L43.1554789,35.6168936 C43.1126262,35.2381662 42.9802026,34.9025064 42.7724796,34.6460894 L42.361098,34.4629305 L42.0288282,34.3149945 L41.5719878,34.3616842 C41.0415699,34.5713851 40.5791491,35.0678598 40.3370835,35.68753 C40.0308742,36.4537414 40.0422066,37.2771012 40.3672143,37.8767115 L40.3672143,37.8767115 Z" id="Path"></path>
                                <path d="M37.4215017,61.4551614 L38.5279785,61.7337909 L39.2388639,61.3654791 L39.665079,60.9346257 C40.0915125,60.5762735 40.340461,60.0307315 40.3320736,59.4729838 C40.3236862,58.9152361 40.0590173,58.4153998 39.6229602,58.1337987 L38.7375389,58.0605923 L38.1073637,58.3792363 L37.5137623,59.1421754 C36.9640049,59.8270213 36.9252477,60.7986679 37.4215017,61.4551614 L37.4215017,61.4551614 Z" id="Path"></path>
                                <path d="M14.5692042,70.5142305 L14.5692042,70.5142305 L15.704487,70.3912407 C15.5971548,69.7031617 15.148501,69.0798108 14.4965025,68.7128903 C13.6793434,68.3529368 12.7639114,68.3162766 11.9688933,68.6116675 L11.646229,68.7007675 L10.8401442,69.5289483 L10.7175517,70.3821282 L11.2563765,71.4832382 C13.5954705,72.9901887 14.8789897,72.0719882 15.2929185,71.6045549 L14.4135277,70.8638858 L14.5692042,70.5142305 Z" id="Path"></path>
                                <path d="M41.7838082,60.4172051 C41.0635228,61.3030075 40.9486603,62.5759321 41.5194004,63.3474139 L42.1398045,63.7711161 L42.7959975,63.768311 L42.9680412,62.6896458 L42.9680412,62.6896458 L43.6223734,61.8257092 L44.4977652,61.3305755 L44.3497719,60.7976631 L43.9953494,60.2957428 L43.3683744,60.0165955 L42.7969434,59.9588188 L42.306266,60.1090564 L41.7838082,60.4172051 Z" id="Path"></path>
                                <path d="M58.533165,89.0098009 C58.7618252,89.2166087 59.0833173,89.2859915 59.3769171,89.1918953 C59.7472576,89.0093943 60.0255109,88.6817073 60.1455723,88.2866833 L60.0441542,87.7898699 L59.810811,87.6859789 C59.4159225,87.5101632 59.0786882,87.6396153 58.7770995,88.1720742 L58.6971833,88.351569 C58.7559786,88.320139 58.8221179,88.3050277 58.8887288,88.3078051 L58.533165,89.0098009 Z" id="Path"></path>
                                <path d="M53.2932897,57.1587842 C53.9576738,57.0674507 54.1095146,56.7264106 54.1535318,56.5309326 C54.1949858,56.237064 54.0485841,55.948567 53.7869308,55.8085143 C53.5711661,55.682942 53.3033891,55.688153 53.0926732,55.8220246 C52.8093606,56.0579959 52.6977905,56.4424059 52.8107468,56.7933893 L53.2932897,57.1587842 Z" id="Path"></path>
                                <path d="M100.259186,27.0347496 L100.865911,27.5691066 L101.4423,27.5691066 L102.17037,27.0347496 L102.17037,26.259932 L101.624318,25.6187036 C101.275917,25.5723155 100.920236,25.6387639 100.623221,25.8057285 C100.258232,26.1271685 100.118996,26.5972428 100.259186,27.0347496 Z" id="Path" transform="translate(101.187963, 26.586699) rotate(-66.000000) translate(-101.187963, -26.586699) "></path>
                                <path d="M54.8285162,46.9969449 L54.8285162,46.9969449 C54.0532815,46.5743594 53.1097119,46.6075071 52.3689593,47.0833495 L51.9989657,47.4249621 L51.8287406,47.807294 L51.6316378,48.2499941 C51.5664482,48.6328759 51.5813068,49.0253004 51.6752823,49.4026726 L51.7362775,49.8638387 L51.9409986,50.4372191 L52.2667638,50.8474871 L52.7293937,51.2222446 C53.7230123,51.598069 54.8415354,51.4021141 55.6441513,50.7116059 C56.3536369,50.1437814 56.6397317,49.1989295 56.3647059,48.3319147 L56.1712311,47.7876531 L55.7779879,47.2026722 L55.2122324,46.9507816 L54.8285162,46.9969449 Z" id="Path"></path>
                                <path d="M40.6719121,49.9183226 L40.6719121,49.9183226 L38.5938244,50.0874898 C38.9529973,48.6458988 39.2415573,47.1868275 39.4585252,45.7152269 L39.4585252,45.7152269 C39.3853134,46.0192942 39.3938461,46.3384982 39.4832983,46.6419719 L40.0057957,44.6411508 L40.5818224,44.0712372 L41.7643335,43.7936824 L41.7263658,43.6204365 L42.3280781,43.6649909 L42.7542684,43.5867288 L42.6878773,43.7358457 L43.4323724,43.8216366 L44.0663676,44.1039094 L45.0683374,45.4210613 C45.2595818,46.3091073 45.0525899,47.2262534 44.5003623,47.9376629 C44.7215585,48.2662269 44.8962168,48.6220593 45.0194184,48.9951387 L44.827964,50.5626521 L44.5623995,51.1591198 L43.3422534,52.089954 C42.2361831,52.5366434 40.9736067,52.4737271 39.8965885,51.9182508 L39.2224677,51.2607606 L38.9980649,50.9375048 L38.6846559,50.0385925 L40.6719121,49.9183226 Z M43.823751,46.2516759 L43.2220814,47.603048 L44.9565541,48.8778117 C45.0098753,48.10977 44.6377504,47.1825056 43.8652454,46.1584779 L43.823751,46.2516759 Z" id="Shape"></path>
                                <path d="M32.0842126,75.1114276 C32.3053816,74.683057 32.4057069,74.204465 32.3639042,73.7771865 L32.1954711,73.1521681 L31.7429559,72.496325 C31.5846695,72.3614293 31.3968092,72.2777885 31.1906478,72.2504216 L30.6658223,72.3515534 L30.2346445,72.6139509 L29.7698388,73.1005187 C29.491095,73.6096624 29.3587621,74.1878175 29.4022464,74.7065087 C29.4982712,75.6041447 30.0364159,76.1914165 30.7718168,76.2011071 L31.276955,75.9955531 L31.6617879,75.6886072 L32.0842126,75.1114276 Z" id="Path"></path>
                                <path d="M67.7653342,40.7703089 L67.5703671,41.6421055 L67.6194332,42.0525734 L67.9298202,42.6571133 L68.4847065,43.0596135 C68.6980506,43.1636066 68.9394897,43.2001996 69.1904896,43.1665832 L69.9338474,42.6684866 L70.5829034,41.6879656 C70.7808961,41.1912509 70.8458173,40.6630693 70.7670783,40.1895684 L70.7670783,40.1895684 L70.3568264,39.5923821 L69.9054025,39.3913952 L69.2835951,39.3995384 L68.739501,39.6236388 L68.131617,40.2079603 L67.7653342,40.7703089 Z" id="Path"></path>
                                <path d="M104.49623,28.6268466 L104.136764,29.0780934 C104.112458,29.6040875 104.369943,30.1083227 104.828044,30.4318339 C105.288689,30.6263282 105.836969,30.4750419 106.1,30.0808641 L106.1,29.3538553 L105.934093,29.1533012 C105.657581,28.9026085 105.18751,28.3510846 104.49623,28.6268466 Z" id="Path" transform="translate(105.117593, 29.533921) rotate(-66.000000) translate(-105.117593, -29.533921) "></path>
                                <path d="M63.4898299,81.9820223 C63.2860603,81.902815 63.0574638,81.9195162 62.8673702,82.027499 L62.6515964,82.5121349 L62.6515964,82.5121349 C62.7372238,82.9310906 63.0940128,83.2400069 63.5209096,83.2648068 L63.9402797,82.612727 C63.8924634,82.3455144 63.7270757,82.1139441 63.4898299,81.9820223 L63.4898299,81.9820223 Z" id="Path"></path>
                                <path d="M51.1897844,61.8598847 L52.8175637,62.4548316 L52.9252605,62.5027814 L52.9252605,62.5027814 L53.0150079,62.5427395 L53.0770119,62.4034763 L53.0770119,62.4034763 L53.5146521,60.7442249 C52.7794568,60.5400326 52.0215384,60.6871403 51.5135829,61.1326214 L51.1897844,61.8598847 Z" id="Path"></path>
                                <path d="M19.5041002,64.1225255 L19.852364,64.7636721 L19.852364,64.7636721 C20.1238407,65.2302707 20.6060968,65.4449849 21.1345004,65.334516 L21.791835,64.9364214 L22.2277813,64.3885911 L22.5604977,63.6412979 C22.637553,63.3468838 22.658208,63.0491711 22.6207601,62.7727004 C22.5642583,62.3086922 22.3583625,61.9250231 22.0434891,61.6970057 L21.4991303,61.5825599 L20.6809795,61.7811362 C20.2948602,61.9641345 19.9533231,62.314428 19.7323135,62.7541245 C19.5113038,63.1938209 19.4291429,63.6864702 19.5041002,64.1225255 Z" id="Path"></path>
                                <path d="M53.9777861,30.5232252 L53.9777861,30.5232252 L53.7775862,30.4340904 C53.2678847,30.1885841 52.6599249,30.2218631 52.1235005,30.5246331 C51.5735658,30.7904239 51.1762198,31.360527 51.0970991,31.997291 C50.6734072,32.5174578 50.4958802,33.2107265 50.624739,33.8419254 L50.7318219,34.1402045 L50.920593,34.4999138 L51.1918991,34.8211893 C51.5285253,35.0958182 51.9273628,35.2733921 52.3566986,35.3397915 C51.4323172,35.7988309 50.9246478,36.939075 51.2020469,37.9331816 C51.3216173,38.5778988 51.7063428,39.0989283 52.2496015,39.3518734 C52.8718654,39.5779155 53.5883858,39.4368221 54.1618745,38.9753187 L54.5402671,38.5172831 C54.8284507,38.0172661 54.9321798,37.4312355 54.8280867,36.8912093 C54.7917015,36.6348014 54.6928475,36.400587 54.5415445,36.2123064 L54.1902438,35.6298726 L53.7636025,35.3146183 L53.6726025,35.2741025 L53.8833844,35.1925267 L54.2325717,34.9470304 L54.5919174,34.5807557 C54.6813128,34.4292556 54.7533174,34.2675307 54.8060867,34.0997237 L54.9529569,34.0147528 L55.5996953,33.1499266 C55.7344499,32.8623883 55.80609,32.5501364 55.8083637,32.2404208 L55.5044683,31.4535506 L54.8242974,30.875056 C54.5778416,30.6839649 54.2879998,30.5634996 53.9777861,30.5232252 Z" id="Path"></path>
                                <path d="M82.312071,56.6178787 C82.4097312,56.6144178 82.5019863,56.6554925 82.5647618,56.7303838 C82.6991865,56.4051489 82.6633693,56.038147 82.4704042,55.7635474 L81.9844571,55.6762353 L81.7697725,55.7957273 C81.7309059,55.8195976 81.6890149,55.837221 81.6455842,55.8479729 L81.5276618,55.7954705 L81.3423552,55.7129667 L80.9607094,56.252797 L81.1172743,56.9892391 L81.7885279,57.159055 C81.8479567,57.17604 81.9046005,57.2012595 81.9569884,57.2340584 C82.1214183,57.3726724 82.3507139,57.4000594 82.5511406,57.3050238 C82.7259041,57.1875476 82.820527,56.975021 82.7908893,56.7665395 L82.312071,56.6178787 Z" id="Path"></path>
                                <polygon id="Path" transform="translate(69.750926, 31.989940) rotate(-66.000000) translate(-69.750926, -31.989940) " points="69.453919 30.5163289 68.6314384 30.7015828 68.2887382 30.9036781 67.8774978 31.45944 67.7861111 31.9815193 68.0374246 32.6046463 68.5628984 33.1098844 69.3396856 33.4130273 70.0479328 33.4635511 70.8704134 33.2951384 71.2131137 33.0930431 71.6472007 32.5372812 71.7157407 32.0152019 71.4872739 31.3920749 70.9389535 30.8868368 70.1621662 30.5836939"></polygon>
                                <path d="M70.4154752,19.7098474 L69.6545843,19.8986754 L69.2979166,20.1046695 L68.9650268,20.4136607 L68.7748041,20.7054858 L68.7748041,21.0831418 C68.7162263,21.6189759 69.0704453,22.1346707 69.6967212,22.4253281 C70.3229971,22.7159855 71.1199043,22.7345334 71.7708123,22.4736023 L72.412814,21.9414507 L72.6981481,21.1003079 C72.6946591,20.6579701 72.4257829,20.2384365 71.961035,19.9501739 L71.200144,19.7270136 L70.4154752,19.7098474 Z" id="Path" transform="translate(70.733333, 21.183458) rotate(-66.000000) translate(-70.733333, -21.183458) "></path>
                                <path d="M83.6472372,17.032788 L83.5046296,17.7179115 C83.6379485,18.0582674 83.9012211,18.2479919 84.1701314,18.197498 L84.2968937,18.197498 L84.4395012,18.3573602 C84.670244,18.7566989 85.0715157,18.8449209 85.3743728,18.5628973 L85.4694444,17.9006111 C85.3326889,17.4045362 85.050536,17.0212099 84.6988731,16.853731 C84.3472103,16.6862522 83.9621426,16.7518158 83.6472372,17.032788 L83.6472372,17.032788 Z" id="Path" transform="translate(84.487037, 17.745033) rotate(-66.000000) translate(-84.487037, -17.745033) "></path>
                                <path d="M108.303218,5.27469474 C108.126699,5.45546063 108.039514,5.72832636 108.071233,6.00074114 L108.328994,6.33351241 C108.305249,6.24489603 108.305249,6.1498614 108.328994,6.06124501 L108.792964,6.93855108 L109.28271,6.93855108 L109.798232,6.69653562 C110.018717,6.40881146 110.087899,6.00283647 109.978665,5.63771794 C109.817513,5.30086254 109.537126,5.06549947 109.213433,4.99536395 C108.889739,4.92522843 108.55623,5.02757721 108.303218,5.27469474 L108.303218,5.27469474 Z" id="Path" transform="translate(109.047222, 5.956144) rotate(-66.000000) translate(-109.047222, -5.956144) "></path>
                                <path d="M88.5830612,8.92675008 C88.3370171,8.89557117 88.0855215,8.89557117 87.8394774,8.92675008 L87.3145946,9.10346556 C86.7166364,9.40543095 86.3898049,9.92252499 86.4616601,10.4529293 C86.550607,11.0654476 87.0750068,11.5973992 87.8394774,11.8505881 L88.4081003,11.8505881 L88.911113,11.8505881 L89.4578658,11.6899377 C90.202701,11.2818906 90.5393792,10.584343 90.3108003,9.92278282 C90.0589885,9.36626672 89.3788134,8.97414924 88.5830612,8.92675008 Z" id="Path" transform="translate(88.416667, 10.376977) rotate(-66.000000) translate(-88.416667, -10.376977) "></path>
                                <path d="M79.575,20.3884736 C79.4224133,19.486547 78.4650344,18.7990092 77.3009088,18.7553442 C76.4782602,18.6499607 75.6393016,18.8464264 75.0268176,19.2878864 L74.662963,19.9091856 L74.662963,20.4594792 L75.0040766,21.0985298 C75.3865893,21.4048587 75.8924472,21.5991595 76.4367541,21.6488234 C76.6925949,21.6832751 76.9541043,21.6832751 77.2099451,21.6488234 L77.2099451,21.5600663 L78.0740998,21.5600663 L78.8927726,21.2227896 L79.575,20.3884736 Z" id="Path" transform="translate(77.118981, 20.201051) rotate(-66.000000) translate(-77.118981, -20.201051) "></path>
                                <path d="M97.4913767,30.8040464 C97.3358229,31.0028441 97.2523137,31.2654684 97.2586715,31.5358707 L97.5172328,31.8712901 C97.4895257,31.78273 97.4895257,31.6854162 97.5172328,31.596856 L97.9826432,32.4811437 L98.4739097,32.4811437 L98.9910324,32.2372023 C99.2122016,31.9471884 99.2815985,31.5379827 99.1720253,31.1699586 C99.0042347,30.8387072 98.7236368,30.6086846 98.4018904,30.5386338 C98.0801439,30.4685829 97.7483992,30.5652857 97.4913767,30.8040464 L97.4913767,30.8040464 Z" id="Path" transform="translate(98.240741, 31.498736) rotate(-66.000000) translate(-98.240741, -31.498736) "></path>
                                <path d="M89.2292753,15.8499305 L88.8169067,15.2658059 L87.8951417,14.8094585 C86.9425918,14.7309273 86.0100367,15.0537405 85.4694444,15.6491376 L86.5367513,16.1237389 C86.5367513,16.1237389 86.5367513,16.1237389 86.5367513,16.1237389 L86.9733768,16.3062778 C86.9733768,16.4888168 86.9733768,16.6348479 86.9733768,16.7626252 L88.1862254,16.7626252 L88.1862254,16.7626252 L89.3990741,16.7626252 C89.3700637,16.6850312 89.3700637,16.6029185 89.3990741,16.5253245 L89.2292753,15.8499305 Z" id="Path" transform="translate(87.434259, 15.780218) rotate(-66.000000) translate(-87.434259, -15.780218) "></path>
                                <path d="M82.9949308,10.066575 L82.9949308,10.066575 C83.300667,9.8092845 83.4798594,9.48636953 83.5046296,9.14806837 L83.2961165,8.63036465 L82.9717627,8.26296202 L82.3693914,7.92895962 L81.9060288,7.92895962 C80.7909164,7.84711308 79.7783854,8.40180339 79.5892161,9.19816873 C79.4611932,9.99346147 80.2111146,10.7239488 81.3036575,10.8681807 L82.2535507,10.6844794 L82.8327539,10.3170768 L82.9949308,10.066575 Z" id="Path" transform="translate(81.539815, 9.394570) rotate(-66.000000) translate(-81.539815, -9.394570) "></path>
                                <path d="M73.0744716,9.40594083 L72.5379484,8.7853512 C71.986365,8.27255622 71.2828407,7.96786587 70.5420818,7.92095849 L70.5420818,7.92095849 L69.4904961,8.16476156 L69.1471212,8.34207289 L68.4603714,8.91833469 C67.780402,9.74930803 67.5989042,10.8995263 67.9882309,11.9104633 C68.4112464,12.9512689 69.3481707,13.672736 70.4347771,13.7943961 C71.3203736,13.9005543 72.2065691,13.6008791 72.8598623,12.9743312 C73.4270789,12.3906301 73.7241088,11.5833679 73.6753777,10.7579397 L73.0744716,9.40594083 Z" id="Path" transform="translate(70.733333, 10.868181) rotate(-66.000000) translate(-70.733333, -10.868181) "></path>
                                <path d="M67.3868149,51.5607323 L67.4463086,52.1034025 C67.6428669,52.333988 67.9332039,52.4632544 68.2360856,52.4550338 C68.4431671,52.4211061 68.6244946,52.2969835 68.7310594,52.1162134 L68.7310594,52.1162134 C68.8818523,51.8370486 68.9116299,51.5082771 68.8134486,51.2065621 C68.7719865,50.97405 68.6392231,50.7677909 68.4447546,50.633765 L67.8441768,50.7750145 L67.3868149,51.5607323 Z" id="Path"></path>
                                <path d="M41.9880787,53.1365021 L42.308823,53.816996 C42.308823,53.816996 42.2190756,53.7770379 42.2011261,53.7690463 L42.2011261,53.7690463 C42.2669425,53.9902491 42.4453773,54.1597945 42.6696521,54.2142308 C42.9004478,54.2427566 43.1294701,54.1492063 43.274289,53.9672507 L43.274669,53.3867153 C43.1485282,53.0531316 42.8575731,52.8094634 42.5070274,52.7438332 C42.2709186,52.7587208 42.0665871,52.9133307 41.9880787,53.1365021 L41.9880787,53.1365021 Z" id="Path"></path>
                                <path d="M50.2160676,35.1885043 C49.8701447,35.4007152 49.5686312,35.6937854 49.3358692,36.0440542 L50.83461,36.990935 L50.83461,36.990935 L51.0748755,36.9688627 L51.1049898,35.0465886 L50.6244587,35.0907333 L50.2160676,35.1885043 Z" id="Path"></path>
                                <path d="M44.0087756,36.6207476 L43.5270322,37.1001252 L43.2004595,37.8336195 L43.0385422,38.4785217 L43.0412805,39.0348316 L43.2340109,39.6063452 C43.5603059,40.0535926 44.0817543,40.2427274 44.6354464,40.1146606 C45.1136376,40.0065501 45.5628442,39.6394305 45.8445639,39.1264946 C46.1144683,38.6135679 46.2125962,38.0299476 46.1159105,37.512647 C45.9778486,36.9369714 45.6163519,36.5135657 45.1283569,36.3559674 L44.5601949,36.4268084 L44.0087756,36.6207476 Z" id="Path"></path>
                                <path d="M39.1165356,76.304366 L39.1540207,76.9447752 C39.202654,77.0631563 39.2699341,77.172984 39.3533045,77.2700854 L39.9937136,77.2326003 C40.1156371,77.1912253 40.2267796,77.1231398 40.3190238,77.0333165 L40.2815387,76.3929073 C40.2516598,76.2659284 40.1818042,76.1518963 40.0822549,76.0675971 L39.4597953,76.1130739 C39.3322084,76.1496433 39.2147545,76.2150981 39.1165356,76.304366 L39.1165356,76.304366 Z" id="Path"></path>
                                <path d="M57.8175681,31.1031974 L57.4035638,32.0330663 L57.3082013,32.7756096 L57.3082013,32.7756096 C57.1475191,33.4384253 57.145341,34.3490701 58.1177253,34.7313582 L58.6793725,34.6775482 L59.1620398,34.385993 L59.6780932,33.8307534 L60.4347161,32.4710077 L60.6236259,31.7447918 L60.6437148,31.1713156 L60.476709,30.5651847 C59.8461661,29.773628 58.6659725,30.0124116 57.8175681,31.1031974 L57.8175681,31.1031974 Z" id="Path"></path>
                                <path d="M78.5925926,9.08007943 L78.5925926,9.70905978 L79.0915828,11.2605446 L79.2259263,11.3863407 C79.6996919,11.937104 80.3411735,12.2800386 81.0299677,12.3507773 L81.5289579,12.7281655 L82.0087561,12.8329955 L83.1794639,12.6443014 C84.0839817,12.1579691 84.6019949,11.0937433 84.4653232,10.0025839 C84.4496102,9.46739971 84.3038889,8.94640903 84.0431007,8.4930311 C84.0719127,7.71076171 83.800621,6.95083968 83.2946155,6.39642992 L82.6228979,6.39642992 C82.3203375,6.17865234 81.981062,6.02897175 81.6249175,5.95614368 L79.8976438,6.50125998 L79.6289568,6.77381814 L79.302694,7.63342462 L79.302694,7.63342462 L78.5925926,9.08007943 Z" id="Path" transform="translate(81.539815, 9.394570) rotate(-66.000000) translate(-81.539815, -9.394570) "></path>
                                <path d="M56.0473895,72.172304 L55.9396926,72.1243542 L55.5682722,72.6687372 C55.6300708,72.9369258 55.7994538,73.1678918 56.0366715,73.3074335 C56.3016213,73.4287071 56.6057459,73.4310837 56.8725586,73.3139657 L57.088079,73.2163534 L57.3118445,72.713768 C57.2227523,72.4689315 57.0363439,72.2718587 56.7968372,72.1692973 C56.5573304,72.0667359 56.2860657,72.0678241 56.0473895,72.172304 L56.0473895,72.172304 Z" id="Path"></path>
                                <path d="M106.440727,7.46255885 L106.440727,7.46255885 L106.051621,7.38978 L105.39014,7.02588571 L104.51465,6.93855108 C104.224808,6.94692016 103.943007,7.01217822 103.697527,7.12777611 L103.288965,7.60811657 L103.152778,8.2485705 C103.165452,8.45863487 103.245529,8.66332986 103.386242,8.84535713 L103.794803,9.04913793 C103.873128,9.21011436 103.992009,9.35835192 104.144999,9.48581106 L104.378463,9.60225724 L104.378463,9.60225724 C105.052588,10.0263994 106.056665,9.96811552 106.63528,9.47125529 C107.299946,8.87076517 107.214162,7.98508268 106.440727,7.46255885 L106.440727,7.46255885 Z" id="Path" transform="translate(105.117593, 8.412162) rotate(-66.000000) translate(-105.117593, -8.412162) "></path>
                                <path d="M91.0194168,36.7065117 C90.9684962,36.8735463 90.9893361,37.0542341 91.0769444,37.2052912 L91.3461865,37.3251656 C91.3030421,37.2867988 91.2730637,37.235829 91.2604983,37.1794768 L91.8707805,37.451192 L92.2160064,37.3037904 L92.4835357,36.9927506 C92.564392,36.7506552 92.485727,36.4838229 92.2864715,36.3243074 C92.0747229,36.1772978 91.8074448,36.1350008 91.5606508,36.2094457 C91.3138569,36.2838905 91.1145515,36.4669314 91.0194168,36.7065117 L91.0194168,36.7065117 Z" id="Path"></path>
                                <path d="M122.472117,8.87574662 C122.630901,8.65481799 122.630901,8.37806844 122.472117,8.15713981 L122.101805,7.96551133 C121.653422,7.83557424 121.159101,7.99778946 120.933899,8.34876829 C120.717743,8.78723855 120.868107,9.29300508 121.304211,9.59435343 C121.54399,9.85790975 121.962613,9.95569368 122.329689,9.83388904 C122.586059,9.83388904 122.870914,9.49853919 122.785457,8.92365374 L122.472117,8.87574662 Z" id="Path" transform="translate(121.818519, 8.903366) rotate(-66.000000) translate(-121.818519, -8.903366) "></path>
                                <path d="M100.902098,21.4145396 L100.568588,21.1595109 C99.7780079,20.6351689 98.5059849,20.5405578 97.5431791,20.9344856 C96.5033027,21.3385633 96.0322122,22.1358463 96.3997175,22.8697031 L96.6379386,23.1247317 L96.923804,23.3197536 L97.32878,23.4997738 C98.2013486,23.7256568 99.1927624,23.6754874 99.9968571,23.3647587 C100.720179,23.078255 101.167412,22.5825695 101.187963,22.0446104 L100.902098,21.4145396 Z" id="Path" transform="translate(98.731944, 22.165866) rotate(-66.000000) translate(-98.731944, -22.165866) "></path>
                                <path d="M99.1217376,5.02335884 L99.5377957,4.05747288 L99.5377957,3.46611414 L98.9553144,2.10598902 L98.3936361,1.55405419 L97.0206446,0.982407407 L96.3965576,0.982407407 L94.9819604,1.43578245 C94.2273049,1.95852101 93.7452054,2.76260926 93.6577045,3.64449389 C93.5702035,4.52637851 93.8856891,5.40152095 94.5242965,6.04838066 L95.2107923,6.54117962 L95.5644416,6.69887528 L96.4381634,6.87628291 C97.6737731,6.89980642 98.7942363,6.19200372 99.246555,5.10220667 L99.1217376,5.02335884 Z" id="Path" transform="translate(96.590573, 3.929630) rotate(-66.000000) translate(-96.590573, -3.929630) "></path>
                                <path d="M89.3127086,16.9349964 L89.0104294,16.382711 L88.578602,16.0312566 L87.8229039,15.7802178 L87.1535714,15.7802178 L86.3978734,16.0145207 L85.793315,16.4663906 L85.4694444,17.018676 L85.4694444,17.5040178 L85.7285409,18.0897751 L85.8796805,18.2403984 C86.2734738,18.5693376 86.8343792,18.7469196 87.4126679,18.7257401 C88.1005655,18.6902681 88.732954,18.4206704 89.1399776,17.9893595 L89.3990741,17.4203382 L89.3127086,16.9349964 Z" id="Path" transform="translate(87.434259, 17.253829) rotate(-66.000000) translate(-87.434259, -17.253829) "></path>
                                <path d="M109.027275,15.236151 L108.728064,14.6796239 C108.016069,13.9758896 106.856315,13.6656607 105.755908,13.8845853 L105.117593,14.743227 L105.237277,15.4110595 L105.656171,15.935785 L105.915487,16.142495 C106.304787,16.5112529 106.867719,16.7356197 107.471381,16.7626252 C107.973633,16.7539622 108.449471,16.5815493 108.787907,16.285602 L109.047222,15.7290749 L109.027275,15.236151 Z" id="Path" transform="translate(107.082407, 15.289014) rotate(-66.000000) translate(-107.082407, -15.289014) "></path>
                                <path d="M88.8068407,27.9725445 C88.6184965,27.8536306 88.4066716,27.754967 88.1781087,27.6796943 L87.6360983,27.5718021 C86.9157032,27.5402314 86.2275186,27.7878028 85.8366238,28.2191552 C85.3982625,28.7222793 85.3492693,29.3492293 85.7065413,29.8837776 L86.0967888,30.192041 L86.5087167,30.3924122 L87.0507271,30.5157175 C87.9770093,30.5335992 88.8294085,30.1578837 89.2187686,29.560101 C89.5665192,29.0221449 89.401687,28.3868869 88.8068407,27.9725445 L88.8068407,27.9725445 Z" id="Path" transform="translate(87.434259, 29.042718) rotate(-66.000000) translate(-87.434259, -29.042718) "></path>
                                <path d="M74.3443444,32.1059065 C74.8731756,31.4643815 74.7321829,30.629917 74.0070521,30.1096444 C73.4905033,29.7060294 72.7634922,29.4970357 72.0229801,29.5392838 L71.3483957,29.7944452 L70.9515813,30.1546729 L70.7333333,30.710024 C70.7821741,31.0719883 70.9920376,31.4106796 71.3285549,31.6706313 C71.4870993,31.7896716 71.6675259,31.8907772 71.8642544,31.9708211 L71.8642544,31.9708211 L72.3999538,32.3610678 L73.1935826,32.4811437 L74.3443444,32.1059065 Z" id="Path" transform="translate(72.698148, 31.007533) rotate(-66.000000) translate(-72.698148, -31.007533) "></path>
                                <path d="M69.3974791,51.438627 C69.3384216,51.6048292 69.3596647,51.7890122 69.4550067,51.9374065 L69.7242488,52.0572809 C69.6766543,52.016179 69.6408796,51.9631302 69.6206111,51.9036005 L70.2308933,52.1753157 L70.5860771,52.0538552 L70.8795474,51.7328575 C70.930298,51.4853351 70.8488867,51.2292144 70.6645338,51.0564227 C70.4527852,50.9094131 70.1855071,50.8671161 69.9387131,50.941561 C69.6919192,51.0160058 69.4926138,51.1990467 69.3974791,51.438627 Z" id="Path"></path>
                                <path d="M84.3904068,34.5901928 L84.487037,33.9044148 L84.2615665,33.0852911 C83.8069038,32.5463853 83.1378001,32.3485277 82.5222222,32.5709576 L82.8121129,33.4853283 L82.7154827,33.4853283 L82.844323,33.866316 L82.5705373,34.1901556 L83.1664238,34.8187855 L83.1664238,34.8187855 L83.7784153,35.4283659 C83.8589405,35.3140696 83.8589405,35.3140696 83.9394657,35.2759708 L84.3904068,34.5901928 Z" id="Path" transform="translate(83.504630, 33.954755) rotate(-66.000000) translate(-83.504630, -33.954755) "></path>
                                <path d="M83.0891718,24.5166229 L83.0891718,24.5166229 C83.5234622,24.4337091 83.9181869,24.2507958 84.2249373,23.9903153 L84.487037,23.4815513 L84.487037,23.0078744 L84.3123039,22.4640233 L84.0283625,22.1833259 C83.2766366,21.540879 82.0221713,21.5018244 81.2107904,22.0956079 C80.403301,22.6772284 80.3348827,23.6742647 81.0578989,24.3236434 L81.909723,24.6218844 L82.6304973,24.6218844 L83.0891718,24.5166229 Z" id="Path" transform="translate(82.522222, 23.148273) rotate(-66.000000) translate(-82.522222, -23.148273) "></path>
                                <path d="M76.6277778,18.9935211 L76.6277778,18.1684837 C76.5319052,17.432707 76.2140319,16.7574493 75.7283691,16.2578709 L75.7283691,16.2578709 L74.8480968,15.7802178 L74.5227788,15.7802178 L73.7381882,15.7802178 C72.8240447,15.9938002 72.0881968,16.7618806 71.8245528,17.7776766 C71.5752769,18.7396593 71.7601872,19.7792323 72.3187801,20.5562419 C72.877373,21.3332515 73.737776,21.7477221 74.6184606,21.6640367 C75.349972,21.5906928 76.0121497,21.1431181 76.4172779,20.4481922 L76.6277778,18.9935211 Z" id="Path" transform="translate(74.171759, 18.727440) rotate(-66.000000) translate(-74.171759, -18.727440) "></path>
                                <path d="M42.0078666,57.9032749 L41.7841012,58.4058602 C41.8070175,58.7017282 41.9650957,58.9704956 42.2125423,59.1343039 C42.3907563,59.2527745 42.6169914,59.2724656 42.8129934,59.1865662 L42.8129934,59.1865662 C43.1009775,59.0511403 43.3330876,58.8200386 43.4697658,58.5326468 C43.5776169,58.3250382 43.5922787,58.0814085 43.510104,57.8623641 L42.9536703,57.6146238 L42.0078666,57.9032749 Z" id="Path"></path>
                                <path d="M47.6697841,33.7960816 L46.7508355,34.2118106 L46.2160261,34.8243466 L46.1585575,34.9534232 C45.6278923,35.4389182 45.1599923,36.3132392 45.9730321,37.7836486 L46.5894881,38.3416619 L47.2238105,38.6240804 L48.0578459,38.6345358 L49.5579298,38.0908865 L50.1733708,37.5915817 L50.4319796,37.0107367 L50.5949448,36.2326451 C50.440027,34.7782534 49.1420342,33.6970678 47.6697841,33.7960816 L47.6697841,33.7960816 Z" id="Path"></path>
                                <path d="M71.9667731,14.7978103 L71.4859407,15.5159063 C71.4859407,15.5159063 71.4859407,15.5159063 71.3396003,15.5159063 L71.0678255,15.9373973 C71.0678255,15.9373973 71.1723543,15.9373973 71.2141658,15.9373973 L70.7333333,16.671104 C71.4145951,16.9028135 72.2185094,16.6794461 72.5312286,16.171559 C72.7067126,15.9344381 72.7457139,15.6542681 72.6392932,15.3952657 C72.5328724,15.1362633 72.290155,14.9206372 71.9667731,14.7978103 L71.9667731,14.7978103 Z" id="Path" transform="translate(71.715741, 15.780218) rotate(-66.000000) translate(-71.715741, -15.780218) "></path>
                                <path d="M131.10904,4.03676172 C130.874591,4.14005688 130.705934,4.35860505 130.660185,4.61839262 L130.828506,4.9964527 C130.79343,4.92316411 130.79343,4.83708893 130.828506,4.76380034 L131.052933,5.72349132 L131.529841,5.95614368 L132.118963,5.95614368 C132.443782,5.78486058 132.641446,5.43196292 132.623924,5.05461579 C132.572255,4.70089574 132.376919,4.38705455 132.087323,4.19247462 C131.797728,3.99789469 131.441608,3.94121126 131.10904,4.03676172 L131.10904,4.03676172 Z" id="Path" transform="translate(131.642593, 4.973736) rotate(-66.000000) translate(-131.642593, -4.973736) "></path>
                                <path d="M100.157221,8.10677206 C100.369311,7.3075705 99.8676723,6.49597864 98.9614684,6.17218702 C98.3515162,5.91577827 97.6389689,5.88623129 97.0012184,6.09090194 L96.4915534,6.54609842 L96.2759259,7.03380893 L96.2759259,7.65157558 C96.4773201,8.00809914 96.8149533,8.29953877 97.2364484,8.48068345 C97.4414475,8.55738429 97.6597625,8.6067632 97.8833309,8.62699661 L97.8833309,8.62699661 L98.5498159,8.9033659 L99.333916,8.78956678 L100.157221,8.10677206 Z" id="Path" transform="translate(98.240741, 7.429755) rotate(-66.000000) translate(-98.240741, -7.429755) "></path>
                                <path d="M114.436329,24.6537104 C114.196893,24.7583788 114.019667,24.9759798 113.959259,25.2394646 L114.127637,25.6202048 C114.103471,25.5341515 114.103471,25.4426687 114.127637,25.3566154 L114.324078,26.3523976 L114.829211,26.5866992 L115.418533,26.5866992 C115.738519,26.4087989 115.934247,26.0569997 115.923666,25.6787802 C115.863155,25.3333781 115.670216,25.0287017 115.389465,24.8352087 C115.108714,24.6417157 114.764466,24.5761632 114.436329,24.6537104 L114.436329,24.6537104 Z" id="Path" transform="translate(114.941667, 25.604292) rotate(-66.000000) translate(-114.941667, -25.604292) "></path>
                                <path d="M110.02963,6.16892502 L109.947762,5.66068139 L109.57936,5.12339527 C109.085212,4.87687246 108.503888,4.93818266 108.064815,5.28312898 L108.528729,5.84945759 L108.446862,5.84945759 L108.637886,6.08179754 C108.569663,6.21248876 108.528729,6.32865873 108.487796,6.41578621 L109.12909,6.67716865 L109.12909,6.67716865 L109.756739,6.93855108 C109.756739,6.83690236 109.756739,6.82238111 109.838606,6.77881737 L110.02963,6.16892502 Z" id="Path" transform="translate(109.047222, 5.956144) rotate(-66.000000) translate(-109.047222, -5.956144) "></path>
                                <path d="M77.2822426,37.6054652 L77.1741657,38.1380508 C77.2997525,38.4111139 77.5412768,38.613385 77.8321442,38.6890927 C78.0346699,38.72961 78.2443826,38.6712162 78.396823,38.5318599 L78.396823,38.5318599 C78.6334624,38.3148091 78.7694717,38.0093272 78.7724292,37.6882345 C78.8085427,37.4526753 78.7434937,37.2128195 78.5933145,37.027783 L77.9928635,36.9755207 L77.2822426,37.6054652 Z" id="Path"></path>
                                <path d="M54.0042171,30.2457377 L54.0815336,30.9899112 C54.0407735,30.9885051 54.0021556,30.9713113 53.9738368,30.9419615 L53.9338787,31.0317088 C53.9230476,31.2592758 54.0289371,31.4766728 54.2147915,31.6084384 C54.4274803,31.6982963 54.6693482,31.687461 54.8731501,31.5789449 L55.1128988,31.0404606 C55.097371,30.6817687 54.9047136,30.3542089 54.5987694,30.1663282 C54.3995191,30.0940249 54.1775079,30.1236772 54.0042171,30.2457377 L54.0042171,30.2457377 Z" id="Path"></path>
                                <path d="M80.3609259,21.539822 C80.1422131,21.1832785 79.8301422,20.8906289 79.4571111,20.6922548 L78.5925926,22.406652 L78.5925926,22.406652 L78.5925926,22.6570696 L80.5574074,22.4259149 L80.5574074,21.9250798 L80.3609259,21.539822 Z" id="Path" transform="translate(79.575000, 21.674662) rotate(-66.000000) translate(-79.575000, -21.674662) "></path>
                                <path d="M76.3316632,20.3744998 L75.8451893,19.9692239 L75.104903,19.7098474 L74.4280698,19.7098474 L73.8781428,19.8071136 L73.2859137,20.0664901 C72.811968,20.4456841 72.6070211,20.9773387 72.7359867,21.4930611 C72.8600166,21.9335547 73.2399336,22.3064395 73.7674562,22.5054384 C74.2949788,22.7044373 74.9122427,22.7077219 75.4433196,22.5143562 C76.044478,22.303823 76.48267,21.8900096 76.6277778,21.3957949 L76.6277778,20.8608308 L76.3316632,20.3744998 Z" id="Path" transform="translate(74.662963, 21.183458) rotate(-66.000000) translate(-74.662963, -21.183458) "></path>
                                <path d="M64.8016605,60.7931274 L64.6436676,61.3895192 C64.6390481,61.5226536 64.669216,61.6546924 64.7311954,61.7726103 L65.3055786,62.0283422 C65.4380763,62.0269884 65.5687311,61.9971367 65.6886697,61.9408145 L65.8546542,61.3264731 C65.8533004,61.1939754 65.8234487,61.0633207 65.7671265,60.943382 L65.1927432,60.6876501 C65.0572024,60.6995852 64.924821,60.7352892 64.8016605,60.7931274 Z" id="Path"></path>
                                <path d="M91.5033395,17.9906344 L90.5570418,17.7450326 L89.7526887,17.7450326 L89.6344015,17.7450326 C88.9246782,17.7450326 87.9310656,17.8831836 87.4342593,18.9116414 L87.4342593,19.4335453 L87.6944911,19.8479984 L88.2622698,20.2317513 L89.7053738,20.6922548 L90.4860694,20.6922548 L91.1248204,20.6001541 L91.7635714,20.323852 C92.6313913,19.6217992 92.5179058,18.6042975 91.5033395,17.9906344 Z" id="Path" transform="translate(89.890278, 19.218644) rotate(-66.000000) translate(-89.890278, -19.218644) "></path>
                                <path d="M63.8564815,27.4317666 L63.2363203,26.6278453 C62.3577586,26.4555765 61.8667976,26.8288256 61.8926377,27.6614584 L62.3577586,28.2643993 C62.5127989,28.2643993 62.564479,28.2643993 62.7453593,28.551514 L63.7014412,28.2356878 L63.8564815,27.4317666 Z" id="Path" transform="translate(62.874074, 27.569107) rotate(-66.000000) translate(-62.874074, -27.569107) "></path>
                                <path d="M119.009384,18.1471549 L118.871296,18.8977833 L119.1935,19.5679872 C119.583879,19.7571341 120.022895,19.7571341 120.413273,19.5679872 C120.627629,19.4649084 120.783243,19.2433642 120.827536,18.9782078 C120.875531,18.6086116 120.718921,18.2437626 120.436288,18.0667304 L120.183128,18.0667304 C120.003124,17.8824689 119.777409,17.769789 119.538719,17.7450326 L119.009384,18.1471549 Z" id="Path" transform="translate(119.853704, 18.727440) rotate(-66.000000) translate(-119.853704, -18.727440) "></path>
                                <path d="M94.018764,7.38001264 L94.3111111,6.44734738 L94.0637405,5.75717509 L93.2316756,5.12296271 L92.3771225,4.97373627 L91.6799871,4.97373627 L91.1177811,5.19757593 L90.6005516,5.62660195 L90.4206457,6.05562797 C90.2278227,6.85000341 90.7626852,7.64223923 91.6799871,7.92095849 L92.3096578,7.92095849 L93.2316756,7.79038536 L93.9737875,7.32405273 L93.2316756,6.63388043 L93.2316756,6.63388043 L94.018764,7.38001264 Z" id="Path" transform="translate(92.346296, 6.447347) rotate(-66.000000) translate(-92.346296, -6.447347) "></path>
                                <path d="M92.8203187,21.2998709 L93.2819632,20.8228639 L93.2819632,20.6695402 C93.3918785,20.2777129 93.4578277,19.3066628 91.6552161,18.72744 L90.7978764,18.72744 L90.1383843,18.9318716 L89.4569092,19.6814541 C89.3155773,20.1296075 89.4362066,20.6032532 89.7866552,20.9761876 C90.2177534,21.3924873 90.8574754,21.6465633 91.5453007,21.6746622 L92.270742,21.5383745 L92.8203187,21.2998709 Z" id="Path" transform="translate(91.363889, 20.201051) rotate(-66.000000) translate(-91.363889, -20.201051) "></path>
                                <path d="M105.33945,6.83742091 L105.33945,6.83742091 L105.797188,7.92095849 C106.428224,7.6251453 106.896524,7.01863464 107.061417,6.28361281 C107.157593,5.41531638 106.920471,4.54217748 106.407506,3.87575152 L106.233129,3.56272955 L105.186871,3.00892146 L104.293192,3.00892146 L103.399513,3.82759429 C102.614819,6.57255617 103.900845,7.58385791 104.489365,7.87280127 L104.947103,6.78926368 L105.33945,6.83742091 Z" id="Path" transform="translate(105.117593, 5.464940) rotate(-66.000000) translate(-105.117593, -5.464940) "></path>
                                <path d="M76.8488194,19.7098474 L77.855787,19.7098474 L78.8627546,19.3576636 C79.1583608,19.2204645 79.4033333,19.0292042 79.575,18.8015839 L79.575,18.0416084 L79.1083565,17.2630969 C78.9048711,17.0353998 78.6132607,16.8606278 78.2733102,16.7626252 L77.315463,16.7626252 L76.3084954,17.1148089 C76.029806,17.2636172 75.8024166,17.4606562 75.6453704,17.6894246 L75.6453704,18.4494001 L76.1120139,19.2464477 C76.3097175,19.4397513 76.5612395,19.5979412 76.8488194,19.7098474 L76.8488194,19.7098474 Z" id="Path" transform="translate(77.610185, 18.236236) rotate(-66.000000) translate(-77.610185, -18.236236) "></path>
                                <path d="M74.5445605,30.2119568 L74.2035204,30.0601159 C73.8233694,30.0994667 73.5067363,30.3689217 73.4070846,30.7378835 C73.3011849,31.1469211 73.5213526,31.5698712 73.9171548,31.7177466 L74.4319176,31.6243201 C75.1206566,30.8986028 74.6920888,30.3636709 74.5445605,30.2119568 Z" id="Path"></path>
                                <path d="M83.2776296,5.58631339 L82.5650492,5.98831713 C82.4530222,6.43449193 82.5631736,6.90182594 82.867356,7.27090047 C83.1288406,7.59595932 83.5247105,7.81616221 83.9686168,7.88347759 C85.0498563,8.0753086 86.1204342,7.51410537 86.4518519,6.58175121 L85.7392714,5.49059822 L85.7392714,5.49059822 C85.5216344,5.28214321 85.2661845,5.10744352 84.9835042,4.97373627 L83.7094966,5.18430966 C83.5466622,5.30131069 83.4015115,5.43642432 83.2776296,5.58631339 L83.2776296,5.58631339 Z" id="Path" transform="translate(84.487037, 6.447347) rotate(-66.000000) translate(-84.487037, -6.447347) "></path>
                                <path d="M45.0329332,43.1063683 L44.3905578,43.0999629 C44.2695371,43.1215763 44.1565229,43.1752363 44.0632814,43.2553561 L44.0309348,43.9076893 C44.0669574,44.0294164 44.1257816,44.1431902 44.2042775,44.2429574 L44.8466529,44.2493628 C44.9697456,44.2345502 45.0846483,44.1799936 45.1739293,44.0939696 L45.2062759,43.4416364 C45.1702533,43.3199093 45.1114292,43.2061355 45.0329332,43.1063683 L45.0329332,43.1063683 Z" id="Path"></path>
                                <path d="M47.1537364,65.4442511 L47.7881201,65.468606 C47.917882,65.4440416 48.0393613,65.3871737 48.1413377,65.3032549 L48.1656926,64.6688712 C48.1400466,64.5335341 48.0764786,64.4082681 47.9823921,64.307662 L47.3659578,64.2912987 C47.236196,64.3158631 47.1147166,64.372731 47.0127403,64.4566498 L46.9983432,65.1169746 C47.0199566,65.2379953 47.0736166,65.3510096 47.1537364,65.4442511 Z" id="Path"></path>
                                <path d="M103.48024,16.8193136 C103.016995,16.9326775 102.298166,17.1027232 102.170375,18.122998 L102.362062,18.5575595 L102.681541,18.7087113 C102.867072,18.7675687 103.064065,18.6848901 103.176734,18.5008776 C103.402396,18.6149033 103.66442,18.5088777 103.783745,18.2552559 L103.879589,17.8395884 C104.042391,17.6739267 104.135773,17.4323142 104.135175,17.1782992 L103.703875,16.7626317 L103.48024,16.8193136 Z" id="Path" transform="translate(103.152775, 17.745039) rotate(-66.000000) translate(-103.152775, -17.745039) "></path>
                                <path d="M66.0596568,30.5694506 C65.8667825,30.3339867 65.5739218,30.2035967 65.2698799,30.2178192 C64.9126166,30.2687927 64.619918,30.5274071 64.5253263,30.8756711 L64.6068286,31.3206022 C64.8300873,31.592064 65.226942,31.8117702 65.8197815,31.3014467 L65.8197815,31.3014467 L66.0596568,30.5694506 Z" id="Path"></path>
                                <path d="M116.060027,14.798029 L115.334091,15.5052836 C115.334091,15.5052836 115.334091,15.3743105 115.334091,15.3481159 L115.334091,15.3481159 C115.071636,15.5320366 114.924867,15.8270986 114.943202,16.1339544 C115.026035,16.4340915 115.269276,16.6722173 115.585376,16.7626252 L116.367153,16.5268736 C116.590518,16.2649275 117.037248,15.7672298 116.869724,15.2433374 C116.711352,14.9631455 116.397986,14.7908038 116.060027,14.798029 L116.060027,14.798029 Z" id="Path" transform="translate(115.924074, 15.780218) rotate(-66.000000) translate(-115.924074, -15.780218) "></path>
                                <path d="M47.968414,64.5444102 L47.9967148,64.7223795 L48.8504435,64.8337595 L49.0424639,64.4024746 C49.2693217,64.1549381 49.3644896,63.8166463 49.3008583,63.4839635 C49.224989,63.2288462 49.0310735,63.0199475 48.7775702,62.9202428 L48.2930998,62.9939382 C47.8957295,63.403448 47.7707098,64.0004545 47.968414,64.5444102 Z" id="Path"></path>
                                <path d="M78.5255368,12.8329955 C77.6520264,13.2060201 77.5674931,13.7389123 77.6238486,14.0053584 C77.6914045,14.4026562 78.020845,14.7141719 78.4410035,14.7780521 C78.7901759,14.8491954 79.151583,14.7249252 79.3708695,14.4583168 C79.5681138,14.2185153 79.7090025,13.7922015 79.3708695,13.072797 L78.5255368,12.8329955 Z" id="Path" transform="translate(78.592593, 13.815403) rotate(-66.000000) translate(-78.592593, -13.815403) "></path>
                                <path d="M90.0721042,47.6096343 L90.2193791,48.148372 L90.5604191,48.3002128 L91.1629631,48.2028539 L91.4844675,47.7222772 L91.3970664,47.1456743 C91.2425548,46.9824863 91.0293945,46.8875812 90.8047337,46.8819508 C90.4323605,46.9474006 90.1400748,47.237713 90.0721042,47.6096343 L90.0721042,47.6096343 Z" id="Path"></path>
                                <path d="M95.129784,14.4759584 L95.2935185,13.9976645 C95.2530064,13.4850443 94.9504791,13.047643 94.521627,12.8816453 C94.0388182,12.7145465 93.5231019,12.9902435 93.3287037,13.5193705 L93.3287037,14.2102395 C94.2877205,15.2199712 94.9426587,14.6619616 95.129784,14.4759584 Z" id="Path" transform="translate(94.311111, 13.815403) rotate(-66.000000) translate(-94.311111, -13.815403) "></path>
                                <path d="M62.6577006,40.0897523 L63.2500333,40.3534759 C63.3719616,40.3960543 63.5036179,40.402377 63.6290652,40.3716787 L63.8927888,39.779346 C63.9268893,39.6526029 63.9269767,39.5191101 63.8930421,39.3923224 L63.3186589,39.1365906 C63.1919158,39.10249 63.058423,39.1024026 62.9316353,39.1363372 L62.6679118,39.7286699 C62.6385167,39.8468871 62.6350333,39.9700629 62.6577006,40.0897523 L62.6577006,40.0897523 Z" id="Path"></path>
                                <path d="M83.505214,12.457115 L83.505214,12.746028 C83.4949284,13.0787849 83.6208866,13.3983955 83.8467949,13.6127669 C84.0984864,13.7998336 84.4076824,13.8608553 84.7007474,13.7812995 C85.0204243,13.6958838 85.2968983,13.4706999 85.4693046,13.1553214 L85.4693046,12.8904845 C85.4743959,12.5536508 85.3402606,12.2333125 85.1063748,12.0237456 C84.5538649,11.6772078 83.8580785,11.865529 83.505214,12.457115 L83.505214,12.457115 Z" id="Path" transform="translate(84.487037, 12.832996) rotate(-66.000000) translate(-84.487037, -12.832996) "></path>
                                <path d="M92.9467011,31.2982183 C92.8386427,31.5773534 92.8757888,31.8918816 93.0458996,32.1381646 C93.3281995,32.4444635 93.7242978,32.6208179 94.1408177,32.6256536 L94.5698923,32.3865384 L94.6737834,32.1531952 C94.849599,31.7583067 94.4827446,31.4229119 93.8883189,31.3088096 C93.8883189,31.3088096 93.7447231,31.2448766 93.7088242,31.2288934 C93.7562769,31.2759211 93.7894388,31.3354277 93.8044702,31.4005232 L92.9467011,31.2982183 Z" id="Path"></path>
                            </g>
                        </g>
                    </g>
                </g>
            </g>
        </g>
    </g>
</svg>