<?xml version="1.0" encoding="UTF-8"?>
<svg width="24px" height="24px" viewBox="0 0 24 24" version="1.1" xmlns="http://www.w3.org/2000/svg" xmlns:xlink="http://www.w3.org/1999/xlink">
    <title>Icon/gender</title>
    <g id="Icon/gender" stroke="none" stroke-width="1" fill="none" fill-rule="evenodd">
        <path d="M18.4149556,8.06845612 C18.8546525,8.06845612 18.949354,8.38501 19.0563844,8.62122278 L19.0563844,8.62122278 L20.927694,13.3027367 C21.1060062,13.6963141 20.9431994,14.164648 20.5638013,14.3489957 C20.1847263,14.5332881 19.8403769,14.3690118 19.6620646,13.9756003 C19.6620646,13.9756003 19.4288912,13.4637507 19.4512341,13.6079002 C19.5292457,14.1107923 19.822018,15.9567576 19.822018,15.9567576 C19.8861932,16.3162743 19.6474745,16.6104345 19.2916575,16.6104345 L19.2916575,16.6104345 L18.3811452,16.6104345 C18.3161086,16.6104345 18.3212771,16.6665571 18.3212771,16.6665571 L18.3212771,20.1168009 C18.3212771,20.6962189 17.9697672,21 17.5363156,21 C17.1027024,21 16.7511387,20.6962189 16.7511387,20.1168009 L16.7511387,20.1168009 L16.7510091,16.6376879 C16.7499243,16.626875 16.745019,16.6106556 16.7253501,16.6106556 C16.6736116,16.6106556 16.5581824,16.6119274 16.5125814,16.6104345 C16.4772635,16.609218 16.4790402,16.6434998 16.4790402,16.6434998 L16.4790402,20.1168009 C16.4790402,20.6962189 16.1274765,21 15.6940248,21 C15.2604116,21 14.9090633,20.6962189 14.9090633,20.1168009 L14.9090633,20.1168009 L14.9097994,16.6499968 C14.9099886,16.6368093 14.9046889,16.6104345 14.8592629,16.6104345 L14.8592629,16.6104345 L14.0128181,16.6104345 C13.6569473,16.6104345 13.4239893,16.3173802 13.4949481,15.9592458 C13.4949481,15.9592458 13.7870744,14.2381327 13.8928665,13.6659581 C13.9099332,13.5740607 13.8644937,13.6571665 13.8644937,13.6571665 L13.8644937,13.6571665 L13.7182153,13.9652052 C13.5331194,14.3554097 13.0782939,14.5164789 12.7023953,14.3251643 C12.3267659,14.1337943 12.1721425,13.6625299 12.3572384,13.272436 L12.3572384,13.272436 L14.3009604,8.62630976 C14.4264573,8.36195271 14.6552698,8.06845612 15.0938361,8.06845612 L15.0938361,8.06845612 Z M8.92558383,8.0243321 C9.28312358,8.0243321 9.63479496,8.2276454 9.76492199,8.58749389 L9.76492199,8.58749389 L11.3089489,13.4095633 C11.4560888,13.8163557 11.2572642,14.2698157 10.8650526,14.4224804 C10.4727872,14.5750898 10.0354591,14.3689565 9.88842691,13.9621088 L9.88842691,13.9621088 L9.4915314,12.8644824 C9.4915314,12.8644824 9.44862233,12.704519 9.44862233,13.2122217 L9.44862233,13.2122217 L9.44862233,19.9048618 C9.44862233,20.489975 8.99132032,20.9642806 8.4271494,20.9642806 C7.86297848,20.9642806 7.40567647,20.489975 7.40567647,19.9048618 L7.40567647,19.9048618 L7.40567647,15.5325478 C7.40567647,15.5325478 7.40777616,15.4938978 7.36992788,15.4938978 L7.36992788,15.4938978 L6.98638426,15.4938978 C6.94675932,15.4938978 6.95171243,15.5325478 6.95171243,15.5325478 L6.95171243,19.9048618 C6.95171243,20.489975 6.49441042,20.9642806 5.93023951,20.9642806 C5.36606859,20.9642806 4.90876658,20.489975 4.90876658,19.9048618 L4.90876658,19.9048618 L4.90819031,13.0996734 C4.90408864,12.7308178 4.87947858,12.8269936 4.87947858,12.8269936 L4.87947858,12.8269936 L4.46901584,13.9619982 C4.32187593,14.3687906 3.88465558,14.5749792 3.49239016,14.4223698 C3.10017858,14.2698157 2.9014078,13.8162452 3.04849387,13.4093974 L3.04849387,13.4093974 L4.59235924,8.58749389 C4.72248627,8.2275901 5.02322668,8.02903203 5.43153589,8.02903203 L5.43153589,8.02903203 L8.62435887,8.02903203 C8.73063556,8.02903203 8.74711006,8.0243321 8.92558383,8.0243321 Z M16.6152509,3 C17.8264968,3 18.8084055,4.00844547 18.8084055,5.25242599 C18.8084055,6.49640652 17.8264968,7.50485198 16.6152509,7.50485198 C15.4040051,7.50485198 14.4220964,6.49640652 14.4220964,5.25242599 C14.4220964,4.00844547 15.4040051,3 16.6152509,3 Z M7.19893763,3.03566415 C8.41018344,3.03566415 9.39209217,4.033737 9.39209217,5.26492227 C9.39209217,6.49610753 8.41018344,7.49418039 7.19893763,7.49418039 C5.98769182,7.49418039 5.00578309,6.49610753 5.00578309,5.26492227 C5.00578309,4.033737 5.98769182,3.03566415 7.19893763,3.03566415 Z" id="Combined-Shape" fill="#62636A"></path>
    </g>
</svg>