<?xml version="1.0" encoding="UTF-8"?>
<svg width="24px" height="24px" viewBox="0 0 24 24" version="1.1" xmlns="http://www.w3.org/2000/svg" xmlns:xlink="http://www.w3.org/1999/xlink">
    <title>Icon/globe</title>
    <g id="Icon/globe" stroke="none" stroke-width="1" fill="none" fill-rule="evenodd">
        <path d="M7.86724907,12.9235582 C8.05302706,17.3305685 9.56484819,19.8171045 10.5735842,21 C6.55159142,20.3581187 3.41175393,17.0464299 3,12.9235582 L3,12.9235582 Z M21,12.9235582 C20.5897123,17.0315983 17.4708901,20.3340559 13.4696683,20.9927381 C14.4754719,19.806027 15.9832,17.3165985 16.1735598,12.9235582 L16.1735598,12.9235582 Z M14.3385668,12.9235582 C14.0534547,16.4950151 13.4482253,18.0187292 12.0182662,19.8621531 C10.5897123,18.0018052 9.98210031,16.5393252 9.70163113,12.9235582 L9.70163113,12.9235582 Z M13.4751054,3.00898511 C17.4737003,3.66975971 20.5898955,6.97110953 21,11.0773034 L21,11.0773034 L16.1744761,11.0773034 C15.9890647,6.68050902 14.4837803,4.19520384 13.4751054,3.00898511 Z M12.023459,4.13870844 C12.0233979,4.13870844 14.3400941,6.11647817 14.3400941,11.0773034 L9.70315841,11.0773034 C9.98827051,7.50590802 10.5934999,5.98213236 12.023459,4.13870844 Z M10.5790213,3 C9.57327876,4.18338781 8.0589529,6.67404713 7.86816543,11.0773034 L7.86816543,11.0773034 L3,11.0773034 C3.4119372,6.95258544 6.5544627,3.6397273 10.5790213,3 Z" id="Combined-Shape" fill="#62636A"></path>
    </g>
</svg>