<?xml version="1.0" encoding="UTF-8"?>
<svg width="24px" height="24px" viewBox="0 0 24 24" version="1.1" xmlns="http://www.w3.org/2000/svg" xmlns:xlink="http://www.w3.org/1999/xlink">
    <title>Icon/google</title>
    <g id="Icon/google" stroke="none" stroke-width="1" fill="none" fill-rule="evenodd">
        <path d="M12,3 C14.1837305,3 16.1859844,3.77786719 17.7446719,5.07196875 L14.8290586,7.4589375 C14.0086875,6.94614844 13.0389375,6.64992188 12,6.64992188 C9.73495312,6.64992188 7.79859152,8.05777242 7.0179145,10.0460945 L6.93869531,10.2613125 C6.75176953,10.8062695 6.64988672,11.3912695 6.64988672,12 C6.64994699,12.5662768 6.73787779,13.1122261 6.90125903,13.6244094 L6.98917969,13.8776602 C7.74922266,15.9061055 9.70598437,17.3500781 12,17.3500781 C12.9860273,17.3500781 13.909793,17.0835234 14.7024609,16.6181953 C15.7548281,16.0010625 16.5772031,15.0352852 17.0103984,13.8791367 L12.1978594,13.8791367 L12.1978594,10.3186875 L20.8427461,10.3186875 C20.9461055,10.8631172 21,11.4253711 21,12 C21,12.6443438 20.9322539,13.2728672 20.8031953,13.8791367 C20.3650781,15.9422109 19.2202852,17.7436875 17.6344219,19.0185234 C16.0920469,20.2582383 14.1327891,21 12,21 C8.57258203,21 5.59270312,19.0843008 4.07258203,16.2651211 C3.38819531,14.9956992 3,13.5433594 3,12 C3,10.6319502 3.30498145,9.33536011 3.85136222,8.17424512 L4.00680469,7.86098438 C5.50417969,4.97307422 8.52164062,3 12,3 Z" id="Combined-Shape" fill="#FFFFFF"></path>
    </g>
</svg>