<?xml version="1.0" encoding="UTF-8"?>
<svg width="24px" height="24px" viewBox="0 0 24 24" version="1.1" xmlns="http://www.w3.org/2000/svg" xmlns:xlink="http://www.w3.org/1999/xlink">
    <title>Icon/instagram</title>
    <g id="Icon/instagram" stroke="none" stroke-width="1" fill="none" fill-rule="evenodd">
        <path d="M8.29592178,3.05653901 C9.9534222,2.98304029 14.0551732,2.97929035 15.7111736,3.05653901 C19.0989245,3.21253628 20.7946749,5.12875281 20.943175,8.28844763 C21.016675,9.94591869 21.021175,14.0468471 20.943175,15.7035681 C20.8201749,18.3802714 19.5616746,19.8704954 17.8944242,20.5177341 C16.7527429,20.959735 15.6364162,20.9882675 12.6890404,20.9901007 L11.6570929,20.9909466 C11.2004338,20.9927488 10.7628132,20.9974368 10.3432194,20.9992597 L9.72722234,20.9991265 C7.5172129,20.9854878 5.83721426,20.7982033 4.51892083,19.4805022 C2.8141704,17.7757819 3.00917045,15.4973217 3.00917045,11.9963829 C3.00917045,8.57569262 2.78792039,6.24323335 4.51892083,4.51226358 C5.55467109,3.47653167 6.83942141,3.12478781 8.29592178,3.05653901 Z M11.9709227,4.59851208 L11.4330107,4.59873383 C11.3496779,4.59880871 11.2693853,4.59890303 11.1919539,4.59901751 L10.7602664,4.59995205 C9.82642136,4.602724 9.38315661,4.60972948 8.93905455,4.62294413 L8.74724113,4.62899346 C8.61742106,4.63328747 8.48180183,4.63811138 8.32892179,4.64351129 C4.96993056,4.81554675 4.60138979,6.7954223 4.58386638,9.73390286 L4.58346591,10.1601152 C4.58535576,10.7368487 4.59542085,11.3468942 4.59542085,11.9843831 C4.59542085,15.0465796 4.36667079,17.0662943 5.63042111,18.3240224 C6.72767139,19.4242532 8.23142176,19.3687541 11.9814227,19.3687541 C15.6234236,19.3687541 17.197674,19.4700024 18.3324243,18.3352722 C19.3037713,17.3593699 19.3756262,16.0859179 19.3784926,13.3246807 L19.3780322,12.3475324 L19.3780322,12.3475324 L19.3779246,11.9956329 L19.3779246,11.9956329 L19.3770805,10.9940897 C19.3739598,9.48598472 19.3613346,9.15738246 19.3254246,8.36044638 C19.1371745,4.20251899 16.0014237,4.62101168 12.0046727,4.62101168 L12.0046727,4.62101168 L11.9709227,4.59851208 L11.9709227,4.59851208 Z M12.0031727,7.37796353 C14.5531734,7.37796353 16.6216739,9.44417745 16.6216739,11.9963829 C16.6216739,14.5463383 14.5554234,16.6148022 12.0031727,16.6148022 C9.45317207,16.6148022 7.38467155,14.5485883 7.38467155,11.9963829 C7.38467155,9.44642741 9.45092207,7.37796353 12.0031727,7.37796353 Z M12.0031727,8.99868523 C10.3471723,8.99868523 9.00542196,10.3404118 9.00542196,11.9963829 C9.00542196,13.652354 10.3464223,14.9940805 12.0031727,14.9940805 C13.6599231,14.9940805 15.0016735,13.652354 15.0009238,11.9963829 C15.0009238,10.3404118 13.6591731,8.99868523 12.0031727,8.99868523 Z M16.8046739,6.11648556 C17.4007274,6.11648556 17.8839242,6.59967381 17.8839242,7.19571672 C17.8839242,7.79175962 17.4007274,8.27494787 16.8046739,8.27494787 C16.2086205,8.27494787 15.7254236,7.79175962 15.7254236,7.19571672 C15.7254236,6.59967381 16.2086205,6.11648556 16.8046739,6.11648556 Z" id="Combined-Shape" fill="#FFFFFF"></path>
    </g>
</svg>