<?xml version="1.0" encoding="UTF-8"?>
<svg width="100px" height="100px" viewBox="0 0 100 100" version="1.1" xmlns="http://www.w3.org/2000/svg" xmlns:xlink="http://www.w3.org/1999/xlink">
    <title>Img/intro_1</title>
    <defs>
        <linearGradient x1="50%" y1="100%" x2="50%" y2="0.445257867%" id="linearGradient-1">
            <stop stop-color="#010CD8" offset="0%"></stop>
            <stop stop-color="#79ADFF" offset="100%"></stop>
        </linearGradient>
        <linearGradient x1="50%" y1="100%" x2="50%" y2="0.114729021%" id="linearGradient-2">
            <stop stop-color="#A6BFFF" offset="0%"></stop>
            <stop stop-color="#C3DCFF" offset="100%"></stop>
        </linearGradient>
        <path d="M25.8984375,51.9296875 C11.6180391,51.9296875 0,40.3116484 0,26.03125 C0,11.6775391 11.6180391,0 25.8984375,0 C40.1788359,0 51.796875,11.6775391 51.796875,26.03125 C51.796875,40.3116484 40.1788359,51.9296875 25.8984375,51.9296875 Z" id="path-3"></path>
        <filter id="filter-5">
            <feColorMatrix in="SourceGraphic" type="matrix" values="0 0 0 0 0.484375 0 0 0 0 0.666695 0 0 0 0 1.000000 0 0 0 1.000000 0"></feColorMatrix>
        </filter>
        <linearGradient x1="50%" y1="100%" x2="50%" y2="0.445257867%" id="linearGradient-6">
            <stop stop-color="#010CD8" offset="0%"></stop>
            <stop stop-color="#79ADFF" offset="100%"></stop>
        </linearGradient>
        <linearGradient x1="50%" y1="100%" x2="50%" y2="0.445257867%" id="linearGradient-7">
            <stop stop-color="#010CD8" offset="0%"></stop>
            <stop stop-color="#79ADFF" offset="100%"></stop>
        </linearGradient>
    </defs>
    <g id="Img/intro_1" stroke="none" stroke-width="1" fill="none" fill-rule="evenodd">
        <g id="Group-2" transform="translate(24.000000, 16.000000)">
            <path d="M13.9453125,44.7470547 C12.8450938,44.7470547 11.953125,45.6390234 11.953125,46.7392422 L11.953125,66.0078125 C11.953125,66.7425312 12.3575391,67.4176172 13.0052656,67.7642578 C13.653125,68.1110312 14.4389766,68.0729141 15.0503125,67.6654453 L25.8984375,60.4334062 L36.7465625,67.6654453 C37.3586953,68.0735781 38.1449453,68.1105 38.7916094,67.7642578 C39.4393359,67.4176172 39.84375,66.7425312 39.84375,66.0078125 L39.84375,46.7392422 C39.84375,45.6390234 38.9517813,44.7470547 37.8515625,44.7470547 L13.9453125,44.7470547 Z" id="Path" fill="url(#linearGradient-1)" fill-rule="nonzero"></path>
            <mask id="mask-4" fill="white">
                <use xlink:href="#path-3"></use>
            </mask>
            <use id="Path" fill="url(#linearGradient-2)" fill-rule="nonzero" xlink:href="#path-3"></use>
            <g filter="url(#filter-5)" id="Group">
                <g mask="url(#mask-4)">
                    <g transform="translate(-2.000000, 2.000000)" fill="#E9EFBA" fill-rule="nonzero">
                        <path d="M13.0650084,49.3058824 C12.9085117,49.544645 12.9914669,49.8476271 13.2550548,50 L13.7505327,49.8764706 C13.7638159,49.8517179 13.7797213,49.8280871 13.7980443,49.8058824 L13.5469117,49.6823529 L13.8523433,49.7176471 C14.0307004,49.5274453 14.0307004,49.2549077 13.8523433,49.0647059 L13.5401243,49 C13.3415596,49.0439512 13.1709053,49.1538193 13.0650084,49.3058824 L13.0650084,49.3058824 Z" id="Shape-1046"></path>
                        <path d="M34.9861111,27.3971357 L35.0989316,27.7612419 C35.1590261,27.7978625 35.2048719,27.8597626 35.2271368,27.9343415 L35.6271368,28 C35.6271368,28 35.6630342,28 35.6886752,27.9462794 C35.7886327,27.8814367 35.8718549,27.7866314 35.9297009,27.6717076 C35.9524577,27.6199786 35.9713313,27.5660574 35.9861111,27.5105458 L35.8938034,27.1882223 C35.7414635,27.0396157 35.5415958,26.9743909 35.3450855,27.0091537 C35.1766625,27.0592994 35.0415343,27.2053469 34.9861111,27.3971357 Z" id="Shape-1048"></path>
                        <path d="M54.4068604,54 L54.7757365,53.8982612 L55.5768892,53.1715552 L55.6345261,53.0552823 C55.8603199,52.5555473 55.9398694,51.9717569 55.85931,51.4056598 L55.9861111,50.9260339 L55.9457653,50.5190786 L55.6229987,49.6252303 C55.172317,49.0088459 54.458627,48.8271183 53.8535463,49.1746727 C53.5492554,49.3049065 53.2771142,49.5328216 53.0639209,49.835975 C52.604915,49.9763403 52.2138128,50.3534284 51.9861111,50.8751645 L52.1071486,51.420194 C52.0374769,51.7069711 52.0120422,52.0079265 52.0322206,52.3067752 L52.6719901,53.5567094 L52.8794829,53.7093176 L53.4558517,53.7892553 L53.4558517,53.7892553 L54.4068604,54 Z" id="Shape-1055"></path>
                        <path d="M38.1289016,45.7810798 L38.1289016,45.8263639 L38.1289016,46.1174759 L37.9861111,46.6738232 L38.0527467,47.3207387 C38.1041613,47.5186443 38.192768,47.6948295 38.3097695,47.831802 L38.7000634,48 L39.1760315,47.9094318 C39.3176437,47.838859 39.4448907,47.72356 39.5472867,47.5730358 L39.6282013,47.2431089 C39.7281303,47.1460254 39.8110245,47.0201043 39.8709451,46.874367 L39.9137822,46.6867615 L39.9137822,46.6867615 C40.102276,46.0970341 39.9099877,45.4106315 39.4806512,45.1406334 C39.2392568,44.9789274 38.9602113,44.9556673 38.7060874,45.0760688 C38.4519635,45.1964703 38.2440257,45.4504587 38.1289016,45.7810798 Z" id="Shape-1059"></path>
                        <path d="M46.9987525,26.7515924 C47.0471354,26.8713618 47.151322,26.9631042 47.280855,27 L47.4823567,26.9235669 C47.4368114,26.9228219 47.3924753,26.909545 47.3547389,26.8853503 L47.8517766,26.8025478 L47.9861111,26.566879 L47.9861111,26.2738854 C47.9071756,26.1114268 47.7380672,26.0053395 47.549524,26 C47.3699897,26.0278053 47.2100266,26.1234781 47.1062168,26.2651387 C47.002407,26.4067994 46.9636296,26.5823315 46.9987525,26.7515924 L46.9987525,26.7515924 Z" id="Shape-1062"></path>
                        <path d="M29.3867513,42.1548043 C29.2436782,42.1306099 29.1011437,42.2013095 29.0269483,42.3332728 L28.9863254,42.5240494 C28.9798712,42.7461566 29.1198241,42.9431878 29.3229153,42.9979141 C29.5710174,43.0195669 29.8045051,42.8710056 29.9032427,42.6286689 C30.0137339,42.4808615 30.0137339,42.2718413 29.9032427,42.1240338 C29.8278001,42.0255685 29.6711117,41.9394113 29.3867513,42.0563389 L29.3867513,42.1548043 Z" id="Shape-1065"></path>
                        <path d="M46.2391725,39.4030434 L46.1172655,39.6767673 C45.8802902,40.3010933 45.9714767,41.0928833 46.333989,41.5586189 C46.7064947,42.0818064 47.2677375,42.1470211 47.688511,41.7160102 L47.8239632,41.490188 L47.9142646,41.2643658 L47.9774757,40.9769557 C48.0239278,40.3893176 47.8811238,39.8036687 47.5936944,39.4030434 C47.3276145,39.0467236 46.9615751,38.9157354 46.6184386,39.0540455 L46.2391725,39.4030434 Z" id="Shape-1067"></path>
                        <path d="M44.6871897,52.0908041 L44.1602251,52.019458 L43.8643854,52.1491781 L43.2773284,52.7977785 L43.087806,53.2777428 L42.9861111,54.3025314 L43.0554486,54.7111497 L43.4714732,55.5478442 C43.8349018,55.932259 44.2978379,56.0812157 44.744327,55.9574041 C45.1908162,55.8335926 45.5785666,55.4487404 45.8104563,54.8992438 L45.9583761,54.3414475 L45.9861111,54.0884933 L45.9537536,53.4788089 C45.7971177,52.6646983 45.2950803,52.0742217 44.6964347,52 L44.6871897,52.0908041 Z" id="Shape-1068"></path>
                        <path d="M20.0117642,20.1962025 L20.0742224,20.6708861 C20.0399452,20.6437904 20.0121829,20.6091657 19.9930268,20.5696203 C19.9663737,20.7272362 20.0177244,20.8880735 20.1304347,21 L20.5489042,21 L20.6238539,20.943038 C20.7469545,20.876142 20.8487599,20.7751738 20.9174072,20.6518987 C20.9462724,20.5998042 20.9693161,20.544611 20.9861111,20.4873418 L20.8487032,20.1265823 L20.6176081,20 L20.2366135,20.0822785 C20.1539063,20.1019212 20.0768959,20.14094 20.0117642,20.1962025 L20.0117642,20.1962025 Z" id="Shape-1069"></path>
                        <path d="M51.5001455,43.1384615 L51.1947785,43.5230769 L51.0370056,43.9538462 L50.9861111,44.5846154 L51.0777212,45.0923077 L51.3423726,45.5923077 L51.7189918,45.9153846 L52.1108794,46 L52.4315147,45.8923077 L52.7725078,45.5384615 L52.8386706,45.3846154 C52.9955654,44.9934189 53.0291395,44.516983 52.9302807,44.0846154 C52.8042344,43.5796749 52.5383145,43.1833788 52.2024895,43 L51.8106019,43 L51.5001455,43.1384615 Z" id="Shape-1070"></path>
                        <path d="M34.9861111,50.5136985 L35.2087051,51.4213171 L35.3118584,51.4822311 C35.4355822,51.7329736 35.6423216,51.9189782 35.8873453,52 L36.0393607,52 L36.0827937,52 L36.2402382,51.9512688 L36.3596789,51.9512688 L36.3596789,51.9512688 L36.8645872,51.7928924 C36.9874598,51.5395729 37.018572,51.2428602 36.9514532,50.9644621 C36.8677182,50.6398712 36.6724043,50.3659468 36.408541,50.2030372 C36.1844491,50.028063 35.9067602,49.9623506 35.6387742,50.0208792 C35.3707882,50.0794079 35.1353438,50.2571896 34.9861111,50.5136985 L34.9861111,50.5136985 Z" id="Shape-1074"></path>
                        <path d="M39.6378249,41.1390728 L39.3066753,41.4900662 C39.133216,41.9139073 38.7232214,42.9072848 39.2330865,43.7748344 L39.9374363,44 L40.3789691,43.7350993 L40.6785805,43.3046358 L40.778451,43.0794702 C40.9695349,42.7145622 41.032317,42.26633 40.9519103,41.8410596 C40.8706957,41.4948624 40.6808414,41.2054312 40.4262761,41.0397351 L39.9899998,41 L39.6378249,41.1390728 Z" id="Shape-1075"></path>
                        <path d="M17.9861111,37.7810219 L17.9346405,37.2627737 C17.9017218,37.1623188 17.8435108,37.071871 17.7655229,37 L17.250817,37.0510949 C17.148227,37.0807808 17.056362,37.139044 16.9861111,37.2189781 L17.0302288,37.7372263 C17.0668761,37.8358878 17.1245649,37.9255241 17.1993464,38 L17.7214052,37.9489051 C17.8225988,37.9162266 17.9137117,37.8584405 17.9861111,37.7810219 Z" id="Shape-1090"></path>
                        <path d="M49.9976835,12.328077 C49.944252,12.6004861 50.0800489,12.874906 50.3182546,12.9758911 C50.6000524,13.0662421 50.8965127,12.8949964 50.9861111,12.5901142 L50.8258256,12.1242704 C50.6252291,11.9896654 50.3790497,11.9628349 50.1579691,12.0514823 L49.9976835,12.328077 Z" id="Shape-1108"></path>
                        <path d="M41.9861111,33.5276846 L42.2632195,33.9606565 C42.7029786,34.0824299 42.9680388,33.9200654 42.9861111,33.4938586 L42.7752677,33.1623645 C42.6969545,33.1623645 42.666834,33.1014778 42.5945448,33 L42.0945448,33.1150082 L41.9861111,33.5276846 Z" id="Shape-1122"></path>
                        <path d="M52.9861111,44.5700532 L52.9861111,44.0517501 L52.884479,43.6249123 L52.6608884,43.2056966 C52.4069722,42.9489629 52.0778052,42.9312241 51.8122604,43.1599639 C51.9002656,43.1390687 51.990425,43.1576302 52.0714223,43.2133187 L51.8071788,43.2133187 C51.5568678,43.0712604 51.2785584,43.0905358 51.03804,43.2665882 C50.7975217,43.4426406 50.6161422,43.7598442 50.5367776,44.1432153 C50.2986757,44.3555262 50.1185854,44.6877797 50.0286171,45.0807341 C49.9366623,45.5080856 49.9960233,45.9762527 50.1861469,46.3231371 C50.3056487,46.5423403 50.4731011,46.6908808 50.6587361,46.7423528 C50.6934449,47.2972489 50.9272747,47.7795037 51.2685287,48 L51.8071788,47.923779 L52.1578095,47.5655401 L52.3610737,47.2149233 C52.4919801,46.992614 52.5921608,46.7335364 52.6558068,46.4527129 L52.7117045,45.9801424 L52.5541747,45.4161067 C52.75807,45.215909 52.910416,44.917502 52.9861111,44.5700532 L52.9861111,44.5700532 Z" id="Shape-1129"></path>
                        <path d="M36.1797343,54.4915254 L35.9861111,55.3983051 L36.0750731,56.1016949 L36.4675526,56.7881356 L36.8914304,57 L37.2577446,57 L37.5455629,56.8220339 L37.8333812,56.440678 L37.9485085,56.0169492 C38.0830004,55.2417689 37.8471591,54.423865 37.3938042,54.0932203 L37.0798206,54 L36.6036121,54.0762712 L36.2058996,54.4830508 L36.5408154,55.2288136 L36.5408154,55.2288136 L36.1797343,54.4915254 Z" id="Shape-1130"></path>
                        <path d="M31.3269316,50.3125 L31.0650994,50.7734375 L31.0291616,50.9140625 C30.9572861,51.3046875 30.8648748,52.265625 31.7633186,52.953125 L32.1945717,53 L32.5436813,52.828125 L32.9338626,52.125 C33.0288405,51.6894093 32.9931695,51.2123036 32.8363173,50.8203125 C32.6370954,50.3675863 32.3187624,50.068388 31.9635433,50 L31.5938978,50.0859375 L31.3269316,50.3125 Z" id="Shape-1133"></path>
                        <path d="M48.0145471,52.7642518 L47.9861111,53.3790969 L48.2609926,54.5129673 L48.2041206,54.5688623 C48.5210134,55.6478668 49.2398466,56.2119481 49.9339784,55.9263127 L50.4079121,55.5031075 L50.5785282,55.2396025 L50.872367,54.4411022 L50.9861111,53.8023021 L50.9008031,52.4448517 L50.7396656,51.9657515 L50.0998552,51.1672513 C49.5584226,50.8686107 48.9670946,50.9731776 48.4742628,51.4547114 L48.0145471,52.7642518 Z" id="Shape-1137"></path>
                        <path d="M40.425887,44.0756303 L39.9272876,44 L39.4006769,44.2857143 C39.2540724,44.4263178 39.131315,44.6162081 39.0421335,44.8403361 L38.9861111,45.5798319 L39.1821895,46.3781513 C39.2768742,46.6100858 39.4100676,46.8011895 39.5687442,46.9327731 L40.0505369,47 L40.5715453,46.7058824 C40.7124396,46.574485 40.831286,46.3962155 40.9188842,46.1848739 L40.9861111,45.4285714 L40.7900327,44.5882353 C40.6959051,44.378451 40.5714319,44.203231 40.425887,44.0756303 Z" id="Shape-1138"></path>
                        <path d="M50.1708535,38.0318375 L49.8597759,38.2865378 C49.4428445,38.4241349 49.1133023,38.8084217 48.9861111,39.3053387 L48.9861111,39.8624954 L49.1251032,40.3002615 L49.4163248,40.7300681 C49.8079639,41.065317 50.3274049,41.0903034 50.7400594,40.7937432 L50.8790515,40.7937432 L51.2960279,40.6823118 L51.7262416,40.3480178 L51.9314204,39.8386173 C52.0301236,39.4616218 51.9941651,39.0522598 51.8321403,38.708385 C51.6349132,38.311716 51.2942607,38.0494179 50.9121449,38 L50.1708535,38.0318375 Z" id="Shape-1139"></path>
                        <path d="M26.9861111,43.3457732 L26.9861111,43.6239215 C27.0884359,43.8658982 27.3003261,44.0129663 27.5266517,43.9990984 C27.7800392,43.9701546 27.9764314,43.7213104 27.9861111,43.4169274 L27.8293544,43.0934991 C27.2617868,42.8153507 27.0401652,43.2358075 26.9861111,43.3457732 Z" id="Shape-1141"></path>
                        <path d="M41.5639593,52.5000662 L41.9444693,52.1429705 C42.0183094,51.7238734 41.9932397,51.2701277 41.8749053,50.883906 C41.756571,50.4976843 41.55492,50.2114552 41.3153594,50.0896708 C40.7668408,49.7807615 40.1781035,50.2947854 39.9861111,51.2502315 L40.2955926,52.4197196 L40.3311069,52.4197196 C40.4263413,52.6560513 40.54915,52.8538866 40.691323,53 L41.3610206,52.8839439 C41.4361272,52.768856 41.5041474,52.6401892 41.5639593,52.5000662 L41.5639593,52.5000662 Z" id="Shape-1142"></path>
                        <path d="M35.9861111,25.3422819 L36.1337621,25.8053691 C36.1844957,25.8829959 36.2507662,25.9492664 36.328393,26 L36.7914802,25.852349 C36.8724436,25.8029032 36.9394374,25.7335992 36.9861111,25.6510067 L36.8384601,25.1946309 C36.7927661,25.1152971 36.7282227,25.0484487 36.6505406,25 L36.180742,25.147651 C36.1012819,25.1960908 36.0345509,25.2628218 35.9861111,25.3422819 L35.9861111,25.3422819 Z" id="Shape-1143"></path>
                        <path d="M13.9861111,33.66 L13.8461111,33.2 C13.7988441,33.1186377 13.7324915,33.0499971 13.6527778,33 L13.1927778,33.1466667 C13.1059888,33.1949675 13.034412,33.2665443 12.9861111,33.3533333 L13.1394444,33.7933333 C13.1872297,33.8782749 13.2561149,33.9494562 13.3394444,34 L13.7927778,33.8466667 C13.8730497,33.8032539 13.9399093,33.7386997 13.9861111,33.66 L13.9861111,33.66 Z" id="Shape-1148"></path>
                        <path d="M32.1304589,53.8482096 L32.7774155,53.0823578 L32.9235024,52.6890826 L32.9861111,51.5920517 L32.8869807,51.1642786 L32.3652415,50.3156321 C31.9774226,49.9944452 31.5027403,49.9137734 31.0661111,50.094846 C30.6432185,50.2850186 30.2979987,50.696639 30.1113285,51.2332743 L29.9861111,51.6610473 L30.0435024,52.6890826 L30.1791546,53.0754582 L30.7008937,53.8137117 L30.8991546,53.9379039 L31.7704589,54 L32.1304589,53.8482096 Z" id="Shape-1155"></path>
                        <path d="M8.98611111,25.4387979 L9.11366213,25.8008638 C9.17482453,25.8335191 9.22380753,25.8914537 9.25141723,25.9637934 L9.65447846,26 C9.67132838,25.9768763 9.69221618,25.9583475 9.71570295,25.9456901 C9.81121328,25.8721886 9.88864665,25.7701971 9.94019274,25.650003 C9.96081278,25.5958988 9.97621595,25.5392204 9.98611111,25.4810389 L9.87896825,25.1672485 C9.72261167,25.0245087 9.52143133,24.9694287 9.32794785,25.0163878 C9.16008323,25.0781345 9.03091898,25.2377437 8.98611111,25.4387979 Z" id="Shape-1156"></path>
                        <path d="M8.04567664,57 L8.57691443,57 L8.98611111,56.8119403 L8.54819888,55.3164179 L8.54819888,55.2626866 C8.56374579,55.1784987 8.59307493,55.0992284 8.63434555,55.0298507 L7.30625107,54 C6.9808539,54.5595222 6.89759092,55.2832299 7.08370551,55.9343284 C7.26394387,56.4479999 7.61548317,56.8374351 8.04567664,57 L8.04567664,57 Z" id="Shape-1158"></path>
                        <path d="M48.1512831,52.3159783 C47.7680459,53.4052601 48.0716418,54.6985143 48.8555194,55.3158765 L49.0882755,55.3550397 L49.171829,55.5116923 C49.6345198,55.9598925 50.226784,56.1095941 50.7832173,55.9189892 L51.2546976,55.5900186 L51.4874537,55.3393744 L51.8336038,54.7675922 C52.2008325,53.6747949 51.8850216,52.3943029 51.0995269,51.7911919 L50.9682286,51.7050329 L50.878707,51.4622213 C50.4269674,51.0424916 49.8589845,50.899689 49.3210316,51.0705897 C48.8067029,51.2296019 48.3758991,51.688263 48.1512831,52.3159783 L48.1512831,52.3159783 Z" id="Shape-1164"></path>
                        <path d="M28.3420416,54.6838051 L27.9861111,56.0813566 L27.9861111,56.6758951 L28.0323358,56.9615824 L28.0323358,56.9615824 C28.1064919,57.9356879 28.524043,58.7397562 29.0908822,59 L29.6871813,59 L29.9460398,58.861017 L29.9460398,58.861017 L30.2048983,58.7451978 L30.3897972,58.5676084 L30.778085,57.9112997 L30.8335546,57.7414315 C30.9349578,57.3898678 30.9871227,57.0043609 30.9861111,56.6141248 C30.9861111,56.6141248 30.9861111,56.4596993 30.9861111,56.397929 L30.9861111,56.397929 L30.9861111,55.9423736 L30.8890243,55.4250479 L30.3759298,54.3981178 C29.7284635,53.7768583 28.918303,53.8906563 28.3420416,54.6838051 L28.3420416,54.6838051 Z" id="Shape-1165"></path>
                        <path d="M31.5546537,51 L31.924062,50.8693927 L32.6917388,50.0784933 L32.7379149,49.955142 C32.9407711,49.4403001 32.9938654,48.8524342 32.887987,48.2935275 L32.9861111,47.8073783 L32.9283911,47.4010446 L32.5647547,46.5448415 C32.086585,45.961673 31.3638046,45.8327099 30.7754329,46.2255794 C30.4760686,46.3775649 30.2148521,46.628232 30.0193001,46.9511752 C29.5678741,47.1304412 29.1945178,47.5342345 28.9861111,48.0685928 L29.1361833,48.6055337 C29.0775909,48.8973218 29.067764,49.2012129 29.1073232,49.4980166 L29.7999639,50.6952497 L30.0193001,50.825857 L30.5965007,50.825857 L30.5965007,50.825857 L31.5546537,51 Z" id="Shape-1166"></path>
                        <path d="M37.0426083,5.37323339 L36.9861111,5.45734281 L37.0539077,5.8778899 C37.1924555,5.989632 37.3716744,6.02730449 37.5397834,5.98002276 C37.7159468,5.916844 37.8566685,5.77380467 37.9239642,5.58951475 C37.9239642,5.54746004 37.9635122,5.4933897 37.9861111,5.43931936 L37.8731168,5.09687387 C37.7319809,4.99944406 37.5573501,4.97398233 37.3967614,5.02741972 C37.2361728,5.08085712 37.106341,5.20763161 37.0426083,5.37323339 L37.0426083,5.37323339 Z" id="Shape-1168"></path>
                        <path d="M36.0919687,49.2139303 C35.9363307,49.7433798 35.9529089,50.334591 36.1377691,50.8472658 C36.3226293,51.3599405 36.6592927,51.7483775 37.0678667,51.920398 L37.5683272,52 L37.913645,51.933665 C38.3204554,51.7712407 38.6577854,51.3914259 38.8445015,50.8855721 C39.2078826,49.7913917 38.8485823,48.5125856 38.0337555,48 L37.0678667,48 L36.7275536,48.2056385 L36.0919687,49.2139303 Z" id="Shape-1170"></path>
                        <path d="M15.1060019,44.8430628 L15.1060019,44.887999 L15.1060019,45.1768745 L14.9861111,45.7417867 L15.0868194,46.3837322 C15.146,46.5761717 15.2419185,46.7444159 15.3649661,46.8716109 L15.7630037,47 L16.242567,46.8716109 C16.3838203,46.795804 16.5078116,46.6718757 16.6022394,46.5121214 L16.6693783,46.1783097 C16.7635916,46.0696187 16.8402816,45.9363823 16.8947731,45.7867228 L16.9283425,45.6069781 L16.9283425,45.6069781 C17.0969065,45.0168405 16.8844622,44.3542375 16.4487792,44.1112449 C16.1984664,43.9667518 15.915291,43.9628683 15.6628193,44.1004663 C15.4103475,44.2380642 15.2097305,44.5056161 15.1060019,44.8430628 L15.1060019,44.8430628 Z" id="Shape-1171"></path>
                        <path d="M21.9997845,24.7662596 C22.0570856,24.8832953 22.1663242,24.9691945 22.2970336,25 L22.4997035,24.909101 C22.4581315,24.9229538 22.4129178,24.9229538 22.3713459,24.909101 L22.8645092,24.7987236 L22.9861111,24.5519976 L22.9861111,24.2533293 C22.8935833,24.0936804 22.7168279,23.9962506 22.5267261,24.0001106 C22.3511203,24.0345188 22.1969365,24.1345792 22.0981097,24.2782688 C21.9992829,24.4219584 21.9639129,24.5975007 21.9997845,24.7662596 Z" id="Shape-1174"></path>
                        <path d="M5.32850911,40.1673027 C5.18655112,40.1574551 5.0523428,40.2354957 4.98611111,40.366403 L4.98611111,40.5534366 C5.04414467,40.9154372 5.25886884,40.9878373 5.34591917,40.999904 C5.5998898,41.0044641 5.83044037,40.8462705 5.92625476,40.6017034 C6.01914647,40.4455253 6.00264146,40.2445188 5.88563127,40.1069693 C5.79858093,40.0164691 5.64189032,39.9380357 5.36332924,40.0707692 L5.32850911,40.1673027 Z" id="Shape-1177"></path>
                        <path d="M24.8937286,55.1457781 L24.4998874,54.445735 C24.1008376,54.0489389 23.5924614,53.907823 23.1092878,54.05973 C22.6568734,54.2352031 22.2839426,54.6677095 22.0882181,55.243915 L21.9861111,55.5906653 L21.9861111,56.5131519 L22.0784936,56.8664447 L22.477197,57.5664878 C22.8754326,57.9604391 23.3835271,58.0947752 23.8629344,57.9328655 C24.3119077,57.7671327 24.6837207,57.3434346 24.8791419,56.7748503 L24.9861111,56.4084726 L24.9861111,55.4990709 L24.8937286,55.1457781 Z" id="Shape-1178"></path>
                        <path d="M21.1984809,37.4961705 L21.0862875,37.7775598 C20.8791287,38.4264373 21.0013814,39.2088038 21.3779904,39.6443372 C21.7731999,40.1185543 22.329102,40.1185543 22.7243116,39.6443372 L22.8499682,39.41099 L22.9262598,39.1776429 L22.9846003,38.8756641 C23.0039116,38.2830804 22.8371946,37.7119647 22.5358266,37.338318 C22.2584218,37.0073479 21.890776,36.9119209 21.5574999,37.0843814 L21.1984809,37.4961705 Z" id="Shape-1179"></path>
                        <path d="M20.5954134,50.0518134 L20.0605297,50.0518134 L19.7721576,50.200777 L19.2140181,50.9132113 L19.0419251,51.4054387 L18.9861111,52.4352302 L19.0744832,52.8367842 L19.5395995,53.6334153 C19.9315187,53.9825895 20.4102893,54.0882256 20.8605297,53.9248657 C21.2903261,53.7549535 21.6515857,53.3478349 21.8605297,52.7979241 L21.9861111,52.2344533 L21.9861111,51.9753862 L21.925646,51.3730553 C21.7334051,50.5744595 21.204626,50.0267429 20.6000646,50 L20.5954134,50.0518134 Z" id="Shape-1180"></path>
                        <path d="M28.4441562,40.2071611 L28.154061,40.6138107 L28.0115581,41.0588235 L27.9861111,41.6956522 L28.1031671,42.1867008 L28.3830835,42.6624041 L28.7749666,42.9462916 L29.171939,43 L29.4823918,42.8618926 L29.8081128,42.4705882 L29.8691855,42.3094629 C30.0093275,41.9076008 30.0242357,41.4328105 29.9099006,41.0127877 C29.7629525,40.5235183 29.4826739,40.1541449 29.1414027,40 L28.7444303,40 L28.4441562,40.2071611 Z" id="Shape-1182"></path>
                        <path d="M10.9861111,48.5734244 L11.2578957,49.4673302 L11.3591488,49.5224339 C11.494566,49.7641675 11.7068362,49.9355415 11.9506799,50 L12.0945658,49.9693868 L12.1371987,49.9693868 L12.2917429,49.9081604 L12.4089833,49.9081604 L12.4089833,49.9081604 L12.8939322,49.7122358 C13.0022485,49.4492533 13.015658,49.1477308 12.931236,48.8734339 C12.8266203,48.5510347 12.6134054,48.2906229 12.3397049,48.1509622 C12.1114833,48.0005689 11.8405828,47.9605892 11.5866869,48.0398312 C11.332791,48.1190731 11.116732,48.311035 10.9861111,48.5734244 Z" id="Shape-1185"></path>
                        <path d="M14.5705447,39.1596452 L14.2518796,39.5388027 C14.0978581,39.9778271 13.7207711,41.0022173 14.2890572,41.8337029 L15.0113648,42 L15.4468738,41.7006652 L15.7283613,41.248337 L15.8133387,41.0155211 C15.9918122,40.6381539 16.0342691,40.183747 15.9301826,39.7649667 C15.8283115,39.4197423 15.6168044,39.1427985 15.3459632,39 L14.9051431,39 L14.5705447,39.1596452 Z" id="Shape-1186"></path>
                        <path d="M48.6477207,45.1377614 L48.050824,44.8241082 L47.912736,44.6888069 C47.7122704,44.6034757 47.4997997,44.5865923 47.293567,44.6396064 C47.2392994,44.5280356 47.1781978,44.4230996 47.1109345,44.3259533 L46.2957696,44 L45.9616856,44.0799508 L45.3291533,44.6396064 C45.1306102,44.8792975 44.9633636,45.1642942 44.834709,45.4821648 L44.7812556,45.4452645 L43.9126373,45.4452645 L43.9126373,45.4821648 L43.7210958,45.5436654 L43.0662913,46.2693727 L42.9861111,46.496925 L42.9861111,47.7269373 L43.0128378,47.7269373 L43.0618368,47.9913899 L43.5830078,48.8892989 L43.752277,49 L44.6208953,49 L44.6208953,48.9569496 L44.8213457,48.8892989 L45.4627869,48.1697417 L45.5296037,47.9790898 L45.7345085,48.1574416 L46.0685925,48.2127921 L46.8169406,47.7945879 C46.9427067,47.9156481 47.0829384,48.0051674 47.2312047,48.0590406 C47.8664404,48.3233857 48.5482423,47.9287995 48.85708,47.1180812 C49.0873914,46.461021 49.0044538,45.6765179 48.6477207,45.1377614 L48.6477207,45.1377614 Z" id="Shape-1187"></path>
                        <path d="M30.0813492,33.8865419 C30.0295916,34.0650803 29.997374,34.2566173 29.9861111,34.4527412 L30.0146825,34.8812163 C30.1080317,35.4191107 30.37632,35.8325964 30.7146825,35.9600554 C31.1074575,36.091852 31.5149496,35.8928308 31.7956349,35.4321128 L31.9289683,35.0418944 L31.9861111,34.67463 L31.9861111,34.2232009 C31.8487375,33.5480262 31.4740868,33.0694506 31.0337302,33.0066377 C30.6323686,32.9465359 30.2509278,33.2989488 30.0813492,33.8865419 Z" id="Shape-1189"></path>
                        <path d="M41.4806961,34.0313218 C40.9227421,33.8845646 40.3617378,34.2644057 40.1346419,34.9426993 C39.9521709,35.4181306 39.9371228,35.9729526 40.0933835,36.4638956 L40.4131359,36.84587 L40.7483601,37 L41.181573,37 C41.4288729,36.8502763 41.6291309,36.5947955 41.7488755,36.276259 C41.8032558,36.1261575 41.8381103,35.9653806 41.8520214,35.8004664 L41.8056058,35.7535572 L41.9861111,35.2509593 L41.913909,34.6612445 L41.4806961,34.0313218 Z" id="Shape-1190"></path>
                        <path d="M39.0070589,18.7736092 C39.0623121,18.8881446 39.171459,18.9718908 39.3021158,19 L39.496585,18.9182478 C39.450618,18.9207461 39.4052745,18.907318 39.3691741,18.8805159 L39.8587002,18.7798978 L39.9861111,18.534641 L39.9861111,18.2453639 C39.8942658,18.0907348 39.7188139,17.9963684 39.5301142,18.0001071 C39.3485269,18.0328405 39.1894117,18.1344381 39.0903837,18.2808822 C38.9913558,18.4273262 38.9612049,18.605618 39.0070589,18.7736092 Z" id="Shape-1191"></path>
                        <path d="M37.2271644,59.8356566 L37.2271644,59.8943695 C37.8564804,60.173747 38.5553939,59.8853615 38.9346799,59.1898148 L38.9861111,57.8068002 L38.9861111,57.8068002 C38.9839627,57.0821079 38.6418931,56.4286088 38.1161746,56.1448497 C37.5904562,55.8610907 36.9820274,56.0015538 36.5688451,56.5020694 L36.4094084,56.9195833 C36.2947619,57.0669886 36.1992839,57.2365376 36.1265369,57.4219046 C35.8151805,58.2361418 36.0367824,59.2171287 36.6408488,59.6986599 L37.2271644,59.8356566 Z" id="Shape-1192"></path>
                        <path d="M34.1982158,31 L33.6752163,31.0883281 L33.1318402,31.466877 C32.8867053,31.9698019 32.9543013,32.5566345 33.3084374,33 L33.8857745,32.533123 C33.8830957,32.5582983 33.8830957,32.5836576 33.8857745,32.6088328 L34.1167093,32.4132492 C34.2248869,32.4711829 34.3385685,32.5197574 34.4563194,32.5583596 L34.7212153,31.9274448 L34.7212153,31.9274448 L34.9861111,31.29653 C34.8706437,31.2586751 34.8638515,31.2523659 34.8163061,31.2082019 L34.1982158,31 Z" id="Shape-1193"></path>
                        <path d="M33.7232982,36.6565553 L33.7232982,36.6565553 C33.5963222,36.3642855 33.4131874,36.1355332 33.1976724,36 L32.8297344,36 L32.5353839,36.117242 L32.2252647,36.4220713 L32.1043708,36.7190844 C31.9755866,37.0879286 31.950875,37.5178482 32.0356968,37.9138416 C32.1205185,38.309835 32.3078908,38.6393028 32.5564089,38.8294408 C33.0583814,39.2096513 33.672681,38.9338859 33.9493173,38.20415 L33.9861111,37.4850656 L33.8494484,36.9457523 L33.7232982,36.6565553 Z" id="Shape-1195"></path>
                        <path d="M36.1858459,41.0679856 L35.7978465,41.2855396 C35.459783,41.5307887 35.1962799,41.924952 35.0524794,42.4005037 C35.0505574,42.4208191 35.0505574,42.4413754 35.0524794,42.4616908 L34.9861111,43.202734 L35.0167426,43.4678779 L35.1750055,44.0457556 C35.4590968,44.668306 35.9764199,45.0336363 36.5227927,44.9975542 C37.0897898,44.9415051 37.5906396,44.4847465 37.834843,43.8010074 C38.0365338,43.2424072 38.0365338,42.5919815 37.834843,42.0333814 C37.6498163,41.5176452 37.3016406,41.1387417 36.8852657,41 L36.1858459,41.0679856 Z" id="Shape-1197"></path>
                        <path d="M43.6076191,52.9383958 L44.1811344,52.6714443 C44.4593396,52.4324287 44.6854334,52.0995098 44.8365804,51.706312 C45.183394,50.7596809 44.9072367,49.6159359 44.2118584,49.118936 L43.4232749,49.0025726 L43.4232749,49.0025726 C42.9525323,48.9703168 42.4989493,49.2429033 42.2045549,49.7349779 L41.9894867,51.0012863 L41.9894867,51.0012863 C41.9569204,51.6442533 42.1615153,52.2679043 42.5373986,52.6714443 L43.3054994,53 L43.6076191,52.9383958 Z" id="Shape-1213"></path>
                        <path d="M49.1403061,30.5809905 L48.9861111,31.1501692 L49.0087868,31.6352647 L49.0359977,31.706412 C49.0359977,32.1332961 49.1312358,32.7154106 49.8024376,33 L50.1425737,33 L50.4056122,32.8447694 L50.6595805,32.5019686 L50.9498299,31.6417326 L50.9861111,31.169573 L50.922619,30.7944325 L50.7457483,30.3998882 C50.5181486,30.1133524 50.2187484,29.9708383 49.9161035,30.0049782 C49.6134586,30.0391182 49.3334908,30.246988 49.1403061,30.5809905 L49.1403061,30.5809905 Z" id="Shape-1221"></path>
                        <path d="M19.2532883,44 L19.9289302,43.3645261 C19.9289302,43.4063336 19.9289302,43.4565026 20.024315,43.4815871 L20.4058539,43.1304041 C20.4058539,43.0551506 20.3422641,43.0467891 20.3025205,43.0133431 L20.9861111,42.3778692 C20.554455,41.9021721 19.8421604,41.8716439 19.3751468,42.3088249 C18.9081331,42.7460059 18.8542529,43.493766 19.2532883,44 L19.2532883,44 Z" id="Shape-1223"></path>
                        <path d="M39.9861111,52.1907178 L40.1597595,53.552794 C40.0908326,53.452066 40.0398427,53.3338754 40.0102289,53.2061943 C40.0692004,53.6464093 40.2245724,54.0570951 40.4588205,54.3919303 C40.5478672,54.5212534 40.6481867,54.6375197 40.7578815,54.73853 L41.41871,55 L41.7129475,55 L42.3737759,54.6655616 L42.5329535,54.4831407 L42.9091916,54.3919303 C43.303976,54.0917968 43.5725932,53.586087 43.6423735,53.011612 L43.6423735,53.011612 C43.9466134,52.5146814 44.0565185,51.8710995 43.9414346,51.2603711 L43.2854297,50.317863 L43.1503699,50.2509754 L43.1503699,50.2509754 C42.5737084,49.925592 41.9158344,49.9162144 41.3334839,50.2250768 C40.7511335,50.5339392 40.2964495,51.1333864 40.0777588,51.8806023 L39.9861111,52.1907178 Z" id="Shape-1228"></path>
                        <path d="M25.3044502,30.6256606 C25.7880555,31.160292 26.4667438,31.1181534 26.916907,30.5255458 L26.9861111,29.9749143 C26.9417348,29.8325127 26.8859925,29.6981123 26.8200211,29.5744551 C26.7062223,29.3744177 26.5238035,29.2851581 26.3494329,29.344191 C26.23647,29.0449231 25.9846467,28.919152 25.768118,29.053858 L25.4982218,29.3542025 C25.2951232,29.3722804 25.1078167,29.5187499 24.9861111,29.7546617 L25.1037582,30.4854999 L25.3044502,30.6256606 Z" id="Shape-1229"></path>
                        <path d="M42.592545,41.7903214 L42.7759376,41.5456963 L42.9822543,40.9079238 C42.9935654,40.7135708 42.9799393,40.5177198 42.9421372,40.3313076 L42.9765233,39.5450127 C42.7855813,39.2200565 42.5173153,39.0250158 42.2314909,39.003343 C41.9111235,38.9735493 41.5966074,39.1438844 41.360376,39.4751199 C41.1430105,39.7605435 41.0092912,40.1663331 40.9888515,40.6025625 C40.9684117,41.0387919 41.0629395,41.469435 41.2514867,41.799058 L41.7443543,41.842741 C41.8364263,41.9159211 41.9348297,41.9688658 42.0366362,42 L42.592545,41.7903214 Z" id="Shape-1230"></path>
                        <path d="M45.3804632,42.2017031 L45.0987831,42.7814834 L44.9861111,43.6217447 C44.9897871,43.8826462 45.0341497,44.138686 45.1156839,44.3695772 L45.5156696,44.831721 L46.0452281,44.9997732 C46.2256778,45.0043098 46.4039669,44.9407199 46.5635194,44.8149157 L46.8733675,44.2183302 L46.9860395,43.3780689 C46.9881524,43.1107225 46.9434925,42.8471743 46.8564666,42.6134311 L46.4677482,42.1680926 L45.9043881,42.0000403 C45.7209535,41.9980798 45.5403548,42.0675937 45.3804632,42.2017031 L45.3804632,42.2017031 Z" id="Shape-1231"></path>
                        <path d="M40.4018351,15 C40.1970918,15.0785367 40.0449498,15.2339565 39.9887688,15.4219653 C39.9651681,15.6566486 40.100221,15.8819824 40.3352115,16 L40.6683295,16 C40.901512,15.8959538 41.1280323,15.6878613 40.8748626,15.2369942 C40.8789635,15.2462996 40.8789635,15.2565906 40.8748626,15.265896 L40.4018351,15 Z" id="Shape-1232"></path>
                        <path d="M30.4364742,56.2336728 C31.0547482,57.1236709 32.0852612,57.2556343 32.8227847,56.5392544 L32.9421003,56.27285 L33.0793131,56.27285 C33.5707968,55.8794198 33.9032152,55.2187795 33.9861111,54.4707019 L33.9443507,53.773349 L33.854864,53.3972485 L33.5864041,52.762579 C32.969507,51.8596128 31.924178,51.7429137 31.2000936,52.4961745 L31.0867438,52.6215413 L30.8839074,52.6215413 C30.4116595,53.0009245 30.0907981,53.634485 30.0069383,54.3531705 C29.9259073,55.0330932 30.0838614,55.724614 30.4364742,56.2336728 Z" id="Shape-1233"></path>
                        <path d="M16.0202602,57.0955195 L15.5013446,57.7186205 L15.3352916,57.8313721 C15.1817001,58.047798 15.0734268,58.3015294 15.0187531,58.5731589 C14.9086221,58.5989699 14.8008926,58.6367244 14.6970255,58.6859105 L14.0743268,59.5641861 L13.9861111,60.0033239 L14.1365966,60.9884168 C14.2315267,61.3217088 14.3773474,61.633128 14.5672966,61.9082325 L14.515405,61.9675754 L14.1262183,63.0298142 L14.1573533,63.0298142 L14.11584,63.2909231 L14.3856761,64.3590962 L14.5309725,64.5430593 L15.3249133,64.9287885 L15.4650205,64.9940657 L15.4650205,64.9584599 L15.6933434,65 L16.6273914,64.6914167 L16.7882553,64.5252564 L17.1826311,63.4630177 L17.1514962,63.4630177 L17.1878203,63.1900401 L16.9179841,62.1337357 L16.7986336,61.979444 L17.0269564,61.7954809 L17.2189552,61.4038175 L17.2189552,60.3297101 C17.3667598,60.2175544 17.4981132,60.0793564 17.6081419,59.9202438 C18.1121009,59.2339509 18.1121009,58.2328189 17.6081419,57.5465259 C17.2042009,57.0487829 16.5809,56.8717466 16.0202602,57.0955195 L16.0202602,57.0955195 Z" id="Shape-1241"></path>
                        <path d="M1.33560782,38.9495753 L1.65822017,39 C1.81933896,38.9211923 1.93783217,38.7709694 1.98083253,38.5909998 C2.00086186,38.4615068 1.96326704,38.329552 1.87867195,38.2324242 L1.87867195,38.2324242 C1.74610458,38.0923534 1.56728173,38.0102058 1.3786228,38.0027118 C1.23729813,37.9881747 1.09619323,38.0324859 0.986111111,38.1259721 L0.986111111,38.5069586 L1.33560782,38.9495753 Z" id="Shape-1250"></path>
                        <path d="M17.0970172,34 L17.5667286,33.90625 C17.556077,33.9389949 17.5382664,33.9663144 17.515796,33.984375 L17.5893653,33.984375 C17.7347883,33.9939353 17.8728571,33.8956549 17.9515523,33.7265625 C18.0090498,33.5420809 17.9940998,33.3297997 17.9119381,33.1640625 L17.5667286,33 C17.4082717,33.046875 17.1139948,33.1328125 17.0008113,33.46875 C16.9629137,33.6568663 16.9994527,33.8586351 17.0970172,34 L17.0970172,34 Z" id="Shape-1252"></path>
                        <path d="M33.0067297,39.8196672 L33.1459049,40.3630972 C33.4668026,40.9275571 33.9647117,41.1400764 34.4191008,40.9065272 L34.8314719,40.3630972 L34.9861111,39.7455631 L34.9294101,38.9221843 L34.8005441,38.6669368 C34.5903868,38.2548706 34.2775388,38.0110268 33.944874,38 C33.6249631,38.0072792 33.323286,38.2391865 33.1201317,38.6340017 L32.9861111,39.2762372 L33.0067297,39.8196672 Z" id="Shape-1254"></path>
                        <path d="M30.0565693,38.1611367 L30.4268741,38.7406842 L30.8358674,38.9465761 L31.0624718,38.9999555 C31.2375608,39.0018348 31.4102931,38.9442185 31.5654231,38.8321917 L31.8638777,38.2831467 L31.9799434,37.566338 C32.0021932,37.2606217 31.9639937,36.9522998 31.8694047,36.6741399 L31.6704349,36.3538637 L31.4548844,36.1479718 L31.1674836,36.0107106 C30.8202122,35.9523255 30.4745327,36.1351052 30.2444851,36.4987505 C29.9873208,36.9764109 29.9170435,37.5981143 30.0565693,38.1611367 Z" id="Shape-1255"></path>
                        <path d="M45.0431746,35.3953488 L45.5910542,36 L46.0380086,35.9379845 L46.3455902,35.744186 C46.6389749,35.5568184 46.8647638,35.1670172 46.9607532,34.6821705 C47.0257629,34.2243328 46.9643919,33.7435222 46.7925446,33.3643411 L46.3119484,33 L45.9178596,33.0387597 L45.4709052,33.4883721 C45.064282,33.8776983 44.8851135,34.676496 45.0431746,35.3953488 Z" id="Shape-1256"></path>
                        <path d="M24.2588011,48.2910106 L24.5587017,49.2707244 C25.0126971,50.0673989 25.8097585,50.2345629 26.4009482,49.6570905 L26.7436918,49.0844408 L26.8436586,48.8015657 L26.9579065,48.0564312 C27.0560938,47.2448836 26.8950227,46.412588 26.5199564,45.7934302 C26.3966193,45.5936227 26.2576318,45.415335 26.1058079,45.2621769 L25.5774116,45 L25.334635,45 L24.7871974,45.1793842 C24.4061352,45.4571877 24.1266515,45.9603809 24.0207847,46.5592629 C23.9310539,47.1593744 24.0172539,47.7865442 24.2588011,48.2910106 L24.2588011,48.2910106 Z" id="Shape-1257"></path>
                        <path d="M13.9861111,42.9230769 C14.0221639,43.3183979 14.1089629,43.6890782 14.238285,44 L14.9513285,42.7777778 C14.9513285,42.7777778 14.9513285,42.7777778 14.9513285,42.7350427 L14.9861111,42.4957265 L14.0730676,42 L14.0035024,42.4786325 L13.9861111,42.9230769 Z" id="Shape-1258"></path>
                        <path d="M16.9960229,43.669247 L17.1347886,44.1851007 L17.407364,44.6560975 L17.709675,44.9102863 L17.9971182,45 L18.3489883,44.9177625 C18.6658964,44.6982166 18.8955233,44.265911 18.9684779,43.7514845 C19.0258652,43.3067547 18.9414453,42.8471876 18.7405057,42.5104451 C18.5402896,42.1653726 18.246177,41.977981 17.9426031,42.0020676 C17.6039732,42.0297316 17.2920918,42.2883591 17.0951413,42.7048248 L16.9861111,43.2206785 L16.9960229,43.669247 Z" id="Shape-1260"></path>
                        <path d="M30.7266771,1.99975579 L30.8304507,1.99975579 L30.9861111,1.05306289 L30.8162998,0.595671937 C30.7074887,0.245511679 30.5338526,0.0262397413 30.3446017,0 C30.2011719,0.0180502695 30.0692067,0.18250645 29.9861111,0.446753952 L29.9861111,1.04242589 C30.1365005,1.64349818 30.4206716,2.01084611 30.7266771,1.99975579 Z" id="Shape-1262"></path>
                        <path d="M24.1670709,41.4079702 L23.9861111,41.9639418 L23.9861111,42.4748346 L24.1218309,43.0683719 L24.4736971,43.6619092 L24.7954034,43.9248687 L25.0919763,44 L25.4488691,43.9098424 C25.7204817,43.6962511 25.91194,43.3089176 25.9687367,42.8581136 C26.0255335,42.4073095 25.9414467,41.9424207 25.7404154,41.5957985 C25.5507825,41.2536118 25.2766179,41.0406045 24.9802837,41.0052277 C24.6839495,40.9698509 24.3906396,41.1151122 24.1670709,41.4079702 Z" id="Shape-1263"></path>
                        <path d="M53.4849535,33.8353972 L53.4849535,33.8353972 L53.9563994,33.9970623 C54.0334246,33.5033007 53.9585938,32.9785306 53.7562573,32.5935151 C53.4941218,32.1755346 53.1366669,31.961745 52.7733369,32.0056419 L52.626566,32.0056419 L52.1818057,32.4098047 L51.9861111,32.9682842 L52.0172443,33.8427456 C52.7021753,35.3859127 53.3515254,35.0184919 53.6228292,34.7906911 L53.3915538,34.0558496 L53.4849535,33.8353972 Z" id="Shape-1264"></path>
                        <path d="M46.6119462,31.0535714 C46.3543041,31.2256784 46.1530782,31.5482312 46.0536451,31.9484943 C45.954212,32.3487574 45.9649441,32.7930277 46.0834213,33.1811224 L46.380402,33.747449 L46.7327519,34 L46.9693298,33.2346939 L46.9693298,33.2346939 L47.4374519,32.8214286 L47.9861111,32.8214286 L47.9861111,32.3545918 L47.8502047,31.8341837 L47.5683247,31.3443878 L47.2612769,31.0841837 L46.9693298,31 L46.6119462,31.0535714 Z" id="Shape-1265"></path>
                        <path d="M50.5827108,51.5557407 L50.2952301,51.2601512 L49.5904388,51.1059307 L49.5904388,51.0095428 C48.8937798,50.9168683 48.2441617,51.5072524 48.0278422,52.4296572 L47.9861111,53.1750566 L48.0278422,53.4834978 L48.2643182,54.1260835 L48.5193414,54.5309124 L49.2334063,55 L49.5579813,55 L50.2952301,54.6144486 C50.7232954,54.1181819 50.9752779,53.3892978 50.9861111,52.6160071 L50.5827108,51.5557407 Z" id="Shape-1266"></path>
                        <path d="M32.9861111,46.9953484 L32.9861111,46.6617 L32.771477,45.8766449 L32.673916,45.7130917 C32.3884256,45.2648405 31.9720023,45.0046937 31.5324526,45 C31.0412534,45.0067995 30.577254,45.3035821 30.2641599,45.8112236 L29.9861111,46.7205791 L29.9861111,47.126191 L30.3178184,48.2252681 C30.6415091,48.7688063 31.1478166,49.0566548 31.6641599,48.9906969 C32.197537,48.8817701 32.6551025,48.4227543 32.8836721,47.7673193 L32.9861111,46.9953484 Z" id="Shape-1267"></path>
                        <path d="M27.950473,57.5751398 L27.9861111,56.7960457 C27.9283428,56.3749597 27.7861156,55.9810154 27.5737271,55.6538144 C27.0534302,54.8753678 26.1488979,54.7785914 25.5372628,55.4359321 L25.1554257,56.3272687 L25.1299699,56.3272687 C24.9262807,56.8776644 24.9395473,57.5216163 25.165608,58.0571218 L25.9496468,58.783396 L25.9496468,58.783396 C26.3735973,59.0722013 26.879945,59.0722013 27.3038956,58.783396 L27.8130116,57.9910969 L27.950473,57.5751398 Z" id="Shape-1270"></path>
                        <path d="M43.216644,25.9704777 C43.6714793,26.0746057 43.839706,25.8793657 43.9269347,25.7557137 C44.0262313,25.565229 43.9986937,25.3298913 43.8583979,25.1699938 C43.745421,25.0309416 43.5669369,24.9704778 43.397332,25.0138018 C43.2477971,25.0528498 43.0608786,25.1895178 42.9861111,25.6060297 L43.216644,25.9704777 Z" id="Shape-1274"></path>
                        <path d="M41.4677892,43.5572847 C41.5546495,43.6667723 41.6528045,43.7657611 41.7604466,43.8524282 L42.2055298,44 L42.5896427,44 L42.864009,43.9037575 L43.3883535,43.4802907 L43.4554209,43.3070543 C43.796872,43.0357628 43.9941084,42.6087135 43.9858624,42.1585611 L43.8761159,41.7543427 L43.6749139,41.4591992 C43.2481219,40.9523223 42.6810981,40.8560798 41.9006783,41.215385 L41.9006783,41.2859628 L41.6141179,41.3372921 L41.2361021,41.6516841 L40.9861111,42.2483873 C40.9844035,42.7329333 41.1564048,43.2003367 41.4677892,43.5572847 Z" id="Shape-1275"></path>
                        <path d="M20.3333774,13 L20.7708479,13 L20.9861111,12.8120805 L20.9861111,12.3624161 L20.6944641,12.0402685 L20.2500497,12 C20.1023551,12.0906777 20.005278,12.2412927 19.9861787,12.409396 C19.9826772,12.6525154 20.1154987,12.878452 20.3333774,13 Z" id="Shape-1276"></path>
                        <path d="M1.05946858,24.8827425 L1.55520806,24.9993806 C1.66209848,25.004373 1.76822852,24.9791053 1.8614001,24.9264818 L1.98533497,24.4234797 C1.99099168,24.318847 1.96563076,24.214873 1.9124321,24.1245945 L1.41669262,24.0006664 C1.30746401,23.9954734 1.19893866,24.0207104 1.1032103,24.0735653 L0.986565712,24.5765673 C0.982346243,24.6833779 1.00756566,24.7892936 1.05946858,24.8827425 L1.05946858,24.8827425 Z" id="Shape-1278"></path>
                        <path d="M7.16672866,51.2913732 L7.61258449,51.7259439 L8.07811043,51.8839697 L8.16334757,51.8839697 C8.76280499,52.1546923 9.46923441,51.9379269 9.81563682,51.3769704 L9.98611111,50.9094776 L9.98611111,50.4946601 L9.80908012,50.0271673 L9.15340978,49.2962983 L8.73378077,49.0658441 L8.34693527,49 L7.88140933,49.0790129 C7.49350675,49.2761912 7.19994155,49.6205985 7.06578419,50.0358951 C6.93162683,50.4511917 6.96795943,50.9030716 7.16672866,51.2913732 L7.16672866,51.2913732 Z" id="Shape-1280"></path>
                        <path d="M40.1405531,54.1827034 L40.1405531,54.0989644 C39.8257726,54.2024256 39.537272,54.4458023 39.3103374,54.7993276 L38.9861111,56.0401884 L38.9861111,56.5654608 L39.1383992,57.2429861 L39.099099,57.2429861 C39.1723434,57.6067086 39.2926974,57.9434548 39.4528004,58.2326298 C39.8696527,58.9599864 40.538076,59.1983159 41.1181443,58.826416 L41.7518593,57.71497 L41.8353721,57.2353735 C42.1033655,56.3645894 42.0085171,55.329724 41.5946587,54.6090115 L41.5357084,54.5100471 L40.7153178,54 L40.376354,54 L40.1405531,54.1827034 Z" id="Shape-1282"></path>
                    </g>
                </g>
            </g>
            <path d="M31.9971875,37.4648125 L25.8984375,34.2585859 L19.7996875,37.4649453 C19.1280547,37.8179609 18.3151094,37.7588594 17.7016484,37.3132734 C17.0881875,36.8675547 16.7808594,36.11225 16.9090234,35.3647813 L18.0737891,28.5736797 L13.1398047,23.7641406 C12.5968672,23.2348828 12.4013672,22.4431875 12.6357812,21.7220156 C12.8701953,21.0008438 13.4934844,20.4751719 14.243875,20.3661328 L21.0626016,19.3753516 L24.1119766,13.1965156 C24.4475937,12.5165156 25.1400781,12.0859375 25.8984375,12.0859375 C26.6567969,12.0859375 27.3492812,12.5165156 27.6848984,13.1963828 L30.7342734,19.3752188 L37.553,20.366 C38.3033906,20.4750391 38.9268125,21.0007109 39.1610937,21.7218828 C39.395375,22.4430547 39.2000078,23.23475 38.6570703,23.7640078 L33.7230859,28.5735469 L34.8878516,35.3646484 C35.0160156,36.1119844 34.7086875,36.8674219 34.0952266,37.3131406 C33.4876094,37.754875 32.6743984,37.8208828 31.9971875,37.4648125 Z" id="Path" fill="url(#linearGradient-6)" fill-rule="nonzero" mask="url(#mask-4)"></path>
            <path d="M25.8984375,0 C40.1788359,0 51.796875,11.6775391 51.796875,26.03125 C51.796875,40.3116484 40.1788359,51.9296875 25.8984375,51.9296875 C25.2306589,51.9296875 24.568702,51.9042826 23.9134825,51.8543886 C37.2709837,50.837484 47.8280355,39.6439802 47.8280355,26.03125 C47.8280355,12.348635 37.2709837,1.09779743 23.9142281,0.0756596941 C24.568702,0.0255349913 25.2306589,0 25.8984375,0 Z" id="Combined-Shape" fill="url(#linearGradient-7)" fill-rule="nonzero" mask="url(#mask-4)"></path>
        </g>
    </g>
</svg>