<?xml version="1.0" encoding="UTF-8"?>
<svg width="100px" height="100px" viewBox="0 0 100 100" version="1.1" xmlns="http://www.w3.org/2000/svg" xmlns:xlink="http://www.w3.org/1999/xlink">
    <title>Img/intro_2</title>
    <defs>
        <linearGradient x1="50%" y1="100%" x2="50%" y2="0.445257867%" id="linearGradient-1">
            <stop stop-color="#010CD8" offset="0%"></stop>
            <stop stop-color="#79ADFF" offset="100%"></stop>
        </linearGradient>
        <path d="M60,3.9375 L60,46.2421875 C60,47.2266797 59.2266797,48 58.2421875,48 L1.7578125,48 C0.773320312,48 0,47.2266797 0,46.2421875 L0,3.9375 L30,0.421875 L60,3.9375 Z" id="path-2"></path>
        <filter id="filter-4">
            <feColorMatrix in="SourceGraphic" type="matrix" values="0 0 0 0 0.559977 0 0 0 0 0.713497 0 0 0 0 0.992555 0 0 0 1.000000 0"></feColorMatrix>
        </filter>
        <linearGradient x1="50%" y1="100%" x2="50%" y2="0.445257867%" id="linearGradient-5">
            <stop stop-color="#010CD8" offset="0%"></stop>
            <stop stop-color="#79ADFF" offset="100%"></stop>
        </linearGradient>
        <linearGradient x1="50%" y1="100%" x2="50%" y2="0%" id="linearGradient-6">
            <stop stop-color="#A6BFFF" offset="0%"></stop>
            <stop stop-color="#C3DCFF" offset="99.885271%"></stop>
        </linearGradient>
        <linearGradient x1="50%" y1="100%" x2="50%" y2="0%" id="linearGradient-7">
            <stop stop-color="#A6BFFF" offset="0%"></stop>
            <stop stop-color="#C3DCFF" offset="99.885271%"></stop>
        </linearGradient>
    </defs>
    <g id="Img/intro_2" stroke="none" stroke-width="1" fill="none" fill-rule="evenodd">
        <g id="Group" transform="translate(20.000000, 32.000000)">
            <mask id="mask-3" fill="white">
                <use xlink:href="#path-2"></use>
            </mask>
            <use id="Path" fill="url(#linearGradient-1)" fill-rule="nonzero" xlink:href="#path-2"></use>
            <g filter="url(#filter-4)" fill-opacity="0.6" id="Group-3">
                <g mask="url(#mask-3)">
                    <g transform="translate(-27.000000, 6.000000)" fill="#FFFFFF" fill-rule="nonzero" id="Path">
                        <path d="M52.2161645,34.3662902 C51.9274406,34.6784554 51.9333683,35.1619418 52.2296588,35.4669345 L52.9079418,35.418642 L52.9567502,35.3090165 L52.6766822,35.0529659 L53.0421004,35.2156605 C53.3386695,34.9791344 53.4220715,34.5635398 53.2397223,34.2309039 L52.8560332,34.0600745 C52.6114712,34.0767107 52.3825371,34.1862695 52.2161645,34.3662902 Z"></path>
                        <path d="M29.610269,50.1701726 L29.090269,50.1701726 C28.810269,50.3501726 28.390269,50.6101726 28.450269,51.0501726 C28.510269,51.4901726 28.990269,51.6701726 29.150269,51.7301726 L29.710269,51.4701726 C29.7449019,51.389841 29.7921661,51.3155687 29.850269,51.2501726 C29.9798664,51.1013711 30.044666,50.9069722 30.030269,50.7101726 C29.9709652,50.4798383 29.8189182,50.2843494 29.610269,50.1701726 L29.610269,50.1701726 Z" transform="translate(29.238363, 50.950173) rotate(-66.000000) translate(-29.238363, -50.950173) "></path>
                        <path d="M75.4488478,49.5644339 C75.2358703,49.4700023 74.9860759,49.5287512 74.8375152,49.7082128 L74.7236289,49.9640055 C74.6582931,50.504127 74.9363596,50.7155011 75.064256,50.7724443 C75.4451883,50.8856208 75.8567559,50.7575523 76.1062137,50.4482156 C76.3084633,50.25828 76.3703291,49.9621326 76.2610315,49.7071141 C76.1636726,49.5324108 75.9586897,49.3535756 75.5119242,49.37359 L75.4488478,49.5644339 Z"></path>
                        <path d="M79.005616,15.7655031 L79.625616,15.5855031 C79.7470464,15.5252851 79.845398,15.4269335 79.905616,15.3055031 L79.725616,14.6855031 C79.6573608,14.5766251 79.5691466,14.4816253 79.465616,14.4055031 L78.825616,14.6055031 C78.7121701,14.6676152 78.6159498,14.7569626 78.545616,14.8655031 L78.725616,15.4855031 C78.791781,15.6025389 78.8885802,15.6993381 79.005616,15.7655031 Z" transform="translate(79.225616, 15.085503) rotate(-66.000000) translate(-79.225616, -15.085503) "></path>
                        <path d="M49.543166,46.815628 C49.2827764,46.832926 49.04004,46.9533649 48.8687569,47.1502508 L48.8118138,47.2781472 L48.8459673,47.8406714 C49.0421133,48.0460036 49.3112357,48.1658246 49.5950745,48.1741955 C49.8537782,48.150792 50.0943585,48.0314228 50.2694836,47.8395727 L50.3264267,47.7116763 L50.3105441,47.1572868 C50.1113349,46.944516 49.8345825,46.8212979 49.543166,46.815628 Z"></path>
                        <path d="M62.6552032,44.2445739 L62.9636783,44.5351649 C63.3750368,44.6425504 63.812732,44.5317069 64.1233961,44.2414737 C64.3309976,43.9389544 64.2779129,43.5287118 64.0001474,43.2889981 L63.4336203,43.2337985 L63.258917,43.3311574 C62.8541094,43.4370095 62.5939252,43.8306671 62.6552032,44.2445739 L62.6552032,44.2445739 Z"></path>
                        <path d="M39.7665789,28.0951609 C39.5773254,28.3901589 39.6279886,28.7785772 39.8865789,29.0151609 C40.0415287,29.1436247 40.2421221,29.2034284 40.4421215,29.1807869 C40.6421209,29.1581455 40.8242686,29.0550126 40.9465789,28.8951609 L40.9465789,28.2751609 C40.7600499,28.031208 40.4735365,27.884278 40.1665789,27.8751609 L39.7665789,28.0951609 Z" transform="translate(40.299573, 28.530324) rotate(-66.000000) translate(-40.299573, -28.530324) "></path>
                        <path d="M23.734324,49.6519317 L23.734324,50.2919317 C23.7642346,50.4210294 23.8185421,50.5432213 23.894324,50.6519317 L24.554324,50.6519317 C24.677408,50.6337977 24.7941581,50.5857241 24.894324,50.5119317 L24.894324,49.8519317 C24.87619,49.7288477 24.8281164,49.6120976 24.754324,49.5119317 L24.074324,49.5119317 C23.9507839,49.5283851 23.8336303,49.5766248 23.734324,49.6519317 L23.734324,49.6519317 Z" transform="translate(24.314324, 50.081932) rotate(-66.000000) translate(-24.314324, -50.081932) "></path>
                        <path d="M66.3605835,12.6905203 L66.5005835,12.8432691 L67.3005835,12.5186779 L67.3005835,12.0222445 C67.3718471,11.6858025 67.2840302,11.3364817 67.0605835,11.0675647 C66.8563587,10.8866483 66.5744592,10.8087441 66.3005835,10.8575351 L65.9205835,11.1821263 C65.7744542,11.7238616 65.9421848,12.2988705 66.3605835,12.6905203 Z" transform="translate(66.596763, 11.843269) rotate(-66.000000) translate(-66.596763, -11.843269) "></path>
                        <path d="M47.2754988,26.1420241 L47.6754988,26.5420241 L48.0554988,26.5420241 L48.5354988,26.1420241 L48.5354988,25.5620241 L48.1754988,25.0820241 C47.9458063,25.0472997 47.7113139,25.0970405 47.5154988,25.2220241 C47.2748699,25.4626422 47.183075,25.8145226 47.2754988,26.1420241 Z" transform="translate(47.887820, 25.806630) rotate(-66.000000) translate(-47.887820, -25.806630) "></path>
                        <path d="M19.3662401,27.6354614 L19.6862401,28.1754614 C19.7751937,28.2717085 19.884522,28.3468717 20.0062401,28.3954614 L20.5662401,28.0754614 C20.666846,27.9823036 20.7424859,27.8654055 20.7862401,27.7354614 L20.4662401,27.1754614 C20.3759449,27.0756937 20.2573117,27.0059094 20.1262401,26.9754614 L19.5662401,27.2954614 C19.4664725,27.3857566 19.3966882,27.5043898 19.3662401,27.6354614 Z" transform="translate(20.076240, 27.685461) rotate(-66.000000) translate(-20.076240, -27.685461) "></path>
                        <path d="M51.0874073,21.6646887 L50.8274073,22.0246887 C50.8098266,22.4443213 50.9960644,22.8465948 51.3274073,23.1046887 C51.6605896,23.2598542 52.0571578,23.1391596 52.2474073,22.8246887 L52.2474073,22.2446887 L52.1274073,22.0846887 C51.9274073,21.8846887 51.5874073,21.4446887 51.0874073,21.6646887 Z" transform="translate(51.536836, 22.388344) rotate(-66.000000) translate(-51.536836, -22.388344) "></path>
                        <path d="M23.4157594,11.8671353 C23.1490901,12.0994526 23.0976028,12.4941885 23.2957594,12.7871353 C23.4150528,12.9500084 23.5957122,13.0570707 23.7958615,13.0835055 C23.9960108,13.1099403 24.1982712,13.0534524 24.3557594,12.9271353 L24.5157594,12.3271353 C24.2957594,11.9871353 24.0957594,11.8071353 23.8557594,11.7671353 L23.4157594,11.8671353 Z" transform="translate(23.845652, 12.428508) rotate(-66.000000) translate(-23.845652, -12.428508) "></path>
                        <path d="M75.007124,50.3724544 C75.106533,50.3689317 75.2004402,50.4107418 75.2643398,50.4869743 C75.4011718,50.1559152 75.3647132,49.7823412 75.1682925,49.5028241 L74.6736433,49.4139484 L74.4551142,49.5355803 C74.4155516,49.559878 74.3729104,49.577817 74.3287019,49.5887615 L74.2086679,49.5353189 L74.0200429,49.4513377 L73.6315626,50.0008351 L73.7909313,50.7504651 L74.4742055,50.923322 C74.5346984,50.9406112 74.5923566,50.9662823 74.6456827,50.9996685 C74.8130572,51.1407648 75.0464588,51.1686422 75.2504747,51.0719048 C75.4283678,50.9523249 75.5246852,50.7359924 75.4945167,50.5237775 L75.007124,50.3724544 Z"></path>
                        <path d="M37.0986819,55.278589 L36.3241652,55.4707985 L35.9611105,55.6804815 L35.6222594,55.995006 L35.4286302,56.292057 L35.4286302,56.6764759 C35.3690035,57.2219055 35.7295656,57.7468352 36.3670567,58.0426976 C37.0045477,58.33856 37.8157257,58.35744 38.4782898,58.0918363 L39.1317883,57.5501551 L39.4222321,56.6939495 C39.4186806,56.2436904 39.1449895,55.816644 38.671919,55.5232192 L37.8974023,55.2960626 L37.0986819,55.278589 Z" transform="translate(37.422232, 56.778589) rotate(-66.000000) translate(-37.422232, -56.778589) "></path>
                        <path d="M35.2176928,40.3617768 L35.0725315,40.9617768 C35.2082378,41.259845 35.476225,41.4259971 35.7499509,41.3817768 L35.8789831,41.3817768 L36.0241444,41.5217768 C36.2590193,41.8714995 36.6674768,41.9487603 36.9757573,41.7017768 L37.0725315,41.1217768 C36.933327,40.687337 36.6461214,40.3516373 36.2881611,40.2049669 C35.9302008,40.0582966 35.5382374,40.1157142 35.2176928,40.3617768 L35.2176928,40.3617768 Z" transform="translate(36.072532, 40.985528) rotate(-66.000000) translate(-36.072532, -40.985528) "></path>
                        <path d="M66.08694,7.96519762 L65.94694,7.96519762 L65.36694,8.28519762 C65.2865372,8.55408217 65.3228242,8.8443779 65.46694,9.08519762 C65.6546128,9.31429692 65.9310569,9.45251899 66.22694,9.46519762 L66.48694,9.46519762 L66.90694,9.14519762 C67.10694,8.26519762 66.36694,8.04519762 66.08694,7.96519762 Z" transform="translate(66.132900, 8.715198) rotate(-66.000000) translate(-66.132900, -8.715198) "></path>
                        <path d="M28.0187608,13.8310403 C27.8817978,13.9505473 27.8141494,14.1309429 27.8387608,14.3110403 L28.0387608,14.5310403 C28.0203365,14.4724547 28.0203365,14.4096259 28.0387608,14.3510403 L28.3987608,14.9310403 L28.7787608,14.9310403 L29.1787608,14.7710403 C29.3498376,14.5808216 29.4035168,14.3124256 29.3187608,14.0710403 C29.193721,13.8483402 28.9761655,13.6927382 28.7250075,13.6463706 C28.4738496,13.600003 28.2150757,13.6676673 28.0187608,13.8310403 L28.0187608,13.8310403 Z" transform="translate(28.596043, 14.281556) rotate(-66.000000) translate(-28.596043, -14.281556) "></path>
                        <path d="M20.7275435,27.6387599 L20.2942682,27.5173134 C19.3108414,27.3657937 18.3749891,28.0594796 18.0659953,29.1689862 C17.6892181,30.3304917 18.0497334,31.6441674 18.9325459,32.3265958 L19.3245569,32.4966209 L19.6753035,32.4966209 L20.1085788,32.4966209 C20.8907264,32.2205865 21.5172629,31.5279686 21.8004157,30.6263445 C22.0359389,29.8020144 21.912542,28.8940798 21.4703012,28.197414 L20.7275435,27.6387599 Z" transform="translate(19.917784, 29.996621) rotate(-66.000000) translate(-19.917784, -29.996621) "></path>
                        <path d="M19.6399824,42.0495349 L18.939774,41.7838998 L18.2847404,41.7838998 L17.4490078,41.9499218 L16.906911,42.2653635 L16.4777511,42.813236 L16.4777511,43.4607218 L16.6810374,44.0417987 L17.0650226,44.4402514 L17.765231,44.7722954 L18.013692,44.7722954 C18.6118052,44.8245344 19.2135314,44.6990221 19.6851571,44.4236492 C20.2162673,44.0606109 20.5050481,43.5451222 20.475715,43.0124624 L20.2046666,42.4479877 L19.6399824,42.0495349 Z" transform="translate(18.477751, 43.283900) rotate(-66.000000) translate(-18.477751, -43.283900) "></path>
                        <path d="M14.8325672,23.5376712 L14.0344451,23.2250088 C12.7321994,22.9823213 11.3698417,23.3645661 10.5602667,24.1997798 L10.7715343,25.3400778 L11.4992339,25.873443 L12.3677785,26.1125378 L12.7903137,26.1125378 C13.4852314,26.2236201 14.2078222,26.1037303 14.7856188,25.7814835 C15.2474748,25.4864266 15.5288039,25.0522661 15.5602667,24.5860097 L15.2785766,23.9422931 L14.8325672,23.5376712 Z" transform="translate(13.060267, 24.653012) rotate(-66.000000) translate(-13.060267, -24.653012) "></path>
                        <path d="M29.8843883,35.6657225 C29.6339381,35.6339852 29.3779388,35.6339852 29.1274886,35.6657225 L28.5932064,35.8456025 C27.9845402,36.1529754 27.6518559,36.6793294 27.7249979,37.2192319 C27.8155376,37.842719 28.3493282,38.3841966 29.1274886,38.6419195 L29.7062943,38.6419195 L30.2183147,38.6419195 L30.7748586,38.4783922 C31.533032,38.063038 31.8757393,37.352999 31.6430671,36.6795918 C31.386746,36.1131098 30.6943905,35.7139704 29.8843883,35.6657225 Z" transform="translate(29.715014, 37.141920) rotate(-66.000000) translate(-29.715014, -37.141920) "></path>
                        <path d="M40.4793134,50.8868731 C40.3239943,49.9687952 39.349471,49.2689452 38.1644986,49.2244983 C37.3271183,49.1172276 36.473136,49.3172115 35.8496838,49.7665771 L35.4793134,50.3990022 L35.4793134,50.9591503 L35.8265356,51.6096448 C36.2158982,51.9214593 36.7308148,52.1192396 37.284869,52.1697928 C37.5452913,52.2048615 37.8114837,52.2048615 38.071906,52.1697928 L38.071906,52.0794463 L38.9515356,52.0794463 L39.784869,51.7361298 L40.4793134,50.8868731 Z" transform="translate(37.979313, 50.696094) rotate(-66.000000) translate(-37.979313, -50.696094) "></path>
                        <path d="M51.7112733,29.1736504 C51.5909508,29.3040409 51.5263555,29.4762949 51.5312733,29.6536504 L51.7312733,29.8736504 C51.7098416,29.8155643 51.7098416,29.7517366 51.7312733,29.6936504 L52.0912733,30.2736504 L52.4712733,30.2736504 L52.8712733,30.1136504 C53.0423501,29.9234318 53.0960293,29.6550357 53.0112733,29.4136504 C52.8814854,29.1963843 52.6644399,29.0455136 52.4155655,28.9995675 C52.1666912,28.9536215 51.910083,29.0170484 51.7112733,29.1736504 L51.7112733,29.1736504 Z" transform="translate(52.290915, 29.629294) rotate(-66.000000) translate(-52.290915, -29.629294) "></path>
                        <path d="M37.2773729,38.7395775 L36.8576198,38.1449926 L35.9193482,37.6804731 C34.9497403,37.6005356 34.0004854,37.9291296 33.4502124,38.5351889 L34.5366321,39.0182891 C34.5366321,39.0182891 34.5366321,39.0182891 34.5366321,39.0182891 L34.9810766,39.2040969 C34.9810766,39.3899047 34.9810766,39.5385509 34.9810766,39.6686164 L36.2156445,39.6686164 L36.2156445,39.6686164 L37.4502124,39.6686164 C37.4206825,39.5896329 37.4206825,39.5060497 37.4502124,39.4270662 L37.2773729,38.7395775 Z" transform="translate(35.450212, 38.668616) rotate(-66.000000) translate(-35.450212, -38.668616) "></path>
                        <path d="M28.9958427,44.545965 L28.9958427,44.545965 C29.3070539,44.2840671 29.4894552,43.9553695 29.514669,43.6110101 L29.3024219,43.0840356 L28.9722597,42.7100536 L28.3591013,42.37007 L27.8874411,42.37007 C26.7523597,42.2867578 25.7216966,42.8513813 25.5291396,43.6620077 C25.3988242,44.4715422 26.1621749,45.2151108 27.2742827,45.3619256 L28.2411863,45.1749347 L28.8307616,44.8009527 L28.9958427,44.545965 Z" transform="translate(27.514669, 43.861926) rotate(-66.000000) translate(-27.514669, -43.861926) "></path>
                        <path d="M28.8139535,55.6911935 L28.2678223,55.0594906 C27.7063614,54.5375127 26.9902386,54.227366 26.2362144,54.1796187 L26.2362144,54.1796187 L25.1657974,54.4277877 L24.8162735,54.6082742 L24.1172256,55.1948555 C23.4250795,56.0407096 23.2403316,57.2115256 23.6366302,58.2405661 C24.0672209,59.3000101 25.0209233,60.0343969 26.1269882,60.1582357 C27.0284436,60.2662949 27.9305088,59.9612533 28.595501,59.3234854 C29.172875,58.7293315 29.4752241,57.9076132 29.4256203,57.0674035 L28.8139535,55.6911935 Z" transform="translate(26.430891, 57.179619) rotate(-66.000000) translate(-26.430891, -57.179619) "></path>
                        <path d="M62.1589889,4.08253347 L61.5589889,4.08253347 C61.4685664,4.15990206 61.3571791,4.20863404 61.2389889,4.22253347 L60.9589889,4.88253347 L60.9589889,5.00253347 C60.9990009,5.199686 61.0964186,5.38060456 61.2389889,5.52253347 L61.4389889,5.70253347 L61.9589889,5.70253347 C62.2573895,5.50990672 62.455129,5.19498815 62.4989889,4.84253347 C62.5166908,4.54885508 62.3897322,4.26506533 62.1589889,4.08253347 L62.1589889,4.08253347 Z" transform="translate(61.729806, 4.892533) rotate(-66.000000) translate(-61.729806, -4.892533) "></path>
                        <path d="M22.6207947,7.33714115 L22.3400929,7.92429711 L22.3400929,8.41970996 L24.3050052,8.41970996 C24.386035,8.47263644 24.4569366,8.53443145 24.5155315,8.6031962 L26.3400929,7.46558152 C25.8717516,6.93422263 25.1050598,6.61302256 24.2816134,6.6031962 C23.6202693,6.65178205 23.0164434,6.91862331 22.6207947,7.33714115 L22.6207947,7.33714115 Z" transform="translate(24.340093, 7.603196) rotate(-66.000000) translate(-24.340093, -7.603196) "></path>
                        <path d="M23.3714053,46.1793151 L23.3714053,46.819559 L23.8793313,48.3988273 L24.0160805,48.526876 C24.4983302,49.0875022 25.1512992,49.4365779 25.8524281,49.5085834 L26.360354,49.8927297 L26.8487443,49.999437 L28.0404166,49.8073639 C28.9611322,49.3123225 29.4884218,48.2290389 29.3493026,47.1183395 C29.3333083,46.5735713 29.1849775,46.043251 28.9195192,45.5817541 C28.9488471,44.7854761 28.6726972,44.0119457 28.1576303,43.4476078 L27.4738839,43.4476078 C27.1659053,43.2259303 26.8205543,43.0735693 26.4580321,42.999437 L24.699827,43.5543151 L24.4263284,43.8317541 L24.094223,44.7067541 L24.094223,44.7067541 L23.3714053,46.1793151 Z" transform="translate(26.371405, 46.499437) rotate(-66.000000) translate(-26.371405, -46.499437) "></path>
                        <path d="M32.0442464,19.0862829 L32.0442464,19.0862829 L31.6481719,19.0122007 L30.9748454,18.64179 L30.083678,18.5528914 C29.7886457,18.5614103 29.5017978,18.627837 29.2519217,18.745505 L28.8360436,19.2344472 L28.6974175,19.8863701 C28.7103189,20.1001963 28.7918299,20.3085569 28.9350622,20.4938438 L29.3509403,20.7012738 C29.4306675,20.865133 29.5516774,21.0160251 29.7074073,21.1457668 L29.9450519,21.2642982 L29.9450519,21.2642982 C30.6312493,21.6960357 31.6533065,21.6367081 32.2422836,21.1309503 C32.9188513,20.5197068 32.8315319,19.6181639 32.0442464,19.0862829 L32.0442464,19.0862829 Z" transform="translate(30.697418, 20.052891) rotate(-66.000000) translate(-30.697418, -20.052891) "></path>
                        <path d="M55.882058,36.4534031 C55.8302255,36.6234289 55.8514386,36.8073524 55.9406157,36.9611146 L56.2146794,37.0831356 C56.1707623,37.0440817 56.1402471,36.9921992 56.1274567,36.9348379 L56.7486676,37.2114189 L57.1000757,37.0613777 L57.3723958,36.7447679 C57.4547001,36.4983371 57.3746264,36.2267264 57.1718027,36.0643545 C56.9562622,35.9147123 56.6841977,35.8716578 56.4329843,35.9474358 C56.1817708,36.0232138 55.9788963,36.2095325 55.882058,36.4534031 L55.882058,36.4534031 Z"></path>
                        <path d="M34.2667913,1.97693931 C34.3782753,1.79247519 34.3782753,1.56140344 34.2667913,1.37693931 L34.0067913,1.21693931 C33.6919763,1.10844848 33.3449076,1.24388991 33.1867913,1.53693931 C33.0350255,1.90303959 33.1405978,2.32532882 33.4467913,2.57693931 C33.6151426,2.79699538 33.9090631,2.87863997 34.1667913,2.77693931 C34.3467913,2.77693931 34.5467913,2.49693931 34.4867913,2.01693931 L34.2667913,1.97693931 Z" transform="translate(33.807892, 2.000000) rotate(-66.000000) translate(-33.807892, -2.000000) "></path>
                        <path d="M45.9782043,28.6128393 L45.6387222,28.3532437 C44.8339848,27.8195119 43.5391829,27.7232066 42.5591355,28.1241888 C41.5006373,28.5355025 41.0211108,29.347063 41.3951972,30.0940614 L41.6376843,30.353657 L41.9286689,30.5521713 L42.340897,30.7354152 C43.2290912,30.9653432 44.238259,30.9142753 45.0567531,30.5979822 C45.7930283,30.306348 46.2482701,29.801786 46.2691888,29.2541932 L45.9782043,28.6128393 Z" transform="translate(43.769189, 29.377620) rotate(-66.000000) translate(-43.769189, -29.377620) "></path>
                        <path d="M26.622347,31.146073 L27.0458557,30.1628903 L27.0458557,29.5609418 L26.4529436,28.17646 L25.8812069,27.6146414 L24.4836284,27.0327577 L23.8483655,27.0327577 L22.4084361,27.4942516 C21.6402665,28.0263512 21.1495338,28.8448388 21.060466,29.7425159 C20.9713981,30.640193 21.2925332,31.5310071 21.9425766,32.1894506 L22.6413659,32.6910744 L23.0013482,32.851594 L23.8907163,33.0321786 C25.1484529,33.0561234 26.2889809,32.3356456 26.7493996,31.2263328 L26.622347,31.146073 Z" transform="translate(24.045856, 30.032758) rotate(-66.000000) translate(-24.045856, -30.032758) "></path>
                        <path d="M38.347108,39.0177225 L38.0394157,38.455547 L37.5998553,38.0977989 L36.8306245,37.8422645 L36.1493058,37.8422645 L35.3800751,38.0807633 L34.7646904,38.5407251 L34.4350201,39.1029007 L34.4350201,39.5969337 L34.6987564,40.1931806 L34.8526025,40.3465012 C35.2534477,40.681331 35.8243976,40.8620929 36.4130421,40.8405342 C37.1132584,40.804427 37.7569714,40.5300015 38.1712838,40.0909668 L38.4350201,39.5117556 L38.347108,39.0177225 Z" transform="translate(36.435020, 39.342265) rotate(-66.000000) translate(-36.435020, -39.342265) "></path>
                        <path d="M12.0102211,17.1161042 L12.0102211,16.2784403 L11.4750535,15.2143807 C11.1007034,14.735998 10.5403985,14.5054765 9.98496054,14.6013243 C9.42952255,14.6971721 8.95384618,15.1064651 8.71993134,15.6898116 L8.6010052,16.3010798 L8.6010052,16.8217898 L8.6010052,16.9576272 C8.42897638,17.1171255 8.28157882,17.3084408 8.1649427,17.5236163 C7.84385799,18.4210681 8.03209803,19.4513133 8.64064725,20.1271662 L8.77939441,20.2856432 L9.37402509,20.5799575 L9.86955067,20.5799575 L10.4641814,20.398841 C11.2517537,19.9617569 11.6949195,18.9862025 11.5543376,17.9990472 L12.0102211,17.1161042 Z" transform="translate(10.010221, 17.579958) rotate(-66.000000) translate(-10.010221, -17.579958) "></path>
                        <path d="M26.0514381,12.0869933 L24.1999012,12.0869933 L24.0147475,12.2288851 C23.4637038,12.325271 22.981308,12.5789745 22.6657706,12.9383446 L22.6657706,13.2018581 L22.6657706,13.2018581 L22.6657706,13.4856419 L22.6657706,13.6883446 L22.6657706,13.6883446 L22.6657706,14.5802365 C23.0777058,14.8888134 23.6243173,15.0693711 24.1999012,15.0869933 C24.8791265,15.0689026 25.5232023,14.8511444 25.998537,14.4788851 C26.86715,13.8269668 26.8907237,12.7610953 26.0514381,12.0869933 Z" transform="translate(24.665771, 13.586993) rotate(-66.000000) translate(-24.665771, -13.586993) "></path>
                        <path d="M39.9180636,19.2450034 L39.6134951,18.6785102 C38.8887492,17.9621738 37.7082272,17.6463893 36.5881143,17.8692343 L35.9383682,18.7432523 L36.0601956,19.4230441 L36.4865915,19.9571662 L36.7505509,20.1675779 C37.1468221,20.5429394 37.7198348,20.7713241 38.3343072,20.7988131 C38.8455531,20.789995 39.3299126,20.6144946 39.6744088,20.3132476 L39.9383682,19.7467544 L39.9180636,19.2450034 Z" transform="translate(37.938368, 19.298813) rotate(-66.000000) translate(-37.938368, -19.298813) "></path>
                        <path d="M49.6498743,40.3367052 C49.4581573,40.2156618 49.2425391,40.1152314 49.0098832,40.0386107 L48.4581666,39.9287864 C47.724871,39.8966503 47.0243626,40.1486551 46.6264678,40.5877321 C46.1802565,41.0998659 46.1303859,41.7380431 46.4940559,42.2821639 L46.8912917,42.5959476 L47.3105963,42.7999069 L47.8623128,42.9254204 C48.8051825,42.9436222 49.6728463,42.5611786 50.0691789,41.952691 C50.4231568,41.4051014 50.2553728,40.7584674 49.6498743,40.3367052 L49.6498743,40.3367052 Z" transform="translate(48.252713, 41.426043) rotate(-66.000000) translate(-48.252713, -41.426043) "></path>
                        <path d="M49.2932817,57.6634985 C49.8315831,57.0104854 49.6880655,56.1610775 48.9499493,55.6314881 C48.4241504,55.2206453 47.6841202,55.007909 46.9303473,55.0509137 L46.2436826,55.3106444 L45.8397622,55.6773229 L45.617606,56.2426191 C45.6673214,56.6110653 45.8809431,56.9558218 46.2234866,57.2204286 C46.3848701,57.3416006 46.5685277,57.4445168 46.7687791,57.525994 L46.7687791,57.525994 L47.3140717,57.9232291 L48.1219125,58.0454553 L49.2932817,57.6634985 Z" transform="translate(47.617606, 56.545455) rotate(-66.000000) translate(-47.617606, -56.545455) "></path>
                        <path d="M52.5574467,45.895524 L52.6558074,45.1974654 L52.4262992,44.3636731 C51.9634945,43.8151168 51.2824088,43.613716 50.6558074,43.8401291 L50.9508893,44.770874 L50.8525287,44.770874 L50.9836762,45.1586843 L50.7049877,45.4883231 L51.3115451,46.1282102 L51.3115451,46.1282102 L51.9344959,46.7487068 C52.0164631,46.6323637 52.0164631,46.6323637 52.0984303,46.5935827 L52.5574467,45.895524 Z" transform="translate(51.655807, 45.248707) rotate(-66.000000) translate(-51.655807, -45.248707) "></path>
                        <path d="M42.052728,46.7010459 L42.052728,46.7010459 C42.4947956,46.6166473 42.8965888,46.4304584 43.2088324,46.1653133 L43.4756257,45.6474386 L43.4756257,45.1652793 L43.2977635,44.611689 L43.0087374,44.325965 C42.2435499,43.6720134 40.9666201,43.6322594 40.1407093,44.2366762 C39.3187597,44.8287121 39.2491161,45.843603 39.9850798,46.5046106 L40.8521581,46.8081924 L41.5858397,46.8081924 L42.052728,46.7010459 Z" transform="translate(41.475626, 45.308192) rotate(-66.000000) translate(-41.475626, -45.308192) "></path>
                        <path d="M37.0039456,54.900419 L37.0039456,54.0606072 C36.9063562,53.3116545 36.5827906,52.6243045 36.0884307,52.1157799 L36.0884307,52.1157799 L35.1923948,51.6295731 L34.8612511,51.6295731 L34.0626104,51.6295731 C33.1320966,51.8469803 32.3830715,52.6288151 32.1147062,53.6628016 C31.8609664,54.6420112 32.049188,55.7002005 32.617784,56.4911245 C33.18638,57.2820486 34.0621907,57.7039413 34.9586463,57.6187573 C35.7032573,57.5440999 36.3772931,57.0885102 36.7896762,56.3811399 L37.0039456,54.900419 Z" transform="translate(34.503946, 54.629573) rotate(-66.000000) translate(-34.503946, -54.629573) "></path>
                        <path d="M32.0856459,52.4407326 L31.6256459,53.171688 C31.6256459,53.171688 31.6256459,53.171688 31.4856459,53.171688 L31.2256459,53.6007269 C31.2256459,53.6007269 31.3256459,53.6007269 31.3656459,53.6007269 L30.9056459,54.3475726 C31.5573915,54.5834315 32.3264755,54.356064 32.6256459,53.8390819 C32.7935269,53.5977148 32.8308384,53.3125275 32.7290284,53.048887 C32.6272185,52.7852465 32.3950169,52.5657591 32.0856459,52.4407326 L32.0856459,52.4407326 Z" transform="translate(31.845490, 53.440733) rotate(-66.000000) translate(-31.845490, -53.440733) "></path>
                        <path d="M6.15717249,23.1188097 L6.31161666,23.6957327 L7.25758721,24.8495789 L7.41203138,24.9457327 C8.0113936,25.2360249 8.6912898,25.3172965 9.34258351,25.176502 L9.94105467,25.3303481 L10.4429982,25.3303481 L11.4854964,24.7726558 C12.1975246,24.0524636 12.3613519,22.9567398 11.8909123,22.0611173 C11.7125379,21.5993644 11.41241,21.1940997 11.0221639,20.8880404 C10.8106364,20.2031664 10.320399,19.6380882 9.67077737,19.3303481 L9.01438964,19.5418866 C8.6582992,19.4636509 8.2893709,19.4636509 7.93328045,19.5418866 L6.46606083,20.5995789 L6.31161666,20.926502 L6.31161666,21.7726558 L6.31161666,21.7726558 L6.15717249,23.1188097 Z" transform="translate(9.157172, 22.330348) rotate(-66.000000) translate(-9.157172, -22.330348) "></path>
                        <path d="M17.487894,11.2022418 L16.9260963,10.750187 L16.3418266,10.5241597 L15.487894,10.5241597 L14.8362087,10.6980269 L14.1845233,11.1500816 L13.8025008,11.7586169 L13.8025008,12.3671521 L13.9822761,12.8539803 L14.49913,13.375582 L14.7013772,13.375582 C15.2497404,13.5736855 15.883351,13.5736855 16.4317143,13.375582 C17.0885441,13.1538514 17.5886768,12.7224893 17.8025008,12.1932849 L17.8025008,11.5673629 L17.487894,11.2022418 Z" transform="translate(15.802501, 12.024160) rotate(-66.000000) translate(-15.802501, -12.024160) "></path>
                        <path d="M24.6890701,11.4000207 C24.4459076,11.3245104 24.1883508,11.2755799 23.9249804,11.2548594 L23.3406764,11.2548594 C22.6300042,11.408697 22.0839804,11.8189477 21.9023899,12.3355046 C21.7526492,12.9225757 22.0128869,13.5250679 22.5990599,13.9484078 L23.1159442,14.1580852 L23.6103552,14.2548594 L24.1946591,14.2548594 C25.1065246,14.0466698 25.7596187,13.4702641 25.8576779,12.7871175 C25.9039418,12.1960407 25.439871,11.6452048 24.6890701,11.4000207 L24.6890701,11.4000207 Z" transform="translate(23.860845, 12.754859) rotate(-66.000000) translate(-23.860845, -12.754859) "></path>
                        <path d="M30.4478724,27.4620385 C30.6637606,26.6485251 30.1531386,25.8223996 29.2307068,25.4928096 C28.6098317,25.2318092 27.8845244,25.2017331 27.2353533,25.4100689 L26.7165614,25.8734169 L26.4970725,26.3698612 L26.4970725,26.9986905 C26.7020732,27.3615986 27.0457526,27.6582572 27.4747957,27.8426458 C27.6834659,27.9207201 27.9056903,27.9709833 28.1332624,27.9915791 L28.1332624,27.9915791 L28.8116825,28.2728975 L29.6098239,28.1570605 L30.4478724,27.4620385 Z" transform="translate(28.497073, 26.772897) rotate(-66.000000) translate(-28.497073, -26.772897) "></path>
                        <path d="M48.9739415,11.19654 C48.8032989,11.268016 48.6769928,11.4166114 48.6339415,11.59654 L48.7539415,11.85654 C48.7367189,11.7977759 48.7367189,11.7353041 48.7539415,11.67654 L48.8939415,12.35654 L49.2539415,12.51654 L49.6739415,12.51654 C49.9019902,12.3950553 50.0414825,12.1548186 50.0339415,11.89654 C49.9908167,11.6606717 49.8533118,11.4526141 49.6532253,11.3204816 C49.4531389,11.188349 49.207799,11.1435845 48.9739415,11.19654 L48.9739415,11.19654 Z" transform="translate(49.334087, 11.845673) rotate(-66.000000) translate(-49.334087, -11.845673) "></path>
                        <path d="M29.5960429,14.498148 L29.5127096,13.9808029 L29.1377096,13.4338953 C28.6347125,13.1829578 28.0429784,13.245366 27.5960429,13.5964895 L28.0682651,14.1729597 L27.9849318,14.1729597 L28.1793762,14.4094603 C28.1099318,14.5424919 28.0682651,14.6607422 28.0265985,14.7494299 L28.6793762,15.0154931 L28.6793762,15.0154931 L29.3182651,15.2815563 C29.3182651,15.1780872 29.3182651,15.163306 29.4015985,15.1189621 L29.5960429,14.498148 Z" transform="translate(28.596043, 14.281556) rotate(-66.000000) translate(-28.596043, -14.281556) "></path>
                        <path d="M24.2712618,17.5319517 L24.2712618,17.5319517 C24.6683306,17.3383343 24.9787006,17.0544095 25.1600183,16.7189221 L25.1600183,16.1710108 L25.0232865,15.7114723 L24.6130912,15.2342593 L24.2256845,15.0398391 C23.1976926,14.6460666 21.9521977,14.9498858 21.3998947,15.7291469 C20.8747938,16.4961896 21.2399566,17.4481081 22.2202853,17.8677683 L23.1774077,17.8677683 L23.8838551,17.6556736 L24.2712618,17.5319517 Z" transform="translate(23.160018, 16.367768) rotate(-66.000000) translate(-23.160018, -16.367768) "></path>
                        <path d="M22.3119122,26.6838795 L21.9750529,25.8919319 C21.6224747,25.1946112 21.0325772,24.6484449 20.3132135,24.3532909 L20.3132135,24.3532909 L19.190349,24.1949013 L18.7861178,24.1949013 L17.9102835,24.5116804 C16.9696952,25.0793147 16.416876,26.1236871 16.473017,27.2269293 C16.5296781,28.3787308 17.2117981,29.4052967 18.2471428,29.8969241 C19.0943113,30.2942271 20.0723918,30.2942271 20.9195603,29.8969241 C21.6938582,29.5194073 22.2616067,28.8147193 22.4691132,27.9736228 L22.3119122,26.6838795 Z" transform="translate(19.469113, 27.194901) rotate(-66.000000) translate(-19.469113, -27.194901) "></path>
                        <path d="M54.3258672,50.545472 L54.2158549,51.0875949 C54.3436906,51.3655479 54.5895401,51.5714412 54.8856163,51.6485046 C55.0917687,51.6897475 55.3052368,51.6303081 55.4604071,51.4884562 L55.4604071,51.4884562 C55.7012841,51.2675185 55.839729,50.9565661 55.8427396,50.6297235 C55.8794997,50.3899459 55.8132859,50.1457949 55.6604174,49.9574448 L55.0492137,49.9042466 L54.3258672,50.545472 Z"></path>
                        <path d="M39.9435216,46.4669048 C39.7208922,46.1039765 39.4032328,45.8060862 39.0235216,45.6041597 L38.1435216,47.3492577 L38.1435216,47.3492577 L38.1435216,47.6041597 L40.1435216,47.3688656 L40.1435216,46.8590616 L39.9435216,46.4669048 Z" transform="translate(39.143522, 46.604160) rotate(-66.000000) translate(-39.143522, -46.604160) "></path>
                        <path d="M39.8154076,52.0159128 L39.3202221,51.6033794 L38.5666789,51.339358 L37.8777252,51.339358 L37.3179503,51.438366 L36.7151158,51.7023874 C36.2326829,52.0883718 36.0240659,52.6295471 36.1553409,53.1545049 C36.281592,53.6028867 36.6683123,53.9824489 37.2052816,54.1850114 C37.7422509,54.3875739 38.3705686,54.3909174 38.9111558,54.194089 C39.5230795,53.9797856 39.9691185,53.5585618 40.1168248,53.0554969 L40.1168248,52.5109528 L39.8154076,52.0159128 Z" transform="translate(38.116825, 52.839358) rotate(-66.000000) translate(-38.116825, -52.839358) "></path>
                        <path d="M40.8938798,36.4699454 L39.9306361,36.2199454 L39.111879,36.2199454 L38.9914735,36.2199454 C38.2690408,36.2199454 37.2576349,36.3605704 36.751932,37.4074454 L36.751932,37.9386954 L37.016824,38.3605704 L37.5947702,38.7511954 L39.0637168,39.2199454 L39.8583929,39.2199454 L40.5085823,39.1261954 L41.1587718,38.8449454 C42.0421323,38.1303204 41.9266146,37.0945978 40.8938798,36.4699454 Z" transform="translate(39.251932, 37.719945) rotate(-66.000000) translate(-39.251932, -37.719945) "></path>
                        <path d="M14.1532858,19.3372227 L14.5870696,19.4330062 L15.4318063,19.2989093 C15.6196654,19.1914334 15.7887224,19.0624775 15.9340822,18.9157755 L16.7103268,18.4943283 C16.8312473,18.0653971 16.7318357,17.613572 16.4363581,17.2491434 C16.1223428,16.8363558 15.617796,16.5518072 15.043684,16.4637191 C14.0145994,16.2953704 13.0094465,16.8351456 12.7606117,17.6897473 L13.2628876,18.3219181 C13.2842554,18.4817423 13.3383197,18.6372762 13.4227027,18.7816787 L14.1532858,19.3372227 Z" transform="translate(14.760612, 17.933006) rotate(-66.000000) translate(-14.760612, -17.933006) "></path>
                        <path d="M16.8105865,25.8172205 L15.8416424,25.8172205 L14.8230088,26.1690723 C14.5424798,26.3265014 14.3131902,26.5290563 14.1522014,26.7616649 L14.1522014,27.5579612 L14.6242511,28.298702 C14.8176748,28.5244039 15.093481,28.7042845 15.4192821,28.8172205 L16.4379157,28.8172205 L17.4813939,28.4468501 C17.7674399,28.2861366 17.9974981,28.0765517 18.1522014,27.835739 L18.1522014,27.0949983 L17.6304623,26.298702 C17.4187382,26.0872549 17.1359337,25.9211747 16.8105865,25.8172205 Z" transform="translate(16.152201, 27.317220) rotate(-66.000000) translate(-16.152201, -27.317220) "></path>
                        <path d="M42.5749477,5.27318048 L42.4549477,5.83318048 L42.7349477,6.33318048 C43.074192,6.47429195 43.4557033,6.47429195 43.7949477,6.33318048 C43.9812262,6.25627941 44.1164562,6.09099824 44.1549477,5.89318048 C44.1966565,5.6174464 44.0605602,5.34525386 43.8149477,5.21318048 L43.5949477,5.21318048 C43.4385216,5.07571369 43.2423726,4.9916498 43.0349477,4.97318048 L42.5749477,5.27318048 Z" transform="translate(43.308674, 5.706097) rotate(-66.000000) translate(-43.308674, -5.706097) "></path>
                        <path d="M28.1727934,33.4574629 L28.4703757,32.5080958 L28.2185753,31.8055642 L27.3716101,31.1599945 L26.501754,31.0080958 L25.7921345,31.0080958 L25.2198607,31.2359439 L24.6933689,31.6726528 L24.5102413,32.1093616 C24.3139653,32.9179625 24.8584059,33.7243853 25.7921345,34.0080958 L26.4330811,34.0080958 L27.3716101,33.8751844 L28.1270115,33.4005009 L27.3716101,32.6979692 L27.3716101,32.6979692 L28.1727934,33.4574629 Z" transform="translate(26.470376, 32.508096) rotate(-66.000000) translate(-26.470376, -32.508096) "></path>
                        <path d="M21.5073146,13.6187629 L21.5073146,14.7492957 L22.0876255,15.3235345 L22.647211,15.6285989 C23.1682895,15.9084574 23.8057468,15.9741644 24.3881437,15.8080486 C24.9150567,15.6052939 25.3205983,15.2216453 25.5073146,14.7492957 L25.3207861,13.8879374 L24.8233768,13.3675334 L23.8492835,13.0265791 C23.0048416,12.7238971 22.0309049,12.970164 21.5073146,13.6187629 L21.5073146,13.6187629 Z" transform="translate(23.507315, 14.398153) rotate(-66.000000) translate(-23.507315, -14.398153) "></path>
                        <path d="M41.5665471,37.0424752 L42.0364585,36.556926 L42.0364585,36.4008567 C42.1483422,36.0020127 42.2154724,35.0135734 40.3805803,34.4239781 L39.5078876,34.4239781 L38.8365856,34.6320705 L38.1429069,35.3950763 C37.9990441,35.8512551 38.1218335,36.3333826 38.4785579,36.7129954 C38.917376,37.1367501 39.5685539,37.395376 40.2686966,37.4239781 L41.0071288,37.2852497 L41.5665471,37.0424752 Z" transform="translate(40.084036, 35.923978) rotate(-66.000000) translate(-40.084036, -35.923978) "></path>
                        <path d="M66.9236335,12.6960249 L67.1036335,12.8360249 C67.3532859,12.9786685 67.6577084,12.9871113 67.914883,12.858524 C68.1720577,12.7299367 68.3479569,12.481333 68.3836335,12.1960249 C68.4490815,11.8995214 68.3913382,11.5891512 68.2236335,11.3360249 L68.0436335,11.1760249 C67.7909228,11.0540151 67.4963441,11.0540151 67.2436335,11.1760249 C66.7458734,11.5144018 66.6045514,12.1856814 66.9236335,12.6960249 L66.9236335,12.6960249 Z" transform="translate(67.581571, 12.016917) rotate(-66.000000) translate(-67.581571, -12.016917) "></path>
                        <path d="M26.9840172,21.7553575 L26.9840172,21.7553575 L27.4499523,22.8582987 C28.0922882,22.5571882 28.568974,21.9398163 28.7368206,21.191632 C28.8347184,20.3077864 28.5933506,19.4190117 28.0711991,18.7406516 L27.8937,18.4220242 L26.8287055,17.8582987 L25.9190226,17.8582987 L25.0093398,18.691632 C24.2105939,21.4857496 25.5196497,22.5151614 26.1187091,22.8092791 L26.5846442,21.7063379 L26.9840172,21.7553575 Z" transform="translate(26.758187, 20.358299) rotate(-66.000000) translate(-26.758187, -20.358299) "></path>
                        <path d="M26.5335476,8.34255818 C25.4974133,7.92599425 24.222084,8.19757315 23.6061733,8.96593686 L23.3603633,9.69321199 L23.5167879,10.2992746 L24.6117599,10.1434299 L24.6117599,10.1434299 L25.5950001,10.4724353 L26.2877376,11.1477622 L26.7793577,10.853389 L27.1815923,10.3512228 L27.3603633,9.71052806 L27.3603633,9.15641368 L27.1145532,8.74082789 L26.5335476,8.34255818 Z" transform="translate(25.360363, 9.647762) rotate(-66.000000) translate(-25.360363, -9.647762) "></path>
                        <path d="M34.9083461,50.8639902 L35.9333461,50.8639902 L36.9583461,50.5054997 C37.2592458,50.3658437 37.5086053,50.1711584 37.6833461,49.9394619 L37.6833461,49.165877 L37.2083461,48.3734242 C37.0012167,48.1416497 36.7043844,47.9637479 36.3583461,47.8639902 L35.3833461,47.8639902 L34.3583461,48.2224808 C34.074666,48.3739538 33.8432047,48.5745213 33.6833461,48.8073865 L33.6833461,49.5809714 L34.1583461,50.3922921 C34.3595901,50.5890574 34.6156162,50.7500801 34.9083461,50.8639902 L34.9083461,50.8639902 Z" transform="translate(35.683346, 49.363990) rotate(-66.000000) translate(-35.683346, -49.363990) "></path>
                        <path d="M47.7978106,52.6392836 L47.4506633,52.4847237 C47.0637047,52.5247791 46.7414015,52.7990595 46.6399652,53.1746285 C46.5321691,53.5909909 46.7562795,54.0215151 47.1591696,54.1720385 L47.6831506,54.076939 C48.3842232,53.3382258 47.9479808,52.7937146 47.7978106,52.6392836 Z"></path>
                        <path d="M23.8501253,39.5101048 L23.1247842,39.9193074 C23.0107511,40.3734722 23.122875,40.849175 23.4325046,41.2248588 C23.6986718,41.5557387 24.1016307,41.7798849 24.5534864,41.8484057 C25.6540883,42.043672 26.7438378,41.4724189 27.0811903,40.5233685 L26.3558492,39.4126756 L26.3558492,39.4126756 C26.1343148,39.2004876 25.8742905,39.0226595 25.586548,38.8865578 L24.289726,39.1009021 C24.1239755,39.2199983 23.9762256,39.3575315 23.8501253,39.5101048 L23.8501253,39.5101048 Z" transform="translate(25.081190, 40.386558) rotate(-66.000000) translate(-25.081190, -40.386558) "></path>
                        <path d="M9.93299094,23.2432684 C9.91934346,23.4806501 9.91934346,23.7187121 9.93299094,23.9560939 L10.1759572,24.7402019 L10.5956263,25.2867014 L10.9711196,25.5718316 L12.0092482,25.9044835 L12.2963902,25.9044835 C12.9772435,26.1300399 13.7174281,25.9884846 14.2842961,25.5243099 L14.6818773,24.9540495 L14.8585801,24.3600283 C15.1015464,23.2432684 14.6597895,22.3403561 13.4449581,21.580009 L13.4449581,21.580009 L13.0915526,21.2235962 L12.3405659,21.0097486 L11.3466129,21.2473571 C10.6512745,21.6886445 10.1439346,22.4049643 9.93299094,23.2432684 Z" transform="translate(12.422755, 23.509749) rotate(-66.000000) translate(-12.422755, -23.509749) "></path>
                        <path d="M20.5200402,5.80987614 L20.3200402,6.59839497 C20.3200402,6.59839497 20.3200402,6.59839497 20.1600402,6.59839497 L20.0400402,7.02298203 C20.0972949,7.04244368 20.1627855,7.04244368 20.2200402,7.02298203 L20.0200402,7.79633703 C20.3601256,7.83985712 20.7089838,7.77747984 20.9875871,7.62333567 C21.2661905,7.46919151 21.4509603,7.23632593 21.5000402,6.97749056 C21.6492973,6.45060635 21.2127731,5.93051253 20.5200402,5.80987614 L20.5200402,5.80987614 Z" transform="translate(20.774662, 6.809876) rotate(-66.000000) translate(-20.774662, -6.809876) "></path>
                        <path d="M39.7051783,21.3318779 C39.2336342,21.4472718 38.501928,21.6203627 38.3718469,22.6589082 L38.5669685,23.1012516 L38.8921713,23.2551102 C39.0810254,23.3150216 39.2815477,23.2308625 39.3962356,23.0435547 C39.62594,23.1596224 39.8926577,23.0516981 40.0141209,22.7935345 L40.1116817,22.3704234 C40.277401,22.2017951 40.3724554,21.9558559 40.3718469,21.697292 L39.9328202,21.2741809 L39.7051783,21.3318779 Z" transform="translate(39.371847, 22.274181) rotate(-66.000000) translate(-39.371847, -22.274181) "></path>
                        <path d="M39.7570428,8.37446722 L39.2370428,8.91446722 C39.2370428,8.91446722 39.2370428,8.81446722 39.2370428,8.79446722 L39.2370428,8.79446722 C39.0490419,8.9348936 38.9439091,9.16017805 38.9570428,9.39446722 C39.0163772,9.62362665 39.1906145,9.80543943 39.4170428,9.87446722 L39.9770428,9.69446722 C40.1370428,9.49446722 40.4570428,9.11446722 40.3370428,8.71446722 C40.2235983,8.50053626 39.9991289,8.36895072 39.7570428,8.37446722 L39.7570428,8.37446722 Z" transform="translate(39.659658, 9.124384) rotate(-66.000000) translate(-39.659658, -9.124384) "></path>
                        <path d="M21.8749468,23.8754414 L21.2492484,23.5846757 C20.3132172,23.4571599 19.3713453,23.7834036 18.8358406,24.4206272 L18.6123769,25.2565787 L18.8358406,25.8926287 L19.5509244,26.5105059 L19.9531591,26.5105059 C20.5901225,26.6304885 21.2597485,26.5175912 21.7855613,26.2015673 C22.2756244,25.8796875 22.5758685,25.4045476 22.6123769,24.8931215 L22.3218741,24.2388986 L21.8749468,23.8754414 Z" transform="translate(20.612377, 25.057390) rotate(-66.000000) translate(-20.612377, -25.057390) "></path>
                        <path d="M23.6390657,23.3825643 L22.5630429,23.2462007 L21.7677216,23.4337007 L21.370061,23.5871097 C21.1029701,23.7323693 20.8931847,23.9263957 20.7618742,24.1496097 L20.7618742,24.8484734 L21.2063184,25.5302916 C21.4320816,25.7995784 21.7559979,26.0179115 22.1419905,26.1609734 L22.7267855,26.2462007 L23.2180133,26.2462007 L23.7794165,26.1268825 C24.358539,25.8727494 24.7266783,25.4256481 24.7618742,24.9337007 C24.762936,24.3131151 24.3425421,23.7323486 23.6390657,23.3825643 L23.6390657,23.3825643 Z" transform="translate(22.761874, 24.746201) rotate(-66.000000) translate(-22.761874, -24.746201) "></path>
                        <path d="M25.759767,9.12209068 L24.4083438,8.46627834 C22.9497147,8.16174384 21.4765287,8.91941654 21.0079888,10.2151113 L21.0079888,11.2087663 L21.1169745,11.6062284 L21.5747146,12.520391 C22.1331786,13.477656 23.1332114,14.1560049 24.2993581,14.3685895 C24.6831431,14.4093549 25.0708218,14.4093549 25.4546069,14.3685895 L26.5662614,14.0307467 L26.9586101,13.7723964 L27.7215102,12.9377262 C28.1034816,12.1948397 28.1034816,11.3355866 27.7215102,10.5927002 C27.321882,9.87398429 26.6104427,9.34065797 25.759767,9.12209068 L25.759767,9.12209068 Z" transform="translate(24.507989, 11.399164) rotate(-66.000000) translate(-24.507989, -11.399164) "></path>
                        <path d="M26.4306497,4.75963626 L25.8090972,4.47741424 L24.9946492,4.36120517 L24.3087983,4.44421164 L23.7944101,4.64342719 L23.3014547,5.02525699 C23.0013575,5.5078308 23.0013575,6.07000239 23.3014547,6.5525762 C23.5708579,6.96085817 24.0697116,7.2491237 24.6517238,7.3328371 C25.2383696,7.42163614 25.8453508,7.29951898 26.3020526,7.00081118 C26.821852,6.66658902 27.1077921,6.16210353 27.0736349,5.63950493 L26.8378737,5.12486477 L26.4306497,4.75963626 Z" transform="translate(25.076382, 5.861205) rotate(-66.000000) translate(-25.076382, -5.861205) "></path>
                        <path d="M25.854611,12.5938296 L25.6884867,11.9312939 L25.3354725,11.4657284 L24.6709753,11.0896946 L23.6742295,10.9285373 L23.0097323,10.9285373 L22.4905938,11.1613201 L22.033752,11.5910729 C21.7861903,12.0457645 21.7956559,12.5734996 22.0594063,13.0213717 C22.3231567,13.4692438 22.8117099,13.78719 23.383512,13.8830881 C24.4756715,14.0985413 25.5691215,13.5280503 25.854611,12.5938296 Z" transform="translate(23.854611, 12.428537) rotate(-66.000000) translate(-23.854611, -12.428537) "></path>
                        <path d="M8.07465597,22.4238785 L8.39568091,22.8077718 L9.46576404,23.4689215 L9.76538732,23.4689215 C10.627679,23.6511742 11.526828,23.4485936 12.2265785,22.9144089 C12.9979009,22.3010107 13.459643,21.3807306 13.4892766,20.3977747 L13.1040467,18.9901658 L12.7402184,18.4996354 L11.2207004,17.6252117 C10.212867,17.3726851 9.14555611,17.6547023 8.39568091,18.371671 C7.64838977,19.1473902 7.33572868,20.2419018 7.56101607,21.2935259 L8.07465597,22.4238785 Z" transform="translate(10.489277, 20.534381) rotate(-66.000000) translate(-10.489277, -20.534381) "></path>
                        <path d="M31.0438166,45.4623665 C30.4238166,45.7423665 30.3638166,46.1423665 30.4038166,46.3423665 C30.4517664,46.6405865 30.6855966,46.8744168 30.9838166,46.9223665 C31.2316521,46.9757682 31.4881715,46.8824884 31.6438166,46.6823665 C31.7838166,46.5023665 31.8838166,46.1823665 31.6438166,45.6423665 L31.0438166,45.4623665 Z" transform="translate(31.091411, 46.199782) rotate(-66.000000) translate(-31.091411, -46.199782) "></path>
                        <path d="M66.426301,39.4665477 L66.5762132,40.0149329 L66.9233605,40.1694928 L67.5366946,40.0703904 L67.8639564,39.5812077 L67.7749902,38.9942793 C67.6177116,38.828169 67.4007341,38.7315643 67.1720502,38.7258331 C66.7930087,38.7924549 66.4954888,39.0879662 66.426301,39.4665477 L66.426301,39.4665477 Z"></path>
                        <path d="M25.5608923,8.45767416 L26.3510596,7.76124559 L26.5137411,7.08267416 L26.0954172,6.2255313 L25.3982108,5.79695987 L24.6777642,5.61838844 L24.0502784,5.61838844 L23.3530719,5.79695987 L22.9347481,6.11838844 C22.3244041,6.7312205 22.3834944,7.59388555 23.0741894,8.15410273 L23.6319545,8.42195987 L24.5615631,8.61838844 L25.4911717,8.49338844 L25.2122891,7.61838844 L25.2122891,7.61838844 L25.5608923,8.45767416 Z" transform="translate(24.513741, 7.118388) rotate(-66.000000) translate(-24.513741, -7.118388) "></path>
                        <path d="M25.9276202,23.5557404 L26.6490664,23.2724071 L26.7887011,23.1557404 C27.137788,22.8557404 27.7894168,22.0390737 26.4163418,20.9224071 L25.6018058,20.6390737 L24.8570872,20.6390737 L23.7400093,21.0557404 C23.356174,21.4105291 23.1883669,21.8611883 23.2745602,22.3057404 C23.4264213,22.8228963 23.8852054,23.2670609 24.5312728,23.5224071 L25.2992639,23.6390737 L25.9276202,23.5557404 Z" transform="translate(25.252434, 22.139074) rotate(-66.000000) translate(-25.252434, -22.139074) "></path>
                        <path d="M59.5088335,13.0909955 L59.5088335,13.3109955 C59.6725013,13.5344802 59.9318449,13.6678568 60.2088335,13.6709955 C60.4933199,13.6574042 60.7570847,13.518195 60.9288335,13.2909955 C61.1213578,13.0561301 61.2082177,12.7521205 61.1688335,12.4509955 L61.0688335,12.2309955 C60.9051657,12.0075108 60.6458221,11.8741341 60.3688335,11.8709955 C59.8187747,12.0073723 59.4524103,12.5270985 59.5088335,13.0909955 L59.5088335,13.0909955 Z" transform="translate(60.340620, 12.770995) rotate(-66.000000) translate(-60.340620, -12.770995) "></path>
                        <path d="M15.2542289,30.5950995 L16.1832612,30.9604842 L17.318745,30.9604842 C17.6786141,30.9179077 18.0169511,30.8051145 18.2993902,30.6335611 L18.7897128,29.9604842 L18.7897128,29.056638 C18.7377873,28.7779124 18.5761375,28.5169153 18.3251967,28.306638 L17.4219708,27.9604842 L16.2606805,27.9604842 C15.9110365,27.9971304 15.5811521,28.1034341 15.3058418,28.2681765 L14.7897128,28.9604842 L14.7897128,29.8643303 C14.8630351,30.1323125 15.0224234,30.3830596 15.2542289,30.5950995 L15.2542289,30.5950995 Z" transform="translate(16.789713, 29.460484) rotate(-66.000000) translate(-16.789713, -29.460484) "></path>
                        <path d="M34.5697823,30.9400417 L34.7097823,30.5800417 C34.6751427,30.1942052 34.416469,29.8649841 34.0497823,29.7400417 C33.6369603,29.6142706 33.196001,29.8217809 33.0297823,30.2200417 L33.0297823,30.7400417 C33.8497823,31.5000417 34.4097823,31.0800417 34.5697823,30.9400417 Z" transform="translate(33.869782, 30.442858) rotate(-66.000000) translate(-33.869782, -30.442858) "></path>
                        <path d="M12.3521067,15.3759615 L11.4086903,15.3759615 C11.042471,15.7453086 10.8923517,16.2258403 10.9974575,16.6923176 C11.0764931,17.0931082 11.3456898,17.4528061 11.7473526,17.69432 C12.72481,18.3040758 14.1104367,18.2194595 14.9646444,17.497849 L14.9646444,16.20114 L14.9646444,16.20114 C14.8671361,15.9260664 14.7116272,15.6668122 14.5050313,15.4349029 L13.0778116,15.1009021 C12.8230214,15.1682442 12.5793146,15.2606149 12.3521067,15.3759615 L12.3521067,15.3759615 Z" transform="translate(12.964644, 16.600902) rotate(-66.000000) translate(-12.964644, -16.600902) "></path>
                        <path d="M25.2406751,15.8849153 L24.6806751,16.0049153 L24.3406751,16.4849153 C24.3971932,16.8539875 24.5987965,17.1851929 24.9006751,17.4049153 C25.0503987,17.5304548 25.2518735,17.5752269 25.4406751,17.5249153 C25.5606751,17.5249153 25.8406751,17.3849153 25.9006751,16.9249153 L25.7606751,16.7649153 C25.8201223,16.5625236 25.8201223,16.347307 25.7606751,16.1449153 L25.2406751,15.8849153 Z" transform="translate(25.120675, 16.715035) rotate(-66.000000) translate(-25.120675, -16.715035) "></path>
                        <path d="M30.2287009,39.8050434 L30.2287009,40.0450434 C30.2190652,40.3214646 30.3370654,40.586965 30.5487009,40.7650434 C30.7844906,40.9204397 31.0741517,40.9711304 31.3487009,40.9050434 C31.6481808,40.8340886 31.9071872,40.6470283 32.0687009,40.3850434 L32.0687009,40.1650434 C32.0734706,39.8852357 31.9478099,39.6191306 31.7287009,39.4450434 C31.2110984,39.1571745 30.5592716,39.3136129 30.2287009,39.8050434 L30.2287009,39.8050434 Z" transform="translate(31.148493, 40.117287) rotate(-66.000000) translate(-31.148493, -40.117287) "></path>
                        <path d="M16.953735,5.45697866 L16.953735,5.45697866 L16.313735,6.03518417 C16.7880804,6.35500915 17.4336116,6.48484496 18.053735,6.38515066 C18.7598783,6.20578827 19.3336603,5.80793682 19.633735,5.28960338 L19.793735,5.09179624 L19.793735,4.28535171 L19.373735,3.76800994 L18.373735,3.41804345 C16.033735,3.67671433 15.793735,4.77226161 15.793735,5.21352371 L16.793735,5.21352371 L16.953735,5.45697866 Z" transform="translate(17.793735, 4.918043) rotate(-66.000000) translate(-17.793735, -4.918043) "></path>
                        <path d="M51.2943796,33.2090849 C51.184386,33.4932187 51.2221973,33.8133792 51.3953544,34.0640726 C51.6827096,34.3758566 52.0859011,34.5553691 52.5098799,34.5602913 L52.9466382,34.3168942 L53.0523897,34.0793723 C53.2313539,33.6774123 52.8579299,33.3360115 52.2528595,33.2198659 C52.2528595,33.2198659 52.1066922,33.154788 52.0701504,33.1385185 C52.1184529,33.1863884 52.1522086,33.2469606 52.1675093,33.3132218 L51.2943796,33.2090849 Z"></path>
                        <path d="M59.847331,2.23852308 L59.847331,2.09852308 L59.447331,1.57852308 C59.1635122,1.5222116 58.8704007,1.61239977 58.667331,1.81852308 C58.4622267,2.03100291 58.3663331,2.32606003 58.407331,2.61852308 C58.3982199,2.70495029 58.3982199,2.79209587 58.407331,2.87852308 L58.807331,3.23852308 C59.727331,3.29852308 59.847331,2.53852308 59.847331,2.23852308 Z" transform="translate(59.122679, 2.401973) rotate(-66.000000) translate(-59.122679, -2.401973) "></path>
                        <path d="M22.7450679,10.2828152 L22.3850679,9.86281515 C22.08586,9.79558745 21.7722002,9.86123718 21.5250679,10.0428152 C21.3659674,10.1832561 21.2841044,10.3916347 21.3050679,10.6028152 L21.3050679,10.6028152 C21.3273702,10.9276418 21.478588,11.2300773 21.7250679,11.4428152 C21.8926883,11.6151187 22.1247729,11.709403 22.3650679,11.7028152 L22.7850679,11.2628152 L22.7450679,10.2828152 Z" transform="translate(22.043451, 10.770081) rotate(-66.000000) translate(-22.043451, -10.770081) "></path>
                        <path d="M19.3970547,35.5239234 L19.0170547,35.0239234 C18.9159902,34.9318145 18.7913806,34.8695097 18.6570547,34.8439234 L18.1370547,35.2439234 C18.0561028,35.3420775 18.001088,35.4589841 17.9770547,35.5839234 L18.3570547,36.1039234 C18.4611273,36.1915549 18.584506,36.2532442 18.7170547,36.2839234 L19.2370547,35.8839234 C19.3211033,35.7800725 19.3762907,35.6559007 19.3970547,35.5239234 L19.3970547,35.5239234 Z" transform="translate(18.687055, 35.563923) rotate(-66.000000) translate(-18.687055, -35.563923) "></path>
                        <path d="M24.8915252,10.211653 L24.4115252,9.771653 C24.287144,9.73762396 24.1559064,9.73762396 24.0315252,9.771653 L23.5915252,10.231653 C23.5271189,10.3480364 23.4927488,10.4786426 23.4915252,10.611653 L23.9515252,11.051653 C24.0694663,11.115317 24.1984112,11.1560364 24.3315252,11.171653 L24.7715252,10.691653 C24.8639447,10.5495166 24.9061841,10.380559 24.8915252,10.211653 L24.8915252,10.211653 Z" transform="translate(24.192949, 10.458892) rotate(-66.000000) translate(-24.192949, -10.458892) "></path>
                    </g>
                </g>
            </g>
        </g>
        <path d="M32.421875,30.6640625 C31.4502734,30.6640625 30.6640625,29.8778516 30.6640625,28.90625 L30.6640625,21.7578125 C30.6640625,20.7862109 31.4502734,20 32.421875,20 C33.3934766,20 34.1796875,20.7862109 34.1796875,21.7578125 L34.1796875,28.90625 C34.1796875,29.8778516 33.3934766,30.6640625 32.421875,30.6640625 Z" id="Path" fill="url(#linearGradient-5)" fill-rule="nonzero"></path>
        <path d="M50,30.6640625 C49.0283984,30.6640625 48.2421875,29.8778516 48.2421875,28.90625 L48.2421875,21.7578125 C48.2421875,20.7862109 49.0283984,20 50,20 C50.9716016,20 51.7578125,20.7862109 51.7578125,21.7578125 L51.7578125,28.90625 C51.7578125,29.8778516 50.9716016,30.6640625 50,30.6640625 Z" id="Path" fill="url(#linearGradient-5)" fill-rule="nonzero"></path>
        <path d="M67.578125,30.6640625 C66.6065234,30.6640625 65.8203125,29.8778516 65.8203125,28.90625 L65.8203125,21.7578125 C65.8203125,20.7862109 66.6065234,20 67.578125,20 C68.5497266,20 69.3359375,20.7862109 69.3359375,21.7578125 L69.3359375,28.90625 C69.3359375,29.8778516 68.5497266,30.6640625 67.578125,30.6640625 Z" id="Path" fill="url(#linearGradient-5)" fill-rule="nonzero"></path>
        <path d="M78.2421875,27.1484375 L21.7578125,27.1484375 C20.7733203,27.1484375 20,27.9217578 20,28.90625 L20,35.9375 L80,35.9375 L80,28.90625 C80,27.9217578 79.2266797,27.1484375 78.2421875,27.1484375 Z" id="Path" fill="url(#linearGradient-6)" fill-rule="nonzero"></path>
        <path d="M35,58 C36.1045695,58 37,58.8954305 37,60 L37,68 C37,69.1045695 36.1045695,70 35,70 L27,70 C25.8954305,70 25,69.1045695 25,68 L25,60 C25,58.8954305 25.8954305,58 27,58 L35,58 Z M72,58 C73.1045695,58 74,58.8954305 74,60 L74,68 C74,69.1045695 73.1045695,70 72,70 L64,70 C62.8954305,70 62,69.1045695 62,68 L62,60 C62,58.8954305 62.8954305,58 64,58 L72,58 Z M56,42 C57.1045695,42 58,42.8954305 58,44 L58,52 C58,53.1045695 57.1045695,54 56,54 L48,54 C46.8954305,54 46,53.1045695 46,52 L46,44 C46,42.8954305 46.8954305,42 48,42 L56,42 Z M72,42 C73.1045695,42 74,42.8954305 74,44 L74,52 C74,53.1045695 73.1045695,54 72,54 L64,54 C62.8954305,54 62,53.1045695 62,52 L62,44 C62,42.8954305 62.8954305,42 64,42 L72,42 Z" id="Combined-Shape" fill="url(#linearGradient-7)"></path>
    </g>
</svg>