<?xml version="1.0" encoding="UTF-8"?>
<svg width="24px" height="24px" viewBox="0 0 24 24" version="1.1" xmlns="http://www.w3.org/2000/svg" xmlns:xlink="http://www.w3.org/1999/xlink">
    <title>Icon/line</title>
    <g id="Icon/line" stroke="none" stroke-width="1" fill="none" fill-rule="evenodd">
        <path d="M12,4 C7.03875,4 3,7.25077586 3,11.2458744 C3,14.8240932 6.2025,17.8220802 10.52625,18.3919638 C10.8195,18.4533131 11.2185,18.5841425 11.31975,18.8310181 C11.40975,19.0549802 11.379,19.4009017 11.34825,19.6344727 L11.22525,20.3928393 C11.1915,20.6168013 11.04525,21.2746436 12.012,20.8725468 C12.98025,20.4719282 17.199,17.8390806 19.089,15.6844622 C20.382,14.2800797 21,12.8409573 21,11.2458744 C21,7.25077586 16.96125,4 12,4 Z M8.47725,13.6214983 L6.68775,13.6214983 C6.429,13.6214983 6.21525,13.4093626 6.21525,13.1536172 L6.21525,9.60496439 C6.21525,9.3484798 6.429,9.13634413 6.68775,9.13634413 C6.94875,9.13634413 7.16025,9.3484798 7.16025,9.60496439 L7.16025,12.6849969 L8.47725,12.6849969 C8.73825,12.6849969 8.949,12.8956543 8.949,13.1536172 C8.949,13.4093626 8.7375,13.6214983 8.47725,13.6214983 L8.47725,13.6214983 Z M10.32675,13.1536172 C10.32675,13.4093626 10.11525,13.6214983 9.8535,13.6214983 C9.59475,13.6214983 9.38325,13.4093626 9.38325,13.1536172 L9.38325,9.60496439 C9.38325,9.3484798 9.59475,9.13634413 9.85575,9.13634413 C10.11525,9.13634413 10.32675,9.3484798 10.32675,9.60496439 L10.32675,13.1536172 Z M14.6325,13.1536172 C14.6325,13.3546656 14.502,13.5328004 14.3085,13.5971064 C14.2605,13.6126285 14.20875,13.62002 14.15925,13.62002 C14.001,13.62002 13.866,13.5527574 13.77675,13.4337545 L11.9445,10.9664762 L11.9445,13.152878 C11.9445,13.4086235 11.73525,13.6207591 11.47125,13.6207591 C11.21175,13.6207591 11.00175,13.4086235 11.00175,13.152878 L11.00175,9.60496439 C11.00175,9.40391595 11.1315,9.22578112 11.32425,9.16221433 C11.36925,9.14521391 11.42625,9.13782242 11.46975,9.13782242 C11.616,9.13782242 11.751,9.21543304 11.841,9.32704448 L13.6875,11.8039317 L13.6875,9.60496439 C13.6875,9.3484798 13.899,9.13634413 14.16,9.13634413 C14.41875,9.13634413 14.6325,9.3484798 14.6325,9.60496439 L14.6325,13.1536172 Z M17.52375,10.9103009 C17.7855,10.9103009 17.99625,11.1224366 17.99625,11.3796603 C17.99625,11.6361449 17.7855,11.8482806 17.52375,11.8482806 L16.2075,11.8482806 L16.2075,12.6849969 L17.52375,12.6849969 C17.7855,12.6849969 17.99625,12.8956543 17.99625,13.1536172 C17.99625,13.4093626 17.7855,13.6214983 17.52375,13.6214983 L15.73425,13.6214983 C15.4755,13.6214983 15.264,13.4093626 15.264,13.1536172 L15.264,9.60496439 C15.264,9.3484798 15.4755,9.13634413 15.7365,9.13634413 L17.526,9.13634413 C17.7855,9.13634413 17.99625,9.3484798 17.99625,9.60496439 C17.99625,9.86440557 17.7855,10.0735846 17.52375,10.0735846 L16.2075,10.0735846 L16.2075,10.9103009 L17.52375,10.9103009 Z" id="Shape" fill="#FFFFFF"></path>
    </g>
</svg>