<?xml version="1.0" encoding="UTF-8"?>
<svg width="24px" height="24px" viewBox="0 0 24 24" version="1.1" xmlns="http://www.w3.org/2000/svg" xmlns:xlink="http://www.w3.org/1999/xlink">
    <title>Icon/location</title>
    <g id="Icon/location" stroke="none" stroke-width="1" fill="none" fill-rule="evenodd">
        <path d="M11.7147672,2.00509035 C7.73045423,2.14451343 4.42047288,5.24462657 4.03807752,9.20178158 C3.95995374,9.99321258 4.0051833,10.7600395 4.14498375,11.494061 L4.14498375,11.494061 C4.14498375,11.494061 4.15731909,11.5801753 4.19843687,11.7442024 C4.32179021,12.2936934 4.50682022,12.8267816 4.73707979,13.3270644 C5.53887652,15.221578 7.39328843,18.3914027 11.5544078,21.8400735 C11.8093381,22.0533088 12.1835099,22.0533088 12.4425519,21.8400735 C16.6036713,18.3955034 18.4580832,15.2256787 19.2639917,13.3229637 C19.4983631,12.8226809 19.6792813,12.2936934 19.8026347,11.7401017 C19.8396407,11.5801753 19.8560878,11.4899603 19.8560878,11.4899603 L19.8560878,11.4899603 C19.9506587,10.9978789 20,10.4934954 20,9.97680987 C20,5.47426458 16.2623937,1.84516388 11.7147672,2.00509035 Z M11.9984799,13.9462669 C9.85213172,13.9462669 8.11284959,12.2116798 8.11284959,10.0711255 C8.11284959,7.93057116 9.85213172,6.19598405 11.9984799,6.19598405 C14.144828,6.19598405 15.8841101,7.93057116 15.8841101,10.0711255 C15.8841101,12.2116798 14.144828,13.9462669 11.9984799,13.9462669 Z" id="Shape" fill="#62636A"></path>
    </g>
</svg>