<?xml version="1.0" encoding="UTF-8"?>
<svg width="24px" height="24px" viewBox="0 0 24 24" version="1.1" xmlns="http://www.w3.org/2000/svg" xmlns:xlink="http://www.w3.org/1999/xlink">
    <title>Icon/logout</title>
    <g id="Icon/logout" stroke="none" stroke-width="1" fill="none" fill-rule="evenodd">
        <path d="M11.2580786,6.39794925 C11.7619868,6.57327975 12.1100835,7.02049913 12.1598886,7.53663887 L12.166043,7.66699219 L12.166,17.666 L14.1670253,17.6660156 C14.5349466,17.6660156 14.83402,17.3669434 14.83402,16.9990234 L14.83402,14.3320312 C14.83402,13.9641113 15.1321168,13.6650391 15.5010147,13.6650391 C15.8689361,13.6650391 16.1680095,13.9628906 16.1680095,14.3320312 L16.1680095,17 C16.1670329,18.1030274 15.2700568,19 14.1670253,19 L12.166,19 L12.166043,19.6669922 C12.166043,20.4020996 11.5681384,21 10.8330282,21 C10.7404171,21 10.6499763,20.9915364 10.5593907,20.973452 L10.4231145,20.9389649 L6.40796247,19.6010742 C5.90405429,19.4246169 5.55678964,18.9773108 5.50634601,18.4628926 L5.5,18.3330078 L5.5,6.33300781 C5.5,5.59790038 6.09790266,5 6.8330129,5 L6.93673699,5.00293954 C6.95756028,5.00099439 6.97866452,5 7.00000572,5 L14.1670253,5 C15.2700568,5 16.1670329,5.89697263 16.1670329,7 L16.1670329,9 C16.1670329,9.36791994 15.8689361,9.66699219 15.5000382,9.66699219 C15.1321168,9.66699219 14.8330434,9.3688965 14.8330434,9 L14.8330434,7 C14.8330434,6.63208006 14.53397,6.33300781 14.1660487,6.33300781 L11.066,6.333 L11.2580786,6.39794925 Z M18.6379896,8.52905275 L21.3049919,11.1960449 C21.5650027,11.4560547 21.5650027,11.8779297 21.3049919,12.138916 L18.6379896,14.8059082 C18.4470709,14.9951172 18.160937,15.0520019 17.9109361,14.9489746 C17.6621558,14.8459473 17.5000458,14.6030274 17.5000458,14.3330078 L17.5000458,12.3330078 L14.8330434,12.3330078 C14.4651221,12.3330078 14.1660487,12.0339356 14.1660487,11.6660156 C14.1660487,11.2980957 14.4651221,11 14.8330434,11 L17.5000458,11 L17.5000458,9 C17.5000458,8.7299805 17.6621558,8.48706056 17.9109361,8.38403319 C18.1599604,8.28100587 18.4470709,8.33789062 18.6379896,8.52905275 Z" id="Combined-Shape" fill="#62636A"></path>
    </g>
</svg>