<?xml version="1.0" encoding="UTF-8"?>
<svg width="24px" height="24px" viewBox="0 0 24 24" version="1.1" xmlns="http://www.w3.org/2000/svg" xmlns:xlink="http://www.w3.org/1999/xlink">
    <title>Icon/medal</title>
    <g id="Icon/medal" stroke="none" stroke-width="1" fill="none" fill-rule="evenodd">
        <path d="M17.1428571,13.7040833 L17.1428571,22.3125 C17.1428571,22.57375 16.9924286,22.813 16.7547143,22.9285 C16.6572143,22.9770833 16.5513571,23 16.4464286,23 C16.296,23 16.1474286,22.9523333 16.023,22.8579167 L16.023,22.8579167 L12.5,20.1986667 L8.977,22.8579167 C8.76621429,23.0174167 8.48114286,23.044 8.24528571,22.9285 C8.00757143,22.813 7.85714286,22.57375 7.85714286,22.3125 L7.85714286,22.3125 L7.85714286,13.7040833 C9.16178571,14.6455 10.7635714,15.2083333 12.5,15.2083333 C14.2364286,15.2083333 15.8382143,14.6455 17.1428571,13.7040833 L17.1428571,13.7040833 Z M12.5,1 C16.0842857,1 19,3.87833333 19,7.41666667 C19,10.955 16.0842857,13.8333333 12.5,13.8333333 C8.91571429,13.8333333 6,10.955 6,7.41666667 C6,3.87833333 8.91571429,1 12.5,1 Z M12.5,3.75 C10.4515714,3.75 8.78571429,5.3945 8.78571429,7.41666667 C8.78571429,9.43883333 10.4515714,11.0833333 12.5,11.0833333 C14.5484286,11.0833333 16.2142857,9.43883333 16.2142857,7.41666667 C16.2142857,5.3945 14.5484286,3.75 12.5,3.75 Z" id="Combined-Shape" fill="#62636A"></path>
    </g>
</svg>