<?xml version="1.0" encoding="UTF-8"?>
<svg width="24px" height="24px" viewBox="0 0 24 24" version="1.1" xmlns="http://www.w3.org/2000/svg" xmlns:xlink="http://www.w3.org/1999/xlink">
    <title>Icon/mic</title>
    <g id="Icon/mic" stroke="none" stroke-width="1" fill="none" fill-rule="evenodd">
        <path d="M10.3648033,9.07148168 C10.6223069,9.07148168 10.8433485,9.24871582 10.9561389,9.54559636 C10.9592967,9.55385789 11.2861225,10.3986723 11.8778528,10.9814504 C12.4695339,11.5642285 13.3272543,11.8860881 13.3358393,11.8892469 C13.6035563,11.9879479 13.7767878,12.1711595 13.8109308,12.3919367 C13.8450738,12.612714 13.7349971,12.8384482 13.5090708,13.0112114 L13.5090708,13.0112114 L11.623803,14.4529457 L11.623803,20.785069 L14.1359804,20.785069 C14.4765719,20.785069 14.7526766,21.0570677 14.7526766,21.3925345 C14.7526766,21.7280012 14.4765226,22 14.135931,22 L14.135931,22 L7.87813452,22 C7.53754295,22 7.26138896,21.7280012 7.26138896,21.3925345 C7.26138896,21.0570677 7.53754295,20.785069 7.87813452,20.785069 L7.87813452,20.785069 L10.3903119,20.785069 L10.3903119,15.3962182 L7.58653722,17.5403284 C7.4034378,17.6803371 7.16853175,17.7574609 6.9250406,17.7574609 L6.9250406,17.7574609 L6.80019879,17.7507067 C6.55284145,17.7238981 6.32196212,17.6182853 6.1529245,17.4518328 L6.1529245,17.4518328 L5.30867383,16.6202855 C4.9352714,16.2524529 4.89496091,15.6190365 5.21882634,15.2081954 L5.21882634,15.2081954 L9.81693587,9.37482566 C9.97112226,9.17922176 10.1657178,9.07148168 10.3648033,9.07148168 Z M12.3789463,4.05828753 C12.4784643,4.05828753 12.6281608,4.08890379 12.7763278,4.23484131 L12.7763278,4.23484131 L18.7568848,10.1253614 C18.8707607,10.2375725 18.9253304,10.3811287 18.9104298,10.5296419 C18.8876349,10.7575143 18.7134166,10.9288682 18.6140959,10.9941829 C17.8148923,11.5194219 16.8819783,11.7970579 15.9162534,11.7970579 L15.9162534,11.7970579 L15.6572791,11.7904371 C14.4546599,11.7287697 13.3329382,11.2381022 12.4751586,10.3932294 C11.6841454,9.61411847 11.1867031,8.58235045 11.0746034,7.48803779 C10.9640333,6.40917905 11.2298753,5.31593552 11.8231352,4.40964558 C11.8923094,4.30399518 12.084882,4.05828753 12.3789463,4.05828753 Z M16.1305355,2 C17.4303391,2 18.6523341,2.49855909 19.5713837,3.40377989 C21.2426655,5.04991423 21.4749072,7.62794925 20.1235436,9.53378723 C20.0699114,9.60935594 19.9298855,9.73706949 19.7447632,9.73706949 L19.7447632,9.73706949 L19.6677001,9.72952173 C19.5926059,9.71449607 19.5236106,9.67724629 19.4651061,9.61965856 L19.4651061,9.61965856 L13.2605471,3.50845835 C13.1682326,3.41753291 13.1232348,3.30454433 13.1337935,3.19019502 C13.1458324,3.05937125 13.2248745,2.94346683 13.3685515,2.84573778 C14.1818662,2.29245819 15.1369337,2 16.1305355,2 Z" id="Combined-Shape" fill="#62636A"></path>
    </g>
</svg>