<?xml version="1.0" encoding="UTF-8"?>
<svg width="24px" height="24px" viewBox="0 0 24 24" version="1.1" xmlns="http://www.w3.org/2000/svg" xmlns:xlink="http://www.w3.org/1999/xlink">
    <title>Icon/money</title>
    <g id="Icon/money" stroke="none" stroke-width="1" fill="none" fill-rule="evenodd">
        <path d="M12,2 C6.47669611,2 2,6.47713129 2,12 C2,17.5228687 6.47669611,22 12,22 C17.5233039,22 22,17.5224335 22,12 C22,6.47756647 17.5228687,2 12,2 Z M12.6053353,16.4545019 L12.6053353,17.6120806 C12.6053353,17.7926803 12.4647722,17.9241046 12.2837373,17.9241046 L11.5121633,17.9241046 C11.3311284,17.9241046 11.1853431,17.7926803 11.1853431,17.6120806 L11.1853431,16.556334 C10.4751295,16.5241307 9.75882327,16.3726881 9.21658906,16.1664128 C8.9228426,16.0550067 8.75921494,15.7403716 8.83711215,15.4357457 L8.96287915,14.9457331 C9.00683233,14.773837 9.12171983,14.6302276 9.27881979,14.5497193 C9.43591975,14.4679055 9.62043605,14.4596371 9.78536925,14.5227382 C10.3019278,14.7224857 10.9120501,14.8678359 11.5635145,14.8678359 C12.3929675,14.8678359 12.9608773,14.5475434 12.9608773,13.9652726 C12.9608773,13.4121589 12.4952348,13.0627094 11.4177292,12.6984638 C9.8602202,12.1745072 8.79359415,11.4468863 8.79359415,10.0347274 C8.79359415,8.75399278 9.70007398,7.74959746 11.2497498,7.44366596 L11.2497498,6.3879194 C11.2497498,6.20731973 11.4042387,6.04543279 11.5852735,6.04543279 L12.3568476,6.04543279 C12.5378824,6.04543279 12.6706123,6.20731973 12.6706123,6.3879194 L12.6706123,7.34139867 C13.3481875,7.37055572 13.8373297,7.47108229 14.2463989,7.60424736 C14.5558118,7.7052091 14.7385874,8.02941816 14.6572088,8.34535881 L14.546673,8.78402019 C14.5035902,8.95112929 14.3930545,9.09299795 14.2416119,9.17481178 C14.0901693,9.25662561 13.9113103,9.27142173 13.7476827,9.21528352 C13.376039,9.0877758 12.8912485,8.97201793 12.2767744,8.97201793 C11.3306932,8.97201793 11.0247617,9.37978154 11.0247617,9.78754515 C11.0247617,10.2679838 11.5343575,10.5734801 12.771574,11.0395579 C14.5035902,11.6509857 15.199443,12.4517168 15.199443,13.7611732 C15.1990078,15.0567039 14.2838244,16.1638017 12.6053353,16.4545019 Z" id="Shape" fill="#62636A"></path>
    </g>
</svg>