<?xml version="1.0" encoding="UTF-8"?>
<svg width="24px" height="24px" viewBox="0 0 24 24" version="1.1" xmlns="http://www.w3.org/2000/svg" xmlns:xlink="http://www.w3.org/1999/xlink">
    <title>Icon/name</title>
    <g id="Icon/name" stroke="none" stroke-width="1" fill="none" fill-rule="evenodd">
        <path d="M19.7082825,5.7000467 L15.3332825,5.7000467 L15.3332825,5.48744357 C15.3332825,4.66722515 14.6791382,4 13.875,4 L10.125,4 C9.3208618,4 8.66671754,4.66722515 8.66671754,5.48744357 L8.66671754,5.7000467 L4.29171754,5.7000467 C3.02752687,5.7000467 2,6.74796525 2,8.03743579 L2,18.6624552 C2,19.9519258 3.02752687,21 4.29171754,21 L19.7082825,21 C20.9724731,21 22,19.9519258 22,18.6624552 L22,8.03743579 C22,6.74796525 20.9724731,5.7000467 19.7082825,5.7000467 Z M13.6674805,7.39993773 L10.3332825,7.39993773 L10.3332825,5.7000467 L13.6667175,5.7000467 L13.6674805,7.39993773 Z M8.25,9.94992995 C9.39837648,9.94992995 10.3332825,10.9036868 10.3332825,12.0750272 C10.3332825,13.246212 9.39837648,14.1999689 8.25,14.1999689 C7.10162352,14.1999689 6.16671754,13.246212 6.16671754,12.0750272 C6.16671754,10.9036868 7.10162352,9.94992995 8.25,9.94992995 Z M12,17.8125097 C12,18.1644099 11.7200012,18.4500078 11.375,18.4500078 L5.125,18.4500078 C4.77999879,18.4500078 4.5,18.1644099 4.5,17.8125097 L4.5,17.3874591 C4.5,16.0979886 5.52752687,15.0499144 6.79171754,15.0499144 L9.70828246,15.0499144 C10.9724731,15.0499144 12,16.0979886 12,17.3874591 L12,17.8125097 Z M18.875,18.4500078 L14.2917175,18.4500078 C13.9467163,18.4500078 13.6667175,18.1644099 13.6667175,17.8125097 C13.6667175,17.4606096 13.9467163,17.1750117 14.2917175,17.1750117 L18.875,17.1750117 C19.2200012,17.1750117 19.5,17.4606096 19.5,17.8125097 C19.5,18.1644099 19.2200012,18.4500078 18.875,18.4500078 Z M18.875,15.0499144 L14.2917175,15.0499144 C13.9467163,15.0499144 13.6667175,14.7643165 13.6667175,14.4124163 C13.6667175,14.0605162 13.9467163,13.7749183 14.2917175,13.7749183 L18.875,13.7749183 C19.2200012,13.7749183 19.5,14.0605162 19.5,14.4124163 C19.5,14.7643165 19.2200012,15.0499144 18.875,15.0499144 Z M18.875,11.6499766 L14.2917175,11.6499766 C13.9467163,11.6499766 13.6667175,11.3643788 13.6667175,11.0124786 C13.6667175,10.6605784 13.9467163,10.3749805 14.2917175,10.3749805 L18.875,10.3749805 C19.2200012,10.3749805 19.5,10.6605784 19.5,11.0124786 C19.5,11.3643788 19.2200012,11.6499766 18.875,11.6499766 Z" id="Shape" fill="#62636A"></path>
    </g>
</svg>