<?xml version="1.0" encoding="UTF-8"?>
<svg width="24px" height="24px" viewBox="0 0 24 24" version="1.1" xmlns="http://www.w3.org/2000/svg" xmlns:xlink="http://www.w3.org/1999/xlink">
    <title>Icon/noti</title>
    <g id="Icon/noti" stroke="none" stroke-width="1" fill="none" fill-rule="evenodd">
        <path d="M12,2 C17.5228475,2 22,6.4771525 22,12 C22,17.5228475 17.5228475,22 12,22 C6.4771525,22 2,17.5228475 2,12 C2,6.4771525 6.4771525,2 12,2 Z M12,4 C7.581722,4 4,7.581722 4,12 C4,16.418278 7.581722,20 12,20 C16.418278,20 20,16.418278 20,12 C20,7.581722 16.418278,4 12,4 Z M11.992869,11 C12.5451538,11 12.992869,11.4485301 12.992869,12.0029293 L12.992869,16.9970707 C12.992869,17.5509732 12.5490042,18 11.992869,18 C11.4405843,18 10.992869,17.5514699 10.992869,16.9970707 L10.992869,12.0029293 C10.992869,11.4490268 11.4367339,11 11.992869,11 Z M11.992869,8 C12.5451538,8 12.992869,8.44771525 12.992869,9 C12.992869,9.55228475 12.5451538,10 11.992869,10 C11.4405843,10 10.992869,9.55228475 10.992869,9 C10.992869,8.44771525 11.4405843,8 11.992869,8 Z" id="Combined-Shape" fill="#171818"></path>
    </g>
</svg>