<?xml version="1.0" encoding="UTF-8"?>
<svg width="24px" height="24px" viewBox="0 0 24 24" version="1.1" xmlns="http://www.w3.org/2000/svg" xmlns:xlink="http://www.w3.org/1999/xlink">
    <title>Icon/phone</title>
    <g id="Icon/phone" stroke="none" stroke-width="1" fill="none" fill-rule="evenodd">
        <path d="M18.4245902,1.61590909 L18.4245902,1.61363636 C18.0584057,1.22107955 17.5606762,1.00022727 17.0414754,1 L7.95639344,1 C6.87734016,1.00375 6.00351639,1.935625 6,3.08636364 L6,20.9113636 C6.00021311,21.4650568 6.20730738,21.9958523 6.57540984,22.3863636 C6.94106148,22.7783523 7.43793852,22.9991477 7.95639344,23 L17.0436066,23 C17.5620615,22.9991477 18.0589385,22.7783523 18.4245902,22.3863636 C18.7921598,21.9964205 18.9992008,21.4665341 19,20.9136364 L19,3.08863636 C18.9992008,2.53573864 18.7921598,2.00585227 18.4245902,1.61590909 Z M12.5,21.5840909 L12.5,21.5840909 C12.2080861,21.5840909 11.9714754,21.3317614 11.9714754,21.0204545 C11.9714754,20.7091477 12.2080861,20.4568182 12.5,20.4568182 C12.7919139,20.4568182 13.0285246,20.7091477 13.0285246,21.0204545 C13.0285246,21.3317614 12.7919139,21.5840909 12.5,21.5840909 Z M17.4463934,18.0454545 C17.4463934,18.7985795 16.8739139,19.4090909 16.1677049,19.4090909 L8.83016393,19.4090909 C8.12395492,19.4090909 7.55147541,18.7985795 7.55147541,18.0454545 L7.55147541,4.76136364 C7.55147541,4.00823864 8.12395492,3.39772727 8.83016393,3.39772727 L16.1698361,3.39772727 C16.8760451,3.39772727 17.4485246,4.00823864 17.4485246,4.76136364 L17.4463934,18.0454545 Z" id="Shape" fill="#62636A"></path>
    </g>
</svg>