<?xml version="1.0" encoding="UTF-8"?>
<svg width="24px" height="24px" viewBox="0 0 24 24" version="1.1" xmlns="http://www.w3.org/2000/svg" xmlns:xlink="http://www.w3.org/1999/xlink">
    <title>Icon/search</title>
    <g id="Icon/search" stroke="none" stroke-width="1" fill="none" fill-rule="evenodd">
        <path d="M10.6883312,1 C16.0306333,1 20.3766624,5.34633203 20.3766624,10.6883359 C20.3766624,13.0385034 19.5355909,15.1958656 18.1386308,16.8752394 L22.7379659,21.4734063 C23.0873447,21.8224844 23.0873447,22.3888984 22.7379659,22.7379766 C22.5632551,22.9126445 22.3343177,23 22.1056811,23 C21.8767437,23 21.6480641,22.9126445 21.4733963,22.7379766 L21.4733963,22.7379766 L16.8752317,18.1386391 C15.1958587,19.5355999 13.0384975,20.3766719 10.6883312,20.3766719 C5.34632991,20.3766719 1,16.0306406 1,10.6883359 C1,5.34633203 5.34632991,1 10.6883312,1 Z M10.6883312,2.78861719 C6.33246224,2.78861719 2.78861631,6.33250781 2.78861631,10.6883789 C2.78861631,15.04425 6.33246224,18.5880977 10.6883312,18.5880977 C15.0442002,18.5880977 18.5880461,15.044207 18.5880461,10.6883359 C18.5880461,6.33246484 15.0442002,2.78861719 10.6883312,2.78861719 Z" id="Combined-Shape" fill="#000000"></path>
    </g>
</svg>