<?xml version="1.0" encoding="UTF-8"?>
<svg width="24px" height="24px" viewBox="0 0 24 24" version="1.1" xmlns="http://www.w3.org/2000/svg" xmlns:xlink="http://www.w3.org/1999/xlink">
    <title>Icon/send</title>
    <g id="Icon/send" stroke="none" stroke-width="1" fill="none" fill-rule="evenodd">
        <path d="M21.2717448,3.00071174 C21.2821326,3.00168754 21.290815,3.0035903 21.2991627,3.0059399 L21.3179586,3.01177799 L21.3179586,3.01177799 L21.3315749,3.01590772 L21.3315749,3.01590772 L21.3472594,3.01980747 L21.3472594,3.01980747 C21.7888413,3.09813924 22.070297,3.51539617 21.9846528,3.94260636 L21.9846528,3.94260636 L21.9844635,3.94732046 L21.9861342,3.94736483 C21.9814315,3.98607605 21.6790283,4.80892125 15.611678,21.4864126 C15.4675132,21.8826859 15.033384,22.0937099 14.631469,21.9597123 C12.2714024,21.172365 10.5279376,20.0311942 9.25783847,18.9901131 C8.87394403,18.6754713 8.82114554,18.1082098 9.14016583,17.7280177 L9.14016583,17.7280177 L15.6685265,9.94772648 C16.0085398,9.54253974 15.4636861,8.9979331 15.0583156,9.3377923 L15.0583156,9.3377923 L7.27126274,15.8659042 C6.88855728,16.1867482 6.3186234,16.1294798 6.00354162,15.7421198 C4.71163203,14.153758 3.69478734,12.3347258 3.04084404,10.3742682 C2.90712006,9.97342669 3.11712504,9.53901153 3.5143956,9.39461501 C15.8705399,4.90347311 19.5524273,3.54039792 20.717524,3.14861336 L20.8166799,3.11561229 C21.0172381,3.04964734 21.1273912,3.01882996 21.1941939,3.0066784 L21.2221191,3.00233535 C21.2305156,3.00128946 21.2380575,3.00062534 21.244916,3.00028298 Z M7.9853614,19.8759902 C8.29011384,19.5714131 8.78417544,19.5714131 9.08885358,19.8759902 C9.39353171,20.1805302 9.39353171,20.6743678 9.08885358,20.9789449 L9.08885358,20.9789449 L8.29620741,21.7712317 C7.99149212,22.0758089 7.49743052,22.0758089 7.19271523,21.7712317 C6.8880371,21.4666917 6.8880371,20.9728541 7.19271523,20.668277 L7.19271523,20.668277 Z M5.60738574,18.2913795 C5.91213818,17.9868024 6.40619978,17.9868024 6.71091507,18.2913795 C7.0155932,18.5959195 7.0155932,19.0897571 6.71091507,19.3943342 L6.71091507,19.3943342 L4.33282794,21.7713431 C4.02811265,22.0759203 3.53405105,22.0759203 3.22933576,21.7713431 C2.92465763,21.4668032 2.92465763,20.9729656 3.22933576,20.6683884 L3.22933576,20.6683884 Z M4.02216771,15.914482 C4.32684584,15.609942 4.82087029,15.6099049 5.12562273,15.914482 C5.43033802,16.2190591 5.43030086,16.7128967 5.12558558,17.0174739 L5.12558558,17.0174739 L4.33290225,17.8097606 C4.18056318,17.9619935 3.98085038,18.0381656 3.78117474,18.0381656 C3.09230492,18.0381656 2.73638884,17.1996036 3.22944723,16.7067688 L3.22944723,16.7067688 Z" id="Combined-Shape" fill="#171818"></path>
    </g>
</svg>