<?xml version="1.0" encoding="UTF-8"?>
<svg width="24px" height="24px" viewBox="0 0 24 24" version="1.1" xmlns="http://www.w3.org/2000/svg" xmlns:xlink="http://www.w3.org/1999/xlink">
    <title>Icon/star</title>
    <g id="Icon/star" stroke="none" stroke-width="1" fill="none" fill-rule="evenodd">
        <path d="M22.9698403,9.594521 C22.897489,9.37212588 22.7050035,9.21004893 22.4732662,9.17647059 L15.9631711,8.23197723 L13.0516894,2.34237628 C12.9480844,2.13271637 12.7341888,2 12.5000316,2 C12.2658334,2 12.0519789,2.13271637 11.9483328,2.34237628 L9.03672811,8.23197723 L2.526756,9.17647059 C2.29505973,9.21004893 2.1024922,9.37212588 2.03014094,9.59448005 C1.95774867,9.81687517 2.01812342,10.0609734 2.18583559,10.2241559 L6.89637791,14.808583 L5.78453111,21.2819557 C5.74491018,21.5124178 5.83981993,21.745255 6.02927029,21.8827215 C6.13644366,21.9604431 6.26338648,22 6.39094453,22 C6.48888942,22 6.58716243,21.9766999 6.67715033,21.9294445 L12.5,18.8730779 L18.3225848,21.9294036 C18.5299179,22.0382056 18.7810555,22.0201061 18.9705059,21.8826805 C19.1599562,21.745255 19.254907,21.5123359 19.2153271,21.2818738 L18.1031111,14.808583 L22.8141867,10.224115 C22.9818578,10.0609734 23.0422736,9.81687517 22.9698403,9.594521 Z" id="Path" fill="#62636A"></path>
    </g>
</svg>