<?xml version="1.0" encoding="UTF-8"?>
<svg width="24px" height="24px" viewBox="0 0 24 24" version="1.1" xmlns="http://www.w3.org/2000/svg" xmlns:xlink="http://www.w3.org/1999/xlink">
    <title>Icon/tag</title>
    <g id="Icon/tag" stroke="none" stroke-width="1" fill="none" fill-rule="evenodd">
        <path d="M13.2280036,3 L19.6910369,3.01575263 C20.4029008,3.01725288 20.9827435,3.59709952 20.9842437,4.30896816 L20.9999981,10.7727955 C21.0007463,11.3166361 20.7787108,11.8469745 20.3908988,12.2272879 L12.0263115,20.4224037 C11.6332487,20.807968 11.1194165,21 10.6055844,21 C10.0850011,21 9.56441792,20.8027171 9.16985483,20.4081514 L3.59196305,14.8302217 C2.80808772,14.0463411 2.80208676,12.7651275 3.57771077,11.9737456 L11.772771,3.60910152 C12.1523317,3.22128688 12.6811662,3 13.224253,3 L13.2280036,3 Z M16.5756073,5.60196653 C15.5814949,5.60196653 14.7756075,6.40785937 14.7756075,7.40197857 C14.7756075,8.39609776 15.5814949,9.2019906 16.5756073,9.2019906 C17.5697198,9.2019906 18.3756072,8.39609776 18.3756072,7.40197857 C18.3756072,6.40785937 17.5697198,5.60196653 16.5756073,5.60196653 Z" id="Combined-Shape" fill="#62636A"></path>
    </g>
</svg>