<?xml version="1.0" encoding="UTF-8"?>
<svg width="24px" height="24px" viewBox="0 0 24 24" version="1.1" xmlns="http://www.w3.org/2000/svg" xmlns:xlink="http://www.w3.org/1999/xlink">
    <title>Icon/ticket</title>
    <g id="Icon/ticket" stroke="none" stroke-width="1" fill="none" fill-rule="evenodd">
        <path d="M22,5 L22,6.3 C21.3043478,6.3 20.6956522,6.88201 20.6956522,7.6 C20.6956522,8.31799 21.3043478,8.9 22,8.9 L22,8.9 L22,10.2 C21.3043478,10.2 20.6956522,10.78201 20.6956522,11.5 C20.6956522,12.21799 21.3043478,12.8 22,12.8 L22,12.8 L22,14.1 C21.3043478,14.1 20.6956522,14.68201 20.6956522,15.4 C20.6956522,16.11799 21.3043478,16.7 22,16.7 L22,16.7 L22,18 L16.7826087,18 L16.7826087,5 L22,5 Z M15.4782609,5 L15.4782609,18 L2,18 L2,16.7 C2.73913043,16.7 3.30434783,16.11799 3.30434783,15.4 C3.30434783,14.68201 2.73913043,14.1 2,14.1 L2,14.1 L2,12.8 C2.73913043,12.8 3.30434783,12.21799 3.30434783,11.5 C3.30434783,10.78201 2.73913043,10.2 2,10.2 L2,10.2 L2,8.9 C2.73913043,8.9 3.30434783,8.31799 3.30434783,7.6 C3.30434783,6.88201 2.73913043,6.3 2,6.3 L2,6.3 L2,5 L15.4782609,5 Z" id="Combined-Shape" fill="#62636A" transform="translate(12.000000, 11.500000) rotate(-30.000000) translate(-12.000000, -11.500000) "></path>
    </g>
</svg>