<?xml version="1.0" encoding="UTF-8"?>
<svg width="24px" height="24px" viewBox="0 0 24 24" version="1.1" xmlns="http://www.w3.org/2000/svg" xmlns:xlink="http://www.w3.org/1999/xlink">
    <title>Icon/time</title>
    <g id="Icon/time" stroke="none" stroke-width="1" fill="none" fill-rule="evenodd">
        <path d="M12,2 C17.5142212,2 22,6.48577883 22,12 C22,17.5142212 17.5142212,22 12,22 C6.48577883,22 2,17.5142212 2,12 C2,6.48577883 6.48577883,2 12,2 Z M12,3.66671754 C7.40496828,3.66671754 3.66671754,7.40496828 3.66671754,12 C3.66671754,16.5950317 7.40496828,20.3332825 12,20.3332825 C16.5950317,20.3332825 20.3332825,16.5950317 20.3332825,12 C20.3332825,7.40496828 16.5950317,3.66671754 12,3.66671754 Z M11.647522,5.26919555 C11.957428,5.26919555 12.2082825,5.52081297 12.2082825,5.82995605 L12.2082825,5.82995605 L12.2082825,18.1700439 C12.2082825,18.47995 11.957428,18.7308045 11.647522,18.7308045 C7.93582152,18.7308045 4.91671754,15.7117004 4.91671754,12 C4.91671754,8.28829957 7.93582152,5.26919555 11.647522,5.26919555 Z" id="Combined-Shape" fill="#171818"></path>
    </g>
</svg>