<?xml version="1.0" encoding="UTF-8"?>
<svg width="48px" height="48px" viewBox="0 0 48 48" version="1.1" xmlns="http://www.w3.org/2000/svg" xmlns:xlink="http://www.w3.org/1999/xlink">
    <title>witness_03</title>
    <g id="Symbols" stroke="none" stroke-width="1" fill="none" fill-rule="evenodd">
        <g id="Desktop/Card/4" transform="translate(-24.000000, -21.000000)">
            <g id="witness_03" transform="translate(24.000000, 21.000000)">
                <circle id="Oval" fill="#47AAD3" cx="24" cy="24" r="24"></circle>
                <path d="M24.064088,34 L24.064088,33.9997314 L23.9363305,33.9997314 L15,33.9997314 C15,27.7076328 20.7396034,27.70911 22.0132732,26.0638395 L22.1590228,25.3135844 C20.3695809,24.4404576 19.1063716,22.3353924 19.1063716,19.8733953 C19.1063716,16.6298544 21.2977754,14 24.0003487,14 C26.702922,14 28.8943258,16.6298544 28.8943258,19.8733953 C28.8943258,22.3144438 27.6535717,24.406349 25.8879797,25.2933072 L26.0539529,26.1458882 C27.4513355,27.7113928 33,27.8134501 33,34 L24.064088,34 L24.064088,34 Z" id="Path" fill="#FFFFFF"></path>
            </g>
        </g>
    </g>
</svg>