<?xml version="1.0" encoding="UTF-8"?>
<svg width="60px" height="60px" viewBox="0 0 60 60" version="1.1" xmlns="http://www.w3.org/2000/svg" xmlns:xlink="http://www.w3.org/1999/xlink">
    <!-- Generator: Sketch 58 (84663) - https://sketch.com -->
    <title>Button/btn_oval</title>
    <desc>Created with Sketch.</desc>
    <g id="Button/btn_oval" stroke="none" stroke-width="1" fill="none" fill-rule="evenodd">
        <rect id="Oval" fill="#5FC68B" x="0" y="0" width="60" height="60" rx="30"></rect>
        <g id="ic/32/direction_r" fill="#FFFFFF">
            <path d="M31.4306836,17.7777869 C30.9320867,18.2609191 30.91955,19.0567677 31.4026822,19.5553646 C31.4118675,19.564844 31.4212016,19.5741781 31.430681,19.5833635 L41.8305615,29.6607342 L41.8305615,29.6607342 L14.4017658,29.6607342 C13.6966275,29.6607342 13.125,30.2323617 13.125,30.9375 C13.125,31.6426383 13.6966275,32.2142658 14.4017658,32.2142658 L41.8305615,32.2142658 L41.8305615,32.2142658 L31.430681,42.2916365 C30.9320855,42.7747701 30.9195511,43.5706188 31.4026847,44.0692143 C31.4118701,44.0786936 31.4212042,44.0880277 31.4306836,44.0972131 C31.9499186,44.6003432 32.7748177,44.6003432 33.2940527,44.0972131 L45.4853547,32.2840433 C46.22903,31.5634342 46.2477289,30.3763972 45.5271198,29.6327218 C45.5134183,29.6185817 45.4994948,29.6046582 45.4853547,29.5909567 L33.2940527,17.7777869 C32.7748177,17.2746568 31.9499186,17.2746568 31.4306836,17.7777869 Z" id="Path"></path>
        </g>
    </g>
</svg>