<?xml version="1.0" encoding="UTF-8"?>
<svg width="256px" height="57px" viewBox="0 0 256 57" version="1.1" xmlns="http://www.w3.org/2000/svg" xmlns:xlink="http://www.w3.org/1999/xlink">
    <!-- Generator: Sketch 58 (84663) - https://sketch.com -->
    <title>header/logo_etime</title>
    <desc>Created with Sketch.</desc>
    <g id="header/logo_etime" stroke="none" stroke-width="1" fill="none" fill-rule="evenodd">
        <path d="M51.4546589,11.55 L56.7,15.75 L52.2125,15.75 C51.5142785,24.9775381 49.4062985,32.6832864 45.8885599,38.8672452 C48.3314974,42.9213451 51.9730974,46.1048514 56.8118797,48.4181773 C54.6710068,49.2432966 52.8709791,50.8582858 51.4117968,53.2631449 C47.8842927,50.6714149 45.3369807,46.9744955 43.7698608,42.1723868 C39.8417396,47.6275846 34.5824345,51.6468322 27.9926588,54.229879 C40.1283862,45.2763896 46.5508845,32.6617546 47.2601536,16.3859738 L47.2848966,15.75 L48.3,15.75 L51.4546589,11.55 Z M23.8315879,2.865 L29.4985623,4.86612044 L28.35,6.31117648 L28.349,18.8991429 L28.35,18.9 L28.35,19.95 L20.827,19.9491429 L20.8273489,20.9802074 L16.2660044,22.4973502 L16.266,17.7451429 L14.7886285,18.4086768 C12.9754603,21.2941549 11.14976,23.8285905 9.31152772,26.0119835 L12.1049335,27.3580116 L10.9353842,28.4797573 L10.9353842,51.7701578 L6.05246677,53.2873006 L6.05275586,29.5023681 C4.04981308,31.4157964 2.0322278,32.9190645 2.7533531e-13,34.0121725 C4.33703475,29.1589945 7.7975442,22.5694608 10.3815283,14.2435714 L16.266,17.6151429 L16.2660044,6.65785714 L21.9329788,8.65897758 L20.8273489,10.1040336 L20.827,18.8991429 L23.831,18.8991429 L23.8315879,2.865 Z M83.9779764,17.6571429 L90.5894465,19.9917834 L89.2738848,21.6776821 L89.2738848,51.9184215 L89.2498337,51.9182303 L89.25,52.5 L60.9,52.5 L60.9,51.45 L70.7378337,51.4492303 L70.7382053,27.5185714 L77.3496754,29.8532119 L76.0597738,31.5391107 L76.0588337,51.4492303 L83.9778337,51.4492303 L83.9779764,17.6571429 Z M106.054659,48.3 L111.3,52.5 L102.9,52.5 L106.054659,48.3 Z M40.7184289,2.80816725 L47.3856102,4.69618212 L46.0022494,5.78337713 C42.9843906,15.7123601 39.6047434,22.7179864 35.863308,26.8002559 L37.8,28.35 L32.153,28.3491429 L32.1530624,40.098236 C34.1371412,39.277723 36.1724323,38.2938277 38.2589356,37.1465501 C36.0347117,40.7159961 32.1637914,44.062919 26.6461746,47.1873187 L25.7887701,48.7237227 L23.1757819,42.7565369 C24.5020045,42.5333227 25.8553292,42.223645 27.2357558,41.8275039 L27.236,28.3491429 L23.3343238,28.3496755 C23.1706633,32.0600325 22.821579,35.426647 22.2870711,38.449519 C21.4153495,43.3794786 17.8952106,47.6990392 11.7266544,51.4082007 C15.9775345,47.3920475 18.1748403,39.882889 18.3185718,28.880725 L18.323,28.3491429 L14.7,28.35 L14.7,27.3 L32.288,27.2991429 L33.8659942,25.2 L35.4316951,26.4530196 C38.0473172,20.7750127 39.8095618,12.8933952 40.7184289,2.80816725 Z M99.7546589,30.45 L105,34.65 L96.6,34.65 L99.7546589,30.45 Z M82.4777758,1.34323033 L89.2790267,4.32330955 L87.2299034,5.46107297 L87.2238811,5.47296733 C92.4418203,14.2057407 101.274992,20.0872411 113.723396,23.1174686 C110.870664,24.2003836 109.153508,26.2741085 108.571928,29.3386432 C97.7460736,23.0569702 90.4618307,15.4039162 86.7191994,6.37948126 C80.3071485,17.7227689 71.1960598,25.2365972 59.3878337,28.9208544 C70.3875978,21.5654086 78.0842452,12.3728672 82.4777758,1.34323033 Z M31.3971713,6.65785714 L37.0641457,8.65897758 L35.9585158,10.1040336 L35.9585158,20.9802074 L31.3971713,22.4973502 L31.3971713,6.65785714 Z M9.9929056,1.72714286 L16.005291,5.17201277 L14.4000057,5.89224819 C9.2451516,12.0026127 4.69733581,15.9702659 0.756558346,17.795208 C5.09888802,12.8257256 8.17767044,7.46970389 9.9929056,1.72714286 Z" id="Combined-Shape" fill="#5C564B"></path>
        <path d="M250.052692,50.9619432 C254.040878,54.7011172 248.360225,57.7594544 245.244779,53.8202907 C242.736134,50.6483662 239.039477,48.5333421 234.154808,47.4752185 C241.444708,46.697598 246.744003,47.8598396 250.052692,50.9619432 Z M185.239691,24.105 L191.851161,26.4396405 L190.535599,28.1255392 L190.535157,31.4991429 L192.938157,31.4991429 L195.304659,28.35 L200.55,32.55 L190.535157,32.5491429 L190.535599,49.4939272 C190.535599,52.5716727 188.315562,54.4629157 183.875488,55.1676563 C182.989953,51.7580812 180.446175,49.8753419 176.244154,49.5194383 L175.899815,49.4939272 L184.483691,49.4939272 C184.866424,49.4939272 185.18273,49.2095161 185.232789,48.8405119 L185.239691,48.7379272 L185.239157,32.5491429 L165.9,32.55 L165.9,31.5 L185.239157,31.4991429 L185.239691,24.105 Z M220.1703,46.1035714 L225.502041,50.5273985 L222.616185,50.812974 C218.215488,53.3683374 212.226437,54.6460191 204.649032,54.6460191 C210.456632,53.0143004 215.630388,50.1668178 220.1703,46.1035714 Z M126.230225,12.5586511 C126.207481,12.6576497 126.135424,12.7346438 126.021352,12.7915437 C126.550703,13.7878327 126.920674,15.0718448 127.131018,16.6429783 C127.396879,18.628788 127.396879,20.6061285 127.131018,22.575 L127.186825,22.1068422 C127.609697,22.0689474 128.040659,22.05 128.47971,22.05 C130.194211,22.05 131.809775,22.2634979 133.326449,22.6905 C134.843124,23.1175021 136.161951,23.7686706 137.282971,24.644025 C138.403991,25.5193794 139.31618,26.6188934 140.019565,27.9426 C140.72295,29.2663066 141.140579,30.824841 141.272464,32.61825 L120.105072,32.61825 C120.105072,32.9598517 120.083092,33.3548228 120.03913,33.803175 C119.995169,34.2515272 119.973188,34.7105477 119.973188,35.18025 C119.973188,36.973659 120.236954,38.6923168 120.764493,40.336275 C121.292032,41.9802332 122.061348,43.4320187 123.072464,44.691675 C124.08358,45.9513313 125.358446,46.9440964 126.897101,47.67 C128.435756,48.3959036 130.216173,48.75885 132.238406,48.75885 C134.436484,48.75885 136.359774,48.2144304 138.008333,47.125575 C139.656892,46.0367196 140.744925,44.7023579 141.272464,43.12245 L141.8,43.25055 C141.624154,44.1899547 141.228505,45.2467691 140.613043,46.421025 C139.997581,47.5952809 139.162324,48.6734451 138.107246,49.65555 C137.052169,50.6376549 135.788292,51.4489468 134.31558,52.08945 C132.842867,52.7299532 131.205323,53.0502 129.402899,53.0502 C127.160858,53.0502 125.116676,52.6445541 123.27029,51.83325 C121.423904,51.0219459 119.852301,49.8797324 118.555435,48.406575 C117.258568,46.9334176 116.258458,45.2040849 115.555072,43.218525 C114.851687,41.2329651 114.5,39.1300111 114.5,36.9096 C114.5,35.116191 114.829707,33.3334839 115.48913,31.561425 C116.148554,29.7893661 117.082723,28.198807 118.291667,26.7897 C119.50061,25.380593 120.9733,24.2383794 122.709783,23.363025 C123.871779,22.777267 125.117424,22.3874969 126.446736,22.1937105 C126.753974,19.7399866 126.824264,17.9366396 126.657529,16.7825852 C126.500727,15.6972856 126.042057,14.4091732 125.281518,12.9182479 C122.179155,12.9545607 112.866574,9.56815334 117.607854,8.06558707 C123.175994,6.30097953 126.741077,10.3351048 126.230225,12.5586511 Z M160.187058,4.2 L165.9,8.4 L164.551157,8.39914286 L164.55144,45.1120082 L159.255532,46.6291511 L159.255157,25.8291429 L153.202157,25.8291429 L153.203065,46.0971429 L147.907157,47.6142857 L147.907157,5.89928571 L153.203065,7.41642857 L153.202157,24.7791429 L159.255157,24.7791429 L159.255157,8.39914286 L157.5,8.4 L160.187058,4.2 Z M228.8589,2.10642857 L235.14696,3.34734846 C234.606262,3.88238578 234.128118,4.38269845 233.712528,4.84828648 C236.422359,15.0058468 242.556004,17.2140564 246.961996,18.6860109 C251.286396,20.130707 252.564562,16.095059 253.805701,13.410184 L253.874237,13.2647598 C251.183329,21.2923254 256.570677,22.043152 255.964967,22.7460163 C255.49919,23.286502 252.280006,25.4194994 246.25974,23.841474 L246.259742,44.5753167 L240.963833,46.0924595 L240.962916,37.7991429 L217.131916,37.7991429 L217.132245,44.5753167 L211.836337,46.0924595 L211.836337,21.0707143 L217.132245,22.5878571 L217.131916,30.4491429 L240.962916,30.4491429 L240.963759,21.7486168 C240.669401,21.5960707 240.370694,21.4356472 240.067637,21.2670243 C236.424712,19.2400797 233.657445,16.4210174 231.765836,12.8098374 L220.5,12.81 L220.5,11.76 L231.250663,11.7597003 C230.048903,9.13956055 229.271993,6.135103 228.919932,2.74632767 L228.8589,2.10642857 Z M169.151924,35.4847242 C174.206682,35.4913736 178.425723,37.4281146 178.909446,40.7316797 C179.612455,45.5328637 174.578786,45.526242 174.106691,41.8633231 C173.74997,39.0955837 172.936575,36.7304614 169.151924,35.4847242 Z M240.962916,31.4991429 L217.131916,31.4991429 L217.131916,36.7491429 L240.962916,36.7491429 L240.962916,31.4991429 Z M128.545652,23.13885 C127.314728,23.13885 126.204715,23.4911215 125.21558,24.195675 C124.226444,24.9002285 123.369207,25.7221953 122.643841,26.6616 C121.918475,27.6010047 121.357973,28.5510702 120.962319,29.511825 C120.566665,30.4725798 120.32488,31.2091474 120.236957,31.72155 L122.94058,31.72155 C123.731888,31.72155 124.512194,31.7108751 125.281522,31.689525 C126.050849,31.6681749 126.853136,31.6468251 127.688406,31.625475 C128.523676,31.6041249 129.446855,31.59345 130.457971,31.59345 C131.117395,31.59345 131.732847,31.5721002 132.304348,31.5294 C132.875848,31.4866998 133.381399,31.3799509 133.821014,31.20915 C134.128745,30.8675483 134.35954,30.5473015 134.513406,30.2484 C134.667271,29.9494985 134.744203,29.501153 134.744203,28.90335 C134.744203,27.3234421 134.183701,25.9677307 133.062681,24.836175 C131.941661,23.7046193 130.436,23.13885 128.545652,23.13885 Z M177.412932,1.72714286 L184.024402,4.06178337 L182.70884,5.74768209 L182.70884,23.1 L165.9,23.1 L165.9,22.05 L177.412157,22.0491429 L177.412157,13.6491429 L168,13.65 L168,12.6 L177.412157,12.5991429 L177.412932,1.72714286 Z M194.254659,17.85 L199.5,22.05 L191.1,22.05 L194.254659,17.85 Z M215.826646,1.72714286 L221.839032,5.17201277 L220.233747,5.89224819 C218.690394,7.52984823 217.153563,9.01145563 215.623254,10.3370704 L217.888804,11.4280116 L216.753966,12.5497573 L216.753966,19.1163187 L211.944931,20.6334616 L211.870988,13.2840228 C208.93495,15.3508436 206.023259,16.8353423 203.135916,17.7375188 C209.138019,13.1983133 213.368263,7.86152134 215.826646,1.72714286 Z M134.150989,11.8620291 C138.389767,13.6990645 127.891834,18.1598529 127.641999,16.4555183 C127.392163,14.7511837 129.912211,10.0249937 134.150989,11.8620291 Z M238.042128,3.65074455 C243.096885,3.65739398 247.061226,5.38959598 248.078913,8.96313538 C249.096601,12.5366748 247.284923,13.2285154 246.350159,13.3469276 C245.415394,13.4653398 243.75534,12.8336031 243.750982,9.52222649 C243.747198,6.64672914 241.826779,4.89648179 238.042128,3.65074455 Z M192.154659,8.4 L197.4,12.6 L189,12.6 L192.154659,8.4 Z" id="Combined-Shape" fill="#5FC68B"></path>
    </g>
</svg>